<?xml version="1.0" encoding="utf-8"?>
<!-- Generator: Adobe Illustrator 18.0.0, SVG Export Plug-In . SVG Version: 6.00 Build 0)  -->
<!DOCTYPE svg PUBLIC "-//W3C//DTD SVG 1.1//EN" "http://www.w3.org/Graphics/SVG/1.1/DTD/svg11.dtd">
<svg version="1.1" id="图层_1" xmlns="http://www.w3.org/2000/svg" xmlns:xlink="http://www.w3.org/1999/xlink" x="0px" y="0px"
	 viewBox="0 0 595.3 841.9" enable-background="new 0 0 595.3 841.9" xml:space="preserve">
<g>
	<path d="M38.2,515.7c1.7-2,2.3-4.4,1.8-7c-0.6-2.9,0.5-5.7,0-8.6c-0.3-1.6-0.7-2.3-2.2-1.3c-0.4,0.3-0.7,0.9-1.2,0.3
		c-0.2-0.2-0.3-0.8-0.2-1.1c1.4-5.1,0.7-10.5,2-15.7c0.2-0.7-0.6-3.1,1.7-1.3c0.4,0.3,0.8,0,0.9-0.4c0.1-0.7,0.5-1.5-0.3-1.9
		c-1.5-0.6-0.9-1.8-0.9-2.8c0.3-6.2,2.3-12.1,2.3-18.4c0-1.6-0.1-3.2-0.2-4.8c-0.3-6.2,0.7-12.3,0.3-18.5c0-0.7-0.9-4.1,2.5-2.3
		c0.5,0.3,1.1-1.2,1.2-2.1c0.3-3.8,0.1-7.6-0.1-11.3c0-0.5,0-1-0.7-1.1c-1.1-0.1-2.6,0-2.7-1.4c-0.1-2.1-0.8-4.6,0.6-6.4
		c1.7-2,1.7-4.1,1.4-6.4c-0.1-1.2,0.5-2.7,0.3-3.4c-0.8-2.5,0.3-4.8,0.1-6.9c-0.3-3-0.4-4.7,2.4-6.3c1.2-0.7,1.7-2.4,2.5-3.7
		c-2.7,0.1-0.7-2.4-1.8-3.2c-2.3-1.8-0.4-3.3,0.9-4c1.1-0.6,1-1.3,0.7-1.8c-2.7-4.6,0.3-8.6,1.2-12.8c0.3-1.3,1.6,0.1,2.3-0.6
		c1.1-1,1.6-7.6,0.7-8.8c-1.9-2.4-0.8-5.3,0.1-7.2c1.2-2.5,0.9-5,1.5-7.4c0.3-1.7-0.9-4.2,2.1-4.8c0.1,0,0.2-0.6,0.1-0.8
		c-1.1-4.2-0.2-7.7,2.5-11.2c1.4-1.9,1.8-4.6,2.6-7c1.5-4.9,3.1-9.8,5-14.6c1.5-3.9,2.2-8.1,3.8-11.9c1.8-4.1,2.2-8.9,5.6-12.3
		c1-1,1-2.4,1.5-3.6c3.4-9.6,7.1-19.1,12.5-27.7c4.2-6.7,7.4-14,12.4-20c7-8.4,12.3-17.8,19-26.3c0.8-1,1.5-2,1.5-3.2
		c0-1.7,1-2.9,2.1-3.8c3.4-2.7,5.6-6.3,8.3-9.6c3-3.7,5.1-8.5,9.5-10.8c3.5-1.8,5.4-5.6,9.5-6.4c1.7-0.4,3.6-1.6,3.8-4.1
		c0.1-1.7,1.6-2.5,3.1-2.8c1.3-0.2,2.3-1,3.4-1.7c4.2-2.4,6.9-7,11.9-8.3c1.1-0.3,2-0.8,3.1-1.1c2.2-0.6,2.8-1.6,0.5-3.5
		c3.7,0.2,5.8-2.6,8.7-3.6c1.5-0.5,2.6-1.2,4.4-0.3c2.4,1.1,4.7-1,7.3-1.7c-1.7-1.2-3.2-1.1-5.1-0.1c0.3-1.6,1.4-2.2,2.1-2
		c6.1,1.4,10.4-2.7,15.2-5.1c0.1,0,0.2-0.1,0.2-0.2c1.2-1.1,2.8-1,4.2-1.4c1-0.3,2.6,0.4,2.2-1.7c1.4-0.2,2.7-0.6,4.1-0.7
		c1.5-0.1,3,0.1,4.5,0c1.7-0.1,3.6,0.3,4.7-1.9c0.4-0.8,2.3-1.1,3.6-1.1c5.6,0,10.9-1.8,16.1-3.4c5-1.6,10-1.4,15-2.2
		c6.8-1.1,13.6-1.9,20.5-1c1.4,0.2,2.7,0.4,4.1,0.8c1.2,0.4,2.5,1.9,4.1-0.2c0.6-0.8,3.1-0.3,4.5,0.7c1.4,1,2.9,1.3,4.6,0.8
		c0.2-1.2-1.6-0.7-1.5-1.9c0.2-0.1,0.5-0.3,0.7-0.3c2.7,0.1,5.8-0.5,7.2,2.9c0.3,0.8,1.2,0.7,1.9,0.6c8.1-1.5,15.9,0.8,23.8,1.5
		c-0.2,0.9-1.2,0.1-1.5,0.8c0.6,1.1,1.7,0.6,2.6,0.8c2.2,0.4,4.4,0.8,5.7,3.1c0.6,1.1,2.3,2.6,3.8,0.6c2-2.7,3.2-0.4,3.5,0.9
		c0.6,2.7,2.7,1.8,3.3,1.2c2.9-2.7,5-0.5,7.1,1c1.5,1.1,2.9,2.1,4.5,2.9c1.4,0.7,3,1.1,3,3.2c0,0.6,0.9,1.3,1.5,1.8
		c5.9,4.8,11.5,10.1,17.4,14.9c2.3,1.9,4.6,4.4,6.4,6.9c3.1,4.2,3.5,4.2,8.2,1.9c1.8-0.9,1.8-0.9,3.9,0.1c-0.3-2.7,1.2-3.1,3.5-3.5
		c4.2-0.8,8.4-1.5,12.7-1.7c5.2-0.2,9.4,2.1,13.8,3.9c2.3,0.9,5.5,0.5,6.5,4c-1,0.1-1.3-0.9-2-1.3c-0.9-0.6-1.9-1.5-1.8,0.6
		c0.1,1.6-0.8,1.5-1.9,1.2c-3-0.8-5.5-2.2-7.4-4.7c-0.5-0.8-1.2-1.4-2.2-1.2c-0.4,0.1-0.7,0.4-0.7,0.8c0.1,0.9,0.9,1.2,1.5,1.8
		c3.2,3.1,7.1,4.6,11.4,5.5c1.2,0.3,2.4,1,3.5,1.6c1,0.6,1.9,1.3,0.8,2.6c-0.4,0.4-0.9,0.9,0,1.4c0.5,0.2,1,0.6,1.7,0.3
		c3-1.5,4.8-1.2,6.4,1.9c1.4,2.9,4.8,2.6,6.8,4.7c0.2,0.3,3-1.3,4.2,0.8c0.4,0.7,1.4,1.2,1,2.3c-0.2,0.6,0.1,1.1,0.8,1.4
		c6.3,3,9.1,9.2,12.9,14.4c1.8,2.4,1.6,5.8,3.5,7.9c4.7,5,5.6,11.9,9.5,17.4c3.7,5.3,5.3,11.9,8,17.8c0.6,1.3,1.4,3.3,0.2,4.6
		c-0.8,0.9-2.5,3.2-3.7-0.6c-0.6,3.2,1,5.1,1.8,7.3c0.3,0.7,0.7,1.4,1,2.2c0.9,1.9,0.3,4.9,4.2,4.2c1.2-0.2,2.9,0.8,2.7,3
		c-0.1,1.3,0.6,2.7,1,4.4c-1.8-1.5-3.3-2.7-5.3-4.4c0.6,3.3,1,6.1,2.4,8.7l0,0c1.1,1.6,1.7,3.3,2,5.2c1.4,7.6,2.5,15.3,4.9,22.8
		c0.4,1.3,1.3,2.9-0.6,4.2c-0.8,0.6-0.5,2.4,0.4,3.3c3.1,3.1,3.1,7.4,3.8,11.2c0.7,3.3-0.7,7.1,2,10c-1.9,2.4,2.2,4.3,0.5,6.7
		c-0.2,0.2,0.2,0.9,0.5,1.3c0.9,1.6,1,3.2,0.7,5.1c-0.1,0.4,0.1,1.1,0.4,1.4c1.7,1.7,2.4,3.2,0.1,5.1c-1.1,0.9-1.1,2.6,0,3.8
		c1,1.1,1.5,2.3,1.8,3.7c0.2,0.7,0.3,0.6,1.8,1.9c0.8,0.7,0.2,2.1-0.3,2.7c-1.4,1.8-0.9,3.5-0.4,5.4c0.8,2.8,0.5,5.8,0.5,8.6
		c0,2,0.3,4,1.4,5.7c0.5,0.8,0.8,1.3,1.9,1.6c3,0.7,3.5,2.3,1.9,4.8c-0.4,0.6-0.7,1.1-0.2,1.9c1.5,2,1.2,3.8-0.5,5.5
		c-1.4,1.4-0.9,3.2,0.2,4.3c2,1.9-0.2,2.6-0.9,3.5c-1,1.4-1.9,0.8-2.5-1.4c-1.2,3.5-0.3,6,0.2,8.4c0.8,3.6,1.3,7.2,1.8,10.8
		c0.2,1.8,0.4,3.3-1.8,4.5c-2.2,1.1-1.5,6.8,1,9c1,0.9,1.1,1.8,1,2.9c-0.1,0.8-0.6,1.1-1.4,1.2c-2.4,0.2-2-1.9-2.5-3.4
		c-0.3,3.9,0.5,7.6,0.1,11.4c0.2-0.5,0.3-1,0.5-1.9c1.5,1.9,1.2,4.1,1.8,6c0.6,2.1,1.6,4.2,0.8,6.8c-0.7,2,4.1,6.7,6.9,6.8
		c2.8,0.1,1.9,2.5,2.8,3.7c0.9,1.2-0.5,1.8-1.5,2.3c-2,1.1-2.8,2.5-2.1,5.1c1.5,5.5,3.3,11.2,3.2,16.8c0,3.9,2.4,7.1,1.8,10.9
		c-0.2,1.5,1.3,2.6,1.5,4.1c0.2,1.3,1.3,2.3,0.6,3.8c-0.1,0.3,0,2.3,1.6,1.2c0.5-0.4,0.9,0.2,0.8,0.4c-1,1.7,0.9,3.3,0,5.1
		c-1.4-0.9-3.5-1-3.1-3.7c-0.3,1.9-0.3,1.9,5.3,8.4c-0.6,0.7-1.1,0.5-1.8,0.1c-0.8-0.5-1.4,0.1-1,0.7c1.5,2.3,0.2,5.4,1.5,7.1
		c2,2.7,0.6,4.2-0.5,6.2c-0.1,0.1,0.2,0.5,0.4,0.7c1.4-0.1,0.9-2.2,2.3-2.1c0.8,0.1,0.7,0.9,0.7,1.5c0.2,1.1,0.1,1.1-2.6,3.1
		c2.8-1,3.5,0.2,3.9,2.6c0.8,5.3,3.7,9.9,4.7,15.2c0.6,3.1,1.3,6.9,3.8,9.7c0.7,0.8,0.8,1.8,0.3,2.8c0,0,0,0,0,0
		c-1.5,0.3-2.9,2.9-4.4,0.1c-0.6,2.4-1.1,4.5-1.6,6.5c-0.6-1.2,0-2.4-0.1-3.5c-0.4-3.2,1-6.9-2.5-9.5c-0.7,1.7,0.3,3,0.6,4.2
		c0.4,1.5,0.8,2.5-0.8,3.5c-1.8-4.9-1.4-10-1.7-15c-0.2,2.6-0.1,5.2-0.3,7.7c-0.3,4.6,2.5,8.4,3.2,12.8c0.3,1.9,1,0,1.5-0.3
		c0.6,1.4,0.7,2.9,0,4.3c-1.2,2.3-0.7,4.7-0.5,7.1c0.7,6.2,1.3,12.3,2.7,18.4c0.9,4.3,1.7,8.6,3.1,12.8c0.2,0.6,0,1.4-0.3,2
		c-0.6,1.3-1.1,2.4,0.9,3c1.2,0.4,0.9,1.7,0.9,2.6c-0.1,2.5,0.1,5-0.6,7.4c-0.6,1.8-0.2,2,1.4,1.4c0.7-0.2,0.9,0,1.2,0.5
		c0.3,0.5,0.7,1,0.3,1.6c-1.4,2-1.4,3.5,0,5.7c0.9-0.5-0.3-1.6,1-2.1c1.6,4.3-3.4,6.9-2.8,10.8c1.1,0.3,1-1.5,2.4-1.2
		c-2.1,3.1-0.2,6.3-0.6,9.4c-0.5,3.6,1.5,6.6,1.4,10c-0.1,1.8,2,2.1,2.4,3.6c0.8,3.2,1.4,6.6,3.3,9.4c0.4,0.6,0.4,1.4,0,2
		c-0.3,0.4-0.6,1.2-0.1,1.3c4.4,1,2.6,5.5,5.3,7.8c-2.3,0.1-4.3-0.9-2.6,2.6c1.1,2.2,1.7,4.6,3.2,6.7c0.7,0.9,0.5,1.8-1,1.5
		c-0.2-0.1-0.5-0.1-0.7-0.2c-4.3-3.4-5.6-8.4-6.1-13.5c-0.5-5.2-3.3-9.2-6.1-13.3c-0.5-0.7-0.9-0.8-1.4-0.4
		c-0.6,0.4-0.2,0.9,0.2,1.2c1.1,0.8,1,1.6,0.3,2.6c-1,1.5-0.5,2.9-0.2,4.5c1.4,6.3,4.6,12.1,5.4,18.6c0.1,0.8,0.1,1.5,0.7,2.2
		c4.1,4.7,4.1,11.4,8.2,16.1c0,0-0.1,0.2-0.2,0.2c-1.4,0-1.4-2.1-3.3-2c0.7,1,1.3,1.7,1.7,2.4c0.3,0.6,0.7,1.6-0.3,1.8
		c-2.3,0.3-1,1.2-0.6,2.1c1.3,2.7,5.1,4,4.1,7.9c0,0.2,0.4,0.6,0.8,0.8c1.2,0.7,1.6,1.7,1.3,3c-0.2,0.6-0.2,1.1,0.3,1.6
		c1.9,1.7,2.4,4.1,2.7,6.5c0.4,2.1,2.1,3.8,1.9,6.1c0,0.2,0.1,0.4,0.2,0.5c1.7,0.9,2.8,2.8,2.7,4.7c-3.8,0-7.6,0-11.4,0
		c-1.3-2.8-2.6-5.6-3.7-8.5c-1.1-2.7-4.3-3.8-5.1-6.9c-0.2-0.7-1.3-2.6-2.8-2c-1.3,0.5-1.6,1.9-1.5,3.3c-0.7-0.9-1.5-1.9-2.2-2.8
		c1.2-0.4,2.3-0.9,2.9-2.4c-1.4-0.3-3.7,1.5-3.4-1.6c0-0.4-0.8,0-1.1,0.4c-0.6,0.7-0.4,1.5-0.3,2.3c-3.5-5.5-5.5-11.7-4.5-18.1
		c0.5-3.2,0.1-5-2.1-6.9c-0.6-0.5-1.2-1.4-1.4-2.3c-0.7-3-1.9-5.4-4.3-7.7c-2.4-2.4-0.7-6.3-0.8-9.5c0-0.8,0.8-0.7,1.4-0.7
		c1,0,1.9,0,3.4,0c-3.3-1.8-4.5-4.3-4.5-7.3c0-3,0.4-6,0.5-9c0.1-1.5,1-2.3,2.1-2.6c1.7-0.5,1.2-1.3,0.5-2.1c-1.7-1.8-2.2-3.9-2-6.3
		c0.1-1.6-0.3-3.4,2.4-2.9c0.9,0.2,0.7-0.7,0.7-1.3c0-2-0.5-3.9-0.9-5.8c-0.8-4.4-1.2-8.8-1.6-13.3c-0.5-5.4-0.8-10.8-0.9-16.3
		c-0.9,1.9-1.1,4-2,5.9c-0.7,1.7-1.2,2.3-2.5,0.7c-1.8-2.3-2.6-5.1-3.9-7.6c-1.8-3.4,1.3-5.8,0.7-8.8c-0.2-1.1,0.1-2.3-0.5-3.5
		c-0.6-1.2-0.4-2.2,1.1-2.4c0.6-0.1,1.5,0.5,1.8-0.5c0.3-1.1-0.4-2-1.1-2.6c-1-0.9-2.5-1.5-2.1-3.2l0,0c2.9-3,3-6.9,2.8-10.7
		c-0.1-2.3,0.1-4.4,2.5-5.5c0.4-0.2,0.7-0.4,0.7-0.8c-0.1-0.7-0.6-0.7-1.1-0.7c-1.8,0.2-2-1.1-1.8-2.3c0.3-2.1-1-4.5,2.1-6
		c1-0.5,2.6-3.2,0.7-5.2c-0.4-0.4-0.4-0.9,0.2-1.2c0.6,1.5,2.3,2.1,2.7,4.2c0.5-2.7-0.1-4.6-1.3-6.4c-0.5,0.8-0.6,1.7-1.4,2.2
		c-0.3-0.4-0.5-0.9-0.8-1.2c-4-3.5-3.6-7.9-1.8-11.9c1-2.3-0.1-3.5-1.2-4.6c-1.4-1.6-2.1-3-0.7-4.7c0.9-1.2-0.1-2.6,0.9-3.9
		c0.9,1.3,1.1,2.7,1.2,4.1c1.1-3.1-0.2-6.2-0.5-9.3c-0.2-2-0.9-4.1-0.8-6.2c0-1.2-0.5-2.1-1.8-2.4l0.1,0.1c-1-2.6-0.6-5.2,0.3-8.4
		c-1.5,1.5-1.3,2.8-1.7,4.3c-1-1.5-2.1-2.4-3.2,0c-0.8-3.1-0.4-5.8-0.6-8.4c-0.1-1,0.4-1,1.3-0.8c1.8,0.2,3-0.4,2.6-2.7
		c-0.3-1.8-0.8-2.6-2.9-1.9c-2,0.7-3.7,0.1-3.6-2.7c0.1-1.9-0.1-3.8,0-5.7c0.1-1.6-0.7-4,2.6-3c0.6,0.2,1.6-0.5,1.4-1.3
		c-0.5-1.9,0.9-4.1-1.2-5.8c-1-0.8-0.7-2.5-0.6-3.7c0.6-7.7-0.6-15.3-1-22.9c-0.1-1.9-0.2-4.1,2.6-4.7c-3.3-3.2-2.1,1.7-4,1.3
		c0-3.2-1.4-6.6-2-10.5c-0.3,2.9-0.2,5.3,0.4,8c-2-0.6-4-1.2-3.9-3c0-1.5-1.4-3.8,1.3-4.6c0.5-0.2,0.5-0.6,0.4-1
		c-0.9-2.9-0.1-6.1-1.5-8.9c-0.1-0.2,0.1-0.7-0.5-0.5c-0.7,0.2-0.6,1.9-2,1.1c-1.9-1.1-2.9,0.3-3.8,1.7c-0.3,0.4-0.2,1.1-0.9,0.8
		c-0.7-0.3-0.8-0.9-0.5-1.5c1.3-2.8,1.9-5.6-1-7.9c-0.1-0.1-0.2-0.4-0.2-0.5c2.5-3.5,0.1-8.2,2.9-11.6c0.7-0.9,1.7-0.4,2.6-0.9
		c-0.8-0.6-0.7-1.5-1.1-2.2c-0.2-0.4-0.2-0.8,0.2-1c0.5-0.3,0.9-0.1,1.2,0.4c1.2,1.8,2.3,3.6,3.6,5.6c1.6-5.1,0.4-10-0.3-14.5
		c-1.4-9.3-1.4-18.7-2.1-28c-0.3-4.1,0-8.1-0.2-12.2c-0.1-1.5,0.8-3.3-1.6-4.3c-0.7-0.3-0.4-2.9-0.5-4.5c-0.1-2,0.3-4-1-5.8
		c-0.1-0.1-0.1-0.2-0.1-0.3c1.4-4.3-2.2-8.2-0.8-12.5c0.3-0.9,0.1-1.7-0.5-2.6c-3.2-5.1-4.1-10.4-2.2-16.2c0.4-1.2,0.1-3.2-0.7-4
		c-1.6-1.5-1.6-3.2-1.7-4.9c-0.2-3.6-2.1-6.8-2.5-10.4c-0.3-3.2-0.1-6.4-0.5-9.5c-0.7-5.4-1.9-10.7-2.8-16.1
		c-1.3-7-4.9-13.3-6.3-20.3c-0.6-2.8-1.6-5.5-3.3-7.9c-4.1-5.8-4.1-13.1-7.5-19.2c-3.8-6.8-7.2-13.9-12.3-20
		c-1.8-2.1-3.1-4.7-4.3-7.3c-1-2-2.1-4-3.9-5.2c-3.8-2.5-4.5-7.2-7.6-10.1c-1.1-1.1-2-2-3.8-1.9c-1.8,0.1-5.1-3.2-4.9-5
		c0.2-1.8-0.7-2.2-2.1-1.9c-2.2,0.5-3.4-0.9-5-1.9c-2.5-1.6-4.7-3.9-7.9-4.4c-0.9-0.1-2.1-0.3-2.4-1.1c-1.2-3.1-4-2.9-6.5-3.1
		c-2.5-0.2-4.1-2.3-6.6-2.5c-0.6,0-0.9-0.7-1.1-1.3c-0.3-1.2-0.6-2.5-2.3-2c-2,0.6-1.1,2-0.8,3.2c0,0,0,0.2,0,0.2
		c-0.2,0.8-0.5,1.6-1.5,1.6c-2.2,0-4.3,0.2-6.4,1c-1.4,0.5-2.6-0.6-2.9-2.3c-0.2-1.2-0.5-2.4-1.4-3.3c-0.7-0.7-1.3-0.8-2,0
		c-2.4,2.8-4.4,2.5-5.7-0.8c-0.9-2.4-2.9-4.1-4.5-5.8c-4.7-5.1-9.7-10-15.4-14c-1.6-1.2-2.5-3.1-4.4-4c-1.4-0.7-2.6-1.5-4.3-1.6
		c-2.1-0.1-3.9-2-5.5-3.1c-5.1-3.7-11.2-3.9-16.7-5.9c-5.8-2.1-11.6-4.1-17.5-5.7c-4.3-1.1-8.6-2.2-13.1-2.9
		c-8.4-1.5-16.9-0.7-25.2-2.9c-0.3-0.1-0.8-0.3-0.8-0.2c-1.9,2.5-4,0.5-6,0c0.5,3.1,0.5,3.1-8.2,2.4c0.3-1.2,1.5-1,2.6-1.8
		c-3.5-0.8-6.2,2-9.3,0.9c-0.1,0-0.4,0-0.5,0.2c-1.9,2.2-1.9,2.2-4.3,2.2c-3.2-0.1-6.2,0.6-9.3,1.6c-2.2,0.7-5,0.2-7.5,0.6
		c-1.4,0.2-2.7,0.1-3.8,1.3c-0.8,0.8-2.1,1.1-3.2,1.4c-2.4,0.6-5,0.3-7.2,2.3c-1.5,1.4-4,0.9-6.1,0.6c-3.9-0.5-6.8,1.7-9.9,3.5
		c-0.4,0.2-0.7,0.8-1.1,1c-6,2.1-11.1,6.4-17.6,7.2c-0.8,0.1-1.6,0.1-2.4,0.1c-1.7,0-2.7,0.8-2.8,2.4c-0.2,2.5-1.8,3.5-4,3.6
		c-5.1,0.3-9.1,2.2-11.3,7c-0.4,0.8-0.9,1.3-1.8,1.4c-4.4,0.8-8,2.9-10.4,6.7c-0.5,0.7-1.2,1.4-2,1.8c-4.3,1.9-6.9,6.3-11.4,7.9
		c-1.2,0.4-2.2,1.7-3,2.9c-3.3,4.8-7.1,9.2-11.1,13.5c-6.8,7.2-10.9,16.2-16.3,24.2c-2.8,4.1-4.9,8.9-9.1,12
		c-1.5,1.1-0.9,2.5-0.9,3.8c0,0,0-0.1,0-0.1c-0.6,0.2-1.1,0.3-2.1,0.6c2.6,1.4,1.8,3,1.1,5.1c-1.2,3.3-1.6,6.9-3.3,10.1
		c0,0.1-0.1,0.2-0.1,0.3c1.9,2.7-1,3.3-2,4.7c-1.4,2-3.3,3.8-2.8,6.7c0.1,0.5-0.3,1.4-0.7,1.5c-3.4,1.1-3.3,4.6-4.9,7
		c-0.9,1.5-2.1,2.4-3.9,1.7c-2.1-0.8-0.9-2.3-0.8-3.5c0.1-1.2,1.4-2.2,0.5-3.6c-1.2,0.2-1.2,1.2-1.4,2c-1.2,5.5-3.7,10.6-5.4,15.9
		c-1.6,4.9-3.3,10-5.4,14.7c-2.8,6.2-5.6,12.5-7.6,19c-1.1,3.4-1.6,7-2.9,10.4c-1.7,4.7-1.7,9.7-3.4,14.3c-0.4,1-0.3,2.2-0.4,3.3
		c-0.6,8.2-2.4,16.2-4.2,24.2c-0.3,1.5-0.6,2.9-0.7,4.4c-0.1,1.8-0.3,3.4-1.2,5.2c-1,1.9-0.6,4.6,0.1,7c0.7,2.3,1.2,4.6-0.2,6.9
		c-0.3,0.5-0.4,1.2-0.3,1.7c0.8,4.9-1.2,9.2-2.6,13.6c-0.2,0.7-0.4,1.4-0.4,2c0.5,8.2-1.7,16.2-1.3,24.4c0.2,3.5-1.7,6.7-2.1,10.2
		c-0.1,0.8-0.5,1.6-0.3,2.3c1,5.4-1.3,10.6-1.4,15.9c-0.2,8.1-1.8,16.2-0.8,24.3c0,0.3,0.2,0.7,0.1,0.9c-2.6,5.8,0.4,11.5-0.1,17.4
		c-0.4,5.8,1.3,11.7,0.9,17.6c-0.4,6.6,0.7,13,1.1,19.9c-1.5-1.3-2.4-1-2.4,0.8c0,1.2,0.2,2.4,0.9,3.6c2,4,3.3,8.1,0.9,12.5
		c-0.1,0.2-0.1,0.7,0.1,0.8c3.3,2.7,1.5,6.7,2.6,9.9c1.6,4.6,1.6,9.5,2.7,14.2c0.7,2.7,0.9,5.6,1.3,8.4c0.7,5.1,1.3,10.3,2.1,15.4
		c0.3,1.7,1.1,3.3,1.6,5c1.1,3.5,0.4,7.1,1.2,10.6c0.4,1.7,0.7,3,2.7,3.1c1.6,0,2,0.8,2,2.3c-0.1,1.8,0,3.6,0.2,5.4
		c0.2,1.4,0.2,3.1,2.5,2.8c1.2-0.1,0.6,0.9,0.7,1.5c0.1,3.3,0.3,6.6,1.1,9.9c0.1-1.4,0.3-2.7,0.4-4.1c0.3,3.9,2.7,7.4,1.9,11.5
		c-0.3,1.7-2,3-1.2,5c0.4,1.1,0.5,2.2,1.6,3.3c2.1,2.1,0.1,5.2,0.8,7.8c-0.5,0.1-1,0.1-1.5,0.2c-1-2-3.1-1.6-4.4-1.2
		c-0.8,0.3-0.3,2.3,0.5,3.3c1.3-0.7,2.6-1.4,3.9-2.2c-1.3,2.2,0.7,3.5,1.4,5.1c-0.6,1.1-2.4-1.4-2.4,0.9c0,1.1,0,2.1,1.7,2.8
		c1.4,0.7,2.7,3.4,2.6,5.1c-0.3,5,0.8,9.9,0.6,14.9c-0.2,4-0.2,7.9-1.1,12.1c-1.6-1.5-0.5-3.1-1-4.4c-1.2,2.9-1,4.5,0.7,7.1
		c0.3,0.4,0.3,0.9,0.3,1.4c-0.2,5,2,9.7,1.4,14.8c-0.1,1.1-0.3,2.2,0.9,2.9c0,0,0.3,0,0.3,0l0.3,0c1.9-1.5,3.3-0.2,4.2,1.1
		c1.1,1.7,1.5,3.8,0,5.6c-0.8,1-1.8,1.8-2.7,2.6c-1.3-0.5-0.9-2.2-2.7-3.2c1.9,2.8,0.2,6.1,3.4,7.9c1.1,0.6,0.9,2.5,0.8,3.9
		c-0.1,1.9-0.1,3.8-0.2,5.7c-4,0-8,0-12,0c-1.3-2.2-1.6-4.8-2.2-7.1c-0.8-3.4-2.9-5-5.1-7.1c-2.6-2.5-5.8-4.7-6.5-8.6
		c0.8-0.5,1.5-0.3,2.3,0c0.2,1.1,1.1,1.6,1.9,2.2c1.8,1.5,3.7,0.9,4.1-1.4c0.7-4.1,0.5-8.1-0.4-12.1c-0.4-1.7-0.2-3.5-2.5-4.4
		c-2-0.8-0.2-2.8-0.2-4.3c-1-0.6-0.8,0.5-1.2,0.8c-0.5,0.3-1.1,0.8-1.6,0.2c-0.4-0.5,0-1.1,0.4-1.6c1.4-1.7,1.1-4.5-0.8-5.1
		c-1.3-0.4-0.9-1.1-0.7-1.3c2.3-2.7,0.2-5.8,0.6-8.8c0.3-2.1-1.6,0.3-2.4-0.3c1.2-3.2-0.2-6.5,0-9.7c0.1-2.1-0.7-4.4,1-6.3
		c0.5-0.6,0.2-1.1-0.1-1.6c-0.7-1.4-0.3-2.8,0.5-4c0.6-0.9,1.2-1.5-0.1-2.6c-1.7-1.4,0.7-2.1,1.1-3.1c0.5-1.2,1.1,0.3,1.6,0.5
		c0.6,0.3,1.2,0.6,1.8,1c2.4,2,2.2,4.6,1.8,7.2c-0.7,0.1-1.5-0.4-2.1,0.6c-2.1,3.8-1.7,8,1.1,11.8c2.4-5.6,2.4-6.7,0.9-12.5
		c2.6-1.6,1-3.8,0.9-5.8c-0.1-1.8-1.1-2.3-2.7-1.4c-1.5-2.5-1.3-5.3-1.3-8.1c0-0.6,0.5-2.4-1.2-0.9c-0.4,0.4-0.9,0.7-1.3,1.1
		c0.4-2.2-0.3-3.4-2.3-4.8c-1.4-1-1.5-3.7-0.2-5.5c1.4-2,1.8-4,1-6.4c-1.5-4.5-1.8-9.1-1.7-13.8c0-1.4-0.2-2.4,1.2-3.7
		c1.1-1,1.3-3.5-0.9-5.2c-1.1-0.8-2.1-3.1-1.7-4.3c0.8-2.4-0.1-4.5-0.1-7c-0.7,0.6-1.2,1-1.7,1.4c-0.4,0.3-0.8,0.2-1-0.2
		c-0.1-0.2-0.2-0.7,0-0.8c2.3-1.4,0.7-2.7-0.2-4c-0.1-0.2,0-0.6,0.1-0.9c0.7,0.1,1.9-1,1.9,0.8c0,0.5,0.2,1,0.8,1.1
		c0.6,0.1,0.7-0.6,1-1c0.6-0.7,0.1-1.4-0.1-2.2c-1-3.6-2.6-7-1.9-11c0.4-2.5,0.8-5.3-0.6-7.9c0.2,1.1,0,2.1-0.2,3.2
		c-0.3,1.4-0.9,0.5-1.5,0.3c-0.7-1-1.6-1.4-2.8-0.9c-0.8-0.9-0.5-2.2-1.8-3c-0.9-0.5-0.8-2.3,0.1-2.8c1.9-1.1,1-2.4,0.7-3.6
		c-0.7-2.2-0.6-4.3-0.1-6.4c0.4-2-0.9-3.8-0.9-5.9c0-2.9-0.8-5.7,0.1-8.7c0.6-2.1-0.4-4.6-0.7-7.1c-1.1-0.4-2.2,1.8-3.3,0
		c-0.9-1.4,0-2.3,0.5-3.5c1.2-2.8,0.9-5.6,0.3-8.6c-0.3-1.6-3-4,0.7-5.5c0.3-0.1-0.2-2.4-0.5-3.6c-0.3-1.1-1-2.2-1.3-3.3
		c-0.3-1.3-0.5-3.2,1.7-3.7c1.3-0.3,1.6-1.2,0.3-1.7c-3.4-1.3-1.6-2.6-0.2-4.1c0.3-0.3,0.6-0.5,0.9-0.8c0,0.4-0.1,0.8,0,1.2
		c0.1,0.6-0.9,1.6,0.9,1.7c1.8,0.1,1.4-0.9,1.4-1.8C42.4,516.3,40.2,516.1,38.2,515.7z M442.8,174.4c1.4,4.2,2.7,5,5.2,2.5
		c-1.8,0.6-2.8,0.7-2.6-1.4c0.1-0.8-1.2-1.4-2.4-1.4c0.1-1.5-0.6-2.3-2-2.1c-0.8,0.1-1.8,0.8-1.5,1.8c0.4,1.6,1.7,0.7,2.7,0.7
		C442.5,174.5,442.7,174.4,442.8,174.4z M94,250.7c-2.9,2.2-3.4,5.8-4.8,8.8c-0.2,0.4,0.1,0.8,0.6,0.9c0.6,0.1,1-0.3,1.1-0.8
		c0.3-1.4,0.7-2.6,1.5-3.8C93.4,254.3,94.5,252.8,94,250.7c3.9-2.8,5.1-7.1,6.9-11.1c-0.2-0.1-0.5-0.3-0.7-0.4
		C98.1,243,96.1,246.9,94,250.7z M491.9,237.8c0.7-0.4,0.9-1,0.5-1.9c-0.7-1.6-1.1-3.2-2.5-4.4c-0.3-0.3-1.2-1.1-0.2-1.2
		c1.5-0.1,0.9-0.6,0.6-1.2c-2.5-5-5.1-9.9-7.5-14.9c-3.2-6.6-8.3-12.1-11.7-18.6c-0.5-1-1.4-1.9-2.3-2.8c-0.4-0.4-1.1-0.4-1.7-0.1
		c-0.4,0.2-0.7,0.6-0.4,1c1.8,2.1,1.3,5.1,3.5,7.3c2.4,2.3,3.9,5.5,5.9,8.2c0.3,0.4,0.7,1,1,1c1.9,0,2.3,0.7,1.3,2.4
		c-0.4,0.7,0.2,1.4,0.6,1.9c2,2.5,3.6,5.3,5.2,8C487.1,227.4,488.5,233,491.9,237.8z M545.3,698.3c2.4,1.1,3.6,3.6,2.9,5.3
		c-1.3,3.3,1,5.1,1.8,7.5c0.2,0.5,0.7,1.1,1.3,0.9c0.7-0.3,0.5-1,0.4-1.6c-0.4-2.1-1.6-4-1.5-6.3C550.5,700.8,549,699.1,545.3,698.3
		z M464.6,189.6c-0.8-0.8-1.1-2.5-2.8-2.6c-0.6,0-1.1,0.7-0.9,1.3c0.4,1.3,1.4,2.2,2.7,2.6C464.2,191.2,464.6,190.6,464.6,189.6z
		 M62.2,635c-0.4,3.4,1.3,5.1,4,4C63.3,639.4,63.2,636.9,62.2,635z M544.3,690.3c0.6-1.9,0.7-3.2-0.7-4.1c-0.7-0.4-1,0.6-1.2,1
		C541.7,689,543.9,688.8,544.3,690.3z M569.4,735.4c0.2-0.2,0.3-0.5,0.5-0.7c-1.5-1.1-2.8-2.7-5.1-2.5
		C566.3,733.3,567.9,734.4,569.4,735.4z M65.6,712.8c-0.2-0.7-0.6-1.3-1.1-1.1c-1.1,0.4-1.3,1.6-1.6,2.6c-0.1,0.5,0.2,1.5,0.8,1.3
		C65.2,715.1,64,713,65.6,712.8z M540.4,544.9c-0.2-0.9-0.6-1.7-0.5-2.6c0.1-0.9-0.5-1.6-1-2.5C538.7,541.9,538.8,543.6,540.4,544.9
		z M55.8,631.8c-0.2,0-0.4,0.1-0.6,0.1c0.2,1.9,0.5,3.8,0.7,5.7c0.3,0,0.5-0.1,0.8-0.1C56.4,635.6,56.1,633.7,55.8,631.8z"/>
	<path d="M169,311.9c-0.7,1.9-1.6,3.5-4,2.9c-0.7,1.2,0.8,1.7,1,2.9c-1.9-0.5-4-2.2-3.8,1.9c0.1,1.7-3.5,2.5-5.3,3.9
		c-5.8,4.7-12.1,8.6-15.8,15.6c-1.3,2.4-3,4.5-4.2,7c-0.5,1-1.5,1.6-2.4,2.2c-1.7,1-2.8,2.4-2.4,4.5c0.2,1-0.2,2.1-0.7,2.5
		c-3.5,2.7-3.3,7.7-7,10.4c-2.1,1.5-3.2,4-4.3,6.6c-3.1,7.4-5.3,15-7.9,22.5c-1,2.9-0.6,6.2-2.8,8.6c3.2,2.3-0.9,3-1.2,4.5
		c-1.4,5.9-0.2,12.1-1.7,17.7c-2.3,8.3-1.9,16.9-3,25.2c-1.7,12.3-2.9,24.8-2.4,37.3c0.7,15,1.7,29.9,4.6,44.6
		c1.9,9.4,3.5,18.9,5.8,28.2c1.6,6.6,2.6,13.3,4.2,19.9c1.4,5.6,1.7,11.6,4.7,16.8c0.6,1,0.6,2.3,0.8,3.5c1,5.1,3.5,9.7,5.5,14.4
		c6.1,13.8,15.1,25.7,24.4,37.4c9.4,11.8,19.4,23.1,31.2,32.5c6,4.8,7.7,11.2,9.6,17.9c0.5,1.9,0.9,3.9,1.7,5.7
		c2.7,6.2,2.7,12.8,2.6,19.4c0,9-0.3,18-0.9,26.9c-7.6,0-15.2,0-22.8,0c0.6-1.8,1.3-3.5,2.1-5.7c-1.9,1.2-3.6,0.6-5.4,0.7
		c-1.1,0.1-1,0-0.8-1.2c0.1-0.6-0.5-0.8-0.8-1.1c-1.4-1.4-1.8-3.4-1.2-5c1.2-3,3.5-5.3,5.8-7.5c0.8-0.8,1.7-0.3,3.1,1.2
		c-1-6,1.2-10.6,2.4-15.5c0.7,0.2,1.1,2.3,1.7,1.5c1.1-1.4,4.3,0.8,3.9-2.7c-0.2-1.6,1.1,0.5,1.7-0.2c0-1.5-2.6-2.5-1.2-4.4
		c1-1.4,3,0.4,4.1-1.3c-1.3,6.1-0.1,12.1-0.5,18.1c-0.3,3.5,0.7,7.1-0.1,10.6c-0.3,1.2,0.9,1.8,1.9,1.9c1.5,0.2,1.9-1,1.9-2.1
		c0.1-4.4-0.1-8.8,0.2-13.2c0.8-9.3-3.6-17.5-5-26.2c-1.5-9.2-8.4-13.6-14.2-19.2c-10.3-9.9-19.9-20.4-28.7-31.7
		c-5-6.6-10.1-13.1-14.4-20.2c-4-6.5-7.4-13.3-10.1-20.5c-1.8-4.7-3.9-9.4-5.1-14.3c-1.4-5.4-3-10.7-4-16.2
		c-1.2-7.4-3-14.6-4.6-21.9c-2.5-12-4.9-24-6.5-36.1c-1.9-14.5-2.6-29-3.1-43.6c-0.2-5,0.4-10.2,1.3-15.1c1.1-6.2,0.7-12.5,1.9-18.7
		c1.6-8.2,0.7-16.7,1.9-25c0.3-2.1,0.5-4.1,1.3-6.1c0.7-1.7,0.9-3.4,0.8-5.3c-0.4-4.1,1.8-7.8,2.6-11.7c1.2-5.7,3.6-10.9,5.6-16.3
		c1.1-3,1.2-6,2.3-8.9c1.3-3.3,2.9-6.7,3.8-10c0.8-3.1,1.8-6,3.2-8.9c0.8-1.7,1.9-3,3.6-4.1c1.5-1,2.3-3.3,3.2-5.1
		c0.6-1.3,1.6-2.5,2.7-2.6c3.9-0.3,5.4-3.7,6.6-6.1c2.2-4.4,5.8-7.3,9.3-10.3c4.2-3.6,8.3-7.4,13.8-9.2c1-0.3,0.8-1.8,2.1-2.3
		C164.1,312.9,166.2,311.3,169,311.9L169,311.9z M123.9,358.9c0.3-0.2,0.6-0.4,0.9-0.6c3.1-2.2,3.9-6.1,6.3-8.8
		c0.3-0.3,0.3-0.8-0.1-1c-0.2-0.1-0.7-0.3-0.8-0.1c-1.4,1.2-2.8,2.3-4,3.6c-1.5,1.5-0.7,4.4-3.2,5.5
		C122.4,357.6,123.1,358.6,123.9,358.9z M179.7,737.5c0.3,2.1,0.5,3.6,2.1,4.6C182.9,739.8,181.5,738.8,179.7,737.5z"/>
	<path d="M335.8,755.3c3.2-4.7,7.5-5.5,12.1-2.3c0.9,0.6,1.8,1.2,2.2-0.5c0.3-1.1,0.8-2,1.8-2.6c0.5-0.3,1-0.8,0.5-1.5
		c-0.6-0.8-1.2-0.4-1.7,0.1c-0.5,0.6-1.1,1.5-2,0.9c-0.9-0.7-0.5-1.8-0.1-2.8c1.3-3.3,4-4.8,7.4-5.4c2-0.4,3.6-1.4,5.3-2.6
		c2.3-1.7,5.3-1,7.9-0.9c2.3,0.1,4-0.7,5.5-2.3c2.2-2.3,7.4-3.5,10.2-2.2c1,0.5,1,2.3,2.6,2.3c-0.4,0.9,0.4,2-0.4,2.8
		c-0.8,0.8-1.7,0.2-2.5-0.1c-3.8-1.5-6-1-7.7,2.8c-0.8,1.8-1.9,1.9-3.2,1.6c-1.5-0.4-2.9-0.3-4.4-0.5c-3-0.3-5,0.4-5.5,3.9
		c-0.3,2.6-3.4,2.2-4.5,2.2c-2.4,0.1-3.7,1.7-5.8,2.3c1.2,1.7,2.3,3.3,3.4,4.8C349.8,755.3,342.8,755.3,335.8,755.3z"/>
	<path d="M533.8,755.3c0.6-1.1,0.6-1.8-0.9-2c-2-0.4-4-1.2-6.1-1c-1.6,0.1-2.9-0.4-3.8-1.7c-0.2-0.2-0.4-0.4-0.6-0.6
		c0.1-1.3,1.1-1.5,2.1-1.7c1.1-0.2,1.8-0.7,2.1-2.1c-2.6,0-4.3-1.6-5.7-3.5c-0.7-0.9-0.3-1.9-0.1-3c1.6,2.1,4.8,0.2,6.2,2.8
		c-1.7-2.2,3.6-5.7-2.4-6.9c2.9-1.2,3.9-4.2,7.2-3.2c1.2,0.4,1.6-0.5,1.5-1.8c-0.1-1.2-1.1-1.8-1.7-3.1c2.2,0.8,3.4,1.9,2.8,3.8
		c-1,3.1,1.1,4.8,2.7,6.7c1.1,1.3,2.2,2.4,1.2,4.3c-0.4,0.8,0.2,0.7,1.4,2c1.4,1.5,0.5,3.5,0.2,6c-1.1-1.5-2.4-1.8-2.3-3.3
		c0-0.6,0.2-1.4-0.8-1.2c-0.5,0.1-1,0.6-1.4,1c-0.6,0.6-0.2,1.2,0.3,1.6c1.5,1.2,2.9,2.5,5.2,2.6c2.8,0.2,5.6,0.8,6.2,4.3
		C542.6,755.3,538.2,755.3,533.8,755.3z M534.2,743.4c-2.4-5.5-3.6-6.8-6.3-7.2C530.9,738.2,531.3,741.8,534.2,743.4z"/>
	<path d="M586.7,751.1c-2-3.5-5.9-5.6-6.4-10.3c-0.2-2.2-3.2-3.1-4.3-5.3c0.7-0.9,2.2,0.9,2.6-0.7c0.2-1.1-0.5-1.9-1.1-2.7
		c-0.4-0.5-0.8-1.1-1.2-1.7c-0.4-0.6-1.7-1-1.1-1.8c0.8-1,1.5,0.5,2.3,0.5c0.6,0.7,1.3,1.4,1.9,2c1.1,1.1,2.1,2.3,2,4.1
		c-0.1,0.9,0.1,1.9,1,2.3c1.5,0.6,1.9,1.8,2.3,3.2c0.3,1,0.9,2,2,2.4C586.7,745.9,586.7,748.5,586.7,751.1z"/>
	<path d="M387.4,755.3c-1.1-4.6,0-8.4,4.3-11c-0.1,0,0.2,0.1,0.2,0.2c-1.2,5.5,3.6,7.5,6.3,10.8C394.6,755.3,391,755.3,387.4,755.3z
		"/>
	<path d="M502,751.7c0.7,0.2,1-1.2,1.8-0.7c3.1,1.9,6.5,2.1,9.9,2.7c0.9,0.2,1.3,0.8,1.5,1.6c-4.4,0-8.8,0-13.2,0
		C503,754.1,502.9,752.9,502,751.7z"/>
	<path d="M121.6,755.3c2-2.4,4.3-3.6,7.6-3.5c2.7,0.1,2.7,2.7,4.4,3.5C129.6,755.3,125.6,755.3,121.6,755.3z"/>
	<path d="M502.1,751.8c-0.7-1.3-1.6-1.7-2.7-0.5c-0.9,0.9-1.7,1.9-2.5,2.7c0,1.9,3.7-3.2,2.2,1.4c-1.6,0-3.2,0-4.8,0
		c1.2-2.5,3.2-4.5,5.4-5.9C501.8,748.2,501.9,750.3,502.1,751.8z"/>
	<path d="M562,752.3c0.8-0.2,1.5-1,2.8-0.6c-0.6,1.6-0.6,3,1.8,2.5c0.2,0,0.6,0.7,0.8,1.1c-2.2,0-4.4,0-6.6,0
		C560,753.9,563,753.9,562,752.3z"/>
	<path d="M310.4,622.7c0.7-0.6,1.3-1.2,2.5-1.1c6.5,0.4,13.1-0.3,19.6,0.6c1.2,0.2,2.3-0.5,2.6-1.1c1-2.1,2.5-1,3.9-1.1
		c3.4-0.1,6.8,1.1,10.1-2c1.4-1.3,5.1-0.4,7.8-0.2c2.8,0.2,5.5,0,8.1-1.2c4.2-2.1,9.1-2.5,13.1-5.4c1.3-0.9,4-1.8,6.4-1.5
		c2.2,0.3,3.3-2.2,5.4-2.6c0.5-0.1,1.1-0.8,1.6-0.3c0.6,0.5-0.1,1.1-0.2,1.8c0.9,0.4,1.5-1,2.4-0.4c0,0.2,0.1,0.6-0.1,0.8
		c-1.7,1.8-3.5,3.6-5.2,5.3c-0.1,0.1-0.2,0.2-0.2,0.2c-2.6-1-2.9,0.9-3.8,2.6c-0.5,1-0.8,3.5-3.2,1.9c0,0-0.2,0.1-0.2,0.2
		c-0.6,3.8-6,3.7-6.3,7.7c-0.1,1.1-0.9,1.3-1.7,1.3c-1.8-0.1-3.4,0.8-4.7,1.8c-4.8,3.8-10.4,3.1-15.9,3.3c-0.9,0-1.9-0.4-2.4-1.1
		c-1.5-2.4-3.6-1.9-5.8-1.4c-3.3,0.7-6.7,0-9.9,1.7c-0.9,0.5-2.2,0.5-2.5,1.8c-0.2,1.2-1.1,0.8-1.9,0.8c0.1,1.2,1.7,1,1.5,2.2
		c-0.3,0.5-0.9,0.6-1.3,0.5c-3.4-1.2-5.5,0.8-7.6,2.8c-1.8,1.7-4.9,1.1-5.6-1.2c-0.3-1.1-0.2-2.3,1-2.4c1.4-0.2,2.2-1.1,3.2-1.7
		c1.3-0.7,3.1-1,2.3-3.3c-0.2-0.6,1.1,0.1,1.5-1c-3.4-0.2-7-1.4-9.9-0.4c-6.2,2.2-12.1-0.6-18.1-0.2c-1.7,0.1-3.4-0.1-5.1-0.1
		c-5.8,0.2-11.3-0.6-16.6-3.3c-2.1-1.1-4.5-1-7.1-0.3c1.8,1.7,4.3,1.8,5.3,3.9c-0.5,0.2-0.9,0.5-1.4,0.7c-1.6-0.5-1.8,0.7-2.2,1.8
		c-2.6-0.2-0.7-2.1-1.1-3.4c-2,2.5-3.7,0.1-4.6-0.6c-2-1.6-5.3-2.1-6.9-0.1c-0.8-2.8-3-0.3-4.3-1.2c-1.2-1.4-3.5-1.3-4.6-3.1
		c1-1,2.5,0.2,3.3-1c-0.8-1-1.9-0.6-2.8-0.6c-7.3,0.1-14.5-1.3-21.8-1.1c-0.8,0-1.9-0.6-2.5,0.3c-0.6,0.9,0.5,1.6,1,2.6
		c-2.8-1.1-5.3-0.2-7.8-0.2c-1.8,0-3.5,0-5.1-1.2c-1.6-1.2-3.5-1.1-5.4-1.1c-3.7,0.1-6-3.8-4.3-7.1c0.4-0.7,0.9-1.4,0.5-2.5
		c-1.7,0.9-3.5,0.8-5.3,0.6c0.1-1.2-0.3-2.3-1.3-2.7c-0.8-0.3-1.1,0.8-1.2,1.4c-0.2,1.3,0.5,2,1.8,2.1c0.9,2.6-0.4,3.1-2.7,3.1
		c-2.5,0-4.8-0.9-7.1-1.6c-0.5-0.6-1.1-0.5-1.7-0.2c-2.9-3-2-6.9-2.6-10.5c-0.2-1.6-0.4-2.9,1.3-3.8c1.6-0.8,1.4-2.6,1.6-4.3
		c1.7,2.3,4.2,3.6,6.3,3.9c3.8,0.4,6.4,2.6,9.4,4.2c3.2,1.5,6.6,3,10.2,2.5c2.5-0.4,4.9,0.5,7.4,0.1c1.6-0.2,1.7,0.1,1.1,2.2
		c2.1,0.5,4.3-1.4,6.4,0.1c-0.6,0.9-2,0-2,1.1c0,0.9,1.1,0.9,1.7,0.8c2.8-0.6,4.2,1.8,6.3,2.7c4.6,2.1,9.4,3.9,14.4,3.2
		c3.3-0.5,6.7-0.1,9.9-1.4c2.5-1,5.1-1,7.8,0.5c1.7,0.9,3.8-0.2,5.5-1.3c1.8-1.2,3.5-2,5.2,0.2c0.4,0.6,1.4,1,2.1,1
		c3.9,0,7.7,2,11.6,1.1c2.2-0.5,4.4,0.9,6.5,0c3.3-1.4,3.4-2.2,0.3-4.5c2.8-1.3,5.6-2.5,8.6-3.4c1.2-0.4,2.4-0.7,3.3,0.4
		c1.1,1.5,2.4,0,3.6,0.3c2.1,0.5,1.1-0.8,1.4-1.9c0.4-1.4,2.3-0.6,3.4-0.2c1.5,0.6,2.7,1.9,4.5,0.3c0.7-0.6,1.5,0.4,1.9,1
		c0.5,0.8,0.1,1.7-0.7,2.4c-1.4,1.2-3.1,1-4.6,0.6c-3.5-0.8-6.9-0.2-10.2,1c-2.9,1-3.2,3.8-4.1,6.2c-0.4,0.9,0.7,1.1,1.3,1.3
		c1.4,0.4,2.5,1.2,3.6,2c-4.6,0.6-9.2,1.7-13.9,0.6c-4.9-1.2-9.8-2.4-14.7-3.6c-0.1,0.3-0.1,0.5-0.2,0.8c2.7,0.2,5.1,1.4,7.6,1.9
		c2.4,0.4,4.7,1.7,7.3,0.9c0.5,0.5,1,1,1.7,1c5.4,0,10.7,0,16.7,0C312.2,623.7,310.8,623.9,310.4,622.7z M356.3,627.5
		c2,0.4,3.3,0.7,4.7,0.9c0.7,0.1,1.5,0,1.8-0.7c0.4-0.6-0.1-1.1-0.6-1.5c-0.5-0.6-0.8-1.4-1.9-0.8
		C359.2,626.1,358.1,626.6,356.3,627.5z"/>
	<path d="M170.1,452.3c1.6-3,0.3-5.7-2.2-5.9c-2.3-0.2-4.5,0-6.8,0.2c-2.5,0.3-4.9,0.1-7.2,1.4c-0.2,0.1-0.7,0.1-0.9,0
		c-3.1-2.7-6.7-0.6-10-1.2c-0.6-0.1-3.8,1-1.4-1.8c0-0.1,0-0.2,0-0.3c0-4.4,2.2-7.1,6.8-8c5.8-1.2,11.1-3.2,16.1-6.6
		c2-1.4,4.5-2.9,7.2-3.7c1.3-0.4,2.3-1.3,3-2.7c1-1.8,2.6-3.2,5.1-2.6c2,0.5,2.6-2.3,4.6-2.1c-4.4,0.3-8.7,0.7-12.4,3.4
		c-2.2,1.6-5,1.8-7.4,3.1c-2.4,1.3-4.9,2.6-7.4,3.7c-6.1,2.6-6,1-9.2-3.1c1.7,1,2.7,0.2,3.8-0.6c3.2-2.2,6.4-4.4,9.7-6.4
		c1.3-0.8,2.8-1.6,4.5-1c0.3,0.1,2.9-1.9,3.1-2.3c0.4-0.8,1.2-0.9,2-1c4.3-0.1,8.6-0.1,12.9-1.4c3.5-1.1,7.4,0,11-0.8
		c6.7-1.4,12.4,1.2,17.9,4.5c2.2,1.3,4.8,1.2,7.1,2.8c3.1,2.2,5.6,4.9,8.1,7.8c4.1,4.8,6.2,11,12,14.8c2.4,1.6,4.1,5.2,4.7,8.6
		c0.5,2.6-1.9,4.6-4.5,4c-5-1.1-10-1-15.1-0.8c-9.9,0.4-19.8,1.8-29.8,0.7c-5.2-0.5-10.5-0.7-15.7-1.3c-1.7-0.2-3.4-0.6-4.8-1.4
		C173.4,451.6,172.2,451,170.1,452.3z M200.9,434.4c2.9,0.4,5.8-0.6,8.6,0c1.4,0.3,1-1.2,1.7-1.6c0.4-0.3,0.4-0.6-0.2-0.8
		c-0.8-0.3-1,0.3-1.6,0.7c-0.9,0.7-2.8,1.3-3.2,0.9c-2-1.8-3.6-0.4-5.3,0.3c-2.6-3.3-4.3,1.2-6.7,0.8c-0.9-0.2-1.7,0.6-2.3,1.2
		c-0.7,0.8-0.1,1.7,0.8,1.7c1.7,0,1.5,1,1.1,2c-2,5.1-0.2,8.3,5,9.7c1.8,0.5,3.8,0.7,5.5,0.9c3.9,0.3,8,0,11.4-2.4
		c1.7-1.2,3.8-9.3,3-11.1c-0.2-0.5-0.6-0.7-1.2-0.5c-1.5,0.5-2.4,3.9-1.4,5.4c0.7,1.1,0.2,2.2-0.3,3.3c-1.4-1.1-3.4,1.3-4.6-0.9
		c-0.5-0.9-1-0.2-1.5,0.1c-0.6,0.4-1,0.8-1.8,0.8c-6.9-0.1-8.8-2.5-7.3-9.4C200.6,435.2,200.7,434.8,200.9,434.4z M187,419.1
		c1,1.3,1.9-0.6,2.8,0.2c-0.1,0.6-1.3,0.8-0.7,1.5c0.6,0.6,1.5,0.9,2.5,0.6c1.4-0.4,2.9-1,4.3-1.1c1.6,0,4.4-1.4,3.8,2.4
		c-0.1,0.6,0.5,0.6,0.8,0.5c1.8-0.4,3.3,3.1,5.4,0.5c0.1-0.1,1,0.3,1,0.4c0.1,2.2,1.8,1.4,3,1.8c3.2,1,6.8,0.6,9.4,3.5
		c0.6,0.7,2,0.8,3,1.2c1,0.4,2,0.7,1.5,2.3c-0.3,1,0,2,1.2,2.4c0.8,0.2,1.3-0.1,1.8-0.7c0.7-0.9,0.8-1.7,0-2.7
		c-1.5-2.1-3.5-3.6-5.6-5.1c-4.4-3.2-9.6-4.6-14.4-6.9c-4.8-2.4-10-2.7-15.2-2.3C190,417.7,188.4,418.1,187,419.1z M185.5,437.3
		c0.1-2.9-1.6-4.5-3.6-3.4c-2.4,1.3-4.9,2.6-7.4,3.8c-1.6,0.7-2.5,2-0.2,3.5c1.1,0.8,3,1.7,2.8,3.2c-0.4,2.5,1.6,2.5,2.8,3
		c0.8,0.4,1.9,0.5,2.9,0.7c1.1,0.3,2.4,1.1,3.3-0.1c0.8-1,0.9-2.4,0.4-3.7C185.5,442,184.9,439.6,185.5,437.3z M232.3,439.6
		c-1.5,2.8-1.3,5.2-1.4,7.5c-0.1,1.9,0.8,2.6,2.4,2.7c1.7,0,3.4-0.2,5.3-0.3C237.2,445.8,234.3,443.3,232.3,439.6z M223.1,445.8
		c0.1,0,0.1,0,0.2,0c-0.1,0.8-0.3,1.6-0.3,2.3c0,0.7,0.5,1,1.1,1.3c0.4,0.2,0.8,0,0.9-0.4c0.6-2.1,1.6-4.1,1.6-6.3
		c0-1-0.6-1.8-1.4-2.1c-1.1-0.3-1.5,1-1.7,1.6C223.1,443.3,223.2,444.6,223.1,445.8z M163.4,440.6c2.3,0.5,3.7-0.4,4.1-2.9
		C165.2,437.6,165.1,440.1,163.4,440.6z M194.7,427.8c-2.2-2.9-4-2.7-5.3,0.5C191,426.6,192.7,425.9,194.7,427.8z"/>
	<path d="M459.4,320.6c1.2,1.6,2.5,3,2.5,5.2c0,0.9,0.4,1.7,1.5,2.3c1.9,1.1,3.4,2.7,4.4,4.7c0.6,1.2,1,2.4,2.6,2.6
		c0.8,0.1,1.1,0.9,1,1.6c-0.2,2.5,1.1,4.8,0.7,7.4c-0.2,1.6,1.6,3.1,1.5,3.6c-0.6,2.7,1.3,5,0.8,7.6c-0.2,1.1-0.6,2.4,0.1,3.5
		c1.4,0.1,0.1-1.9,1.7-1.7c0,1.4,0.9,2.5-0.2,4.4c-1.1,1.8-0.6,4.6-0.7,7c0,0.8,0.7,0.4,1.1,0.5c1.1,0.2,1.4,1,1.4,2
		c0,2,0.4,4.1,0,6c-1.1,5.4-0.6,11,0.5,16.1c1.4,6.7-0.2,13.2,0.5,19.7c0.6,5.9,0.1,11.7,0.2,17.5c0,1.2-0.8,3.1,1.2,3.8
		c0.4,0.1,0.2,0.6-0.1,0.7c-2.1,1.1-1.1,3-0.9,4.5c1,7,1.5,14.1,1.7,21.2c0.2,8.7,0.9,17.3,1.3,26c0.5,13.9,1.3,27.8-0.2,41.6
		c-0.8,7.9-2.2,15.8-4.6,23.4c-2.7,8.4-4.7,17-8.2,25.2c-1.4,3.2-2.2,6.8-3.1,10.3c-0.8,3.2-2.4,6.2-3.6,9.4
		c-1.9,5.3-3.4,10.9-6,15.8c-3.3,6.4-6.1,13.1-9.9,19.3c-6,9.6-12.9,18.5-20.5,26.7c-9.1,9.9-18.2,19.9-27.9,29.1
		c-3.4,3.2-6.8,6.3-9.8,9.9c-1.8,2.2-4.8,2.5-6.6,4.9c-0.6,0.9-1-1.7-2.1-2.3c-0.7-0.4-0.8-1,0.1-1.6c5.3-4.2,9.3-9.7,14.2-14.2
		c5.1-4.6,9.6-9.7,14.6-14.5c3.3-3.2,6.3-6.7,9.2-10.2c1.5-1.8,3.2-3.3,4.7-5c6.4-6.9,11.9-14.4,17.2-22.2c3.9-5.8,7-12.2,10-18.6
		c3.2-7,5.7-14.2,8.4-21.3c1.7-4.5,3.3-9.2,4.7-13.8c1.4-4.4,2.9-8.8,4.5-13.2c2.4-6.6,4.2-13.4,6.2-20.2
		c4.5-15.5,4.5-31.4,4.1-47.3c-0.4-14.5-0.6-29-2-43.4c-0.7-6.8-1.2-13.6-1.7-20.5c-0.5-6.5-0.2-13,0-19.5c0.2-5.6,0-11.1-0.7-16.7
		c-0.1-0.4-0.2-0.8-0.2-1.2c0.3-3.2-0.4-6.1-2.4-8.6c-1.6-2-1.4-4-0.4-6.1c0.4-0.8,0.5-1.7,0.2-2.7c-0.8,0.5-1.5,1.5-2.5,0.8
		c-0.8-0.6-0.4-1.6-0.4-2.5c-0.1-2.3,1.7-3.9,2.5-6.1c-3.1-0.1-3.1-2.2-3.6-4.6c-0.8-4-0.8-7.9-0.3-11.9c0.1-0.9-0.5-1.6-1.1-2.3
		c-2.2-2.2-2.9-4.4-2.1-7.9c0.8-3.7,1.2-8.2-2.9-11.2c-1.2-0.9-2.8-1.9-0.8-4c1-1-1.4-1.9-1.8-3C457.6,324.6,458,322.4,459.4,320.6z
		"/>
	<path d="M429.2,441.7c1.4,3.1-0.3,5.3-2,7.4c-0.8,1-1.5,1.8-0.5,3.1c0.6,0.8,0.5,1.7-0.9,1.8c-0.3,0-0.7,0.1-0.8,0.3
		c-1.6,3.8-5.3,3-8.2,3.7c-3.1,0.7-6.2,1.5-9.5,1.4c-9.6-0.1-19.2,0.4-28.7-0.9c-3.2-0.4-6.5,0-9.8-0.8c-2.8-0.7-5.5,2.2-8.6,0.8
		c-0.9-0.4-1.8-0.7-2.6-1.3c-3.8-3.1-3.5-3-2.3-7.7c1.2-4.4,3.5-7.9,6.8-10.9c1-0.9,1.3-2.6,2.3-3.4c2.5-1.8,3-5.5,6.1-6.4
		c2.3-0.7,4.1-1.7,5.6-3.7c0.9-1.2,1.8,0.2,2.4,0.8c1.1,1-0.3,1.2-0.7,1.7c-0.3,0.4-1.2-0.1-1.5,0.6c-0.5,0.9-2.3,1.3-1.6,2.6
		c0.8,1.5,2.6,1,3.5,0.4c5.5-3.7,11.7-4,18-3.6c2.5,0.1,5,0,7.7,0c-0.7-0.8-2-2.1,0.5-2.2c5.2-0.1,10.4-0.3,14.8,3
		c0.6,0.4,1,1.1,1.8,0.9c3.2-0.7,5.7,1.1,7.6,3c4.5,4.4,10.5,6.4,15.4,10.3c1.7,1.3,4.7,1.9,7,3c2,0.9,2.7,4.5,1.1,6.1
		c-0.4,0.4-1,1-1.5,0.6c-2-1.4-2.9-0.8-3.4,1.5c-0.2,1.1-1.6,1.5-2.5,1.2c-2.2-0.6-4.8,0-6.6-2.2c-1.2-1.4-3.1-0.9-4.8-0.9
		c-1,0-3.1,0-2.5-1c0.7-1.1-1.3-3.8,1.8-3.5c1.2,0.1,2.2-0.7,2.4-1.9c0.3-1.3-0.9-1.5-1.8-2C432,443,431,442,429.2,441.7z
		 M400.6,448.7c2.1-4.2,3.3-8.4,1.9-13.4c-1.9,2.2,0.3,5.5-2.4,7.1c0,0,0.1,0.5,0.2,0.5c2.6,0.4,0.6,1.6,0.4,2.4
		c-0.2,1-1.4,1.8-0.6,3c-1.7-0.9-4.9,0.9-4.7-2.9c-2.2,1.3-4.2,3.7-6.3,2.7c-2.1-0.9-4.2-0.7-6.2-1.8c0.7,4.4,2,5.6,5.2,5
		c0.6-0.1,1,0,1,0.6c0,1.7,1.4,1.4,2.4,1.5c1.7,0.1,3.4,0.1,5.1,0C400,453.2,400.8,452.2,400.6,448.7z M409.2,433.1
		c0.2,2.3-1.1,3.6-0.5,5.2c0.9,2.5,0.3,4.9-0.8,7.2c-0.7,1.4-1.4,2.9-1.7,4.5c-0.2,1.3,0.4,3.9,1.1,3.7c4.3-1.1,8.9-1.4,12.7-4.4
		c4.4-3.4,4.6-4.4,0.2-7.4c-0.4-0.3-0.7-0.7-1.2-0.9c-2.2-0.7-2.7-3.4-4.7-4.2C412.6,436.1,411.1,435.1,409.2,433.1z M383.6,436.7
		c1.6,2.4,3.2,0.5,4.7,0.9c0.3,0.1,0.9-0.2,1-0.4c0.3-0.6-0.2-0.9-0.6-1.2c-1.7-1.4-5.5-1.5-6.8,0.3c-0.8,1-3.1,1.2-2.4,2.4
		c0.7,1.3,1.2,3.8,3.2,3.4c1.9-0.3,1.2-2.4,1.2-3.8C383.7,438.1,383.7,437.8,383.6,436.7z M372.6,449.8c-1.2-1.1-0.5-2.5-0.8-3.7
		c-0.4-1.3-0.7-2.7-0.8-4.1c0-0.6-0.2-1.3-1-1.1c-0.7,0.1-1.3,0.1-1.8,0.8c-1.6,2.2,0.1,8.1,2.7,8.9
		C371.9,451,372.4,450.8,372.6,449.8z M379.8,450.1c0.7-1.6-0.6-2.4-1.4-3.3c-0.9-1-1.2-2.2-1.5-3.8
		C376.7,446.3,377.3,447.7,379.8,450.1z"/>
	<path d="M372.1,386.6c-0.9,0.1-1.9,0.5-2.3-0.7c-0.3-1,0.7-1.3,1.2-1.8c0.6-0.6,1.7-1,1.5-2.1c-0.2-1.2-1.2-0.6-2-0.6
		c-0.3,0-0.7,0.1-0.7-0.6c0.2-1.5-0.1-1.7-1.4-1.4c-0.4,0.1-0.7,0.4-1.1,0.5c-4.7,1.8-6.8,0.4-6.8-4.6c0-1.3,0.7-2,1.9-1.2
		c1,0.7,2.2,0.7,2.8,0c2.1-2.4,5.3-2.9,7.7-5c1.7-1.5,4-1.5,6.2-1.4c5.4,0.1,10.9,1.2,16.3,0c0.8-0.2,1.8,0,2.3-0.5
		c1.8-1.8,4-0.5,6-1c0.3-0.1,0.8,0,1.2,0.2c4.6,2.6,5.7,3.3,10.7,3.5c3.3,0.2,6.5,1.3,9.2,2.5c2.8,1.2,5.7,3.5,7.9,6.1
		c0.3,0.4,0.6,1.2,0.8,1.2c4.4-1.2,4.9,3.4,7.3,5.2c1.9,1.3,3.8,2.7,5,4.8c0.3,0.5,1,1,0.3,1.5c-0.3,0.3-1.3,0.4-1.4,0.3
		c-1.3-2.5-3.5-1-5.2-1.1c-3.6-0.1-7.3-1.1-10.8,0.2c-0.5,0.2-0.7,0-0.9-0.3c-1.5-2.4-2-2.5-4.8-1.3c-0.8,0.4-1.7,1-2.5,0.3
		c-1.5-1.3-1.7,0.8-2.2,0.8c-2,0-4.1,0.9-5.9-0.1c-4.2-2.3-8-1-11.7,1.2c-2.4,1.4-3.7,1.1-5.4-1.2c-0.6,1.8-1.7,2.1-3.3,1.2
		c-0.5-0.3-1.2-0.4-1.7-0.3c-3.7,0.8-5.3-1.5-6.3-4.4c-0.7-2-1.2-2.2-2.2-0.3c-0.5,0.9-1.4,0.5-2.2,0.6c-1.2,0.3-2.3,0.1-3.4-0.5
		C374.8,385.6,373.4,385.7,372.1,386.6z M382.1,381.5L382.1,381.5c0.2,0.4,0.4,1.1,1,1c0.3-0.1,0.8-0.7,0.8-1c0-0.6-0.6-0.6-1.1-0.6
		c-0.3,0-0.6,0-0.8,0c0,0.1-0.1,0.2-0.1,0.2C381.9,381.3,382,381.4,382.1,381.5z M425.4,382c0.7,1.8,2.3,1.6,3.7,1.7
		c1.2,0.1,3,1.6,3.6-0.3c0.3-0.8-1.7-1.7-3.1-2.2c-0.6,0.7,1,1.3,0,1.8c-0.6,0.3-1.2-0.3-1.5-0.7c-0.5-0.7-0.2-2.2-1.8-1.3
		c-1.2-1.2-2.4-2.4-3.6-3.5c-0.6-0.5-1.5-0.7-2.3-0.4c-1.2,0.5,0.6,1.3-0.2,2.1c-1-0.6-2.2-0.9-3.7-0.2
		C419.8,380,422.7,380.6,425.4,382z M393.3,381.8c-0.6-0.6-1.2-1.3-1.8-2c-0.6,0.8-2.1,0.8-1.7,2.4c0.2,1,0.2,2.2,1.6,1.9
		C392.4,383.9,393,383.1,393.3,381.8z M401.6,380.8c0-1.3-1.2-1.2-1.9-1.6c-0.9-0.5-1.3,0.2-1.3,1c-0.1,1,0,1.9,1.2,2.1
		C400.6,382.4,401.3,381.8,401.6,380.8z M406.2,371.4c-0.3-0.7-0.9-0.9-1.5-0.9c-1.2,0-2.5,0.3-2.9,1.6c-0.3,0.9,0.8,0.9,1.5,1
		C404.9,373.6,404.7,371.2,406.2,371.4z"/>
	<path d="M201.8,219.8c1.6,0.2,3.8-1,4.2,2.1c0.1,1.2,2.2,1.8,3.2,0.6c1.6-1.9,2.8-4.1,4-6.2c0.7-1.2,0.6-2.1-0.9-2.9
		c-1.4-0.8-2.4-2.2,0.2-2.9c0.5,0,1-0.1,1.5-0.1c1.1,0.3,0.5,1.4,0.8,2c0.4,1,0.8,1.8,1.9,2.1c1.2,0.3,1-0.9,1.4-1.5
		c1.7-2.3,6-2.9,8.4-1.3c1.2,0.8,2.9,0.6,2.7,2.9c-0.1,1.2-0.2,2.1-1.1,2.8c-1.2,1.1-2.6,2.1-0.9,4c0.6,0.6,0.2,1.4-0.6,1.6
		c-4.4,1-6.3,4.6-7.7,8.2c-1.1,2.7-2.8,1.6-4.4,1.8c0.3-0.9,0.3-1.7-0.7-2.1c-0.2-1-0.4-2,0.4-2.8c0.7-0.6,0.5-0.9,0-1.4
		c-0.4-0.4-0.7-0.6-1.3-0.4c-2.9,1-5.6,1.9-8.8,0.7c-1.7-0.6-2.2,2.2-3.4,3.3c-0.8,0.8-0.3,1.2,0.2,1.9c1.6,2.1,0.7,3.8-2,4.1
		c-0.4,0-0.9,0-1.1,0.2c-1.3,2.3-2.6,1.5-3.9-0.3c-1.1,1.9-1.7,3.8-3.7,4.7c0.9,1.3,1.9,1.9,3.2,2.4c1.7,0.6,2.2,2.5,1.6,3.4
		c-1.4,1.8-0.9,5.1-4.1,5.5c-0.6,0.1-0.7,0.6-0.8,1.1c-0.5,1.8-1.7,1.7-3.1,1c-0.7-0.3-1.5-1.4-2.1-0.9c-2.5,2.2-4.1-1.2-5.2-0.9
		c-2.9,0.7-3.7-3.4-6.7-2.1c-1.1,0.5-2.5-1-2.3-2.8c1-1.2,2.6-2.1,1.9-4.1c-0.5,0-1,0-1.5,0l-0.3,0c-0.2-1.5-1.8-1.9-2.4-3.3
		c-0.4-1-1.1,0.2-1.6,0.5c-0.4,0.2-0.8,0.7-1.3,0.3c-0.5-0.4-0.1-0.8,0-1.3c1.2-4.4-1.1-7.7-5.7-7.9c-1,0-2-0.1-3-0.1
		c-0.4,0-1.3,0.1-1-0.5c1.5-2.6-1.4-1.5-2.1-2.6c4.7,0.1,6.5-2.6,7.1-6.7c2.2-2,4.3-2.1,5.2,0.2c1.1,2.7,2.1,2,3.5,0.5
		c0.7-0.8,1.4-1.5,2.1-2.3c1.8,2.4,3.8,1.8,5-0.2c1.4-2.2,4.1-3.4,4.3-6.5c0.1-1.3,1.4-2.9,3.2-1.3c0.6,0.5,1.2,0.6,1.9,0.7
		c0.3,0.3,0.7,0.6,1,0.9c0,1.6-0.8,2.8-1.5,4.1c-1-0.3-1.8,0-1.9,1.1c-0.1,1,0.5,1.4,1.3,1.7c1.2,0.4,1.6-0.3,1.6-1.4
		c2.2-2,5.7-1,7.7-3.5c0.6,0.4,1.4,1,0.8,1.7c-1.6,1.9,0.1,2.6,1,3.6c-2.2,1.6-3.9,3.9-6.5,5c-0.8,0.3-2.5,0.5-1.9,1.7
		c0.5,0.9,0.7,2.5,2.3,2.7c0.7,0.1,1.3,0.4,1.6-0.6c1-3.1,4.3-3.2,6.3-3.1c2.4,0.1,2.6-1,2.9-2.5
		C201.6,222.8,201.7,221.3,201.8,219.8z M172.6,236.2c0.4,1.3,0.1,2.7,1.7,3.5c3.6,1.7,5.1-1.5,7.8-3
		C178.8,235.2,175.8,236.1,172.6,236.2z"/>
	<path d="M161.1,368.6c1.6,0.9,2.9,2.8,5.1,1.1c0.1,0,0.2,0,0.4,0.1c0.1-0.1,0.2-0.1,0.4-0.2c0,0,0,0,0,0c0.3,0.4,0.6,0.8,0.8,1.2
		c2.9-2.1,6.6,1.5,10-2c2-2.2,6-3.1,9.1-4.7c1-0.5,2.4-0.3,2.8,0.4c2.2,3.1,5.9,2.5,8.9,3.7c2.1,0.9,2.7,3,4.5,4.1
		c0.9,0.5,1.4,0.9,2.6,0.6c2.5-0.6,5.2-0.8,7,1.7c-1,1.9-0.7,4.4-2.7,5.8c-0.3,0-0.6,0-0.9,0c0-0.1-0.1-0.2-0.2-0.2
		c-1.7,1-3.6,0.8-5-0.3c-2.1-1.5-3.9-2.4-6.1-0.4c-0.6,0.5-0.7,0.2-0.8-0.4c-0.4-1.4-1.7-1.3-2.7-1.1c-1,0.2-0.8,1.2-0.6,2
		c0.2,1.4,1.2,1.6,2.4,1.6c4.9-0.2,9.8,0,14.6,0.7c0.3,0.1,0.6,0.2,0.8,0.3c0.7,1.9,2.6,2.4,4,2.7c2.1,0.5,2.9,2.6,4.8,3.2
		c0.9,0.3,0,1-0.2,1.4c-0.5,1-0.9,2.1-2.4,1.7c-2.3-0.6-4.6-1.4-6.6-2.7c-5.2-3.6-11-3.7-16.6-2.2c-2.5,0.7-4.3,0.6-6.6,0
		c-2.9-0.8-5.4,0.5-8,2c-2.4,1.4-4.8,3.3-8.1,2.3c-1.5-0.5-3.1-0.7-4.2-2.1c-1.1-1.4-2.6-1.6-4.1-2.1c-0.1-0.1-0.1-0.2-0.2-0.3
		c-0.1-0.1-0.1-0.2-0.1-0.3c-0.1-1-0.6-0.9-1.3-0.6c-1.6-0.5-3.3-1-4.9-1.6c1-1.4,0.5-2.8-0.5-3.8c-1.2-1.3-1.8,0.6-2.7,0.8
		c-0.3,0.1-0.6,0-0.9,0c-0.8-1.5-1.7-2.4-2.8-0.2c-0.2,0.5-0.5,1-1,0.9c-3.1-0.7-6.1,0.4-9.2,0.4c1-2.4,2.7-3.5,4.7-4.9
		c2.6-1.7,5.8-3.3,7.3-6.6c0.9-1.9,2.8-3.5,5.1-1.2c0.5,0.5,1.2,0.7,1.9,0.8c0.2-0.2,0.4-0.3,0.6-0.5c0.3-0.1,0.6-0.3,0.8-0.4
		c0.1,0,0.2,0,0.3,0c0.1-0.1,0.2-0.2,0.3-0.3C160.9,368.8,161,368.7,161.1,368.6z M167.4,382.7c0.8-0.1,2-0.2,2-0.9
		c0-3.3,2.9-3.9,4.8-5.4c0.5-0.4,1.6-0.7,1-1.9c-1.3,0.5-2.5,0.9-3.9,0.8c-5.2-0.3-6.8,2.1-4.7,6.9
		C166.9,382.3,167.2,382.5,167.4,382.7z"/>
	<path d="M169,311.9c-0.1-0.9-2-1.1-1.1-2.1c2-2.1,3-5.1,6.1-6.1c2.4-0.8,3.8-2.3,5.6-4c4.3-3.9,7.4-8.9,12.1-12.3
		c8.1-5.9,16.1-11.9,24.7-17c0.9-0.5,1.8-0.9,2.8-1c3.5-0.3,5.6-2.9,7.9-5.1c1.6,0.5,3.2,2.5,4.7-0.1c1.2,0.4,2.9-0.8,1.6,2.5
		c-2,5.4-7,4.3-10.3,6.7c-1.6,1.1-3.5,1.8-5,2.9c-8.1,5.6-16.7,10.5-24.1,17.1c-3.7,3.3-6.4,7.7-10.7,10.2c-1.5,0.9-2.5,3-4.7,2.6
		c-0.5-0.1-0.6,0-0.6,0.5c-0.3,2.7-5.4,6.5-7.9,6C169.6,312.4,169.3,312.1,169,311.9C169,311.9,169,311.9,169,311.9z"/>
	<path d="M171.9,220.2c-0.7,0.8-1.4,1.5-2.1,2.3c-1.2-1-2.5-1.8-3.7-2.9c-2.2-2-4.2-2.2-6.6-0.5c-3.4,0.1-2.8,2.5-2.5,4.6
		c-0.6,0.3-1.2,0.2-1.7-0.2c-1.7-1.4-3.4-2-5.1,0.1c-0.4,0.5-1.1,0.2-1.7,0l0,0c-0.8-1.4-0.3-2.4,0.8-3.4c1.2-1,2.4-2.1,3.5-3.2
		c1-1.1,1.7-2.6,0.3-3.7c-1.5-1.1-2.2-3-4-3.7c-1.3-0.5-0.5-1.1-0.2-1.6c1.8-2.4,3.5-5,6.7-5.6c0.9-0.2,0.6-0.9,0.9-1.3
		c0.6-1,1.1-2.1,2.4-2.6c1.1-0.5,1.9-1.3,3.1,0c1.1,1.2,1.1,2.3,0.4,3.5c-1.3,2.5-4.1,3.4-6,5.4c-1.3,1.4-1.3,3.4,0.5,4.1
		c0.9,0.4,0.7-0.4,1-0.8c1.1-1.4,2.2-3.3,3.6-3.6c1.6-0.4,3.5-0.7,5.6-0.5c-1.9,1.9-1.7,4.8-4.3,6c-0.7,0.3-0.7,1.5,0.5,1.3
		c1.4-0.2,2.9,0.8,4.1,0.2c2.3-1.2,3.8-0.2,5.3,1.3c1.8,1.7-0.9,2.5-0.8,3.8C172,219.6,171.9,219.9,171.9,220.2z"/>
	<path d="M459.4,320.6c-1.5,1.8-1.9,4-1.7,6.3c-2.4-0.5-3.3-3.1-3.1-4.4c0.4-2.4-3.1-3.7-1.3-6.1c0,0-0.2-0.2-0.3-0.3
		c-1.8-1-1.8-1-1.2-2.8c-1.3-0.4-1.6,1.4-3,1.2c0.1-1.8-0.4-3.4-2.2-4.4c-0.4-0.2-0.7-0.8-0.8-1.2c-0.2-4.9-4-8-6-11.9
		c-0.2-0.3-2.4-1.5,0.3-1.5c0-0.3,0.1-0.7,0-0.8c-2.4-1.7-1.6-5-3.6-6.9c1.5,0.3,2.1,1.8,3.9,2.6c-0.4-1.2-0.7-1.9-1-2.6
		c2.7,0.9,4.2,2.9,5.4,5.6c0.8,2,1.7,4.7,4.9,4.2c0.8-0.1,0.9,0.6,1.2,1.1c0.4,0.7,0.8,1.8,1.3,1.9c2.9,0.8,2.7,3.4,3.3,5.5
		c0.1,0.2,0.3,0.3,0.4,0.5c1.2,1.3,1,3.2,2.4,4.4c0.3,0.3,0.3,0.8-0.2,1c-2.9,0.8-1.1,2.3-0.2,3
		C460.1,316.4,458.1,318.9,459.4,320.6z"/>
	<path d="M427.5,256.4c-1.2-0.9-2.5-1.9-3.7-2.9c-0.5-0.4-1.6-1-0.2-1.7c0.1-0.2,0.3-0.3,0.4-0.4c0.1-0.5,0.3-0.9,0.8-1.1
		c0.3,0,0.5-0.1,0.8-0.1c0.3,0.5,0.7,1,1.4,1.1c2.6,0.2,3.3,1.9,3.1,4.1c-0.2,1.8,0.6,2.2,2.2,1.8c-1.1,3.4-0.7,4.1,2.7,4.9
		c1.9,0.4,0,1.5,0.3,2.2c-0.7,0.8-1.3,1.6-2,2.5c-1.9-0.2-3.7-0.6-5.6-0.2c-1.4,0.3-2.2,0.9-1,2.4c2.9,3.7,5.5,7.8,8.8,11.2
		c1.8,1.9,2.4,3.7,2.5,6c-1-0.2-1.1-1.4-1.8-1.9c-0.6,0.8-1.2,1.4-1.7,2.1c-2.1-0.7-1.9-3-2.8-4.5c-2-3.1-5.3-5.4-6-9.3
		c-0.1-0.5-1.2-1-1.9-1.3c-1.4-0.7-2.6-1.5-2-3.4c0.5-1.5-1-2.4-1.7-2.9c-2.9-2.1-3.9-5.2-4.8-8.3c0,0,0.2-0.2,0.2-0.2
		c3.1-3.2,4.5,0.6,5.5,2c1.4,2,4.1,1.6,5.4,3.7c0.4,0.7,1.5,0.1,1.6-0.9c0-0.9-0.2-1.8-0.3-2.7c0-0.1,0.1-0.1,0.1-0.2
		c0-0.1-0.1-0.3-0.1-0.4c0-0.2,0.1-0.4,0.1-0.6C428.1,256.9,428.1,256.6,427.5,256.4z"/>
	<path d="M270.4,632.9c0.4-1,0.6-2.2,2.2-1.8c0.5,0,1-0.1,1.4-0.1c3.2,0.6,5,4.7,9,3.6c1.2-0.3,1.4,2,2.4,2.8c0,0.4,0,0.9,0,1.3
		c-2-1.7-3.6-0.5-5.6,0.2c-5.4,1.9-11.2,4-16.7,2c-5.8-2-11.8-4.6-14.5-11.2c1.1-1.5,4.7,1.5,4.9-2.3c1.3,0.8,3.5-1.7,4.3,1.2
		c-0.3,0.2-0.6,0.4-1,0.6c1.9-0.1-0.8,3.5,2.1,2.5c-0.3,3,2,2.2,3.6,2.4c2.3,0.3,4.5,0.4,6.8,0.7
		C271.8,635.4,270.8,634.1,270.4,632.9z"/>
	<path d="M181.2,582.6c0.6-0.9,0.8-1.7,1.8-2.1c0.1,0.2,0.3,0.5,0.3,0.7c-0.1,0.8,0,1.7-0.5,2.3c-5.4,7.3-3.8,15.8-4.3,23.9
		c0,0.7,0.1,1.4,0.1,2.1c-0.1,1.9-0.2,3.7-2.8,3.7c-2.8,0-3.2-2.4-3.1-4c0.1-1.3-0.1-2.3-0.5-3.4c-1-3.4-0.7-6.8-0.6-10.2
		c0.1-1.8,0.7-3.2,2.1-4.7c1.4-1.5,1.4-4.1,1.4-6.3c0-2.2,2-3.1,2.3-5.1c0.1-0.9,1.4-0.6,2.3-0.3
		C181.8,579.6,180.6,581.3,181.2,582.6z"/>
	<path d="M410.9,419.9c1.2-0.2,1.8-0.9,2.7-1.5c1.4-0.9,3-1.8,4.2,0.5c0.4,0.8,1.1,0.6,1.8,0.8c6.5,1,13,2,18.1,6.8
		c0.6,0.5,1.3,1,2,1.2c3.7,1,5.1,4.3,6.8,7.1c0.6,0.9,1,0.5,1.5,0.8c1.8,0.8,2.5,3.6,1.5,5.2c-0.5,0.8-0.9,0.6-1.4,0.1
		c-5.7-4.9-12.7-7.9-18.5-12.7c-2.7-2.2-6.1-2.9-9.1-4.5C417.5,421.9,414.2,421.3,410.9,419.9z"/>
	<path d="M304.1,563.1c-1.1,0.6-2.1,0.3-3-0.4c-1.1-0.8-1.3,0-1.5,0.8c-0.3,1.6-0.7,3.1-1,4.7c-0.9,0-1.6-1.2-2.9-0.1
		c-3.4,3.1-4.1,2.9-7-0.7c-0.2-0.3-0.6-0.5-0.9-0.7c0-1.2,0.4-2.4-0.1-3.5c0-0.2,0-0.3,0-0.5c0.7,0,1.5,0,2.2,0c0.3,0,0.6,0,0.9,0
		c0.8-0.8,2.4-0.1,2.8-1.6c0-0.4,0-0.7,0-1.1c0-0.5,0-0.9,0.1-1.4c-0.4-0.4-0.7-0.9-1.1-1.3c0-0.2,0-0.5,0-0.7
		c0.3-2.8,3.4-2.4,4.6-4.1c1.6,0.4,2.5-0.4,3.2-1.7c0.2-0.2,0.4-0.4,0.5-0.6c0.4-0.2,0.9-0.4,1.3-0.6c0.1,0,0.3,0,0.4,0
		c2.7,0.5,3.2,1.4,2.1,3.7c-0.1,0.2-0.3,0.4-0.3,0.4c2.7,2.7-0.6,5.3,0,7.9c-0.1,0.1-0.1,0.3,0,0.5c0,0.3,0,0.5,0,0.8
		C304.3,562.9,304.2,563,304.1,563.1z"/>
	<path d="M287.8,563.2c0.4,1.2,0,2.3,0.1,3.5c-1.2,0.6-2.2-0.6-3.5-0.4c0.7,1.7,4.1,2.3,1.7,4.8c-0.8-0.3-1.2,0.3-1.8,0.6
		c-1.3,0.5-2.4-0.2-3.4-0.8c-6.3-4.3-13.2-5.8-20.7-5c-3.2,0.3-4.9-2.2-7.9-2.7c4.2-2.6,8.5-2,12.6-1.9c3.9,0,8-0.4,11.6,1.9
		c1.9,1.2,3.2-1.1,4.8-1.5c0,0,0.2,0,0.2,0l0.2,0c1.4-0.6,2.8-1.5,4.3-0.1c-0.3,0.8,0,1.4,0.7,1.7
		C287,563.3,287.4,563.2,287.8,563.2z"/>
	<path d="M209.9,380.3c2-1.4,1.7-3.9,2.7-5.8c3.1-2.9,7-1.1,10.5-1.9c1.4-0.3,1.5,1.4,1.6,2c0.4,1.4-1.4,1.2-2.1,1.9
		c5.5-0.8,11-0.2,16.8-0.1c-0.5,1.1-2.7,1-1.4,2.8c0.6,1-0.8,1.2-1.4,1.3c-3.7,0.5-7.6,0.4-11.2,1.4c-4.6,1.3-9.3-0.7-13.8,0.5
		c-0.3-0.1-0.6-0.2-0.8-0.3C210.4,381.5,210.1,380.9,209.9,380.3z"/>
	<path d="M125.5,216.8c-1.7-0.6-1.6-1.7-0.7-2.8c2.5-2.8,4.9-5.6,7.7-8c2.5-2.2,5.3-4.5,7.1-7.1c2-2.8,4.5-5,6.3-8
		c1-1.6,2.3-1.9,3.7-0.7c1.5,1.2,1.2,2.3-0.1,3.7c-5.7,5.9-11,12.2-16.8,18c-1.3,1.3-2.8,2.9-3.6,4.5
		C127.7,219,126.8,218,125.5,216.8C125.6,216.8,125.5,216.8,125.5,216.8z"/>
	<path d="M268,608.2c-1.1,0.2-1.7,0.2-2.7,1.5c-1.2,1.6-4.3,2.2-6.9,1.9c-7.8-0.8-15.7-1.2-23.5-1.1c-0.8,0-1.6,0.1-2.2-0.9
		c0.6-0.9,1.7,0.1,2.3-0.6c-0.3-1.6-1.8-1.6-3.5-2.4c12.5-0.7,24.3-0.6,36,0.2C267.6,607.2,267.8,607.7,268,608.2z"/>
	<path d="M284.2,571.7c0.6-0.3,1.1-0.9,1.8-0.6c2.6,2.3,5.7,4,9.2,4.5c3.9,0.6,7.8,1.2,11.9,0.8c2.5-0.2,4.8-1,6.9-2.3
		c1.6-1,3.2-0.6,3.8,0.7c0.6,1.3-0.6,2.4-2,3.2c-7.4,4.3-15.3,2.1-23.1,1.7c-3.7-0.2-6.3-2.7-8.7-5.2
		C282.9,573.4,285.2,572.7,284.2,571.7z"/>
	<path d="M381.6,709.6c-1.5,0.8-3.2,1.1-1.8,3.1c0.7,1-0.3,1.5-0.7,2c-5.7,5.3-7.9,13-13.2,18.6c-0.9,1-0.3,2.3-0.9,3.3
		c-1.2,0.2-1.2-2-2.9-1.3c-1.1,0.4-2.1-3.2-0.9-4.7c2.6-3.2,4.8-6.8,8.8-8.6c0.2-0.1,0.5-0.2,0.5-0.2c-0.2-1.5,2-2.4,0.8-4.1
		c-0.4-0.6-0.6-1.6,0.1-2.3c2.7-2.8,5.5-5.3,9.3-6.5C380.8,708.9,381.1,709.3,381.6,709.6z"/>
	<path d="M273.8,726.6c0.8,1.5,0.3,3.3,1.3,4.7c0.8,0.7,1.7,1.3,2.5,2c-0.9,1-2.4,0.6-3.6,1.5c-1,0.7-3-0.4-2.5-2.6
		c-1.2-0.3-1.6,1.4-2.6,0.7c-1.9-1.4-4-0.8-6-0.7c-1,0-2.3,0.9-3-0.5c-0.6-1.3-0.3-2.9,0.7-3.9c1.1-1.1,1.1-2.3,1.3-3.5
		c0.5-4.5,0.4-4.5,4.9-4.2c-0.4,2.6,1.8,4.6,1.5,7.3c-0.1,1.1,1.3,0.8,2.1,0.5C271.7,727.8,272.7,726.9,273.8,726.6z"/>
	<path d="M238.1,228.6c1.2-3.9,4.4-6.5,6.8-9.6c0.2-0.3,0.8-0.6,1-0.5c3.3,1.7,4.4-1,6.1-2.8c0.9-0.9,1.9-2.1,3.5-2.1
		c0.6,0,1.2,0,1.5,0.6c0.3,0.7,0,1.2-0.6,1.5c-1.4,0.9-1.6,1.9-1.5,3.6c0.1,2.9-2.7,3.1-4.6,3.2c-1.7,0.1-2.5,0.6-3.6,1.8
		c-2,2.2-3.9,4.8-7.1,5.5C239.1,229.6,238.6,229.1,238.1,228.6z"/>
	<path d="M444.5,375.5c3.3,0.3,5.1,2.7,6.2,4.9c1.3,2.5,3.4,3.6,5.4,5c1.7,1.3,1.5,2.8,0.6,4.1c-0.9,1.3-2.3,1.1-3.4,0.2
		c-3.8-3.4-7.5-6.8-11.2-10.2c-0.9-0.8-2.3-1.4-2-2.7c0.4-1.6,1.9-0.8,2.9-0.9C443.6,375.9,444.1,375.7,444.5,375.5z"/>
	<path d="M205.8,270c-0.3-0.8,0.4-1.3,0.8-1.4c1.1-0.3,2.4-0.3,1.4-2.1c-0.4-0.8,0.5-1.1,1.1-1.5c4.2-2.6,8-5.6,11.6-9
		c0.8-0.7,2.1-1.9,3.1-0.9c1,1,0.9,2.6-0.3,3.8c-2.9,3.1-5.8,6-9.4,8.3C211.5,268.9,208.9,270,205.8,270z"/>
	<path d="M100.7,294.1c6.5-5,6.5-5,8.6-3.8c-2.8-0.7-3,1.6-4.3,2.4c-0.3,0.2-0.4,0.7,0,1c0.8,0.6,1.1-0.7,1.9-0.4
		c-0.5,4.8-1.5,6-6.1,7.4c-1.8,0.6-4.5-1.7-4.7-4.1c-0.1-1.1-0.1-2.2-0.1-3.3c0-1.6,0.3-3.2,1.5-4c0.5-0.4,2.1,0.5,3.1,1.1
		C102.2,291.3,100.4,292.6,100.7,294.1z"/>
	<path d="M387.4,209c1.7-1,3.2,0.3,4.8,0.2c0.9-0.1,2.3,1,2.1-1.5c-0.1-1.5,1.7-3.3,3.7-3.8c1.7-0.4,2.6,1,3.2,2.2
		c1.3,2.4-1.3,4-2.3,4.4c-1.7,0.7-1.8,1.3-1.5,2.7c0.5,2.5-1.3,2.4-2.7,2c-2.7-0.8-5.6-1.5-6.2-4.9c-0.3-0.1-0.5-0.2-0.8-0.4
		c-0.2-0.2-0.5-0.5-0.7-0.7C387.2,209.1,387.3,209,387.4,209z"/>
	<path d="M218.5,712.4c-2,0-3.8-0.9-5.2-2c-3.4-2.7-7.7-4-10.8-7.2c-1-1.1-2.8-1.9-1.7-3.5c0.9-1.4,3.1-1.2,4-0.1
		c2.1,2.7,6,3,7.7,6.4c0.4,0.7,2.6,1.9,4.1,2.6c1.7,0.8,2.3,2.1,2.1,3.9C218.7,712.4,218.5,712.4,218.5,712.4z"/>
	<path d="M343.4,560.9c1.9-0.5,3.9-0.3,4.6,2.7c0.3,1.4-0.3,2-1.5,1.9c-4.9-0.2-9.9,0.1-14.8,0.8c-0.8,0.1-1.7,0.3-2.2-0.6
		c-0.5-1,0.8-0.6,0.9-1c2-5.1,6.9-2.6,10.3-3.8C341.4,560.7,342.2,560.9,343.4,560.9z"/>
	<path d="M230.4,236.9c-0.1,1.5-1.6,2.1-2.3,3.3c-1.4,2.4-7.6,3.5-9.9,2.2c-0.6-0.3-1-0.9-0.8-1.5c0.3-1.3,1.9-2.8,2.4-2.7
		c3.2,0.6,4.5-2.1,6.5-3.4c0.9-0.6,1.8-0.8,2.8-0.3C230.1,235,230.2,235.9,230.4,236.9z"/>
	<path d="M285.4,638.8c0-0.4,0-0.9,0-1.3c0.3-2,1.6-2.5,3.3-2.7c3.5-0.3,6.9,0.4,10.4-0.4c1.1-0.2,1.7,0.6,2.1,1.3
		c0.5,1-0.5,1.3-1.1,1.8c-1.9,1.3-4.1,1.2-6.2,1.6c-1.7,0.3-3.8-1.3-4.9,1.4c-0.2,0.5-0.7,0-0.8-0.3
		C287.7,638.8,286.3,639.3,285.4,638.8z"/>
	<path d="M433.2,266.7c0.7-0.8,1.3-1.6,2-2.5c1.4-0.9,2.8,0.2,2.7,1.1c-0.1,2.1,1.3,3.2,2.2,4.7c1.5,2.6,0.4,5.4-2.1,5.6
		c-0.5,0-1.1,0-1.3-0.5c-0.8-1.9-2.4-3.1-4.1-4.1c-0.8-0.5-1.4-1.6,0-2C434.8,268.5,432.9,267.4,433.2,266.7z"/>
	<path d="M202,218.6c-2.6-0.9-3.6,1.9-5.5,2.4c-1-1-2.6-1.7-1-3.6c0.6-0.6-0.2-1.2-0.8-1.7c-1.4-2.3,1.2-2.7,2-3.7
		c0.6-0.7,2.1-1.5,2.8,0.7c0.4,1.1,1.7-0.3,2.6-0.4c0.4,1,1.5,1.1,2.2,1.5C203.5,215.5,202.8,217.1,202,218.6z"/>
	<path d="M527.3,658.3c0.6-1-0.1-3.3,1.1-3.5c4.1-0.5,7.1,1.2,7.1,3.5c0,1.5-2.6,5.2-3.7,5.2C529.5,663.7,527.2,661.2,527.3,658.3z"
		/>
	<path d="M273.8,726.6c-1.1,0.4-2.1,1.2-3.4,1.2c0-2.5-2.3-4.5-1.2-7.1c3,0.2,6.3-1.1,9,1.3c0,0,0,0.2,0,0.2c-0.8,1.2-0.4,1.8,1,1.9
		c0.9,0.1,1.8,0.1,2.6,0.1c0,0.1,0,0.2,0,0.3c-1.1,0.9-2.2,0.3-3.3,0.3C276.7,724.8,274.6,724.1,273.8,726.6z"/>
	<path d="M318.7,219.4c0.1-0.4,0.1-0.9,0.3-1.1c0.9-1.1-1.2-3.2,0.8-3.6c2.9-0.6,5.9-1.3,8.8-0.2c0.9,0.3,1.2,1,0.9,1.9
		c-0.4,1-1,1.7-2.2,1.5C324.3,217.6,321.7,218.6,318.7,219.4z"/>
	<path d="M530.8,530.3c1.7,2.4,1.1,5.2,1.4,7.8c0.2,1.9-1.9,1.3-2.6,0.8c-1.7-1.1-3.5-2.5-3-5c0.2-1.1,0.3-2.1,0.4-3.4
		C528.5,532.9,529.5,529.4,530.8,530.3C530.9,530.4,530.8,530.3,530.8,530.3z"/>
	<path d="M418.3,229.5c-1.8-2.3-3.6-3.9-5.1-5.7c-1.5-1.8-1.7-3.5,0-5.1c0.7-0.6,1.2-0.2,1.5,0.2c1.9,2.2,4.4,4,3.7,7.5
		C418.1,227.2,418.3,228.1,418.3,229.5z"/>
	<path d="M184.7,205.5c-0.7,0.9-1.2,2-2.1,2.7c-1.5,1.1-3.4,1.7-4.1,3.8c-0.3,0.8-1,1.6-2,1.5c-0.6,0-1.1-0.4-1.3-1.1
		c-0.2-1-0.1-2,0.8-2.4c1.3-0.6,2.2-1.2,1.6-2.9c-0.1-0.2,0.2-0.5,0.3-0.8c2.6,1.6,3-1.4,4.6-2.1
		C183.9,203.7,184.2,204.7,184.7,205.5z"/>
	<path d="M277.7,733.2c-0.8-0.7-1.7-1.3-2.5-2c0.2-1.7,0.6-2.7,2.6-1.5c1.2,0.7,2.6,1,3.8-0.3c0.7-0.6,1.7-0.6,2.6-0.4
		c-1.4,0.9,0.7,1.9-0.1,3.2c-1.8,2.9-2.4,3.2-5.2,1.2C278.5,733.2,278.1,733.3,277.7,733.2z"/>
	<path d="M152.9,381c0.3,0,0.6,0.1,0.9,0c0.9-0.3,1.5-2.1,2.7-0.8c1,1,1.5,2.4,0.5,3.8c-1.4,1.6-2.8,3.1-5.3,2.9
		c-1.5-0.2-1.1,0-1.2-1.7C150.5,383.1,151.9,382.2,152.9,381z"/>
	<path d="M264.7,231c1.3,0.1,2.9-0.1,2.9,1.7c0,1.4-0.7,2.3-2.5,2.1c-0.8-0.1-1.6,0.9-2.4,1.4c-1.4,1-2.3-0.1-3-1
		c-1-1.1,0-1.7,0.8-2.4C261.8,231.8,263,230.9,264.7,231z"/>
	<path d="M213.8,231c1.1,0.4,1,1.2,0.7,2.1c1.4,1.8,1.4,3.3-0.7,4.7c-1.5,1.1-2.5,1.5-4.1,0.1c-1.2-1.1-0.3-2-0.4-2.9
		c-0.1-1.7,1.2-0.4,1.3-0.5C211.9,233.4,212.8,232.1,213.8,231z"/>
	<path d="M367.4,710.8c0.2-1.4-1.6-2.5,0.5-3.8c1.5-1,2.1-0.2,2.9,0.5c1,0.8,0.5,1.7-0.1,2.6c-1.6,2.2-4.8,2.2-6.2,4.7
		c-0.2,0.4-0.9,0-1.3-0.2c-0.6-0.4-0.9-1.1-1-1.8c0-0.7,0.6-0.7,1.1-0.6c1.1,0.3,1.7-0.3,2.1-1.2
		C365.7,709.7,366.6,710.3,367.4,710.8z"/>
	<path d="M68.4,407.3c-0.7-0.1-1.2-0.3-1.6-0.2c-1.4,0.5-2.8,1.6-3.3-0.9c-0.5-2.4,0.7-5.5,2.6-5.6c0.9,0,1.2-1.2,2.1-0.7
		C68.8,402.3,67.3,404.6,68.4,407.3z"/>
	<path d="M241.1,266.9c0.7-0.9,1.3-1.3,2.2-1.1c0.4,0.1,0.9,0.2,0.7-0.5c-1.3-3.3,1.6-2.9,3.2-3.6c0.9-0.4,2-0.5,2.7,0.4
		c0.8,1.1-0.6,1.2-0.9,1.7C247.1,267.1,245.1,267.9,241.1,266.9z"/>
	<path d="M198.6,202.5c0.3,0.6,0.7,1.2,0.8,1.9c0.2,1,1.6,2.3-0.5,2.8c-1.7,0.4-3.7,1.5-5-0.8c-0.5-1-0.3-2,0.5-2.7
		c0.8-0.7,1.7-1.3,2.6-2C197.5,201.9,198.1,202.2,198.6,202.5z"/>
	<path d="M86.1,280.5c-2.6-1.8-3.5-3.6-1.6-6c0.9-1.1,2.1-2.1,3.2-1.2c0.9,0.8,1.6,2.7,0.2,3.9C87,278.1,86.5,279.1,86.1,280.5z"/>
	<path d="M333.1,611.3c2.2-3.3,5.5-3.7,8.1-1.1c0.9,0.9,0.6,1.8-0.6,1.9C338.1,612.1,335.5,613,333.1,611.3z"/>
	<path d="M535.3,673.6c0.1-0.9,0.2-1.9,0.4-2.9c0.2-0.9,0.9-1.7,1.7-2c1.1-0.5,1.1,0.9,1.6,1.3c0.9,0.7,0.8,1.6,0.1,2.3
		c-1,1-1.3,2.1-1.3,3.5c0,0.7-0.1,1.5-1,1.5c-1.3,0.1-0.9-1-1.1-1.7C535.5,675.1,535.4,674.4,535.3,673.6z"/>
	<path d="M187.4,213.8c-0.3-0.3-0.7-0.6-1-0.9c0.1-2.2,1.1-3.7,3.3-3.5c0.9,0.1,2.4,0.6,2.5,1.8c0.1,1.4-1.5,2.1-2.3,3.2
		C189,215.5,188.2,214.2,187.4,213.8z"/>
	<path d="M192.5,260.9c0,0.7-3.1,4.2-3.7,4c-1.2-0.3-2.6-1.1-2.4-2.2c0.3-2,2.4-2.8,4-3.5C191.4,258.9,192,260.2,192.5,260.9z"/>
	<path d="M510.3,639.9c-0.6,1.4-1.7,2.4-3,1.4c-1.4-1.2-3.7-2.3-2.6-4.8c0.6-1.5,1.8-3.2,3.7-3c2,0.2,3.1,2,3.9,3.7
		c0.5,1.2-0.5,1.7-1.4,2.2c0-1.5,1.8-4.5-2.2-2.7c-0.1,0-0.4-0.1-0.4-0.2c-0.3-2.7-1.4-0.3-1.8-0.1c-1.1,0.4-1.1,1.3-0.5,2.2
		C506.9,640.1,508.3,641.1,510.3,639.9z"/>
	<path d="M270.4,236.9c0,0.6-2.9,3.9-4,3.8c-0.9-0.1-1.4-0.7-1.5-1.6c-0.1-1.3,2.5-4,3.9-4.1C269.5,234.9,270.4,235,270.4,236.9z"/>
	<path d="M204.3,213.9c-0.8-0.5-1.8-0.5-2.2-1.5c0.1-0.3,0.1-0.5,0.2-0.8c0.2-0.1,0.3-0.2,0.5-0.4c0.2-0.7,0.7-1.1,1.3-1.4
		c0.1-0.1,0.1-0.2,0.2-0.3c0.7,0.2,1.5,0.5,2.2,0.7c1.7,0.4,2.1,1.2,0.7,2.5c-0.7,0.6-0.7,1.5-0.8,2.6
		C205.5,214.8,204.9,214.4,204.3,213.9z"/>
	<path d="M206.9,196.7c-0.2-0.2-0.3-0.4-0.5-0.5c0,0,0,0,0,0c2.1-1.2,4.1-2.5,6.2-3.7c0.2,0,0.4,0,0.6,0c1.2,2.7,0.5,3.9-2.2,4.3
		c-1.1,0.1-2.1,0.6-3.2-0.1C207.5,196.7,207.2,196.7,206.9,196.7z"/>
	<path d="M262.7,203.9c-1.5-1.6-1.7-2.6,0.9-3.5c1.9-0.7,3.3-2.5,5.2-3.6c-2.4,2.1-2.5,6-5.7,7.5C263,204.1,262.8,204,262.7,203.9z"
		/>
	<path d="M198.6,202.5c-0.5-0.3-1.1-0.6-1.6-0.9c-0.1-2.9,2.9-3.1,4.2-4.8c0.2-0.3,1.3,0,0.6,0.9c-0.2,0.2-0.5,0.6-0.5,0.7
		C203.9,202.1,199.7,201.3,198.6,202.5z"/>
	<path d="M238.1,228.6c0.5,0.5,1,0.9,1.5,1.4c0.2,0.7,0.3,1.8-0.7,1.1c-1.9-1.3-2.7-0.5-3.1,1.2c-0.2,0.8-0.3,1.3-1.3,1.1
		c-0.8-0.1-1.6-0.1-1.8-1.2c-0.1-0.7,0.1-1.2,0.8-1.7C235,229.8,236.1,228.2,238.1,228.6z"/>
	<path d="M60,601.6c-1-0.8-1.7-1.5-2.6-2.1c-1.1-0.7-1.5-1.8-0.8-2.8c0.5-0.7,1.6-1.4,2.5-1.4c1.3,0,1.1,1.5,1.2,2.4
		C60.3,599,60.1,600.3,60,601.6z"/>
	<path d="M558.4,747.8c1,0.3,2-1.2,2.8-0.3c0.8,1,4.2,1.5,1,3.7c-0.2,0.1-0.1,0.8-0.1,1.1C557.8,753.3,559.3,749.6,558.4,747.8z"/>
	<path d="M207,242.4c-1.2-0.6-2.7-0.8-2.6-2.2c0.1-1.8,2.9-0.9,3.3-2.7c1,0.4,2,1.2,1.9,2.1C209.5,240.9,208.3,241.8,207,242.4z"/>
	<path d="M423.5,241c1.9,0.6,1.1,1.8,0.7,2.9c-0.3,0.7-0.5,1.4-0.2,2.1c-0.7-0.1-1.3-0.4-1.9-0.3c-0.7,0.1-1.2,1.7-2.2,0.6
		c-0.8-0.9,0.4-1.6,0.6-2.3c0.2-0.6,0.4-1.1,0.6-1.7C421.9,241.9,422.7,241.5,423.5,241z"/>
	<path d="M213.2,192.5c-0.2,0-0.4,0-0.6,0c-1.6-0.3-3.5-0.5-2.2-3c0.5-0.9,1.2-1.4,2.1-1.3c1.4,0.2,1.6,1.7,2.1,2.7
		C215.2,192,214.1,192.3,213.2,192.5z"/>
	<path d="M148.6,223.7c0,1.1,1.3,2.7-0.4,3.1c-1.5,0.4-3.2-0.8-4.3-1.9c-0.8-0.7,0.8-1,1.1-1.8c0.3-0.8,0.8-1,1.6-0.5
		C147.2,223.1,147.9,223.4,148.6,223.7C148.6,223.7,148.6,223.7,148.6,223.7z"/>
	<path d="M84.8,284c-0.3,1.4-0.1,3.3-2,3.6c-0.9,0.1-1.8-1.5-1.5-1.8c1-1-0.2-3.6,2.4-3.5C84.9,282.4,85,283.1,84.8,284z"/>
	<path d="M269.2,720.6c-1,2.6,1.3,4.7,1.2,7.1c-0.8,0.3-2.2,0.6-2.1-0.5c0.3-2.7-1.9-4.7-1.5-7.3c0,0,0,0,0,0c0.6,0,1.2,0,1.7,0
		C268.8,720.2,269,720.4,269.2,720.6z"/>
	<path d="M410.7,201.5c0,0.7-0.2,1.4-1,1.6c-0.8,0.2-1.3,0-1.3-1c-0.1-1.2-1.3-1.3-2.1-1.7c-0.5-0.2-1.2-0.6-0.9-1.3
		c0.2-0.4,0.7-0.7,1.2-0.9C407.2,198,410.7,200.7,410.7,201.5z"/>
	<path d="M420.9,179.1c-1.1-0.1-1.9-0.6-1.8-1.6c0.2-1.4,0.9-2.6,2.6-2.7c1,0,1.8,0.5,1.6,1.6C423.1,177.8,422.2,178.7,420.9,179.1z
		"/>
	<path d="M144.8,217.2c0-2.6,2.2-3.5,3.7-4.9c0.2-0.2,0.8-0.1,1.1,0.1c0.4,0.3,0,0.6-0.1,1C148.9,215.9,147.5,217.2,144.8,217.2z"/>
	<path d="M312.7,229.8c-0.2-0.1-0.4-0.1-0.6-0.2c-1.5-0.8-2.9-2.1-1.8-3.7c0.9-1.2,2.7,0.3,3.5,0.8c1.3,0.9,0.1,2.2-0.9,3
		c0,0-0.1-0.1-0.1-0.1L312.7,229.8z"/>
	<path d="M171,243.5c0,0,0.3,0,0.3,0c0.5,0.3,1,0.5,1.5,0c0.7,2-0.9,2.9-1.9,4.1c-1.7,0-2.7-1.1-2.7-2.6
		C168.2,243.2,170.3,244.5,171,243.5z"/>
	<path d="M383.1,194.3c-0.5,2,0.3,4.6-3.3,4.2c-0.6-0.1-1.1,0.1-1.2-0.7c-0.1-0.7-0.5-1.7,0.4-1.7
		C380.6,196.1,381.3,194.5,383.1,194.3z"/>
	<path d="M304,566.3c-0.8,0.5-1.6,0.9-2.4,1.4c-1.1-0.1-1.9,0.9-3,0.5c0.3-1.6,0.7-3.2,1-4.7C301.5,563.9,302,566.2,304,566.3z"/>
	<path d="M372.1,386.6c1.4-0.9,2.8-0.9,4.2-0.2c1.1,0.6,2.2,0.8,3.4,0.5c-1.3,1.5-2.4,3.6-4.5,0.9
		C374.4,386.8,372.7,388,372.1,386.6z"/>
	<path d="M339.4,211.8c-0.1-0.8,0-1.6,0.9-1.5c1.4,0.2,2.4,1.5,2.8,2.7c0.3,0.9-0.5,1.5-1.7,1.5
		C339.5,214.5,339.6,213.1,339.4,211.8z"/>
	<path d="M262.7,203.9c0.2,0.1,0.3,0.2,0.5,0.3c-2.7,2.7-4.4,2.7-5.7,0.1c0.3-0.2,0.6-0.5,0.9-0.7
		C259.9,202.6,261.2,204.1,262.7,203.9z"/>
	<path d="M423.5,241c-0.8,0.4-1.6,0.8-2.4,1.2c-0.6-1-2.4-1.8-0.7-3.3c0.9-0.8,1.5-0.6,2.5-0.1C424.2,239.4,422.7,240.5,423.5,241z"
		/>
	<path d="M125.5,216.8C125.5,216.8,125.6,216.8,125.5,216.8c0.3,0.7,1.1,1.7,0.3,2.1c-1.4,0.7-0.9,1.1-0.1,1.8
		c0.6,0.5,0.1,1.2-0.4,1.5c-0.9,0.7-0.9-0.2-1-0.7c-0.3-1.2-1.6-0.4-2.2-1.2C122.6,218.6,124.6,218.3,125.5,216.8z"/>
	<path d="M530.3,602.9c-1,0.1-2.1,0.5-2.4-0.9c-0.3-1.4-0.2-2.8,0.3-4.1c0.2-0.4,0.7-0.2,1,0c0.4,0.2,1.1,0.4,0.7,1
		C529.1,600.4,530,601.6,530.3,602.9C530.2,602.9,530.3,602.9,530.3,602.9z"/>
	<path d="M98.4,268.4c1,0.1,1.4,0.8,1.4,1.7c0,1-0.4,1.8-1.5,1.8c-0.9,0-2-0.2-1.8-1.4C96.7,269.4,97.5,268.7,98.4,268.4z"/>
	<path d="M258.4,203.6c-0.3,0.2-0.6,0.5-0.9,0.7c-0.8,0.2-1.6,0.3-2.3-0.2c-0.8-0.6-1.5-1.6-0.8-2.6c0.7-1,1.3,0.2,2,0.4
		C257.3,202.2,257.9,202.9,258.4,203.6z"/>
	<path d="M355.2,186.9c0,0.8-0.4,1.4-1,1c-1-0.6-2.7-0.5-3-1.9c-0.1-0.6,0.8-1.2,1.5-1.1C354,185,355,185.5,355.2,186.9z"/>
	<path d="M268,608.2c-0.2-0.5-0.4-0.9-0.6-1.4c2.5-0.4,4.3,1.6,6.7,1.7C272,609.1,270,609.3,268,608.2z"/>
	<path d="M353.7,614c-2.9,0.7-3.8-1.6-5.3-3C350.1,610.5,350.1,610.5,353.7,614z"/>
	<path d="M389.4,198c2.1,0.3,4.6-3,6.4,0.8C393.6,198.5,391.5,198.9,389.4,198z"/>
	<path d="M48.2,486.3c0.5,2.3,0.4,4.4-0.4,6.5C48.4,490.7,45,488.5,48.2,486.3z"/>
	<path d="M300,500.9c-2.4,0.2-1.3-1.6-1.4-2.6c-0.1-1.5,0.8-2.1,2.2-2.2c1.1-0.1,1.7,0.5,1.6,1.3c-0.1,1.1,0.9,3-1.5,2.9
		c0.6-1,1-2,0.2-3c-0.4-0.4-1-0.4-1.3,0c-0.8,1-0.6,2-0.1,3.1C299.7,500.6,299.9,500.7,300,500.9z"/>
	<path d="M76.3,731.7l-0.3,0c0,0-0.3,0-0.3,0c-0.6-1.8-0.1-3.6-0.1-5.9c1.5,1,2.6,1.6,1.4,3.1C76.3,729.8,76.5,730.8,76.3,731.7z"/>
	<path d="M522.4,749.9c0.2,0.2,0.4,0.4,0.6,0.6c-0.7,0.7,0.9,2.4-1.1,2.5c-1,0-2.7,0.4-2.6-1C519.5,751.3,520.7,749.5,522.4,749.9z"
		/>
	<path d="M179.5,202.4c-1.6-0.7-2.6,0-3.7,0.8c0.6-1.2-0.3-3.2,1.4-3.6C178.5,199.3,178.8,201,179.5,202.4z"/>
	<path d="M280.5,231.4c1.3,0.5,1.5,1.4,0.4,2.2c-1.1,0.8-2.7,1.5-3.7,0.1c-0.8-1.1,0.4-1.4,1.2-1.6
		C279.6,233.7,280.1,233,280.5,231.4z"/>
	<path d="M420.4,192.8c-2.1-0.8-3.8-1.7-4-4.1C418.7,189,419.7,190.5,420.4,192.8z"/>
	<path d="M403.1,419.4c2.6,0,5.1-0.2,6.8-2.7C408.9,420.2,408.4,420.3,403.1,419.4z"/>
	<path d="M120.2,225c-0.4,1.3-1.5,2.3-2.6,3.2c-0.3,0.2-1-0.3-0.8-0.5c0.8-1.2,1.4-2.6,2.7-3.5C119.8,224,120.1,224.4,120.2,225z"/>
	<path d="M107.2,231c0.2-0.3,0.4-0.7,0.6-1c0.4-1.1,1.3-1.5,2.3-1.4c0.4,0,0.5,0.7,0.2,1c-0.9,0.8-0.6,2.6-2.3,2.6
		C107.6,232.1,107.4,231.3,107.2,231C107.2,230.9,107.2,231,107.2,231z"/>
	<path d="M102.6,266.2c0,0.6,0.5,1.6-0.7,1.5c-0.9-0.1-1.8-0.6-1.9-1.6c-0.2-1.2,1.1-1.4,1.8-1.5
		C103.2,264.3,102.3,265.7,102.6,266.2z"/>
	<path d="M220.5,205.2c-0.4,0.6-0.4,1.6-1,1.4c-1.1-0.3-1.8-1.2-1.9-2.4c-0.1-0.6,0.3-1.3,1-1.1C219.5,203.5,220,204.4,220.5,205.2z
		"/>
	<path d="M213.8,199.5c0,0.5,0,0.7-0.1,0.8c-0.7,1.1-0.8,2.7-2.5,2.9c-0.4,0-0.8-0.4-0.6-0.8C211.2,201.1,211.7,199.6,213.8,199.5z"
		/>
	<path d="M122.7,237.4c-0.1,0.8-0.8,0.8-1.4,0.8c-1,0-1.4-0.6-1.4-1.5c0-0.7,0.3-1.2,1-1C121.9,235.9,122.6,236.4,122.7,237.4z"/>
	<path d="M522.4,705.3c1.4,1.9,1.7,3.9,0,6.5C522.4,709.2,522.4,707.3,522.4,705.3z"/>
	<path d="M530.9,567.4c1.5,0.1,2.4,0.8,2.7,2.1c0,0.2-0.8,0.9-1.1,0.8C531.1,569.9,531.6,568.3,530.9,567.4z"/>
	<path d="M195.4,194.5c-0.2,2.1-2.3,2.3-3.6,3.4C192.3,196,194,195.4,195.4,194.5z"/>
	<path d="M309.9,636.7c1.4-1,2.6-0.9,3.7-0.2c0.4,0.2,0.1,0.9-0.2,1C312.2,638,311.2,637,309.9,636.7z"/>
	<path d="M292.7,556.6c0,0.2,0,0.5,0,0.7c0,0-0.1,0-0.1,0c-0.5,0.5-0.6,1.2-0.6,1.8l0,0c-0.6,0-1.2,0-1.8,0l0,0c0-0.8,0-1.6,0-2.4
		C291.1,556.4,291.9,556.1,292.7,556.6z"/>
	<path d="M284.4,201.5c-0.9,0.3-1.9,0.7-2.8,0.9c-0.6,0.1-1.2-0.1-1.4-0.8c-0.3-0.9,0.3-1.2,1.1-1.3c0,0,0,0,0,0c0,0.2,0,0.4,0,0.6
		c-0.3,0.3-0.5,0.6-0.1,0.8c0.1,0.1,0.4-0.2,0.7-0.2c0.4-0.2,0.8-0.4,1.2-0.6c0,0-0.1,0-0.1,0c0.2-0.2,0.4-0.4,0.7-0.7
		c0,0-0.1,0-0.1,0C283.9,200.7,284.1,201.1,284.4,201.5z"/>
	<path d="M300.5,550.8c-0.7,1.2-1.6,2.1-3.2,1.7c0-0.4,0.1-0.7,0.1-1.1l0,0c0.2-0.2,0.4-0.4,0.6-0.6l0,0c0.4-0.2,0.8-0.4,1.2-0.6
		c0,0,0,0,0,0c0.2,0,0.4,0,0.6,0c0,0,0,0,0,0C300,550.3,300.2,550.5,300.5,550.8L300.5,550.8z"/>
	<path d="M222.1,714c-1,0.3-2,0.1-3-0.2c0-0.1,0-0.2,0-0.3c0.1-0.2,0.2-0.4,0.3-0.6c0.2,0,0.3,0,0.5,0.1c-0.1-0.2-0.1-0.4-0.2-0.6
		c0.6-0.1,1.3-0.1,1.9-0.2c0,0,0,0.2,0,0.2l0-0.2C222.2,712.6,223.8,712.8,222.1,714c0.1,0,0-0.2,0-0.2L222.1,714z"/>
	<path d="M281.2,200.3c0.9-2.1,2.2-1.8,3.6-0.6c-0.4,0.2-0.8,0.4-1.2,0.6c0,0,0.1,0,0.1,0c-0.2,0.2-0.4,0.4-0.7,0.7c0,0,0.1,0,0.1,0
		C282.5,200.5,282,199.9,281.2,200.3L281.2,200.3z"/>
	<path d="M290.9,562.7c-0.3,0-0.6,0-0.9,0c-0.6-0.7-1.5-0.5-2.2-0.5c0-0.2,0.1-0.4,0.1-0.6c0.8-0.2,1.5-0.4,2.3-0.6c0,0,0,0,0,0
		c0.2,0.2,0.4,0.4,0.7,0.6C290.9,561.9,290.9,562.3,290.9,562.7z"/>
	<path d="M186.5,615.5c0.6-0.3,1.2-0.4,1.7,0.2C187.6,616.3,186.9,616.7,186.5,615.5z"/>
	<path d="M286.7,563.3c-0.7-0.4-1-1-0.7-1.7c0.4,0,0.8,0,1.2,0c0,0.2,0,0.4,0,0.6C287.1,562.5,286.9,562.9,286.7,563.3z"/>
	<path d="M214.1,210.5c-0.5,0-1,0.1-1.5,0.1C213,209.6,213.5,209.4,214.1,210.5z"/>
	<path d="M161.9,385.5c0.7-0.3,1.2-0.4,1.3,0.6C162.7,385.9,162.3,385.7,161.9,385.5z"/>
	<path d="M425.6,250.2c-0.3,0-0.5,0.1-0.8,0.1c0.1-0.2,0.2-0.6,0.4-0.6C425.6,249.6,425.6,249.9,425.6,250.2z"/>
	<path d="M268.6,720c-0.6,0-1.2,0-1.7,0C267.4,719.5,268,719.5,268.6,720z"/>
	<path d="M206.9,196.7c0.3,0,0.6,0,0.9,0c-0.1,0.2-0.1,0.6-0.2,0.7C207.1,197.4,206.9,197.1,206.9,196.7z"/>
	<path d="M289,559.6c0.4-0.2,0.8-0.3,1.3-0.5c0,0,0,0,0,0c0,0.4,0,0.8,0,1.2l0,0C289.8,560.1,289.4,559.9,289,559.6z"/>
	<path d="M110.2,286.7c-0.6,0.3-1,0.3-0.8-0.5C109.7,286.4,110,286.5,110.2,286.7L110.2,286.7z"/>
	<path d="M276.8,629.6c0.1,0,0.2-0.1,0.2-0.1c0,0.1,0,0.2,0.1,0.3c-0.1,0-0.2,0-0.2-0.1C276.8,629.7,276.8,629.6,276.8,629.6z"/>
	<path d="M202.8,211.3c-0.2,0.1-0.3,0.2-0.5,0.4c-0.1,0-0.2,0-0.4,0.1c0-0.2,0.1-0.4,0.1-0.6l0,0
		C202.3,211.2,202.5,211.2,202.8,211.3z"/>
	<path d="M298,550.1c0.4-0.2,0.7-0.4,1.1-0.6c0,0.2,0,0.4,0.1,0.6c0,0,0,0,0,0C298.8,550.1,298.4,550.1,298,550.1L298,550.1z"/>
	<path d="M387.8,209.9c0.3,0.1,0.5,0.2,0.8,0.4C388.3,210.1,388,210,387.8,209.9z"/>
	<path d="M302.7,549.6c-0.1,0-0.3,0-0.4,0c0.1-0.2,0.2-0.3,0.2-0.5C302.6,549.2,302.7,549.4,302.7,549.6z"/>
	<path d="M161.1,368.6c-0.1,0.1-0.2,0.2-0.2,0.3C160.9,368.7,160.9,368.6,161.1,368.6z"/>
	<path d="M206.5,196.2C206.5,196.2,206.5,196.1,206.5,196.2C206.5,196.1,206.5,196.2,206.5,196.2z"/>
	<path d="M285.5,200.5c-0.2-0.3-0.4-0.5-0.7-0.8C285,199.9,285.2,200.2,285.5,200.5z"/>
	<path d="M281.7,561.7l-0.2,0c0,0-0.2,0-0.2,0C281.5,561.7,281.6,561.7,281.7,561.7z"/>
	<path d="M304.5,562c-0.1-0.2,0-0.3,0-0.5C304.5,561.7,304.5,561.9,304.5,562z"/>
	<path d="M387.4,209c-0.1,0-0.2,0.1-0.3,0.2C387.1,209,387.2,209,387.4,209z"/>
	<path d="M304.1,563.1c0.1-0.1,0.2-0.2,0.3-0.3C304.4,563,304.3,563.1,304.1,563.1z"/>
	<path d="M201.4,211.2c0.2,0,0.4,0,0.6,0c0,0,0,0,0,0C201.8,211.1,201.6,211.1,201.4,211.2z"/>
	<path d="M110.3,286.2c0,0.2,0,0.4-0.1,0.6c0,0,0,0,0,0C110.3,286.5,110.3,286.3,110.3,286.2z"/>
	<path d="M301.8,571.7l-0.2-0.1c0,0,0-0.2,0-0.2C301.6,571.5,301.7,571.6,301.8,571.7z"/>
	<path d="M204.3,209.6c-0.1,0.1-0.2,0.2-0.2,0.3C204.1,209.7,204.1,209.6,204.3,209.6z"/>
	<polygon points="278.2,722.1 278.2,721.9 278.3,722 	"/>
	<path d="M281.8,724.5c0-0.1,0-0.2,0-0.3c0,0,0.2,0.2,0.2,0.2L281.8,724.5z"/>
	<path d="M163.3,386.4c0.1,0.1,0.1,0.2,0.2,0.3C163.3,386.6,163.3,386.5,163.3,386.4z"/>
	<path d="M166.5,369.8c-0.1,0-0.2,0-0.4-0.1C166.3,369.7,166.4,369.7,166.5,369.8z"/>
	<path d="M299.8,550.2c0-0.2,0-0.4,0-0.6c0.2,0.2,0.4,0.4,0.6,0.6c0,0,0,0,0,0C300.2,550.1,300,550.1,299.8,550.2L299.8,550.2z"/>
	<path d="M297.4,550.7c0.2-0.2,0.4-0.4,0.6-0.6c0,0,0,0,0,0c0,0.2,0,0.4,0,0.6c0,0,0,0,0,0C297.8,550.7,297.6,550.7,297.4,550.7
		L297.4,550.7z"/>
	<path d="M159.4,369.6c-0.2,0.2-0.4,0.3-0.6,0.5C159,370,159.2,369.8,159.4,369.6z"/>
	<path d="M301,550.1c-0.2,0.2-0.4,0.4-0.5,0.6c0,0,0,0,0,0c0-0.2,0-0.4,0-0.7c0,0,0,0,0,0C300.6,550.1,300.8,550.1,301,550.1z"/>
	<path d="M297.4,551.3c0-0.1-0.1-0.3-0.1-0.4c0-0.1,0.1-0.1,0.1-0.2c0,0,0,0,0,0C297.4,550.9,297.4,551.1,297.4,551.3L297.4,551.3z"
		/>
	<path d="M415.5,256.4c0,0-0.2,0.2-0.2,0.2c-0.1-0.2-0.1-0.5-0.2-0.7c0,0,0.2,0,0.2,0l0.2-0.1C415.5,256,415.5,256.2,415.5,256.4z"
		/>
	<path d="M289,558l0.2,0.2c0,0-0.1,0.2-0.1,0.2C289.1,558.3,289.1,558.1,289,558z"/>
	<polygon points="166.9,369.5 166.9,369.6 166.8,369.4 	"/>
	<path d="M424,251.4c-0.1,0.1-0.3,0.3-0.4,0.4C423.8,251.7,423.9,251.6,424,251.4z"/>
	<path d="M160.5,369.2c-0.1,0-0.2,0-0.3,0C160.3,369.1,160.4,369.1,160.5,369.2z"/>
	<path d="M290.2,560.9c0-0.2,0-0.4,0-0.6c0,0,0,0,0,0c0.2,0.2,0.4,0.4,0.6,0.6C290.6,560.9,290.4,560.9,290.2,560.9L290.2,560.9z"/>
	<path d="M557.8,610.7c4.1,0.2,4.2,0.3,3.3,4.8c-3.9,1.3-5-2.4-6.4-4.2c-1.3-1.7-0.6-5.2-0.4-7.8c0.3-4.2,0.2-8.3-0.3-12.4
		c-0.1-1.1-0.3-2.8,0.9-2.7c1.3,0.1,3.7,0.4,3.7,2.3c-0.1,2.5,0.8,4.8,0.7,7.3c-0.1,1.4-0.4,2.7-0.7,4c-0.5,1.8-0.3,3.6,0.1,5.3
		C559,608.5,559.8,609.7,557.8,610.7z"/>
	<path d="M573.2,715.5c-1.9-1.9-3-4.3-5.3-5.9c-1.9-1.4-2.2-6.3-0.8-8c0.2,0.1,0.5,0.1,0.7,0.2c0.6,1.4,2,2.1,2.5,3.6
		c0.4,1.4,0.5,3,2.3,4c-1,0.1-1.6,0.2-2.2,0.2c0.3,1.1,1.1,1.3,1.9,1.8c1.9,1.3,3.3,2.8,1.5,5.2
		C573.7,716.3,573.5,715.9,573.2,715.5z"/>
	<path d="M573.2,715.5c0.2,0.4,0.4,0.8,0.7,1.2c3.3,3.8,4.8,8.4,5.8,13.2c0.1,0.5,0.1,1-0.3,1.3c-0.6-0.7-1.3-1.4-1.9-2
		c-0.5-1-0.7-2.2-1.7-3.1c-0.9-0.7-1.2-1.5-1.2-3c0-2.5-0.7-5-3.1-6.6c-0.9-0.6-1.8-1.5-2-3.2C570.8,714.1,572,714.8,573.2,715.5z"
		/>
	<path d="M44.2,596c0.1,0.7-0.6,1.7,0.7,1.9c0.7,0.1,1.4,0.7,1,1.1c-2.8,2.7,0.7,2.3,1.5,3.3c0.4,0.5,3.1,0.8,0.3,2.1
		c-0.6,0.3,0.3,2.3-0.5,3.3c-1.4,0.3-1.8,1.6-2.4,3.6c-1.1-4.9-1.4-8.9-1.9-13C42.7,597,43.4,596.5,44.2,596z"/>
	<path d="M554.4,583.2c-3.1-3.7-2.5-8.5-3.8-12.8c-0.5-1.8,1.9-2.6,2.5-4.1c0,0,0,0,0,0c1.4,1.7,2,3.7,2.5,5.9
		c-2.8-0.7-3.3,0.7-2.9,3c0.3,1.7,0.4,4.7,0.8,4.8c2.6,0.3,1.6,2.6,2.5,3.7C555.3,584,554.9,583.5,554.4,583.2z"/>
	<path d="M519.2,317.4c1,0.8,1,1.9,1,3c0,1.4-0.5,3,0.1,4.1c1.4,2.5,0,3.1-1.8,3.7c-2.4-3.5-2.4-7.1-0.6-10.8
		C518.3,317.3,518.8,317.4,519.2,317.4z"/>
	<path d="M556.8,627c-2.5-5.2,1-7.1,4.4-9.2c1.1,1.9-2.3,2.7-1,5C561.3,624.8,558.1,625.4,556.8,627z"/>
	<path d="M55.5,732.5c-0.8-0.3-1.5-0.5-2.3,0c-0.8,0.1-2,0.1-1.6-0.9c0.5-1.2,0.2-3,1.9-3.5c0.5-0.2,1.1-0.2,1.7-0.3
		c1.2,0.3,1.9,1.2,2.6,2.1C57.7,731.4,57.7,732.9,55.5,732.5z"/>
	<path d="M57.9,729.9c-0.7-0.9-1.5-1.8-2.6-2.1c0.3-1,1.1-1.8,1.9-1c1.3,1.4,2.3,0.3,3.5-0.4c0,1.7,0,3.1,0,4.8
		C59.6,731,59,729.8,57.9,729.9z"/>
	<path d="M46.4,591.2c-0.3,1.7-2.8,2-2.7,4c-1.2,0.1-1.9,1-2.8,1.6c-1.4-3.2,3.7-3.5,2.7-6.4C44.8,589.7,45.7,590.2,46.4,591.2z"/>
	<path d="M508.9,286.7c1.7,1,3.5,1.8,4.3,3.6c0.2,0.5,0.3,1.3-0.3,1.6c-0.5,0.2-0.9-0.3-1.2-0.7c-0.5-0.8-0.7-2.2-2.4-1.1
		C509.1,290.3,509,288,508.9,286.7z"/>
	<path d="M502.7,269.3c0.2-1.1-0.5-2.9,0.9-3c1.5-0.1,2.8,1.1,3.2,2.9c0.2,0.7-0.1,1.1-0.5,1.5c-0.9,0.7-0.9-0.2-1.2-0.7
		C504.5,269.1,503.9,268.2,502.7,269.3C502.6,269.3,502.7,269.3,502.7,269.3z"/>
	<path d="M35.4,511.1c0.6,3.7-0.6,7.4-0.4,11.1C34.5,518.5,34.4,514.8,35.4,511.1z"/>
	<path d="M519.2,317.4c-0.4,0-0.9,0-1.3-0.1c0.6-1.9-0.4-3.4-1.4-4.8l0,0c2-1.3,3-0.8,2.9,1.6C519.3,315.3,519.3,316.3,519.2,317.4z
		"/>
	<path d="M54.7,663c0.4-0.4,0.9-0.7,1.3-1.1c0.8,2.3-1.2,2.9-2.5,3.2c-1.6,0.4-1-1.7-2.2-2.2C52.9,661.7,53.7,663.1,54.7,663z"/>
	<path d="M554.4,583.2c0.5,0.3,1,0.8,1.7,0.5c0.7,0.9,0.8,2,0.5,3.1C553.2,585.2,553.2,585.2,554.4,583.2z"/>
	<path d="M516.4,312.5c-0.3-0.2-0.6-0.5-1-0.6c-1.3-0.5-1-1.4-0.7-2.4c0.2-0.5,0.6-0.8,1.2-0.6c1.2,0.4,0.9,1.3,0.7,2.2
		C516.5,311.6,516.5,312.1,516.4,312.5C516.4,312.5,516.4,312.5,516.4,312.5z"/>
	<path d="M572.4,728.4c1.1,1.3,2.2,2.7,3.4,4.1C572.9,731.6,572.9,731.6,572.4,728.4z"/>
	<path d="M382.8,381c-0.2,0.2-0.5,0.4-0.7,0.5c0,0,0,0,0,0c-0.1-0.2-0.1-0.4-0.1-0.6C382.2,381,382.5,381,382.8,381z"/>
	<path d="M166.6,382.1c0.3,0.2,0.5,0.4,0.8,0.5C167.2,382.5,166.9,382.3,166.6,382.1z"/>
	<path d="M293.2,560.4c-0.4-0.2-0.8-0.4-1.2-0.6c0-0.2,0-0.4,0-0.6c0,0,0,0,0,0c0.2-0.6,0.4-1.2,0.6-1.8c0,0,0.1,0,0.1,0
		c0.4,0.4,0.7,0.9,1.1,1.3C293.6,559.2,293.4,559.8,293.2,560.4z"/>
	<path d="M293.2,560.3c0.2-0.1,0.3-0.2,0.5-0.3c0,0.4,0,0.7,0,1.1c-0.2-0.1-0.4-0.1-0.6-0.2l0,0
		C293.2,560.7,293.2,560.5,293.2,560.3z"/>
	<path d="M279.4,231.5c0.2,0,0.5,0,0.7,0C279.8,231.5,279.6,231.5,279.4,231.5z"/>
	<path d="M287.8,562.8c-0.2-0.2-0.4-0.4-0.6-0.6c0.2,0,0.4,0,0.6,0C287.8,562.3,287.8,562.5,287.8,562.8z"/>
	<path d="M290.8,561.6c0-0.2,0-0.4,0-0.6c0.4-0.4,0.8-0.8,1.2-1.2C292.1,560.6,292.1,561.5,290.8,561.6z"/>
	<path d="M293.2,560.9C293.2,560.9,293.3,560.9,293.2,560.9C293.3,560.9,293.2,560.9,293.2,560.9z"/>
	<path d="M281.9,201.5c-0.2-0.2-0.4-0.4-0.7-0.7C281.4,201.1,281.6,201.3,281.9,201.5z"/>
</g>
</svg>
