<?xml version="1.0" encoding="utf-8"?>
<!-- Generator: Adobe Illustrator 18.0.0, SVG Export Plug-In . SVG Version: 6.00 Build 0)  -->
<!DOCTYPE svg PUBLIC "-//W3C//DTD SVG 1.1//EN" "http://www.w3.org/Graphics/SVG/1.1/DTD/svg11.dtd">
<svg version="1.1" id="图层_1" xmlns="http://www.w3.org/2000/svg" xmlns:xlink="http://www.w3.org/1999/xlink" x="0px" y="0px"
	 viewBox="0 0 595.3 841.9" enable-background="new 0 0 595.3 841.9" xml:space="preserve">
<g>
	<g>
		<path d="M68.8,755.3c0.6-1,1.5-2.2-0.8-1.6c-1.1,0.3-1.5-0.1-1.6-1.1c-0.2-3.3-1.8-6.1-3.1-9c-0.5-1-0.7-0.7,0.5-1
			c1.6-0.4,1.1-2,0.3-2.9c-2.6-3.1-2.3-6.5-2.1-10.3c0.2-3.8-0.6-7.7-1-11.5c-0.1-0.9-1-0.9-1.5-1.4c-0.7-0.6-1.5-1.3-1.3-2.2
			c0.9-3.7-0.9-6.9-1.8-10.2c-0.9-2.9-2-5.8-0.1-8.8c0.2-0.3,0.2-0.9,0.1-1.1c-0.9-0.9-1.2,0.9-2,0.5c0.6-2.9-1.7-5.2-1.3-8
			c0.1-0.5-0.3-1-0.2-1.5c0.1-1-0.9-2.9,1.7-1.9c0.4,0.1,1.2-0.9,2-1.5c0.5,2.3-0.1,4.7,0.9,6.9c0.7,1.7,1.5,2.9,3.5,3.1
			c0.4,0,0.8,1.1,1.3,0.1c-1.4-0.3,1.4-2.1-0.8-2.2c-0.8,0-1.4-0.6-0.8-1c3.1-2.3,0.7-5.3,0.5-7.6c-0.2-2.6,1.2-4.8,0.7-7.5
			c-0.5-2.5-1.8-4.4-3.1-5.9c-1.6-1.8-1.6-3.9-1-5.2c2.5-4.8,0.6-9.7,1.2-14.5c-1.4-0.2-1.3,1-2.1,1.2c-0.4-0.8-0.2-1.5,0.3-2.1
			c2.1-2.5,2.1-4.8,0.1-7.1c-1-1.2-1.5,0.1-2.2,0.4l0.1,0.1c0-0.5-0.3-1.3-0.1-1.4c2.9-1.4,1.4-3.7,1.1-5.6
			c-0.3-2.2-0.2-4.6-2.2-6.3c-1.3-1.2-0.2-3.3-1.7-4.6c-0.5-0.5-0.1-1.7-1.6-2.1c-1.1-0.3-0.3-1.8,0.3-2.2c1.5-1,1.5-1.4,0.1-2.5
			c-1.1-0.9-0.5-1.7,0.8-1.9c-0.8-2.2,0.3-4.6-0.7-6.9c-1.5-3.6-2.9-7.4-2-11.6c0.4-2.1-0.1-4.3-0.3-6.5c0-0.7-0.2-1.5-0.9-1.7
			c-0.7-0.2-0.8,0.7-1.3,1.1c-0.5,0.4-0.9,1.5-1.6,1.1c-0.9-0.6-1.6-1.6-2-2.6c-0.3-0.6,0.5-1,1.1-1.4c2.5-1.6-0.8-3.1-0.2-4.8
			c-2.9-0.9-1.3-3.2-1.7-4.9c0.9-0.2,1.2,0.5,1.7,0.8c0.7,0.4,1.2,0.1,1.5-0.4c0.4-0.7-0.2-0.8-0.7-1c-2.3-1.2-3.3-3.3-3-5.7
			c0.2-2.1-1.5-4-0.3-6.4c0.3,0.5,0.6,1,0.8,1.3c0.8-0.1,0.8-0.4,0.7-0.7c-0.7-3.6-1.3-7.3-2-10.9c-0.1-0.7-0.6-1.5,0.3-1.7
			c0.8-0.2,2.1,0.3,1.4-1.2c-0.5-0.9-0.4-3-2.5-2c-0.8,0.4-0.8-0.1-0.8-0.6c0-0.3,0.9-2.3,1.1-2.7c0.2-0.3,0.3-0.8,0.2-1.1
			c-1-2.4-0.1-4.9-0.7-7.4c-0.3-1.5-0.3-3.2,1.1-4.1c2-1.3,0.7-1.8-0.4-2.4c-1.6-0.9-2.6-1.1-1.1-3.6c1.2-2,4.1-4.6,2.5-7.3
			c-2.1-3.5-1.2-7.3-2.1-10.9c-0.7-2.5,0.3-5.1,0.3-7.6c0-1.8-0.5-3.1-1.3-4.4c1.5-0.3,3.1-0.3,3.8-2.1c-1.7,0-1.7,0,0.1-3.5
			c-3.7-1.1-3.8-1.7-2.2-5.4c0.7-1.5,1-4,0.2-5.3c-2.2-3.6-0.9-7.2-0.1-10.4c1.4-6.1,1.2-12.3,1.2-18.4c0-4.5,0.2-8.9,0.3-13.4
			c0-0.6-0.1-1.2,0.4-1.7c4.7-3.9,3.3-9.2,3.3-14.2c0-2.1,0.1-4,0.9-6.1c1.1-2.8,1.2-5.9-0.3-8.9c-0.7-1.4-0.9-3-1.2-4.5
			c-0.1-0.5,0-1.4,0.9-1.2c2.5,0.4,1.7-0.7,1.2-2.1c-0.3-0.9-2.3-2.6,0.9-3.2c0.8-0.2,2-2.7,1.5-4.5c-0.5-2.1-0.6-4.1,0.2-6.2
			c0.1-0.2,0.1-0.5,0-0.6c-3-4.7,1.2-9.8-0.8-14.7c-0.7-1.8,0.2-3.7,1.8-5.3c1.4-1.4,2.5-3.1,2.8-5.3c0.4-3.1,1.2-6.2,1.9-9.3
			c0.2-0.7,0.8-1.7-0.7-1.6c-0.5,0-1.2,0.6-1.3-0.4c-0.1-0.6,0.5-0.7,0.9-1c1.8-1.5,2.5-2.8,1.6-5.5c-0.6-1.9,0.1-5.1,1.8-6.7
			c1-1,0.6-1.5,0.4-2.2c-0.7-2.5-0.8-4.8,1.5-6.7c0.4-0.3,0.6-1,0.6-1.6c1.2-9,4.8-17.4,7.6-25.9c1.5-4.6,3.7-8.9,6-13.2
			c0.6-1.1,0.5-2.8,2.7-2.3c1,0.2,0.1-1.1,0.5-1.7c0.3-0.4,0.5-1,1.1-0.8c0.6,0.1,0.6,0.7,0.6,1.2c-0.1,4.8-2.6,8.9-4.1,13.3
			c-1.5,4.6-3.3,9.1-5.1,13.5c-2.7,6.8-3.7,14.2-6.6,21c-0.2,0.4-0.4,0.8-0.4,1.1c0.4,4.7-1.9,9.1-1.8,13.8c0.1,3.2-0.9,6.4-1.5,9.6
			c-0.5,3.2-1,6.5-1.7,9.7c-0.4,1.7-0.7,3.3-2.8,4.2c-1.8,0.8-1.6,3-1.4,4.7c0.9,5.3,1.1,10.7,0.6,16.1c-0.3,3.5,0.8,7.1-0.7,10.6
			c-2.6,5.9-1.3,12.3-2.3,18.4c-0.8,5-0.5,9.9-1,14.8c-0.4,3.7-1.7,7.1-2.7,10.6c-0.4,1.4-0.7,2.9-1,4.4c-0.1,0.3-0.3,0.9,0.3,0.9
			c0.3,0,0.7-0.5,1.1-0.9c-0.4,1.3,0.5,2.7-1.4,3.9c-0.9,0.6,0.2,3.7,0,5.7c-0.4,5,0.4,10.2-1.4,15.1c-0.5,1.5-0.1,3.1,0,4.7
			c0.4,4.2,1.4,8.5-0.7,12.6c-0.6,1.2-0.3,2.4,0.1,3.5c0.7,2.2,2.1,4.2,0.1,6.5c-0.8,0.9,1,1.4,1,2.5c0.1,8.3,1.8,16.6,0.7,25
			c-0.3,2,0.1,4.2,0.6,6.1c0.5,1.6-2.4,2.9,0,4.2c0,0-0.1,0.2-0.1,0.2c-3.3,0.2-1.7,2.4-1.7,4c0,1.9,0.7,3.3,1.6,5
			c1.7,3.1,2,6.6,0.6,10c-0.3,0.8-0.7,1.6,0,2.2c3.1,2.5,1.9,6.2,2.5,9.4c0.3,1.4-0.2,2.7,0.7,4.2c2,3.2,0.9,7.1,1.7,10.7
			c1.4,5.8,2.5,11.6,2.8,17.6c0.1,2.5,0.6,5.5,1.8,8.2c1.1,2.5,1.5,5.4,1.7,8.3c0.4,6.3,1.1,12.6,2.9,18.8l-0.1-0.1
			c0.1,4.5,0.5,5,4.7,5.8c1.1,0.2,1.2,0.9,1.3,1.9c0.2,2.6-0.6,5.3,0.6,7.9c0,0,0,0,0,0c-1.1-0.1-2.2-1.7-3.2,0.5
			c-0.7,1.6-1.7,3.2,0.5,4.2c3.6,1.6,3.8,5.4,5.5,8.2c0.5,0.9-2.3,2.3,0,3.7c-1,0.6-1.1,0-1.3-0.2c-0.9-0.5-1.5-2.1-2.6-1.5
			c-1.1,0.6-1.5,2.1-1.4,3.4c0,0.8,0.1,1.6,0.4,2.3c1,2.5,3,4.8,1.7,7.9c-0.1,0.2,0.6,1,1.1,1.2c0.8,0.3,2.2-0.1,1.3,1.7
			c-0.3,0.6-0.1,1.3-0.9,1.5c-1.4,0.3-1.9-0.8-2.3-1.8c-0.1-0.1-0.3-0.2-0.9-0.2c2.1,4.1,4.3,8.3,3.3,13.1c0.9-1.5,0.5-3,0.6-4.4
			c0-1.1,0.1-2.1,1.5-2c1,0.1,1.9,0.3,2.1,1.7c0.5,4.7,0.6,9.4,0.4,14.1c0,0.5-0.1,1.3-0.4,1.4c-3.5,1-2,4-2.4,6.2
			c-0.1,0.4-0.1,0.9,0.1,1.2c3.4,4.8,2.3,10.4,3,15.7c0.1,0.7,0.1,1.5-0.4,2.3c-0.8,1.3-4.1,2.9,0.2,4c0.3,0.1,0.6,1.1,0.6,1.6
			c-0.1,2.9,2,5.5,1.3,8.4c0,0.2,0,0.5,0.1,0.6c4.1,2.9,2.4,7.3,2.9,11.1C75.6,755.3,72.2,755.3,68.8,755.3z M62.5,703.8
			c0.8-2.6-1.9-4.3-1.3-6.8c-2.2,2.4-1.1,4.4,0.3,6.5c-1.4-0.5-2.8-1-4.7-1.6c1.2,2.4,3.2,3.8,3.8,6.2c0.2,0.9,1.1,0,1.7-0.2
			c-0.2,1.7-0.5,3.3-0.5,5c0,1.3,0.3,2.8,1.6,3.2c0.9,0.3,2-0.9,2.2-1.6c0.5-2.1,1.9-4.3,0.4-7.2c-0.2,4.7-1.7,2.6-3,1.2
			c-0.2-0.2-0.5-0.3-0.7-0.5C62.2,706.5,63.5,705.3,62.5,703.8z M68.4,729.5c0.6-0.8,1.4-1.6,1.7-2.5c0.3-0.7-0.6-1.5-1.2-1.4
			c-1.2,0.1-1.6,1.4-2,2.3C66.7,728.7,67.6,729.1,68.4,729.5z M50.9,368.6c0.7,1.2-0.1,2.5,0.3,3.9
			C53.6,370.9,53.6,369.6,50.9,368.6z"/>
		<path d="M172.6,755.3c0.8-1.6,1.5-3.3,2.3-4.9c0.5-1,2.6-2.4-0.6-2.6c0.4-1.1-0.8-2.5,0.6-3.3c1.3-0.8,1.7-2.4,3.1-3
			c0.5-0.2,0.8-1.2,0.4-1.9c-0.6-0.9-1-0.3-1.6,0.2c-0.7,0.8-0.5-0.1-0.7-0.4c-1-1.4-1-2.9-0.6-4.5c0.3-0.9,0-2.5,1.9-1.7
			c1.4,0.6,0.5-1.7,1.9-1.4c0.5,1.7,1.5,3.2,0.4,5.4c-1.2,2.3,0.8,4.2,2,6.9c1.3-4.1,1.2-7.5,0.8-11c-0.1-1.6-0.2-3,0.5-4.6
			c0.5-1.2,1.2-3-0.1-4.5c-0.6-0.6-0.8-1.1,0-1.7c0.6-0.5,1.3-0.7,1.8,0c1.3,1.6,1.4,0,1.9-0.7c1.1,0.7,0.7,1.9,0.6,2.7
			c-0.6,6,1,11.9-0.1,17.9c-0.1,0.8-0.2,1.7,0.6,2.1c1.9,0.8,2.3,2.7,3.1,4.1c1.9-10.4,0.6-27.8-2.5-38c-1.3-4.2-2.9-8.3-3.3-12.7
			c-0.2-2.3-1.8-3.9-3.4-5.5c-7.3-6.8-14.7-13.5-21.5-20.8c-9.4-10.3-18.2-21.1-26.3-32.5c-5.7-7.9-10.2-16.4-13.8-25.3
			c-2.9-7.3-5.4-14.8-7.3-22.5c-2.8-10.9-4.6-22-7.3-32.9c-3.5-14.6-5.8-29.5-7.4-44.5c-1.2-11.9-2-23.9-1.6-35.9
			c0.2-5.9,0.4-11.8,1.7-17.5c0.5-2-0.8-4.2,0.9-6.1l0,0c-0.2,1.1-0.3,2.4,1,2.8c1.7,0.5,0.6-1.9,2.1-2.1c-0.2,3.4-0.2,6.7-0.6,10
			c-1.4,12.3-0.8,24.5-0.1,36.8c0.7,11.5,2.1,22.9,4.2,34.1c1.6,8.5,3.1,17.2,5.5,25.6c1.8,6.3,2.2,13,4,19.3
			c1.7,5.9,2.7,11.9,4.8,17.8c2,5.5,3.7,11,6.1,16.3c3.9,8.5,8.7,16.4,14.2,24c4.7,6.5,9.5,13,14.6,19.3c5.9,7.4,12.7,14,19.4,20.6
			c4.4,4.4,9.5,8,13.6,12.7c0.5,0.6,1.1,1.3,1.2,2c1.4,7.8,4.5,15,6.4,22.6c1.1,4.4,0.3,8.9,0.5,13.4c0.3,8.6-0.5,17.2-0.7,25.7
			c-1.6,0-3.2,0-4.8,0c-0.2-1.3,1-2.8-0.1-3.9c-0.4-0.3-2.3,0.1-2.5,0.6c-1.4,3-2.3,0.6-3.6-0.7c0.3,1.7,0.5,2.8,0.8,4
			C181,755.3,176.8,755.3,172.6,755.3z M99.9,470.5c-0.2-0.7,0.2-1.7-0.7-1.8c-0.9-0.1-0.9,0.9-1,1.6c-0.2,0.7-0.3,1.4-0.4,2
			c-0.1,1.1-0.2,2.6,1.2,2.6c1.2,0,0.5-1.4,0.5-2.2C99.6,471.9,99.8,471.2,99.9,470.5z M101,461.1c-0.2-0.5,0.3-1.5-0.7-1.6
			c-1.2-0.1-1.1,1.2-1.3,2c-0.2,0.8-0.1,1.8,0.9,1.8C101.3,463.2,100.7,461.9,101,461.1z"/>
		<path d="M568.6,755.3c-1.7-3.4-2.8-7.3-5.2-10.2c-1.9-2.3-2.2-4.3-2.3-6.9c-0.1-1.6-0.6-3.4-1.4-4.8c-0.6-1.2-0.5-2.2-0.1-3.3
			l-0.1,0.1c2.8-0.4,6.7,4.3,5.8,7.1c-0.1,0.5-1.1,1.2-0.4,1.5c3.2,1,2.7,4.7,4.9,6.5c1.8,1.4,0.8,4.1,2.2,6c0.8,1.1,2.5,2.2,1.4,4
			C571.8,755.3,570.2,755.3,568.6,755.3z"/>
		<path d="M535.6,755.3c0.2-0.8,0.5-1.6,0-2.4l-0.1,0.1c3.2-2.6,7-3.5,11.5,2.4C543.2,755.3,539.4,755.3,535.6,755.3z"/>
		<path d="M390.4,753c0.7-0.2,1.6-0.2,1.9-0.6c0.9-1.3,1.5-0.6,2.4,0.1c1.2,0.9,0.3,1.5-0.3,2.2c-0.2,0.2-0.3,0.5-0.4,0.8
			c-1.2,0-2.4,0-3.6,0C390,754.5,390.4,753.7,390.4,753L390.4,753z"/>
		<path d="M554.2,697.7c-1.2-2.3-2.7-4.6-3.1-7.3c-0.1-0.7-0.7-1.5-1.4-1.2c-0.9,0.4,0.1,1.1,0.1,1.5c0.1,1.2,1.1,3-1.3,3.4
			c-0.7,0.1-1.3,0.5-1.8-0.3c-0.5-1,0.3-1,0.9-1.4c0.5-0.3,1.2-0.8,0.8-1.7c-0.6-1.1-1.1,0-1.6,0.1c-1.9,0.3-1.7-1.2-1.8-2.3
			c-0.3-2.8-0.3-2.8-2.9-1.7c-2.4,1.1-3.7,0.2-3.7-2.6c0-1.3,0-2.6,0.1-3.9c0.4-4.7,0.5-4.7,2.9-7.2c0.2-0.2,0.7-0.4,0.7-0.4
			c-1.2-2.7,1.2-5,1-7.5c0-0.6,0.3-2.2-1.4-1.5c-0.8,0.3-0.7-0.3-0.4-0.5c2.7-3.1,0.7-6.5,0.1-9.5c-0.8-3.8-0.9-7.7-1.4-11.5
			c-0.7-5-1.2-10.1-0.7-15.2c0.2-2-0.8-3.6-1.4-5.3c-0.5-1.4-1.9-1.5-3.3-1.3c-2.5,0.4-3.5-0.6-3.3-3.2c0.2-1.7,0.1-3.3,0.1-5
			c0-0.8,0.1-1.4,1.2-1.2c2,0.4,2.8-0.9,2.3-2.4c-0.5-1.5,1-3.8-1.6-4.5c-0.1,0-0.1-0.8,0-1.1c1.3-4-0.4-8.1,0-12.1
			c0.1-1.1-0.6-3,2.1-2.3c1.1,0.3,1.3-1.8,1.9-2.8c0.8-1.6-0.6-0.8-0.9-1.2c-1.1-1.4-3.6-2.1-2.6-4.8c0.5-1.5,2.9-0.9,2.8-2.8
			c0.3,0.1,0.7,0.1,0.8,0.3c0.7,0.8-0.4,1.4-0.3,2.2c3.1-0.5,2.7-0.5,2.7-3.4c0-5.1-2.4-9.2-4.9-13.3c-0.6-0.9,0.8-4,1.8-4.2
			c0.1,0,0.3,0.7,0.6,1c-0.1-2,0.2-3.8-0.9-6.1c-1-2.1-1.5-5.1-1.7-7.8c-0.3-4.4-1.8-8.6-1.7-13c0-0.7-0.2-1.8-0.8-2.2
			c-2-1.6-1.8-3.7-1.2-5.7c0.5-1.8,0.7-3.6-0.4-5.1c-1.2-1.7-0.4-3.5-0.6-5.2c-0.3-1.7-0.3-2.9-2.8-2.8c-1.7,0.1-4.1-0.2-3.9-3.4
			c0.1-2.1,0.3-4.2,0.4-6.3c1.3,0.9,3.4-0.1,3.6-1.9c0.2-1.9,0.9-4.4-0.1-5.6c-3.7-4.6-1-9.7-1.6-14.5c-0.5-4.1-1.3-8.2-1.2-12.4
			c0-2.2-0.1-4.3,2.8-5c-2.1-2.2-3.5-2.2-3.9,1.5c-0.1-4.4-2.3-7.6-2.2-11.6c-0.4,0.6-0.6,1-0.8,1.3c-0.1,0.1-0.2,0.2-0.4,0.2
			c-1.6-2.6-0.7-5.7-1.6-8.4c-0.5-1.4-0.8-2.9-1.2-4.4c0.3-1.9-2.1-2.8-1.8-4.7c0.5-0.7,1.7-1.2,1.2-2.4c-1.4-2.3,1.8-2.1,2.2-3.7
			c0.2-1.1,1-2.1,0.5-3.4c-0.2-0.5-0.3-1.2-0.2-1.8c0.4-8.2-1.5-16.3-2.1-24.5c-0.4-5.3-0.1-10.7-0.1-16.1c1.5,0.4,0.6,2,1.3,3.2
			c0.6-2.2,0.5-4-1.1-5.5c-1.1-1-1.2-2.2-1.1-3.6c0.1-2.1,0.3-4.2,0.2-6.3c-0.1-1.8-0.4-3.3-1.4-5.1c-1.3-2.4-1.4-5.7,0-8.6
			c0.6-1.2,0.1-2.9-0.7-3.8c-2.7-3-2.3-6.5-1.9-9.9c0.2-1.9-0.4-3.8-1.2-4.7c-2.9-3.5-2.8-7.4-2.1-11.2c0.4-2.2,1-4.4,0-6
			c-2.1-3.5-1.5-7.7-3.1-11.3c-1.2-2.8-1.8-5.9-1.6-8.8c0.5-9.3-2.7-18-3.9-27c-0.4-2.6-2.9-4.5-3.2-7.5c-0.2-2.4-1.4-4.7-2.1-7.1
			c-1.4-4.8-3.5-9.2-6.3-13.4c-0.3-0.5-0.6-1.1-0.7-1.6c-0.3-7.7-5.1-13.6-8.2-20.2c-2.9-6.2-7.9-11.1-10.8-17.3
			c-1.4-2.8-3.9-5-5.5-7.7c-2.6-4.6-6.7-7.9-9.9-11.9c-1.6-2-2.9-4.2-5.2-5.6c-0.8-0.5-1.3-2-1.1-3.3c0.1-0.7-0.4-1.6,0.6-2.1
			c0.9-0.4,1.7-0.1,2.5,0.2c3.3,1.3,4.2,4.7,6.6,6.8c2.8,2.5,5.5,5.2,8.2,7.8c2.2,2.2,3,5.3,4.9,7.7c5.6,7.5,10.6,15.5,15.2,23.7
			c2.4,4.3,4.2,9,6.2,13.5c3.1,7.4,5.9,14.8,8.4,22.4c0.8,2.5,1.9,5,1.9,7.8c0,0.3,0,0.7,0.2,0.9c4.3,6,3.5,13.2,5.2,19.8
			c0.8,3,1.7,5.9,2.4,8.9c0.1,0.5,2,2.5-0.9,2c-0.6-0.1-0.3,0.8-0.2,1.2c0.2,2.3,0.3,4.4,2.4,6.1c0.9,0.8,1.1,2.5,0.9,3.9
			c-0.2,1-0.4,1.8,0.8,2.5c0.5,0.3,1.2,1.3-0.5,1.8c-1.1,0.3-0.8,2.1,0.4,2.4c0.8,0.2,0.5,0.7,0.5,1c0.5,3.5,1,7.1,1.5,10.6
			c0.1,0.9,0.6,1.4-1.1,1.5c-1.1,0-0.8,2-0.1,2.9c2,2.4,2.3,5.9,4.7,8.1c0.4,0.4,0.6,1.3-0.5,2.3c-1.6,1.4-1.3,3.8-0.1,5.9
			c1.6,2.8,3.4,5.7,2.3,9.3c-0.3,0.8-0.1,1.8,0.1,2.7c0.8,3.3,1,6.7,0.9,10.1c-0.1,2.4,0.6,4.7,1.5,6.9c0.2,0.5,0.1,1,0.9,0.6
			c2.2-1.2,3.7,0.9,3.9,2c0.3,1.6-1.5,2.7-3,3.6c-0.4,0.2-1.3-0.4-1.1,0.7c0.2,0.7,0.8,1.2,1.6,1.2c1.8-0.1,1.9-0.1,1.1,1.4
			c-0.7,1.2-1.1,2.3-1.2,3.6c-0.1,1.5-0.4,3,1.1,4.2c0.7,0.6,0.7,1.1-0.1,1.6c-0.5,0.3-0.6,1.4-1.6,0.6c-2.6-2.2-2.3,0.7-2.3,1.6
			c0,2.3,0.3,4.6,0.8,6.8c0.8,3.5,1.5,6.9,1.7,10.5c0.1,1.5,0.3,2.9-1.8,4c-2.1,1.1-1.3,4.2-1,6.4c0.2,1,0.9,2,0.8,3.1
			c0,0.3-0.2,1,0.5,0.6c1.1-0.6,1.8-0.4,1.8,0.8c0,1.1-0.9,1.5-1.8,1.7c-1.1,0.2-1.6-0.5-1.7-1.6c0-0.5-0.1-0.9-0.4-1.4
			c-0.3,4,0.3,8-0.2,12c1.1-0.3,0.1-1.4,1.2-1.9c0.5,3.2,1.9,6.2,1.5,9.4c-0.5,3.7,2.6,8.9,6.3,10c0.8,0.2,1.5,0.6,2.1,1
			c2.1,1.4,2.1,3.7,0,5.1c-1.7,1.2-2.4,2.3-1.7,4.6c1.1,3.5,0.9,7.3,2.4,10.7c0.5,1.2,0.2,2.8,0,4.1c-0.2,1.1-0.9,2.1,0.8,2.6
			c0.2,0.1,0.5,0.6,0.4,0.7c-1.9,3.8,2.5,6.8,1.3,10.5c-0.1,0.2,0,0.7,0.2,0.8c1,0.6,1.5,1.7,0.7,2.5c-1,1-1.5-0.7-2.4-1
			c-0.2,4.3-0.2,4.3,3.2,3.1c0.4,0.9,0.1,1.8-0.4,2.5c-0.8,1.3-1.1,2.7-0.3,3.9c1.7,2.6,1,5.1,0.2,7.7c-0.3,0.9,0.1,1.5,1,1.8
			c1.4,0.5,2,1.9,2.9,2.9c-1.9,0.9-0.2,3.1-1.6,4.3c-1.5,1.2-1,2.7,0.1,3.7c1.6,1.6,2.3,3.4,2.3,5.6c1.1,0.8,0.9,1.7,0.1,2.6
			c-1.1,0.6-0.9-1.2-2-1.1c0.2,2.6-0.3,5.2,2.1,7c-0.4,0.5-1,1.1-0.5,1.7c0.6,0.8,1.4,0.2,2.1,0.1c0.4,0.5,0.8,1.1,1.2,1.6
			c0.1,0.4,0.5,0.9,0.3,1.1c-3.4,4-1.7,8.5-1.1,12.8c0.7,5,1.7,10,2,15.3c1.4-1.2,0.4-3.7,2.1-4c-1.6,10,0.4,19.7,2.7,29.4
			c-1,0.4-0.4-1.5-1.5-0.8c0,0.2,0,0.5,0.1,0.7c2.3,3.3,3,7.5,3.7,11.1c0.5,2.5-0.5,5.1,1.6,7.7c0.7,0.8,1.7,4.9-1.6,6.2
			c1.1,1.1,0.7,2.7,1.4,3.9c0.6,1,1.2,1.8-0.2,2.7c-0.5,0.4-1.2,1.2,0.1,1.8c0.5,0.2,0.5,1,0.2,1.3c-1.4,1.7-1.7,3.9-2.2,5.9
			c-0.6,2.3,0.7,4.5,0.1,6.8c1.1,0.8,1-1.4,1.9-0.7c0.7,0.6,0.4,1.4-0.2,2.1c-0.5,0.6-0.8,1.3-1.2,2c-0.9,1.1-2.2,2-2.2,3.7
			c-0.5,1.1-0.9,2.2-1.5,3.6c2-1,2.3,1.9,4.1,1.4c-0.1,0.6,0.1,1.2,0.6,1.6c1.5,1.2,2.1,2.6,1.4,4.4c-0.2,0.3-0.3,0.6-0.5,0.8
			c-1.4,0.9-1.8-1.4-3-1.1c-0.4,0.6-0.3,1.1,0.1,1.4c1.8,1.4,2.2,2.9,0.8,4.8c-0.3,0.4-0.7,1.1-0.2,1.7c2.6,3.4,2.6,7.7,4.1,11.5
			c1.5,3.7,1.4,7.7,2.5,11.6C556.6,699.7,555.7,698.2,554.2,697.7C554.2,697.7,554.2,697.7,554.2,697.7z"/>
		<path d="M291.1,621.7c-3.3,1.6-5.8-1.5-8.8-1.4c-2.9,0.1-5.8-1.3-9.6-0.1c14.9,2.1,28.6,7.7,43.2,4c-0.2-0.1-0.4-0.2-0.5-0.3
			c-1-0.5-3.1,1-3-1.2c0.1-1.1,2-0.3,3.1-0.4c5.8-0.6,11.6-0.1,17.5,0.2c1.3,0.1,2.8-0.6,3.9-1.4c1.7-1.3,3.2-1,4.8,0
			c1.4,0.9,1.3,0.7,3.4-0.5c1.1-0.6,2.8-0.8,3.9,0.4c0.7,0.8,1.5,1.1,2.3,1.6c-0.4,1-1.7,0-2,1.1c2.7,0.6,3.2,0.5,6.1-1.4
			c-0.1-1.2-2.8,0.3-2-2c0.5-1.7,1.3-2,3-1.8c2.6,0.4,5.2-0.3,7.6-1.2c3.6-1.3,7-2.9,10.8-3.3c1.1-0.1,2-0.8,2.8-1.6
			c0.9-0.7,1.7-0.3,2.4,0.2c0.9,0.6,1.1,1.7,1.2,2.6c0.2,1.5-2.3-0.5-2.3,1.7c0,0.5-2.3,2-3.6,3c0,0,0,0,0,0c0-0.9-0.2-1.3-1.4-1.3
			c-2,0.1-3.5,1.5-5.3,1.9c-2.2,0.4-2.2,1.7-1.8,3.4l0.1-0.1c-1.8-1.3-3.7-3.4-5.2,0.4c-0.1,0.3-0.7,0.4-1,0.6
			c-6.8,3.3-13.8,5.5-21.5,6.3c-4.6,0.5-9.2,1.6-14.7,1.1c1.2-0.5,1.9-0.7,3.4-1.3c-5.2-0.8-9.6-0.9-14-0.8
			c-7.2,0.3-14.3,0.3-21.5-0.3c-5.3-0.4-10.7-0.5-15.5-2.7c-3.3-1.5-6.3-1.2-9.6-1.1c0,0.4-0.1,0.6,0,0.7c0.4,1.1,2.8,0.8,2,1.9
			c-1,1.5-1.4-0.9-2.4-1c-3.6-0.4-7.2-0.8-10.8-1.1c-2.3-0.2-4.4-0.8-7-1.9c1.9-0.3,3.4-0.6,5.2-0.9c-1.3-1.1-2.6-1.1-3.8-1.1
			c-8.5,0.1-16.9-1.4-25.4-1.5c-2.1,0-3.8,1.6-6.1,1.3c-3.1-0.4-5-1.3-6.6-4.4c-0.3-0.6-0.9-0.3-1.3-0.4c-1.2-0.2-0.1-0.5,0-0.8
			c0.5-2.5,3.2-2.9,5.8-0.5c1.9,1.8,3.2,1.4,4.9-0.7c-5.2-1.9-10.3-3.1-15.6-3.8c-2-0.3-4.5,0.6-6-1.5c-0.4-0.6-2.2,0.3-1.3-1
			c0.6-0.9,0.6-2.7,2.7-2.5c4.2,0.5,8.8,0,12.7,0.9c4.5,1.1,9.2,2.6,13.5,4.6c6.6,3.1,13.4,5.7,20.9,5.3c2.7-0.1,5.3,0.9,8.9,0.2
			c-1.9-0.3-2.9-0.4-4.5-0.7c4-0.3,7.2-1.9,10.6-0.2c1,0.5,2.4,0.4,3.5,0.1c4.9-1.7,9.8-0.3,14.6,0.2c3.4,0.4,6.7,1.6,9.8,3
			C291.6,620.9,291.3,621.3,291.1,621.7z"/>
		<path d="M474.5,423c0.4,5,0.6,10.1,1.3,15.1c0.4,2.8-0.2,5.9,2.3,8.7c0.9-2.3-0.5-4.2,0.3-6.4c1.9,2.5,1.5,5.4,1.7,7.8
			c0.7,9.7,1,19.4,1.5,29.1c0.1,2.2-0.8,2.8-2.6,2.8c1.2-1.9,1.8-3.9,0.7-6.5c-1.5,2.3-0.9,4.4-0.7,6.5c0.3,0.5,0.5,1.1,0.8,1.6
			c-1.4,0.4-1.2,1.5-1.1,2.4c0.6,4.7,0.6,9.5,0.7,14.3c0,0.6-0.4,1.4,0.7,1.7c1.6-0.9,1.6-2.6,1.2-4c-1-3.3-0.1-6.7-0.3-10
			c-0.1-1.6-0.2-3.2-1.3-4.5c2.2-0.1,2.3,1.6,2.3,3.1c0.1,13.2,1.4,26.5,0.3,39.7c-0.8,9-2.2,18-4.8,26.7c-1.1,3.9-2.5,7.7-3.5,11.6
			c-2.2,8.5-5.5,16.7-8.4,25c-2.8,8.1-5.2,16.5-9.1,24.1c-2,4.1-3.2,8.6-6.2,12.3c-2.1,2.6-2.9,6.3-4.9,9.1
			c-2.9,3.9-5.3,8.2-8.8,11.7c-1.3,1.3-2.1,3.1-3.2,4.6c-0.9,1.2-1.9,2.2-3.4,0.9c-1.3-1.1-1.2-2.2-0.1-3.6
			c3.4-4.2,6.7-8.6,10.1-12.9c1.5-1.9,1.6-4.4,3.1-6.3c3.4-4.4,4.8-9.8,7.4-14.6c2.9-5.4,4.4-11.3,6.8-16.8
			c3.4-7.9,5.6-16.2,8.6-24.2c1.6-4.3,3-8.8,4.4-13.2c3.7-11.8,6.7-23.7,7.7-36c0.6-7.1,0.3-14.4,0.2-21.6
			c-0.3-18.1-0.8-36.3-2.7-54.3c-0.6-5.7-0.6-11.4-1.5-17C473.7,427.6,473.7,425.3,474.5,423L474.5,423z M477.8,455.4
			c-0.9,2.4,1.5,4.7-0.5,7.8C480.5,460.4,480.5,457.6,477.8,455.4z"/>
		<path d="M191,430.5c0.6,1.5,1.1,3-0.3,4.4c-0.4,0.4-0.7,1.6-0.4,1.9c2.7,3.5,1.8,8.3,4.2,11.9c0.7,1.1,1.3,0.8,2.1,0.9
			c5.9,0.9,11.8,1,17.8,0.2c1.9-0.3,4-0.2,5,2.2c0.4,0.8,1.6,1.1,2.6,1.8c-4.3,0.8-8.6,0.6-12.8,0.8c-8.5,0.4-17-0.1-25.5-0.8
			c-5.6-0.5-10.1-2.7-13.7-7.1c-1.7-2.1-4.9-1.4-7.1-0.9c-3.5,0.7-6.7-0.9-10-0.2c-0.3-1,1.3-1,0.6-1.9c-0.2-0.2-0.8-0.4-1-0.3
			c-1.1,0.6-2,0.4-2.5-0.6c-0.1-0.2,1.2-1,1.9-1.5c0.3-0.2,0.7-0.4,0.9-0.5c-0.1-0.3,0-0.6-0.1-0.7c-1-0.8-3.1-0.6-3-2.4
			c0.1-1.5,2-0.9,3-1.3c3.8-1.6,7.8-3.1,11.1-5.3c1.7-1.2,3.9-1.2,5-2.4c3-3.4,7.7-3.2,11-6c2.3-2,5.6-1.5,8.2-1.4
			c2.5,0.1,5-0.5,7.6-0.2c0.9,0.1,1.4,0.4,1.8,0.9c0.7,0.9-0.3,1-0.8,1.5c-2.6,2.9-6.6,1.4-9.6,3.3
			C188.3,428.2,189.4,429.6,191,430.5L191,430.5z M193.1,449.7c-5.2-2.1-7.4-5.7-7.4-11.4c0-1.9,0.5-3.8-0.8-5.5
			c-0.7-0.8-1.3-1.5-2.4-0.3c-2,2.1-4.6,3.4-7.3,4.5c-1.4,0.6-3.2,1.4-2.7,3.4c1.1,4.1,3.2,7.3,8,7.9c1.6,0.2,3.2,1,4.8,1.4
			C187.7,450.2,190.3,452.1,193.1,449.7z M155.1,441.3c4,0.9,7.9-0.1,11.8-0.5c1.4-0.2,0.8-2.1,1.2-3.2c0.2-0.5-0.4-0.8-1-0.7
			c-0.7,0.1-5.2,2.7-5.9,3.4c-0.1,0.1-0.5,0.3-0.5,0.2C158.4,438,157,441.9,155.1,441.3z"/>
		<path d="M326.8,124.7c-2.7,0.3-5.4,1.9-7.9-1.1c-0.6-0.7-3-0.3-4.6-0.4c-7-0.1-13.7-2.4-20.8-1.9c-1.8,0.1-3.6-0.1-5.3-0.6
			c-4.3-1.2-8.8-1.2-13.1-1c-5.1,0.2-10.1,2.2-15.3,1.7c-0.3,0-0.7,0.3-1.1,0.6c0.8,1.1,2.3-0.4,2.8,1c-0.3,1.1-1.3,0.9-2,0.7
			c-5-1.2-9.5,1.5-14.2,1.6c-4.5,0.1-7.8,3-12,3.6c-4.8,0.7-9.1,3.4-14.2,2.8c-2.6-0.3-4.9,1.9-7.2,3.2c-0.4,0.2-0.7,0.8-1.1,0.9
			c-7,2-12.5,8.1-20.5,7.1c-1.3-0.2-2.4,0.7-3.4,1.6c-0.8,0.8-1.4,0.7-2.5,0.1c-3-1.6-0.2-3.5,0.2-4c1.2-1.3,2.8-2,5-2.2
			c4.6-0.4,9.8-0.1,13-4.7c0.2-0.3,0.6-0.6,0.9-0.6c3.9-0.1,6.3-3.3,9.5-4.8c2.6-1.2,5-1.1,7.6-0.8c0.3,0,0.5,0.2,0.8,0.3
			c0.8,0.3-1.9,2.2,0.7,1.7c1.1-0.2,1.6-1.2,1.6-2.3c-0.1-1.8-1.6-1.4-2.7-1.6c-0.1,0-0.2-0.1-0.4-0.3c3.8-1.2,7.7,0.4,11.2-1.1
			c0.4-0.2,1.2,0,1.4-0.3c4-4.2,9.8-2.5,14.6-4.3c4.8-1.9,10-2.3,15.2-3c6-0.9,12-1.1,18-1.7c3.1-0.3,6.3,0.1,9.5,0.9
			c2.4,0.6,4.7,1.9,7.1,0c0.2-0.2,0.8-0.2,1.1,0c6.4,3.3,13.4,2.1,20.1,3c0.6,0.1,1.4-0.2,2-0.3c1.3-0.2,3-1.5,2.8,1.4
			c0,0.7,1,0.9,1.7,1c0.8,0.1,1.8-0.3,2.7,0.4C327.6,122.6,325.7,123.2,326.8,124.7L326.8,124.7z"/>
		<path d="M370.7,375.6c1-3.2,2.7-4.4,6.1-4.3c1.7,0.1,2.2-1.8,2.8-2c4,2,7.5,2.5,11.2,1.4c0,0-0.1,0-0.1,0c0.5,1.1,1,1.6,2.5,1.3
			c4.8-0.8,9.2,0.6,13.5,2.5c1,0.5,1,1,1.1,1.7c0.2,1.2,0.4,2.3,2,1.2c0.6-0.4,1.2-0.3,1.4,0.4c0.2,0.6,0.8,1.3-0.2,1.8
			c-0.8,0.4-1.5,1-1.1,1.8c0.3,0.8,1.4,0.3,2.1,0.5c5.6,1,11.1,1.6,16.8,1.9c1,0.1,1.9,0.5,2.8,1c1.7,1.1,3.7,1.5,5.7,1.3
			c1.7-0.2,3.4-0.7,2.8,2.2c-0.1,0.4,1,1,1.9,1.9c-4.5-0.8-8.7,0.2-12.7-1.9c-1.2-0.6-3-0.6-4.4-0.3c-3.6,1-7.3-0.3-10.9,0.5
			c-1.1,0.3-2.4,0-3.5-0.4c-3.4-1.4-6.7-2.2-10.4-0.4c-1.5,0.7-3.8,1.3-5.8,0.2c-0.3-0.2-0.9-0.3-1.1-0.1c-3.4,2.8-5.3-0.9-7.7-2
			c-0.9-0.4-1.2-1.6-0.2-2.5c0.8-0.7,1.4-1.2,2.3,0.2c1.3,2.1,3.3,1.3,5,0.7c0.5-0.2,0.8-0.8,1.1-1.3c0.4-0.7-1.8-5.5-2.7-5.9
			c-1.8-0.7-3.1-0.6-4.5,1.3c-1.5,2-4.4,1-6.7,1.1c-1.4,0.1-2.7-0.7-4,0.7c-0.8,0.8-6.2-1.6-6.5-2.6
			C369.7,377,370.2,376.3,370.7,375.6z M397.7,380.7c0.7,0.6-1.1,1.6,0.2,1.9c1.3,0.3,2.9,0.3,3.7-1.1c0.6-1.1,1-1.9,2.5-2
			c1-0.1,1.2-1.4,0.4-1.8c-1.6-0.7-3.3-1.1-5.1-0.2C398,378.2,397.5,379.2,397.7,380.7z"/>
		<path d="M191,430.5c-0.2-2.4,0.5-3.6,3.1-2.4c0.3,0.1,0.8,0.1,1.1,0c7.1-2.7,7.1-2.6,14-1.8c4.4,0.5,8.4,2.1,12,4.6
			c1.1,0.7,1.4,1.4,1.2,2.7c-0.3,2.4,1.2,3.5,3.6,2.8c1.5-0.4,4.7,2.2,4.5,3.6c0,0.3-0.5,0.9-0.6,0.9c-3-1.4-1.7,1.5-2.8,3.1
			c0.4-2.6-1.7-3.7-1.3-5.8c0.1-0.7-0.5-0.7-1-0.5c-0.5,0.1-0.8,0-0.9,1c-0.2,2.7-1.6,5.2-1.5,8c0,0.5-0.4,1.8-1.2,1.1
			c-1.6-1.2-1.9,0.7-3.1,0.9c-0.3-3.9-0.1-7.7,1.1-11.4c0.4-1.2-0.4-1.1-0.8-1.4c-0.8-0.7-1.9-0.5-2,0.3c-0.4,2.3-1.8,3.3-3.8,4
			c-0.8,0.3-1.4,1.1-1.9,1.8c-2.1,2.6-3.8,3-6.7,1.6c-0.8-0.4-1.1-2.3-2.7-1c-0.3,0.2-1-4.5-0.5-5.2c2.2-3,5.3-3.5,8.5-2.5
			c2.6,0.8,1.9-1.3,2.5-2.2c0.4-0.6-0.4-1.3-1.9-1.2c-4.9,0.4-10-0.9-14.5,2.4c-0.7,0.5-1.7,0-1.9-0.9
			C193.4,431.3,192.2,430.9,191,430.5C191,430.5,191,430.5,191,430.5z"/>
		<path d="M123.5,201.2c0.8,0.5,1.2,1.3,0.6,2c-3.6,4.1-5.6,9.2-8.7,13.6c-2.6,3.6-5,7.3-8.3,10.3c-0.6,0.6-0.5,1.5-0.7,2.2
			c-0.1,0.5-0.6,0.4-1.5-0.3c0.5,4.7-3.3,7.3-5.2,10.7c-4.1,7.4-8.4,14.7-12.6,22.1c-0.8,1.5-0.4,3.7-2.8,4.6
			c0.4-1.3,0.7-2.4,1.1-3.6c-2.2,0.4-3.5-1.3-2.4-3.5c2.6-5.1,5.2-10.3,8.4-15.1c3.2-4.9,5.6-10.3,9.1-15c2.1-3,4.3-5.8,6.5-8.8
			c1.4-1.8,2.4-4,3.8-5.7c3.7-4.4,5.8-9.7,9.8-13.9C121.9,199.2,122.5,200.6,123.5,201.2C123.4,201.2,123.5,201.2,123.5,201.2z"/>
		<path d="M404.5,160.2c-1.6,2.2-2.6,4.8-5.3,5.9c-4.3,1.7-6.9-0.8-9.4-3.6c-4.5-5.4-9.6-10.3-15.2-14.6c-2.3-1.8-3.8-4.4-6.5-5.7
			c-2.8-1.4-5.5-2.9-8.4-3.9c-1.7-0.6-2.9-1.7-4.4-2.4c-6.3-3-13.6-2.9-19.6-6.4c2.8-6,7.1-1.7,10.7-1c2,0.4,3.8,1.7,6,1.3
			c0.3-0.1,0.7,0,0.9,0.1c1.8,2.9,5.7,2.3,7.7,4.6c0.7,0.7,3.2-0.2,2,2.2c1.2,0.1,2.6,0.5,3.4,0.3c3.4-0.8,5.1,1.4,7.2,3.2
			c4.3,3.8,8.5,7.6,13.1,11.2c3.1,2.5,5.6,5.9,8.2,9c1.6,1.9,2.8,3.5,5.4,1.1C401.4,160.6,403.2,160.6,404.5,160.2z"/>
		<path d="M389.2,430.9c1.2,3,0.4,4.2-2.8,3.8c-2.3-0.3-4.4-0.4-5.5,2.1c-0.1,0.2-0.3,0.3-0.4,0.4c-1.8,0.7-4.9,0.8-4.6,2.9
			c0.4,3.3,0.7,6.9,2.9,9.8c0.6,0.9,1.3,1.2,2.1,0.2c1.2-1.3,2.4-0.8,3.2,0.4c1.7,2.4,4.1,3,6.8,3c2.9,0,5.4,1.3,8.9,1.4
			c-1.7,1.4-3.1,0.9-4.2,1.1c-0.8,0.2-2.1-0.5-2.5,0.5c-0.5,1.4,1.5,0.8,2,2.1c-4.7,0.1-9.2,0.6-13.7-0.2c-0.6-0.1-1.2-0.3-1.8-0.3
			c-2-0.2-4.2,0.6-5.7-2c-0.4-0.7-2.6-1.5-3.7-2.8c-0.6-0.8-1.3-1.6-1.9-2.4c-0.1-0.5-0.3-1.5,0.6-0.8c0.9,0.7,1.7,1.3,2.9,1.3
			c0.8,0,1.5-0.4,1.2-1.2c-1.4-3.7-1.4-7.6-1.8-11.5c-0.2-1.5,0-1.8,1.2-2c1.1-0.2,2.2-0.2,2.3-2c0.1-1.3,1.3-2.7,2.8-2.7
			c2,0,2.7-2.5,4.7-2.3c2.4,0.3,4.8,0.9,7.1,1.3C389.2,431.2,389.2,430.9,389.2,430.9z"/>
		<path d="M177.4,374.3c0.1,2.3,1.8,1.7,2.8,1.2c2.1-1.1,4.1-1.3,6.3-0.7c0.5,0.1,1.3,0.3,1.4,0.1c1.6-2.5,4-1.7,6.1-1.4
			c-1.8,5-4.8,7.1-7.9,5.3c0.1,1.5,2.1,2.6,4.7,2.8c3.5,0.4,6.9-0.1,10.4,0c1.9,0,3.8,0.1,5.6,0.7c1.6,0.5,4,0,3.5,3
			c-0.1,0.3,1.2,0.1,1.3,1c-0.8,0.6-1.6,1.1-2.7,0.7c-5.7-2.4-11.6-0.9-17.4-0.8c-3.5,0.1-7-0.3-10.4,0.8c-1.3,0.4-2.1,2.1-4.2,0.8
			c-1.1-0.7-2.5-0.3-2.4-2.2c0-0.4-0.7-1.2-1.3-1c-2.2,1.1-2.2-0.6-2.7-1.9c-0.9-2-0.1-3.5,1.3-4.7
			C173.8,376.7,175.7,375.6,177.4,374.3C177.5,374.3,177.4,374.3,177.4,374.3z"/>
		<path d="M182.2,221.2c5.8-1.3,4.3,2.9,4.4,5.8c-1.1,0.5-1.8-0.7-2.7-1.1c-0.5-0.2-1-0.9-1.5-0.8c-2.4,0.1-2.4,3.2-4.6,3.7
			c-2.9,0.7-2,2.8-1.4,4.7c0.1,0.4,0.4,0.8,0.7,1.2c-3.1,1.6-4.7-0.6-6.4-2.4c-0.5-0.6-0.2-0.7,0.2-1.3c0.8-1.3,1.4-2.9-0.8-3.7
			c-1.4-0.5-1.8-2-1.2-2.9c0.9-1.3,2.1-3.6,3.7-2.7c3.3,1.7,4.4-1.2,5.6-2.5c1.7-2,4.1-2.8,5.8-4.6c0.3-0.3,1.4-0.9,1.6,0.2
			c0.2,0.7,0.2,2-0.9,1.8c-1.8-0.4-1.8-0.2-1.2,1.4C183.7,218.7,182.8,219.9,182.2,221.2z"/>
		<path d="M178.3,233.8c1.1-1.9,1.5-5.2,4.9-2.2c0.8,0.7,1.9,0,2.8-0.2c2.1-0.5,4.7-1.5,5.9,0.6c2.1,3.6,1.2,6.8-1.5,8.6
			c-2.5,1.7-4.8,3.5-6.6,6.1c-0.8,1.2-3.2,1.2-4,3c0,0-0.9-0.3-1.3-0.6c-0.5-0.5-0.4-1.1-0.1-1.6c0.5-0.6,1-1.2,1.5-1.9
			c0.3-0.4,0.6-0.9,0.2-1.4c-0.3-0.4-0.8-0.7-1.3-0.2c-0.5,0.6-1.5,0.3-1.4,0.1c0.6-1.1-1-2.2-0.1-3c1.4-1.2,2-3,3.9-3.8
			c1.4-0.6,1.3-2.6,2-3.9c0.5-1-1.9-2.4-2.9-1.6C179.8,232.5,178.7,232.9,178.3,233.8z"/>
		<path d="M559.6,730.1c-3.2-0.3-5.3-3.6-4.8-5.2c1.3-4.4-2.8-7.6-1.7-11.8c0.5-1.7-1.4-3.7-2.1-5.7c-0.8-2.4-0.5-4.7-0.4-7
			c0.1-2.1,0.9-3.7,3.6-2.6c0,0-0.1-0.1-0.1-0.1c1,1.5,1.6,2.7,1.1,5c-0.7,2.7,1.2,5.7,2.5,8.3c0.4,0.8,1.6-0.4,2.5,0
			c0,0-0.1-0.1-0.1-0.1c-0.4,0.9-0.8,1.7-1.2,2.5c0,0,0-0.1,0-0.1c-0.3,1.8,0.7,3.1,1.4,4.6c-0.4,0.8-0.5,1.6,0.2,2.3
			c1.7,4.4-1.8,1.5-3.4,2.1C560.7,724.4,560.4,727.2,559.6,730.1C559.6,730.2,559.6,730.1,559.6,730.1z"/>
		<path d="M186.3,416.7c-0.9,1.7-2.6,1.6-4.1,1.9c-3.9,0.9-7.7,1.9-11.4,4c-3.5,2-7.5,3.4-11.2,5.2c-1.5,0.7-2.9-0.5-3.2-1.4
			c-0.5-1.8,0.9-3.1,2.3-4.1c3.8-2.5,8.4-2.9,12.3-4.8c3.1-1.6,6.1-2.4,9.4-2.5c1,0,2.1-0.7,2.9,0.7c0.6,1,1.1-0.1,1.6-0.4
			C186.6,414.3,186.8,415.2,186.3,416.7C186.4,416.7,186.3,416.7,186.3,416.7z"/>
		<path d="M212.7,274.6c0.5,0.8,0.9,1.5,1.4,2.3c-0.4,1.3-1.8-0.6-2.1,0.7c-0.2,0.8,1,0.5,1.1,1.2c-3.3,1.2-5.6,3.8-8.6,5.5
			c-1,0.6-1.5,2.3-3.3,1.5c-0.2-0.1-1.5,1.4-2.2,2.2c-3,3.7-7.3,5.8-11.1,8.5c-0.6,0.4-1.4,0-1.1-0.7c1-2.2,0.9-4.7,3.2-6.4
			c5.8-4.3,11.5-8.8,17.7-12.6C209.4,275.7,211.2,275.3,212.7,274.6L212.7,274.6z"/>
		<path d="M368.6,435.3c-0.3,1.8-0.8,2.9-0.4,4.5c0.4,1.6-0.7,3.5-2.7,4.1c-2.7,0.8-3.2,2.2-2.9,5.1c0.3,3,0.4,6.7-3.4,8.9
			c-0.4,0-0.8-0.9-1.5-1.4c-2.1-1.3-3.7-3-2.3-5.9c1.2-2.4,1.5-5.8,3.3-7.1c2-1.5,2.8-4.2,5.6-4.9
			C365.8,438.2,367,436.6,368.6,435.3z"/>
		<path d="M140.6,178.3c-2.2-1.6-1.9-2.8-0.3-5c2-2.7,5.8-2.7,7.4-5.2c2.4-3.9,6.7-4.2,9.8-6.6c0.5-0.4,1.1-0.1,1.7,0.2
			c0.1,0,0.2,0.1,0.4,0.2c1.5,1.5,0.9,2.7-0.4,4c-1.5,1.5-3.7,1.8-5.3,3.2c-3.6,3.2-8.1,5.3-11,9.4
			C142,179.9,141.3,178.8,140.6,178.3C140.6,178.2,140.6,178.3,140.6,178.3z"/>
		<path d="M177.7,606.9c0-2.6-3.3-1-3.9-3c-0.7-2-3.7-3.7,0.1-5.6c0.2-0.1,0.4-0.7,0.3-0.8c-2.3-2.1,0.7-3.9,0.3-6
			c-0.4-2.3,0.9-4.8,1.5-7.3c3.4,0.8,4.4,1.8,3.5,5.4c-1.3,5-0.8,10-1.5,15C178,605.4,177.8,606.2,177.7,606.9z"/>
		<path d="M477.7,398.4c-0.6-0.7-0.6-2.1-1.7-1.9c-1.6,0.3,0,1.5-0.3,2.1c-0.8,1.4-0.4,2.9-1,4.4c0-2.4-1.1-4.6-1.1-6.9
			c0-2.4-0.8-4.7,0-7.1c0.1-0.4,0.4-0.9,0-1c-4.2-1.2-1.2-4.8-2.3-7c-0.3-0.6-0.2-1.8,1.1-2.1c2.4-0.5,2.3-3.5,4.5-4.2
			c0.7,1.9,0.4,1.7-1.1,4.1c-0.9,1.4-1.1,3.8,0.1,5c1.5,1.5,1.7,3.1,1.8,4.8C477.8,391.9,477.7,395,477.7,398.4z"/>
		<path d="M407.6,431.3c1.9,2.1,1.6,3.3-1.8,6.4c2,0.2,3,1.4,3.1,3.1c0.1,2.6-1.9,4.6-2.3,7c-0.4,3.2-4,0.3-4.5,3
			c-0.9-3.6,0.7-6.5,1.4-9.4c0.5-2.1-0.7-3.9-0.2-5.9c0-0.1,0-0.2-0.1-0.3c-0.7-0.8-1.4,0.5-1.7,0.1c-0.3-0.4-0.4-1.2,0.3-1.8
			c1.7-1.4,3-3.6,5.7-2.3C407.5,431.3,407.6,431.3,407.6,431.3z"/>
		<path d="M395.8,442.1c-0.3,0.8,0.4,2.3-1.4,1.8c-0.4-0.1-1,0-0.9,0.5c1.1,3.9-2.2,2.4-3.4,2.6c-3.4,0.5-6.6-0.9-9.8-1.8
			c-0.4-0.1-0.8-0.6-1.3-0.5c-2.9,0.7-1.6-0.9-1.1-2c0.5-1,1-1.9,1.6-2.8c1.2,0.3,1.1,1.4,1.6,2.1c0.7,0.9,1.8,1.2,2.3,0.4
			c1.3-2.3,2.6-1,3.7-0.1c1.1,0.9,2,0.7,3,0.3c1.1-0.5,0.3-1.6,0.5-2.5c0.3-1.5-1.3-1.1-2-1.6c1.9-0.9,4.1,0.3,5.7-1.4
			c0.3-0.3,1-0.3,1.3,0.2c0.5,0.9-0.3,1.2-0.8,1.6c-0.3,0.2-1.6,0.5-0.6,1C395.3,440.3,393.2,443,395.8,442.1L395.8,442.1z"/>
		<path d="M103.6,407.7c1,1.7,0.1,3.6,1,5.2c1.4-0.4,0.9-1.8,1.9-2.8c1.3,3.2,0.4,6.2-0.2,8.9c-0.5,2.2-0.2,4.5-1.1,6.7
			c-0.3,0.8,0.1,1.9-0.8,2.4c-1.2,0.6-1.5-0.9-2.7-1.3c0.2,3.3-0.8,6.4-0.4,9.7c0.1,1-0.4,2.6,0.9,2.9c1.6,0.4,0.5-1.9,1.7-2.3
			c0.7,0.6,0.3,1.4,0.4,2.1c0.1,1.1,0.6,3.1-0.7,3.1c-1.5,0-3.3-1.3-3.3-3.3c0.2-7,0.2-14,1.2-20.8
			C102,414.8,103.4,411.3,103.6,407.7z M104.4,420.6c0-0.8-0.2-1.6-1-1.5c-0.8,0.1-1.8,0.5-1.7,1.7c0.1,0.8-0.1,2.2,0.9,2.2
			C104,423,104,421.5,104.4,420.6z"/>
		<path d="M426.7,435.5c6,0.1,10.4,3.7,15.3,6.4c0.7,0.4,1.2,1.3,1.9,1.4c2.6,0.4,2.4,1.8,1.5,3.5c0,0,0.1-0.1,0.1-0.1
			c-2.1,0.9-3.9,1.1-5.4-1.1c-0.7-1.1-1.8-1.8-3.3-1.2c-1.5,0.5-2.7-0.8-3.7-1.5c-2.1-1.6-4.1-3.4-6.1-5.2c-0.7-0.6-0.3-1.5-0.1-2.2
			C426.8,435.4,426.7,435.5,426.7,435.5z"/>
		<path d="M284.2,569.8c-7.2-1.4-14.1-4.9-22.4-4.2c2.4-2.2,1.5-2.9-1-3.2c5-0.9,9.5-1.2,14.1,0.5c1.3,0.5,2.5,1,4,1.2
			C281.4,564.2,283.8,567,284.2,569.8z"/>
		<path d="M355,746.9c1-0.5,3.6,0.6,1.6-1.7c0-0.1,0-0.2,0-0.3c0.3-0.3,0.5-0.7,0.8-0.8c3.1-1.5,3.1-7.2,8.3-6c1.6,0.4,3.4,0,5.1,0
			c0.6,0,1.3-0.1,1.8,0.1c1.6,0.8,3.3,2.2,3.1,3.6c-0.3,1.6-2.2,0.6-3.6,0.3c-4.1-0.7-7.7-0.1-10.3,3.9
			C360.2,748.5,357.8,748.7,355,746.9z"/>
		<path d="M421.5,168.4c-1.2-2.6-1.2-2.6,0.2-2.9c0,0-0.1-0.1-0.1-0.1c0.5,2.9,2.8,2.9,4.8,2.9c1.8,0,3,0.6,3.7,1.9
			c1.1,2,2.8,2.6,4.7,2.5c3-0.2,4.5,2.6,7.1,3.3c0.8,0.2,0,1.6-0.1,2.5c0,0,0.1-0.1,0.1-0.1c-2.3,1.3-4.5,1.5-6.4-0.7
			c-1-1.2-2.7-1.1-4.1-1.6c-0.2-0.9,1.7-0.6,1-1.3c-1.1-1.1-2-2.7-3.8-2.5c-1.9,0.2-3.7,0.2-5.6-0.2c-2.4-0.5-2.9-1.4-1.4-3.4
			C421.5,168.7,421.5,168.6,421.5,168.4z"/>
		<path d="M457,181.2c1-1.7,1.9-2.2,3.5-0.4c0.9,1.1,1.5,3,3.9,2.5c0.8-0.1-0.7,1.1-0.1,2.1c1.3-0.7,2.2-0.4,3.2,0.9
			c0.9,1.2,3.4,1,3.7,2.7c0.5,4,3.3,6.4,5.8,9c0.4,0.4,0.7,0.9,1.2,1.6c-2.2,0.4-3.7-0.5-4.7-2c-3.7-5.5-8.8-9.6-13.9-13.7
			C458.6,183.2,457.9,182.1,457,181.2C457,181.1,457,181.2,457,181.2z"/>
		<path d="M117.4,380.6c-1.1-1.2-2.9-0.9-2-2.7c0.2-0.4,0.3-1.1-0.3-1.2c-0.3,0-0.7,0.8-1.4,1.7c0.1-3.7-1.5-7.1,2.4-9
			c-1-4.4,2.7-4.2,5-5.3c0.7-0.3,1.2,0.1,1.6,0.5c0.8,0.9-0.6,0.5-0.7,1C121.3,370.8,116.3,374.4,117.4,380.6z"/>
		<path d="M412.2,431.5c0.3-0.1,0.7-0.5,0.7-0.4c2.5,1.8,6.3,1.3,8.2,4.5c1.6,2.8,5.1,4,6.9,7.1c-1.5,0.8-2.7,1.1-3.9-0.6
			c-1.1-1.6-2.6-2.4-4.7-3c-3-0.9-5.7-2.9-8.2-4.9C409.7,433.1,411.4,432.2,412.2,431.5C412.3,431.4,412.2,431.5,412.2,431.5z"/>
		<path d="M185.9,148.7c-4.6,0.8-8.7,1.9-11.9,5.1c-0.8,0.8-1.5,0-2-0.5c-0.7-0.6-1.7-1.3-1.4-2.4c0.7-2.9,8.8-6.4,11.6-5.1
			C183.6,146.4,183.4,149,185.9,148.7z"/>
		<path d="M140.6,178.3C140.6,178.3,140.6,178.2,140.6,178.3c0.9,1.9,0.8,3.4-1.3,4.9c-2.1,1.5-3.7,3.7-5.6,5.5
			c-1.1,1.1-2.1,2.5-4,1.4c-0.1-0.2-0.1-0.4-0.2-0.6c0.7-0.8,2.4-1,1-2.7c-0.5-0.7,0.3-1.2,0.7-1.7c1.2-1.4,2.4-2.8,3.6-4.3
			c0.3-0.4,0.5-1.1,1-0.7c2.1,1.4,1.7,0.3,1.9-1.4C137.9,176.1,139.7,178.9,140.6,178.3z"/>
		<path d="M159.6,162c-0.1-0.1-0.2-0.1-0.4-0.2c-0.3-2.7-0.4-5.3,3.4-5.5c0.7-0.1,1.2-0.4,1.7-1c1.7-2.1,5.7-1.3,6.7,1.2
			c0.3,0.7,0.6,1.5-0.5,1.5c-3.3-0.3-5.1,2.4-7.5,3.7C161.7,162.2,160.8,162.5,159.6,162z"/>
		<path d="M546.5,723.1c0.5-1-1.3-3.1,1.7-3.6c2-0.3,2.4-0.1,3.6,2c1.5,2.7-0.1,4.8,0.4,7.1c0.1,0.4-0.5,0.9-0.7,0.7
			c-1.3-1.3-3.1,1.4-4.2-0.7C546.4,726.9,546.3,725.2,546.5,723.1z"/>
		<path d="M375.5,620.1C375.5,620.1,375.5,620.1,375.5,620.1c0,0.3,0.2,0.6,0.1,0.9c-0.5,1,1.1,1,0.9,1.9c-1.5-0.6-1.9,1.9-3.4,1.2
			c-1.4-0.6-1.6-0.1-1.7,1.3c-0.1,1.5-0.5,3.1-2.4,3.3c-1.3,0.1-3.1,0.2-3.6-0.8c-0.9-1.6,1.3-2.5,1.8-4c0,0-0.1,0.1-0.1,0.1
			c1.3-1.1,3.5-0.6,4.5-2.3C372.4,620,373.8,619.7,375.5,620.1z"/>
		<path d="M415.3,373.9c1-1.1,2.1-2,3.4-1.7c1.8,0.4,3.9,2.3,4.2,3.2c1,0,1.5-2,1.9-1.3c1.1,1.6,3.1,0.9,3.9,2.1
			c0.4,0.6,0,2.1-0.6,2.7c-0.6,0.7-2.1,1.6-2.9,0.5C422.9,376,418.2,376.9,415.3,373.9z"/>
		<path d="M177.5,374.3c-0.5-1.6-1.4-0.2-2.2-0.3c-0.4-0.1-1,0.5-1.3-0.1c-0.2-0.5-0.1-1.5,0.4-1.6c2.2-0.3,2.9-3.5,5.7-2.8
			c1,0.3,0.7-2.3,2-1.6c1.6,1,3.8,0,5.4,1.9c-2.1,0.5-3.2,2.5-5.5,2.2c-0.4-0.1-1.3,0.7-1.5,1.2C179.8,375,178.6,374.6,177.5,374.3
			C177.4,374.3,177.5,374.3,177.5,374.3z"/>
		<path d="M389.2,430.9c0,0,0,0.2,0,0.2c-1.1-2.7-0.2-3.6,2.6-3.2c1.6,0.2,3.2,0,4.7,0.1c1.4,0.1,2.2,1,2.3,2.3c0.1,1.4-1.4,1-2,1.5
			C393.8,434.1,391.7,431.6,389.2,430.9z"/>
		<path d="M544.1,702.7c-1.3,0.1-1.6-1.2-2.8-1.1c-1,0-2.8,1.4-3.2-0.8c-0.4-2.1-1-4.5,0.5-6.3c0.7-0.8,1.3-3,3.2-1.8
			c1.5,0.9,1.5,2.5,0.7,3.9C541.1,699,542.9,700.7,544.1,702.7z"/>
		<path d="M544.9,565.7c-1.7-1.5-1.3-3.7-1.9-5.5c-1.1-3.7,2.1-4.6,4.1-6.3c0.4-0.3,0.8-0.2,1,0.2c0.3,0.5,0.8,1.2,0.2,1.6
			c-1.3,1-0.8,1.8,0,2.6c0.2,0.3,0.7,0.8,0.2,1c-2.1,1.1-1,1.9,0.2,2.6c1.1,0.7,0.1,1.3-0.2,1.7c-0.6,0.7-1,0.2-1.2-0.5
			c-0.5-1.5-1.7-3.6-2.8-3.2c-1.9,0.7,0.5,2.4,0.1,3.9C544.4,564.4,544.8,565.1,544.9,565.7z"/>
		<path d="M441.8,433.7c-2.5-1.9-4.5-3.4-6.5-4.9c-0.1-0.1-0.3-0.5-0.3-0.5c-3.1,1.9-3.9-1.7-5.9-2.5c-1.1-0.4-2.2-0.1-3.2-0.4
			c-0.3-1,2.5-1.6,0-3c1.9-0.1,3.1-0.1,3.8,1.7c0.5,1.2,1.5,2.1,3.1,1.5c1.8-0.6,2.7,1.2,3.8,2C438.5,429,440.7,430.4,441.8,433.7z"
			/>
		<path d="M516.4,434.3c0.5,1.3-0.6,1.7-1.2,2.4c-1.1-0.3-1.8-1.9-3.3-1c-1.4,0.6-1.8-1.1-1.6-1.3c2-1.1,0.4-2,0.2-3.1
			c-0.6-2.1,0.8-3.5,2.6-4c2.1-0.5,1.9,1.2,1.5,2.4C514,431.9,514.1,433.5,516.4,434.3z"/>
		<path d="M428.3,164c-0.5-0.7-1.2-1.7-0.3-2.3c0.9-0.6,1.7,0.3,2.1,1.1c0.9,1.7,2.7,1.4,4.1,2c1.2,0.5,1,1,0.6,1.7
			c-0.5,1-1.2,1.6-1.5,2.9c-0.3,1.5-2.1,0.5-2.8-0.4c-1.1-1.4-2.2-2.8-2.3-4.7C428.2,164.3,428.3,164,428.3,164z"/>
		<path d="M266.2,636c0.7-0.6,1.2-1.5,2.3-0.9c1.8,1.1,4,0.1,5.8,0.9c0.6,0.3,1.6,0.5,1.7,0.9c0.4,1.1-1.5,0.4-1.4,1.7
			c0.5,0.9,1.8-0.2,2.4,0.8c-2.5,0.9-2.5,0.8-5.7-0.9c-0.3-0.2-0.9-0.2-1.1,0c-2.7,1.9-3.4,0-4-2C266.2,636.3,266.2,636.1,266.2,636
			z"/>
		<path d="M512,435.8c1.5-0.9,2.2,0.6,3.3,1c-0.3,1.9,2.1,2.8,1.8,4.7c-0.9,0.2-2.1-0.6-2.3,1.3c-0.2,1.5-2,0.9-2.9,2.2
			c0-2.1,2.1-4.1-0.7-5.7C510.7,438.9,510.7,436.7,512,435.8z"/>
		<path d="M553.6,670.8c0.2-0.3,0.3-0.6,0.5-0.8c1.4-1.1,2.9-1.5,4.2-0.1c1.3,1.3,2,3.1,0.6,4.7c-0.9,1.1,0.3,1.7,0.3,2.7
			C555.8,676.3,555.2,673.2,553.6,670.8z"/>
		<path d="M236.3,450.4c1.3-0.3,3.2,0.9,3.8-1.6c0.1-0.5,2.5-0.5,3.3,0.6c0.8,1,1.5,2.1,0.1,3.4c-2.8,2.6-3.2,2.6-5.6-0.5
			C237.3,451.7,236.5,451.5,236.3,450.4z"/>
		<path d="M229.4,380.4c-1.9,1.2-3.6,1.6-5.5,0.6c-0.3-0.1-0.6-0.1-0.9-0.2c-1-0.3-2.7,1.8-2.7-0.2c-0.1-1.3,1.6-3.2,3.4-3.5
			c1.4-0.2,3.6-1.2,3.9,1.7C227.6,379.4,228.6,379.8,229.4,380.4z"/>
		<path d="M191,606.6c0.8-0.1,4.8,3.5,4.7,4.2c-0.2,1.7-1.9,2.6-3.1,2.7c-1.5,0.1-3-1.7-2.8-2.9C190.2,609.4,190.1,607.7,191,606.6z
			"/>
		<path d="M143.6,331.8c0.1,1-4,6.9-4.9,7.3c-1.2,0.5-2,0-1.7-1.1c0.6-1.8-0.5-5.1,3.5-4.2c1.2,0.2,1.1-0.7,1-1.6
			c-0.1-0.9,0.4-1.3,1.2-1.3C143.3,330.8,143.5,331.3,143.6,331.8z"/>
		<path d="M61.6,634.2c0.8-3.5-0.3-6.9-1.3-10.3c3.1,0.4,3.1,0.4,3.5,3c0.3,2.4-0.4,5,1,7.3c0,0-0.6,0.4-0.9,0.6c0,0,0.1,0,0.1,0
			C63.7,632.2,62.3,634.6,61.6,634.2C61.6,634.1,61.6,634.2,61.6,634.2z"/>
		<path d="M540.6,540.5c0.8-0.9,0.9-1.8-0.1-2.6c2.1-0.9,3.3-0.4,3.9,1.9c0.4,1.6,0.4,3.3,0.5,5c-0.9-0.2-1.7-0.3-2.6-0.5
			C539.5,544,540.3,542.1,540.6,540.5z"/>
		<path d="M98.2,253.7c-0.4-0.5-0.7-1-1.1-1.3c-2-1.3-2.2-2.9,0.1-3.6c1.5-0.4,2.1-3.9,4.2-1.5c1.6,1.8-1.2,2.7-1.4,4.3
			C99.9,252.4,99.3,253.4,98.2,253.7L98.2,253.7z"/>
		<path d="M549.4,659c0-1.7,1.4-2.5,2.2-3.7c1-1.1,1.6-0.3,2.4,0.4c1.2,1.1-2.8,2.6,0.4,3.5c0.2,0.1-0.5,2.9-2,3.7
			C551.4,661.7,550.4,660.3,549.4,659z"/>
		<path d="M149.1,376.9c-0.5-0.2-1.5-0.7-1.1-1c1.1-0.7,2.1-2.1,3.6-1.7c1.1,0.3,2.1,0.5,3.2,0.5c0.7,0,1.5,0.1,1.3,1.1
			c-0.2,0.6-0.3,1.5-1.3,1.3c-1.2-0.3-1.9,0.1-2.7,1.1c-1.5,1.7-1.9-0.6-2.9-1.1C149.2,377,149.1,376.9,149.1,376.9z"/>
		<path d="M471.5,373.8c-0.2-2.3-2.1-4.8,1-6.9c1.5-1,2.1-0.4,2.3,0.8c0.2,1.1,0,2.4-0.1,3.5c0,0.3-0.5,0.7-0.8,0.8
			C472,372.2,471.7,372.4,471.5,373.8z"/>
		<path d="M428.3,164c0,0,0,0.3,0,0.3c-1.9,2.1-4,3-6.6,1.2c0,0,0.1,0.1,0.1,0.1c-0.3-1.4-1.1-2.5-2.3-3.5c1.8,0.2,3.5,0.2,4.7,1.6
			c0.5,0.6,0.9,0.4,1.5,0C426.6,162.9,427.5,163.2,428.3,164z"/>
		<path d="M326.7,124.8c1.2-0.4,1.9-1.5,2.7-2.3c1.6-1.7,3.3-0.9,4.8-0.2c0.6,0.3,1.8,1,1.3,2.1c-0.5,1.3-1.8,1.7-3,1.9
			c-0.5-0.7,0-0.9,0.3-1.1c0.5-0.5,1.2-1.1,0.7-1.7c-0.5-0.6-1.4-0.2-1.9,0.3c-1,1-2.3,1.2-3.4,1.7
			C327.6,125.6,327.1,125.4,326.7,124.8C326.8,124.7,326.7,124.8,326.7,124.8z"/>
		<path d="M211,224.9c-1-0.1-0.9-0.5-0.6-1.2c0.5-1.3,3.1-2,1.1-4.1c-0.3-0.3,1-0.8,1.6-1c1.1-0.3,2.2,0.2,3,0.9
			c0.6,0.6,0.1,1-0.3,1.5C214.6,222.8,212.3,223.3,211,224.9z"/>
		<path d="M474.6,423.1c-0.8-2.8-0.2-5.5,0-8.3c0.1-2.7,0-5.3,0-8.4c1.3,1.4,1,2.8,1.1,4.1C475.8,414.6,476.3,418.9,474.6,423.1
			C474.5,423,474.6,423.1,474.6,423.1z"/>
		<path d="M478.3,406.5c0.1,5.5-0.5,10.9,0.1,16.4C477.3,417.5,476.6,412,478.3,406.5z"/>
		<path d="M54.3,677.5c2.5-1.1,2.5-1.1,2.1-3.8c2.9,1,2.9,1,0.9,6.6C56.4,679.4,55.5,678.6,54.3,677.5z"/>
		<path d="M231.4,453.9c-1.8,0-3,0-4.2,0c-2.7-0.1-2.7-0.1-1.4-2.6c-0.9-0.1-1.8-0.1-2.7-0.2C225.1,449.4,226.3,449.8,231.4,453.9z"
			/>
		<path d="M338.3,561.7c1.9-0.7,3.7-0.3,6.2-0.5c-1.1,1.1-3.1,1.5-1.4,3.1c0.3,0.3-0.6,0.7-1,0.7c-1.9,0-3.9,0-5.9,0
			C335.8,563.2,342.5,566.3,338.3,561.7z"/>
		<path d="M558,599.7c-2.9-1.8-2.9-4.4-2.8-7.4C557.9,594.4,560,596.4,558,599.7z"/>
		<path d="M448.6,303c0.3,3.1,3,4.8,4.3,7.4c-2.9,0.2-3.7-3.7-6.9-2.8c0.7-1.4,1.4-2.7,2.1-3.9c0,0,0,0,0,0
			C448.3,303.4,448.5,303.2,448.6,303L448.6,303z"/>
		<path d="M181.7,725.7c-1.5,1.1,0.2,4.9-3,4c-1.7-0.5-2.9-2.1-1.3-4.4C178.5,726.8,180,726.6,181.7,725.7z"/>
		<path d="M99.1,454.4c-0.7-2.8-0.2-5.5,0.2-8.3c0.1-0.7,0.1-1.9,1.3-1.4c0.7,0.3,0.6,1.1,0,1.7c-1.4,1.3,0,2.2,0.8,2.9
			c1,0.9,1.6,1.7,1.1,3.2c-0.9-0.5-0.8-2.5-2-2C99,451.2,99.5,453,99.1,454.4C99.1,454.3,99.1,454.4,99.1,454.4z"/>
		<path d="M412.2,431.5C412.2,431.5,412.3,431.4,412.2,431.5c-1.5,0.4-3.1,0.4-4.6-0.2c0,0-0.1,0-0.1,0c-1-1.7-0.3-3.4,1.3-3.3
			C410.3,428.1,412.5,428.9,412.2,431.5z"/>
		<path d="M186.3,416.7C186.3,416.7,186.4,416.7,186.3,416.7c4.8-1,9.5-0.5,14.2-0.3c0,0.3,0,0.5,0,0.8c-2.6,0-5.2-0.1-7.7,0
			c-1.5,0.1-2.9,0.4-4.4,0.6C187.4,418.1,186.4,418.3,186.3,416.7z"/>
		<path d="M185.5,249.9c1.2-1.2,1.6-3.4,3.8-3.6c0.4,0,1-0.2,0.9-0.9c-0.1-1,0.5-1.4,1.4-1.5c0.2,0,0.7,0.3,0.7,0.3
			c-0.3,0.7-0.4,1.5-0.9,2.1C190,248.3,188.1,249.7,185.5,249.9z"/>
		<path d="M98.2,253.7c0.1,1.6-0.5,3.1-0.8,4.6c-0.3,1.2-2.8,0.5-3.3,1.2c1-0.2-0.8-3.4,2-3c0-0.3,0.1-0.6,0-0.8
			C94.8,252.8,97,253.8,98.2,253.7C98.2,253.7,98.2,253.7,98.2,253.7z"/>
		<path d="M403.3,167.6c2.4,0.2,3.3,1.6,4.2,3.4c-1.3,1-3.3,1.6-4.2,0.8C402,170.9,404.1,169.1,403.3,167.6z"/>
		<path d="M543.4,549.8c-0.4-0.5-0.8-1.1-1.2-1.6c-0.2-2,1.3-2.4,2.6-3c-1.6,2.6-1.5,2.9,1.5,3.2c0.5,0.1,1.2-0.1,1.1,0.6
			c-0.1,0.8-0.9,1.4-0.8,2.4c0,0.3-0.7,0.2-1-0.1C544.9,550.8,544.2,550.3,543.4,549.8z"/>
		<path d="M526,522.3c-0.2-1.8,0.2-2.5,1.6-2.7c1.7-0.2,1.6,0.9,1.8,2c0.5,2.6-2,1.5-2.9,2.4C526.3,523.4,526.1,522.6,526,522.3z"/>
		<path d="M426.7,435.5c0,0,0.1-0.2,0.1-0.2c-3.3,1.4-3.7-2.6-6.3-3C424.4,431,426,431.9,426.7,435.5z"/>
		<path d="M129.5,189.5c0.1,0.2,0.1,0.4,0.2,0.6c0.3,0.9,1.5,1.9,0.6,2.6c-1.1,0.9-2.6,0.3-4.3,0.4c0.9-1.6,1.5-3.1,2.5-4.3
			C129.6,187.7,129.5,188.9,129.5,189.5z"/>
		<path d="M569.3,739c3.2,0.3,2.2,3.6,3.9,4.8c0.3,0.2-0.2,0.7-0.6,0.8c-0.6,0.3-1.1,0.1-1.6-0.3C569.5,742.8,569.3,740.9,569.3,739
			z"/>
		<path d="M559,713.4c0,0,0,0.1,0,0.1c0.3-0.5,0.9-0.9,1.2-0.5c1.8,2.7,4.6,4.8,6.3,8.6C562.5,719.5,561.5,715.7,559,713.4z"/>
		<path d="M365.6,726.6c1.2,0.6,2.3,1.2,2.2,2.4c-0.1,1.3-1.3,2-2.5,1.9c-0.9,0-2-0.7-1.7-1.6C363.9,728.3,364.9,727.5,365.6,726.6z
			"/>
		<path d="M368.3,451c0.6,0.8,1.3,1.6,1.9,2.4c0.1,0.4,0.5,1.3,0.1,1.2c-1.3-0.2-2.8,0.4-3.7-1c-0.5-0.7-0.7-1.5-0.1-2.2
			C366.9,451,367.5,450.7,368.3,451z"/>
		<path d="M370.7,375.6c-0.5,0.7-0.9,1.3-1.4,2c-1.2,0.7-2.5,0.6-3.6-0.2c-0.4-0.3,0-0.8,0.3-1.2c1-1.2,1.9-2,3.5-0.9
			C369.8,375.5,370.3,375.5,370.7,375.6z"/>
		<path d="M266.2,636c0,0.2,0,0.3,0,0.5c-1.6,1.4-3.5,0.4-5.2,0.4c-0.4,0-0.9-0.5-0.8-1.1c0-0.6,0.6-0.9,1-0.9
			C263,634.8,264.8,634.4,266.2,636z"/>
		<path d="M210.6,418.4c-0.8,0.7-0.3,2.8-2.3,1.8c-0.7-0.4-1.5-0.6-2.2-0.9c-0.8-0.3-2.2-0.4-1.8-1.4c0.5-1.2,1.5-0.1,2.2,0.3
			c1,0.6,1.7-0.2,2.5-0.4C209.6,417.6,210.3,417.5,210.6,418.4z"/>
		<path d="M560.3,711c0.3-1.4-0.3-2.5-1.7-3.5c3.3,0.2,4.7,2,5.1,5C562.4,712.3,561.7,710.6,560.3,711
			C560.2,710.9,560.3,711,560.3,711z"/>
		<path d="M123.5,201.2C123.5,201.2,123.4,201.2,123.5,201.2c-0.7-1.2-2-2.3-0.1-3.5c0.7-0.4,1.3-1.6,2.2-0.9
			c1.1,0.9-0.6,1.1-0.6,1.8c0,0.3-0.3,0.6-0.2,1.1C125.1,201,125,201,123.5,201.2z"/>
		<path d="M398.6,459c4.6-0.9,9.4-0.1,14-0.9C408,459.3,403.3,458.7,398.6,459z"/>
		<path d="M217.4,420.1c1.1,0.1,1.4,1,1.6,1.8c0.2,1.3-0.6,1.8-1.7,1.9c-0.8,0-1.9-0.1-1.8-1.3C215.5,421.3,216.3,420.6,217.4,420.1
			z"/>
		<path d="M111.6,382.3c1.3,2.6,0.4,4.3-2,6.3C109.5,386,109.9,384.2,111.6,382.3z"/>
		<path d="M395.9,442.1c-0.1-1.2,0.4-2.3,1.3-3.1c0.9-0.8,2-0.7,2.6,0.1c0.7,0.9-0.3,1.1-1,1.6C397.8,441.3,397.6,443.3,395.9,442.1
			C395.8,442.1,395.9,442.1,395.9,442.1z"/>
		<path d="M474.1,363.7c-0.2,0.4-0.1,1.2-0.8,1c-1.5-0.5-2.6-1.6-3.5-2.9c-0.3-0.4,0.3-1,0.9-0.7
			C471.9,361.7,473.8,361.7,474.1,363.7z"/>
		<path d="M535.7,752.9c-1.7,0.2-3.3,0-5.4-0.6c1.7-1.2,3-2.2,5.1-3.6c-0.9,1.4-1.4,2.2-1.8,2.8
			C533.9,752.7,536.8,749.8,535.7,752.9C535.6,753,535.7,752.9,535.7,752.9z"/>
		<path d="M189.6,603.1c0.6,2.2-1.7,1.5-2.7,2.1c-0.7,0.4-0.8-0.6-0.6-0.9c0.6-1.1,1-2.4,2.6-2.5C189.5,601.7,189.9,602,189.6,603.1
			z"/>
		<path d="M68.2,649.7C68.2,649.7,68.2,649.6,68.2,649.7c0.1-1-0.2-2,0.6-2.8c1,0.4,0.5,1.5,1.4,2.1c0.8,0.5,0.8,2.2,0,2.5
			C69.2,651.9,68.1,651.1,68.2,649.7z"/>
		<path d="M167.9,371.9c0.5,1.4,1,2.5-0.3,3.4c-0.6,0.4-1.1,1.1-2.1,0.7c-0.7-0.3-0.2-0.9-0.3-1.2c-0.2-1,1-1.7,1.3-1.5
			C168.4,374.3,167.3,372.6,167.9,371.9z"/>
		<path d="M560.6,720.3c-0.7-0.7-0.6-1.5-0.2-2.3c2.4,1.7,2.8,2.2,3.8,5.7C562.8,722.4,561.7,721.3,560.6,720.3z"/>
		<path d="M441.9,178.5C441.9,178.5,441.8,178.6,441.9,178.5c2.6-0.8,2.1,2.3,3.9,2.8C443.7,182.1,442.3,181,441.9,178.5z"/>
		<path d="M421.5,168.4c0,0.2,0,0.3,0,0.4c-0.3,0.2-0.6,0.5-1,0.6c-0.8,0.2-1.6,0.9-2.4,0.2c-0.6-0.6,0.1-1,0.3-1.5
			c0.7-1.4,1.6-0.5,2.5-0.4C421.2,167.8,421.3,168.2,421.5,168.4z"/>
		<path d="M212.8,274.7c0.1-1.2,1.3-1.6,1.9-2.7c0.9,0.9,1,2.1,2,2.6C215.2,275.7,214,275.3,212.8,274.7
			C212.7,274.6,212.8,274.7,212.8,274.7z"/>
		<path d="M520.2,454c0.1,0.4,0.3,0.7,0.3,1.1c-0.1,0.9,0.6,2.5-0.5,2.5c-1.1,0.1-2.2-1.5-2.3-2.6c-0.2-2.2,1.7,0.3,2.1-0.8
			C520,454.1,520.1,454.1,520.2,454z"/>
		<path d="M55.1,640.3c-0.5,1-1.2,1.8-2.2,2.5c-0.9-1.1-1.1-2.6-0.2-3.4C53.5,638.6,54.3,640,55.1,640.3
			C55.2,640.4,55.1,640.3,55.1,640.3z"/>
		<path d="M457,181.1c-1.7-0.5-2.3-2.1-4.2-3.2C455.8,177.8,457.8,178,457,181.1C457,181.2,457,181.1,457,181.1z"/>
		<path d="M445.5,446.7C445.5,446.7,445.4,446.8,445.5,446.7c0.6-0.4,1.4-0.9,2.2-1.4c0.2,2.5,0.2,2.5-3.2,3.4
			C444.5,447.9,445.1,447.4,445.5,446.7z"/>
		<path d="M470.1,352.2c-0.8,1.3-1.2,3-3.1,3.5C465.7,352.3,470.2,354.2,470.1,352.2z"/>
		<path d="M63.9,634.7c0.1,0.1,0.1,0.1,0.2,0.2c0.6,1,3,0.8,1.8,2.9c-0.3,0.5-0.6,1.1-1.3,0.6C63,637.3,63.6,636,63.9,634.7
			C63.9,634.7,63.9,634.7,63.9,634.7z"/>
		<path d="M60.3,740.3c-2.1-0.2-1.5-2.7-3.2-3c0.1-0.2,0.1-0.7,0.3-0.7c0.4-0.1,0.9-0.1,1.1,0.1C59.5,737.6,60.2,738.8,60.3,740.3z"
			/>
		<path d="M566.4,689.7c-1.1-2.1-3.2-2.5-3.5-4.8C564.9,685.7,565.8,687.1,566.4,689.7z"/>
		<path d="M390.5,752.9c-1.5,0.8-2-0.8-2.9-1.3c-0.4-0.3-0.3-0.9,0-1.3c0.4-0.5,0.9-0.4,1.3,0C389.5,751.1,391.6,751.2,390.5,752.9
			C390.4,753,390.5,752.9,390.5,752.9z"/>
		<path d="M448.6,303L448.6,303L448.6,303c-0.2-0.4-0.4-0.4-0.6-0.1l0.1-0.1c-0.2,0.2-0.4,0.4-0.7,0.7l0,0c-0.4-0.2-0.8-0.4-1.2-0.6
			c0,0,0.1,0.1,0.1,0.1c-0.8-1,0.1-1.4,0.7-2c0,0,0,0.2,0,0.2l0-0.1c0.8-0.8,1.5-0.1,2,0.3C449.4,301.9,449.5,302.6,448.6,303z"/>
		<path d="M171.5,742.4c-0.2,0.7-0.2,1.8-1.3,1.5c-1-0.2-1.6-1.2-2-2c-0.4-1,0.8-0.8,1.2-1.3C169.1,742.4,170.2,742.6,171.5,742.4z"
			/>
		<path d="M295.6,567c-0.4-0.2-0.8-0.5-1.3-0.7c0.4,0,0.9,0.1,1.3,0.1c0,0-0.1-0.1-0.1-0.1C295.6,566.6,295.6,566.8,295.6,567z"/>
		<path d="M294.5,566.4c-0.2,0-0.4,0-0.7,0c0.1-0.2,0.1-0.3,0.2-0.5C294.2,566,294.3,566.2,294.5,566.4z"/>
		<path d="M295.9,564.8c0,0.1-0.1,0.1-0.1,0.2c0-0.1-0.1-0.2-0.1-0.3C295.8,564.7,295.8,564.8,295.9,564.8z"/>
		<polygon points="390.6,370.8 390.7,370.8 390.7,370.6 		"/>
		<path d="M295,568.2c0.2-0.2,0.4-0.4,0.7-0.7C295.4,567.7,295.2,567.9,295,568.2z"/>
		<path d="M293.9,566.3c-0.2,0.2-0.4,0.4-0.6,0.6C293.4,566.7,293.6,566.5,293.9,566.3z"/>
		<polygon points="295.7,566.4 295.7,566.3 295.6,566.4 		"/>
		<path d="M161.8,376.7c-0.1-0.1-0.1-0.3-0.2-0.4c0-0.1,0.1-0.1,0.2-0.2C161.8,376.3,161.8,376.5,161.8,376.7z"/>
		<polygon points="149.1,376.9 149.2,377 149,377 		"/>
		<path d="M161.9,377.9c0-0.1,0-0.3,0-0.4c0.1,0.1,0.1,0.2,0.2,0.3C162,377.7,161.9,377.8,161.9,377.9z"/>
		<path d="M171.4,742.5c-0.2-0.3-0.4-0.7-0.7-1C171,741.8,171.2,742.2,171.4,742.5z"/>
		<path d="M448.1,303.6C448.1,303.6,448.1,303.6,448.1,303.6c-0.3,0-0.5,0-0.7-0.1c0,0,0,0,0,0C447.6,303.5,447.8,303.5,448.1,303.6
			L448.1,303.6z"/>
		<path d="M170.8,741.6c0-0.3,0-0.7,0-1C170.8,740.9,170.8,741.3,170.8,741.6z"/>
		<path d="M448.7,303c-0.2,0.2-0.4,0.4-0.6,0.6c0,0-0.1,0-0.1,0c0-0.2,0-0.5,0-0.7c0,0-0.1,0.1-0.1,0.1
			C448.2,302.9,448.5,302.9,448.7,303L448.7,303z"/>
	</g>
</g>
</svg>
