<?xml version="1.0" encoding="utf-8"?>
<!-- Generator: Adobe Illustrator 18.0.0, SVG Export Plug-In . SVG Version: 6.00 Build 0)  -->
<!DOCTYPE svg PUBLIC "-//W3C//DTD SVG 1.1//EN" "http://www.w3.org/Graphics/SVG/1.1/DTD/svg11.dtd">
<svg version="1.1" id="图层_1" xmlns="http://www.w3.org/2000/svg" xmlns:xlink="http://www.w3.org/1999/xlink" x="0px" y="0px"
	 viewBox="0 0 595.3 841.9" enable-background="new 0 0 595.3 841.9" xml:space="preserve">
<g>
	<g>
		<path d="M191.2,755.3c0.2-7.1,0.1-14.2,0.6-21.2c0.7-10-1.4-19.4-4.6-28.7c-1-2.8-1.9-5.7-1.8-8.7c0-1.5,0.7-2.4,2-2.5
			c1.3-0.2,1.7,0.8,2,2c0.8,3.6,1.6,7.3,3,10.6c3.3,7.3,3.6,15,3.6,22.8c-0.1,7.6-0.3,15.2-0.6,22.7c0,1,0.1,2,0.2,3
			C194,755.3,192.6,755.3,191.2,755.3z"/>
		<path d="M173.2,755.3c0-1.4,0.7-2.4,1.3-3.5c0.4-0.8,0.8-1.8,2.2-0.9c1.4,1,2.3-1.3,4-0.9c-0.2,1-0.3,2.1-0.5,3.2c0,0,0.1,0,0.1,0
			c-1.2,0.3-1.8,1.1-2.2,2.1C176.4,755.3,174.8,755.3,173.2,755.3z"/>
		<path d="M180.4,755.3c0-0.4,0-0.8,0-1.2c0.7,0.2,1.2,0.4,1.2,1.2C181.2,755.3,180.8,755.3,180.4,755.3z"/>
		<path d="M548.8,633.5c0.3,1.5,0.3,3,1.2,4.3c0.6,0.9,0.8,2.1,0.2,2.9c-1.7,2-0.8,3.6,0.7,5.3c-2.6-0.5-5,1.7-4.3,3.9
			c0.4,1.2,0.5,2.1-0.1,3.3c-0.6,1.3-0.5,3.3,0.4,4.3c1.1,1.1,0.3,1.7-0.2,2.1c-0.9,0.8-1.4,2.5-3,2c-1.4-0.5-0.9-2-1.1-3.1
			c-1.4-7.6-2.5-15.2-3-23c-0.2-2.6-0.4-5.2-0.2-7.8c0.2-2.4-1-4.4-1.2-6.7c-0.2-1.5-1.6-0.7-2.5-0.8c-4.6-0.4-4.2-1.2-4.2-5.4
			c0-0.7,0.4-1.3,0.9-1.4c3.9-0.6,2.4-3.7,2.5-5.7c0.1-2.1,0.5-4.1,2.1-5.4c1.9-1.6,1.7-3.5,1.4-5.5c-0.6-4-0.2-8.1-0.1-12.1
			c1.3,0.1,0.9,1.2,1.7,2.5c0.3-3.1,2.4-5.2,0.5-7.8c-0.4-0.6-0.4-1.5-0.6-2.3c-1.4-8.5-3-17-2.5-25.7c0-0.6,0.3-1.3-0.2-1.7
			c-4.6-4-2.6-9.9-4.2-14.7c-0.3-1.1-0.2-2.4-0.3-3.5c-0.1-1.3,0.3-2.6,1.6-2.8c1.4-0.2,2.3,0.9,2.3,2.2c0.2,3.4,1,6.7,1.5,10
			c0.5,3.4,0.9,6.9,2.8,9.9c0.4,0.6,0.7,1.5,0.6,2.3c-0.9,7.8,1.7,15.2,2.3,22.8c0.1,1.2,0.7,2.3-0.1,3.5c-0.1,0.2-0.2,0.8-0.1,0.8
			c3.7,1.2,1.9,4.4,2.3,6.6c0.8,4.6,1.4,9.4,1.7,14c0.3,4.8,1.1,9.4,3.1,13.7c0.2,0.4,0.4,1,0.2,1.4c-0.2,0.5-0.9,0.4-1.3,0.1
			c-2.1-1.2-2.5,0.1-2.4,1.7c0.1,2.4-1.1,5,1,7.1c0.6,0.6-0.1,1-0.5,1.4c-0.7,0.8-1,1.2,0.5,1.9c1.3,0.5-0.4,2.5,0.8,3.5
			c-1.4-0.6-2.5,0.2-3.7,0.7c1.3-3.8,2.1-5.2-1.2-6.1c1.2,1.4,1.4,2.6,0.4,3.9c-0.9,1.1,0.7,1.4,0.8,2.1
			C545.3,635.5,547.3,634.1,548.8,633.5z"/>
		<path d="M215.8,610.1c4.5,0,8.7,0.9,11.4,5c1.1,1.6,2.7,2.1,4.1,1.8c5.4-1.1,10.4,1.3,15.6,1.4c6.1,0.2,12.1,0.3,18.2,1.1
			c1.6,0.2,3-1.8,4.9-1.4c0.8,0.2,1.9-0.2,2.1,0.7c0.6,3,2.8,2.2,4.7,2.3c4.9,0.2,9.5,2.1,14.2,3.1c7.9,1.8,15.8,1.5,23.7,0.7
			c2.5-0.3,5-0.3,7.5-0.1c2.9,0.2,5.7,0.3,8.2-1.4c0.8-0.5,0.9-0.2,2,1.2c1.1,1.3,2.7,0,4,0.4c0.6,0.2,1.6,0.1,2-0.3
			c4-3.5,8-1.6,12.1-0.1c1.7,0.6,0.7,2.6,2.8,3.4c-8.4,2.3-16.2,3-24.7,4.2c1.7-2,3.1-0.8,4.9-1.7c-1.9-0.3-3.2-0.7-4.5-0.7
			c-9.1,0.2-18.3,0.1-27.4,0.3c-6.7,0.1-13.3-1.1-19.9-2.9c-4.5-1.3-9.7-3.2-14.4-1.2c-3.7,1.5-6.8,0.7-10.2,0
			c-0.7-0.1-1.9,0-1.8-1.1c0-1,1.4-0.6,2.1-1.4c-2-0.3-3.8-0.9-5.5-0.8c-7.2,0.2-14.3-1.5-21.5-1.3c-0.6,0-1.2-0.1-1.8-0.3
			c-0.7-0.3-2.2,0.2-2.1-1.1c0.1-1.2,1.6-0.3,2.2-0.8c-0.8-2.2-2.5-3-4.5-3.5c-1.1-0.3-2.3-0.7-3.5-0.8
			C217.7,614.5,216,613.2,215.8,610.1z"/>
		<path d="M516.1,433.5c2.5-1.2,3.6-3.3,3.3-4.5c-1-3.6-0.2-7.3-0.4-10.9c-0.5-7-2.4-13.9-1.9-21.1c0.1-0.8,0.1-1.5,0.3-2.8
			c0.4,1.3,1.7,2.2,2.5,2.4c0.8,0.2,1.2,1,1.2,1.6c-0.3,6.3,2.1,12.3,2.6,18.5c0.1,1.6,0,2.8-1.6,4.1c-2.4,2-1.5,5.2-1.1,7.9
			c0.2,1.3,0.6,2.5,0.3,3.8c-0.8-0.3,0-1.7-0.9-1.6c-1,0.1-0.4,1-0.4,1.6c0.1,3.7,0,7.5,0,11.2c1.4,0.1,0.5-1.3,1.6-1.3
			c-0.3,2,1.4,4.1-0.9,5.9c-0.3,0.2-0.2,1.5,0.2,1.9c0.6,0.6,0.7-1.2,1.6-0.6c-0.9,7.7,6,10.9,9.1,16.5c-3.5,1.4-2.6,4.4-1.9,7.4
			c0.7,3,2,6.4,1.8,8.9c-0.5,5.8,1,10.8,2.7,15.9c0.2,0.5,0,1.3-0.3,1.7c-2.3,3.4-1.4,6.5,0.6,9.6c0.6,1,0.6,2.1,0.8,3.2
			c0.3,1.9-0.2,2.5-2,1.4c-0.6,2.7,3.2,3.6,2.2,6.4c-0.3,0.8,0.5,2.2-1,2.3c-1.3,0.1-2.4-0.7-2.7-1.9c-1.4-5.9-2.6-11.8-3.5-17.8
			c-0.6-3.8,0.4-7.9-1.3-11.2c-2.1-4-0.9-8-1.2-12c-0.4-4.5-0.9-8.9-1.1-13.4c0-1.2-0.2-3,1.9-3.5c1.4-0.4,0.6-1.3-0.2-1.5
			c-4.2-0.8-4.4-4.3-5-7.5c-0.1-0.6,0.8-2.8-1.4-1.1c-0.2,0.1-0.8-1.2-0.8-2c-0.4-5-1.7-9.9-0.2-15
			C519.3,434.6,519.1,433,516.1,433.5z"/>
		<path d="M52.8,600.2c3,2,3.7,5.5,4.4,8.6c2,9,2.2,18.3,4.2,27.3c0.4,2,1.5,3.3,3.1,4.1c3.1,1.5,4,5.7,1.5,8.2
			c-1.7,1.7-2.7,3.4-1.7,6c0.5,1.3,0.6,3.8-1.3,4c-1.5,0.1-3.5-1.3-3.6-3.4c-0.1-3.2-1.1-6.8,2.6-9.4c-1.7,0-4,0.9-2.3-1.8
			c0.1-0.2,0-0.6-0.2-0.8c-3.1-2.9-2.3-7-3.1-10.6c-0.4-1.9-0.6-4-1.9-5.6c-1.5-1.7,1-3.3-0.1-5.2c-0.6-1-1.3-3.1,0.1-4.7
			c0.5-0.6-0.5-1.4-0.9-2c-0.7-1.1-1.8-2.2-0.3-3.6c1-0.9-0.7-1.4-0.8-2.2c-0.1-1.4-3-3,0.3-4.2c0.9-0.3,0.1-1-0.3-1.4
			c-1.8-1.3-0.9-2.3,0.4-3.2C53,600.1,52.8,600.2,52.8,600.2z"/>
		<path d="M61.1,665.9c2.9-0.5,4.2,0.6,4.6,3.6c0.2,1.8,0.5,3.7,1.6,5.4c1,1.7-0.3,3.3-1,4.7c-1,1.8-1.2,3.1,0.8,4.5
			c2.2,1.6,2.2,4.1,2.1,6.5c0,0.9,0,1.8,0,2.7c0,1.5,1.4,2.4,2.2,2.5c1.3,0.2,1.4-1.2,1.5-2.4c0.1-0.8,0.3-1.5,0.6-3.1
			c0.2,4,0.4,7.3,0.5,10.5c0,1.5-0.2,3-1.8,3.8c-1.2,0.5-0.9,1.6-1,2.6c-0.1,2.1,0.2,4.2-0.5,6.2c-0.5,0.5-1.1,1-1.6,1.5
			c-1,1-2.1,1.7-3.8,2c2.2-3,1.6-6.2,1.7-9.4c0.1-3.7-1-6.6-4-8.9c-1-0.7-0.8-1.4,0.4-2.3c1.3-0.9,3.5-2.3,0.5-3.9
			c-0.2-0.1-0.4-0.5-0.4-0.7c1.3-4.5-3-8.2-1.9-12.5c1.1-4.1,0.3-7.8-1.1-11.5c-0.3-0.8,0.2-1.5,0.9-2.1
			C61.3,665.8,61.1,665.9,61.1,665.9z"/>
		<path d="M163.5,436.2c-0.5-1.6-0.3-2.5,1.4-3.9c4.3-3.4,8.9-5.8,14.3-6.7c0.5-0.1,1.1-0.5,1.4-1c2.5-3.5,6.2-1.8,9.4-2.7
			c0.5,1.7-2,0.6-1.2,1.9c2.1,3.2-1.1,2-1.9,2.2c-2.4,0.3-3.8,1.2-3.2,3.8c0.1,0.5,0.2,1.1-0.2,1.4c-3.1,2.4-6,5.5-10.2,5.6
			c-1.3,0-2.5,2.1-3.3,0.5c-0.8-1.6,2-1.9,2.2-3.7C169,434.1,167,437.8,163.5,436.2L163.5,436.2z"/>
		<path d="M52.8,600.2c0,0,0.2-0.2,0.2-0.2c-1.9,0.4-2.3-0.8-2.7-2.3c-0.9-4.1-1.3-8.4-2-12.6c-0.6-3.6-1.4-7.3-1.8-11
			c0,0-0.1,0.1-0.1,0.1c1.3-1.1,2.6-2.2,3.9-3.4c1.6,2.2,0.4,4.7,1,7c1.2,5.2,2.4,10.5,3.1,15.8C54.8,596.2,54.7,598.4,52.8,600.2z"
			/>
		<path d="M48.1,569c0-2.4,0-4.7,0-7.4c-0.4,0.7-0.7,1.3-1.2,1.8c-0.6,0.6-1,1.8-2.1,1.2c-1.2-0.7-0.2-1.2,0.2-1.9
			c0.3-0.5-0.1-0.9-0.5-1.2c-2.9-2.4-3.5-7.1-1.3-10.3c0.6-0.9,0.7-1.7,0.2-2.8c-0.6-1.2-0.7-2.8,1.2-3c1.4-0.2,3.3,0.4,2.9,2.1
			c-1.4,6.1,1.6,11.6,2,17.4C49.5,566.3,50.1,568.2,48.1,569L48.1,569z"/>
		<path d="M463.3,196.9c2.1-1.2,3.1-0.4,4.4,1.6c2.7,4,6,7.5,7.3,12.4c0.3,1.3,1.8,2.3,2.8,3.4c1,1.2,1.5,2.6,0.9,4.1
			c0,0,0.2-0.1,0.2-0.1c-2.1,0.1-3-1.4-3.7-2.9c-1.1-2.4-2.8-4-4.9-5.6c-2.1-1.6-3-4.6-4.9-6.6C463.7,201.3,462.9,199.4,463.3,196.9
			L463.3,196.9z"/>
		<path d="M490,235.9c-0.1,1-0.8,1.4-1.4,1.9c-0.4,0.4-0.8,0.6-0.5,1.2c0.4,0.6,0.8,0.4,1.2,0c0.6-0.7,1.2-1,1.7,0.1
			c0.7,1.7-1,1.6-1.7,2.3c-0.6,0.7-1.4,0.7-1.9-0.3c-1.8-3.9-3.8-7.8-5.5-11.8c-0.5-1.1-1.3-2-1.8-3c-0.7-1.6-1.8-3.1,0.6-4.5
			c2.3-1.3,2.7,1.2,3.1,1.8c1.7,2.6,2.9,5.6,4.2,8.4C488.8,233.3,489.4,234.6,490,235.9z"/>
		<path d="M548.4,674.4c-0.6,2.5-1.5,5,0.4,7.4c0,0,0.1-0.1,0.1-0.1c-0.8,0.3-1.5,0.7-1.9,1.6l0.1-0.1c-0.9,0.1-1.2,1-1.8,1.5
			c-1.1,0.7-2.2,1.6-3.3-0.1c-0.2-0.3-0.4-0.9-0.8-0.7c-3.9,2-2.1-1.5-2.3-2.6c-0.3-1.3,0-2.8,0.2-4.2c0.3-2.5,2.7-3.5,4.8-1.9
			C545.7,676.9,547,675.4,548.4,674.4L548.4,674.4z"/>
		<path d="M41.3,468c1.9-4.3,1-8.8,1.3-13.2c0.1-1.7-0.1-3.4-0.1-5.1c0-1-0.7-2.6,1.7-1.7c2,0.7,0.6-2.2,2.1-2.6
			c-0.3,6.7,0.6,13.3-0.2,20C45.6,470.6,45.5,470.7,41.3,468L41.3,468z M44.8,459.8c-1.6,2.8-1.6,2.9-0.6,4.7
			C45.1,463.2,45.3,461.9,44.8,459.8z M43.7,452.2c0.2,1.6-0.7,2.9,0.4,3.9c0.3,0.3,0.9,0.1,1-0.3C45.3,454.6,45.9,453.2,43.7,452.2
			z"/>
		<path d="M186.3,241.4c-2.1-1.5-3.8,0.1-5.6,1.2c-0.4,0.2-1.1,0.4-1.3-0.1c-0.2-0.4-0.1-1.4-0.1-1.4c2-0.3,1.3-2.6,2.5-3.3
			c0.8-0.4,1.1-2.5,2.8-0.7c0.8,0.8,2.5,0.1,3.1-1c0.8-1.4-0.7-1.4-1.6-1.8c-0.8-0.3-1.5-0.9-0.7-1.8c0.9-1.1,2.6-1.4,3.2-0.6
			c1.2,1.5,3.5,2.6,3.3,4.9C191.7,239.1,188.9,241.4,186.3,241.4z"/>
		<path d="M496.2,262.4c-1.5-0.2-1.4-1.7-1.6-2.6c-0.7-2.8-2.1-5.4-3.2-8c-0.5-1.1-1.9-2.1,0.5-2.9c1-0.3-0.7-1-0.3-1.7
			c3.6,0.3,4.2,3.5,5.4,5.9c0.8,1.5,1,3.2,1.6,4.8c0.8,2.3,0.1,3.7-2.3,4.2C496.3,262.2,496.2,262.4,496.2,262.4z"/>
		<path d="M182.8,734.3c3.6,0.4,4.5,2.4,4.2,5.2c-0.2,2.1-0.9,4.3,1,6.1c0.6,0.6,0.4,1.5-0.2,2.2c-0.6,0.7-1.5,1-2.1,0.5
			c-1.6-1.3-3.5-2.2-3.3-4.9C182.7,740.5,183.5,737.6,182.8,734.3z"/>
		<path d="M463.4,196.8c-2.6-2.7-6.7-3.5-8.6-7c-0.6-1.1-2.4-2.3-1.1-3.5c1.4-1.3,2.9-0.3,4.4,1c2,1.8,3.2,4.2,5.4,5.9
			C464.6,194.2,464.6,195.7,463.4,196.8C463.3,196.9,463.4,196.8,463.4,196.8z"/>
		<path d="M520.2,375.8c0.3,1.1,0.1,2.4,0.7,3.5c1,1.7-0.8,2.2-1.6,2.9c-1.1,1-1.8-0.2-2.4-0.9c-0.6-0.7-1-1.5-0.9-2.5
			c0.5-4.9,0.3-9.8-0.3-14.9c1.6,0.5,0.3,4.9,3.8,2.2C520.5,369.4,520.3,372.7,520.2,375.8c-1.8-1.9-0.4-4.7-1.6-7.2
			c-2.3,2.4-1.5,4.8-0.9,7.1C518.4,377.8,519.3,377.6,520.2,375.8z"/>
		<path d="M177.6,380.2c-2.1,1.1-4.3,1.2-6.8,1.1c0.8-1.3,1.8-2,2.4-3.2c0.9-1.8,7.2-3.2,8.7-2.3c0.9,0.6,1,1.5,0.8,2.4
			c-0.3,1.7-1.5,2.1-3,2.2C179.1,380,178.4,380.1,177.6,380.2z"/>
		<path d="M65.7,720c-0.6,1.5-0.6,2.5,0,4.1c0.6,1.9,2.5,5.1-1.6,6.6c-0.8,0.3-1.1,2.9-0.7,4.6c-1.3-0.3-1-1.1-1-1.7
			c-0.1-3.4,0.4-6.7-0.5-10.1C60.9,720.3,64.3,721.2,65.7,720z"/>
		<path d="M45.1,505c1.5,3,1.2,5.6,1.2,8.1c0.1,3.1,0.1,6.2,0.2,9.2c0,0.6,0.1,1.2-0.6,1.6c-0.8,0.4-1.3-0.2-1.8-0.7
			c-2.2-1.9-1.8-6.3,0.4-8.3c1.3-1.2,1-3.2,0.6-4.7C44.8,508.6,45,507.2,45.1,505z"/>
		<path d="M69,715.1c0.5-0.5,1.1-1,1.6-1.5c0.8-0.7,1.5-1.1,1.8,0.4c0.3,1.9,0.8,3.9,1,5.8c0.2,2.6,0,5.1-3.7,4.7
			c-0.5-2.7,0-5.6-1.4-8.2C68.2,716.1,68.8,715.5,69,715.1z"/>
		<path d="M397.2,374.7c1.5,1,1.2,1.8-0.4,2c-1.6,0.2-3.4,0.6-5,0.2c-3.6-0.9-6.9,0.6-10.9,0.9c1.6-1.1-0.9-4.2,2.6-3.7
			c1.6,0.2,3.3-1.8,4.8,0.5c0.6,1,2.4,1.5,3.5,0.7C393.5,374.1,395.4,374.7,397.2,374.7C397.2,374.8,397.2,374.7,397.2,374.7z"/>
		<path d="M372.2,440.2c1,1.2,3.1,0.3,3.5,2c0.7,2.7,1.4,5.3,1.5,8.1c0,0.5-0.4,1.3-0.8,1c-1.3-0.9-3.6-0.7-3.7-2.7
			C372.5,445.9,371.1,443.3,372.2,440.2z"/>
		<path d="M75.8,741.9c0,4-1,5.2-2.7,4.2c-1.5-0.9-3-8.1-2-9.5c0.5-0.7,0.9-0.4,1.5-0.1C75,737.9,75.8,740.1,75.8,741.9z"/>
		<path d="M503.8,284.9c-0.7,2.3,0.4,4.5,0.4,6.9c1.1,0.4,1.3-1,2.1-1.1c0.9-0.1,0.6,0.5,0.4,1c-0.2,0.4-0.4,0.7-0.7,1.1
			c-1.4,5-1.4,10.1-0.3,15.2c-1.5-1.3-1.4-2.7-1.3-4.1c0.4-6.4-1.1-12.4-2.5-18.5c-0.7-2.8-0.3-3.2,2.4-2.8
			C504.1,283.2,504,284.1,503.8,284.9z"/>
		<path d="M212.1,431.2c-1.5-0.2-3.2,0.2-4.1-2.2c-0.6-1.6-2.5-2.5-4.6-1.6c-0.7,0.3-1.8,0.6-1.9-0.5c-0.1-1,1-0.8,1.6-0.7
			c3.8,0.5,7.5,1,11.3,1.5c0.9,0.1,1.8,0.7,1.2,1.6C214.8,430.3,214.1,431.7,212.1,431.2z"/>
		<path d="M379,150.5c-1.7-1.9-4.6-2.7-6.1-5.3c-0.5-0.9,0.1-1.5,0.7-2c0.6-0.5,1.2-1.4,2-0.5c1.8,1.7,3.9,3,5.3,5.2
			c0.4,0.6,0.6,1.1,0.1,1.5C380.4,149.8,380,150.5,379,150.5z"/>
		<path d="M177.6,380.2c0.7-0.1,1.4-0.3,2.1,0.2c0.6,1.3,1.5,1.7,3.1,1.5c2.4-0.4,4.9-0.4,7.4,0.4c-1,1.2-3.8,0.6-3.4,3.3
			c-1,0-2.1,0.4-2.9,0.1C181.4,384.4,178.9,383,177.6,380.2z"/>
		<path d="M496.2,262.4c0,0,0.1-0.2,0.1-0.2c1.2,2,2.1-0.5,3.1-0.3c1.6,3.3,3.6,6.7-1.6,8.9C497.3,268.1,495.5,265.5,496.2,262.4z"
			/>
		<path d="M72.5,294.9c1.4,3.6-0.4,5.8-1.8,8.3c0.4-2.2-2.9-2.4-2.3-5C68.9,295.6,71.7,297.2,72.5,294.9z"/>
		<path d="M47.1,432.1c1.8-1,2.2-2.5,2.4-4.5c0.3-2.7-0.6-5.5,0.7-8.1c0.7,5.1,0.4,10.1-0.4,15.9c-0.9-1.4-1.4-2.6-2.8-2.4
			C46.6,433,46.9,432.3,47.1,432.1L47.1,432.1z"/>
		<path d="M173.1,228.4c1.4-1.8,2-4,4.6-4c0.7,0,1.5-0.3,1.9,0.3c0.6,0.8-0.2,1.2-0.7,1.7C177.4,228,175.7,229.2,173.1,228.4z"/>
		<path d="M65.6,745.7c-0.9,0-1.5-0.9-1.3-1.3c0.7-1.3-0.4-3.3,1.4-3.9c1.5-0.5,2,1.7,3.5,1.8C68.7,744.1,67,744.8,65.6,745.7z"/>
		<path d="M344.2,130.2c1.3-0.7,2.6-0.6,4-0.6c0.3,1.1-1.2,1.4-0.8,2.5c1.1,0.4,2.7-0.7,3.3,1c-3.6,0.8-5.7,0.1-6.7-2.2
			C344.1,130.6,344.2,130.4,344.2,130.2z"/>
		<path d="M417.8,385.2c-3-0.7-6.1-0.5-9.4-1.7c3.3-1.7,8.4-0.6,9.3,1.7C417.7,385.1,417.8,385.2,417.8,385.2z"/>
		<path d="M48,569c1.7,2.4-1.5,3.4-1.5,5.3c0,0,0.1-0.1,0.1-0.1c-2.9-0.7-3.2-1.3-2.4-5.7c0.9,0.6,0.1,1.7,1,2.5
			C45.5,569.3,47.6,570.6,48,569C48.1,569,48,569,48,569z"/>
		<path d="M389.3,155c-0.3,1-1.1,2.2-1.9,2c-1.2-0.3-3.2-0.3-3.2-2c0-1.3,1.7-1.4,2.8-1.5C388.2,153.3,388.8,154,389.3,155z"/>
		<path d="M344.2,130.2c-0.1,0.2-0.1,0.4-0.2,0.7c-2.3,1.1-4.2,0.1-6.3-0.9c0.7-0.6,1.8-0.4,1.7-1.5c-0.1-1.8-0.1-1.7,1.5-1.3
			c2,0.5,3,1.2,0.7,2.8C342.6,130.9,343.5,129.5,344.2,130.2z"/>
		<path d="M302.2,121.1c-2.8,0.5-11.9-0.1-13.9-0.8c4.5,0,9.2,0,13.9,0C302.2,120.6,302.2,120.9,302.2,121.1z"/>
		<path d="M204,435.5c1-0.7,2-0.5,2.9-0.6c0.8,0,2-0.2,2.2,0.9c0.2,1-0.4,1.8-1.4,2.3c-1.2,0.6-1.8,0.2-2.4-0.7
			C204.8,436.8,204.4,436.2,204,435.5z"/>
		<path d="M41.2,468c1.4,1.6,1.2,3.4,0.7,5.3c1.3,0.7,1.5-1.3,2.7-0.9c0.1,2.2-1.8,2.9-3.1,3.8c-1,0.7-1.1-0.7-1-1.4
			C40.7,472.5,41,470.3,41.2,468C41.3,468,41.2,468,41.2,468z"/>
		<path d="M555.9,708.1c-0.5,0.8-1.2,1.8-2.2,1.7c-1-0.1-2-0.7-2.1-2.1c0-1.5,1-2.3,2.1-2.4C555.2,705.4,555.2,707.1,555.9,708.1z"
			/>
		<path d="M512.6,344c1.5,1.7-0.5,4,1.7,5.1c0.9,0.5,0.7-0.9,1.4-1.1c0.8,1.8-0.6,2.6-1.5,3.5c-1,1.1-1.8,0.7-1.8-0.8
			C512.2,348.6,511.9,346.5,512.6,344z"/>
		<path d="M548.1,663.9c-0.3,1.6-0.8,3.1-2.3,2.9c-1-0.1-2.1-1.2-2.1-2.5c0-1.3,1.1-1.6,2.2-1.3C546.7,663.3,548,662.5,548.1,663.9z
			"/>
		<path d="M548.4,674.5c-0.6-2.1-2.9-2.9-3.6-5.5c2.8,1.7,2.3-2.5,4.6-2.1c-1.2,2-2.5,3.9-0.2,6
			C550.2,673.7,549.1,674.2,548.4,674.5C548.4,674.4,548.4,674.5,548.4,674.5z"/>
		<path d="M417.8,385.2c0,0-0.1-0.1-0.1-0.1c1.3-1.5,3.1-1,5.2-1.3c-1.2,1.8-1.6,3.9-3.8,3.9C417.4,387.8,418,386.2,417.8,385.2z"/>
		<path d="M511.9,319.9c1.4,2,1.5,4.2,1.5,6.5c0,0.7,0.6,1.9-0.7,1.9c-1.2,0-1.5-1.1-1.2-2.2C512,324,512.5,322,511.9,319.9z"/>
		<path d="M550.1,685.8c-1,0.3-1.1,2.3-2.7,1.5c-0.7-0.3-0.9,1.8-1.8,0.6c-0.5-0.8-0.5-1.9,0.6-2.6c0.7-0.4,1.3-1,0.8-2
			c0,0-0.1,0.1-0.1,0.1C548.3,683.8,549.4,684.5,550.1,685.8z"/>
		<path d="M163.5,436.2c0.7,1,0.2,1.6-0.8,1.6c-0.8,0-2.1,0.7-2.2-0.5c-0.1-1.1-1.9-1.8-0.9-2.8c1.1-1,2.1,0.2,3,0.9
			C162.9,435.7,163.2,436,163.5,436.2C163.5,436.2,163.5,436.2,163.5,436.2z"/>
		<path d="M398.4,383.5c2.4-1.2,4.9-1.5,7.5,0c-2.5,0.3-4.9,0.5-7.4,0.8C398.5,384,398.5,383.8,398.4,383.5z"/>
		<path d="M61.1,665.9c0,0,0.2-0.1,0.2-0.1c-1.4-0.1-2.7-0.5-2.9-2.1c-0.2-1.6,1.2-1.9,2.4-2.2c0,0,0.1,0,0.1,0
			C62.5,663,61.6,664.5,61.1,665.9z"/>
		<path d="M503.8,284.9c0.1-0.8,0.3-1.7,0.5-2.5c-0.7-0.9-0.6-1.8,0.6-2.9c0.5,3,1.7,5.6,1.4,9.3
			C505.3,287.1,505.7,285.1,503.8,284.9z"/>
		<path d="M292.9,117.8c-3.7-0.9-7.5-1-11.6-1.6C283.7,115.2,289.3,116,292.9,117.8z"/>
		<path d="M453.3,183.2c-0.1,0.5-0.4,1.2-0.9,0.9c-1.6-0.7-2.9-1.9-3.4-3.7c-0.2-0.6,0.4-0.9,1-0.7
			C451.4,180.6,452.7,181.5,453.3,183.2z"/>
		<path d="M51,391.9c3.4,1.9,1.2-2.1,2.8-2.3c0.3,1.8,0.7,3.6,0.1,5.4c-0.1,0.3-0.5,0.8-0.7,0.8c-0.6,0-0.2-0.6-0.2-0.9
			C52.9,393.6,51.5,393.1,51,391.9z"/>
		<path d="M60.8,661.6C60.8,661.6,60.8,661.6,60.8,661.6c-0.8-1-1.5-2.1-1.3-3.8c1.8,0.7,3.1,1.9,3.3,3.6
			C62.9,662.3,61.6,662,60.8,661.6z"/>
		<path d="M47.1,432c-1.4-1.1-0.7-2.5-0.6-3.9c0.1-2.1,0.3-4.1,0.5-6.2c0.3,0,0.5,0,0.8,0C47.5,425.4,47.3,428.7,47.1,432
			C47.1,432.1,47.1,432,47.1,432z"/>
		<path d="M369.4,619.9c-2.1,0.6-3.7,1.7-5.8,0.8C365.3,619.1,367,618.7,369.4,619.9z"/>
		<path d="M568.2,752.7c-1.4-1.4-2.5-2.7-1.8-4.6c0.2-0.6,0.7-1,1.3-1c0.9,0.1,0.8,0.8,0.5,1.3C567.7,749.8,569.3,751.1,568.2,752.7
			z"/>
		<path d="M295.2,118c3-2.8,5.4,0.2,6.8,0.2C300.6,117.4,297.9,119,295.2,118z"/>
		<path d="M363.6,739c2.9-0.7,5.8-1.1,8.8-0.3C369.4,738.7,366.5,739.4,363.6,739z"/>
		<path d="M511.6,337.4c0.3,2.1,1.4,2.2,3.5,1.1c-1,1.8-1.5,3.8-2.9,3.3C510.3,341.2,512.2,339,511.6,337.4z"/>
		<path d="M521.1,393.7c-0.7-0.7-0.2-1.1-0.2-1.6c0.1-1.5,1.7-1.7,2.4-2.7c0,0,0.7,0.1,0.7,0.3c0.3,1.4-1,1.7-1.7,2.5
			C521.9,392.6,521.5,393.1,521.1,393.7z"/>
		<path d="M552.6,627.7c0.3-3-2.8-3.8-3.6-6C550.1,623.8,554.2,624,552.6,627.7z"/>
		<path d="M506.1,292.7c0.2-0.4,0.4-0.7,0.7-1.1c2.1,1.5,1.2,4,1.8,6C506.6,296.6,507.2,294.2,506.1,292.7z"/>
		<path d="M518.6,356.6c0.4,2.2,1,4.3,0.7,6.5C517.7,361.8,517.7,361.8,518.6,356.6z"/>
		<path d="M554,688.1c1.7,0.6,1.5,1.6,0.6,2.7c-0.6,0.7-1.5,1.3-2.2,1.9C550.4,690.1,554.2,689.9,554,688.1
			C554,688.1,554,688.1,554,688.1z"/>
		<path d="M534.8,600c-0.5-2.1,1-3.2,1.9-4.8C539,598.1,534.9,598.2,534.8,600z"/>
		<path d="M114.8,582.5c-3.1-1.7-2.2,1.6-3.3,2.4c-1-2.3,0.6-3.8,2.1-4.5C115.1,579.8,114.1,581.9,114.8,582.5z"/>
		<path d="M45,476.4c0.8,2.4,0.9,4.1,0.3,5.7C45,480.5,43.8,478.9,45,476.4z"/>
		<path d="M548.9,681.8c0,0-0.1,0.1-0.1,0.1c2.9-0.1,5.5,2.9,5.2,6.2c0,0,0,0,0,0c-0.2-1.4-0.8-2.5-2.4-2.8
			C551.3,683.6,549.6,683.1,548.9,681.8z"/>
		<path d="M356.6,452c-0.8,0-0.8-0.5-0.8-1c0.1-0.9,0.4-1.8,1.5-1.9c0.5,0,1.2,0.3,1.1,0.8C358.3,450.9,357.4,451.5,356.6,452z"/>
		<path d="M103.9,542.5c0.3,2.3,0.6,4.6,0.9,6.8c-0.2,0-0.5,0.1-0.7,0.1c-0.4-2.3-0.7-4.5-1.1-6.8
			C103.3,542.6,103.6,542.6,103.9,542.5z"/>
		<path d="M168.9,442.4c-2.6,0-5.2-0.8-7.7,0.2C163.7,441.8,166.3,441.2,168.9,442.4z"/>
		<path d="M67.4,310.9c0.2,1.9-0.2,3.5-1.5,4.8C66.4,314.1,66.9,312.5,67.4,310.9z"/>
		<path d="M190.7,433c-0.2,0.8-0.7,1.6-1.4,2c-0.4,0.2-0.8-0.4-0.9-0.9c0-0.9,0.5-1.5,1.3-1.8C190.2,432.1,190.6,432.3,190.7,433z"
			/>
		<path d="M109,571.1c0.9-0.9,1.7-1.7,2.7-2.7c0.8,1.1,0.7,2.5,0.8,4C111.7,570.8,111.1,568.5,109,571.1z"/>
		<path d="M105.9,541.2c0.9,1.9,1.6,3.9,0.7,6.2C106.4,545.3,106.2,543.2,105.9,541.2z"/>
		<path d="M478.9,218.3c0,0-0.2,0.1-0.2,0.1c1.5-0.2,1.5,1,1.8,1.9c-0.2-0.1-0.1-0.6-0.5-0.3c0.2,0.1,0.4,0.1,0.5,0.2
			c-0.4,0.8-1,1.3-1.9,1.6c0-0.2,0-0.5,0-0.7c-0.1,0-0.2,0-0.2,0c0.1,0.2,0.2,0.4,0.4,0.6C477.9,220.6,477.1,219.4,478.9,218.3z"/>
		<path d="M275.1,618.9c-0.3-0.4-0.5-0.6-0.4-0.6c0.2-0.2,0.4-0.3,0.6-0.5c0.1,0.1,0.3,0.3,0.2,0.4
			C275.4,618.4,275.3,618.6,275.1,618.9z"/>
		<path d="M397.2,374.7C397.2,374.7,397.2,374.8,397.2,374.7C397.2,374.8,397.2,374.7,397.2,374.7z"/>
		<path d="M180.4,754.2c-0.1-0.3-0.1-0.6-0.2-1c0,0-0.1,0-0.1,0C180.3,753.6,180.3,753.9,180.4,754.2z"/>
	</g>
</g>
</svg>
