<?xml version="1.0" encoding="utf-8"?>
<!-- Generator: Adobe Illustrator 18.0.0, SVG Export Plug-In . SVG Version: 6.00 Build 0)  -->
<!DOCTYPE svg PUBLIC "-//W3C//DTD SVG 1.1//EN" "http://www.w3.org/Graphics/SVG/1.1/DTD/svg11.dtd">
<svg version="1.1" id="图层_1" xmlns="http://www.w3.org/2000/svg" xmlns:xlink="http://www.w3.org/1999/xlink" x="0px" y="0px"
	 viewBox="0 0 595.3 841.9" enable-background="new 0 0 595.3 841.9" xml:space="preserve">
<g>
	<g>
		<path d="M478.1,203.2c-3-1.2-4.5-3.7-5.9-6.3c-0.8-1.5-2.1-2.6-3-3.9c-0.7-1.1-1.8-0.9-2.8-0.2c1-1.7,0.4-3-1.2-3.9
			c-0.8-0.5-1.6-1.1-2.4-1.8c-0.6-0.5-1.1-0.9-1.7-0.2c-0.4,0.5-1.1,1.3-0.5,1.8c1.8,1.6,2.9,4.1,5.8,4.1c-0.4,2.4,0.9,4.3,2.1,6
			c2.3,3.2,4.6,6.5,6.8,9.8c5.8,8.4,10.6,17.3,14.9,26.5c2.4,5,3.8,10.3,5.9,15.4c2.3,5.7,4.2,11.5,5.4,17.5c0.1,0.3,0,0.6,0.2,0.9
			c4.2,6,3.4,13.3,5.3,19.9c0.5,1.9,1.1,3.8,1.5,5.8c0.5,2.4,2.3,4.8,0,7.4c-0.6,0.7-0.3,2.6,0.7,3.3c3.2,2.3,2.6,6.2,3.2,9.2
			c0.4,1.9,0.7,4.4,0.7,6.7c0,2.7,0.6,5.3,1.1,8c0.4,2.1-0.2,4.1,0.4,6.2c0.5,2.1,1.3,3.9,2.5,5.6c1,1.4,2.5,2.3-0.1,4
			c-1.3,0.9-1.3,3.5,0.3,5.1c2,2.1,1.2,5.3,3.1,7.5c-2.2,5.3,1.1,10.5,0.2,15.8c-0.2,1.3,0.3,2.8,1,4c0.5,0.9,0.8,1.9,2.5,2
			c2.6,0.2,3.2,2.4,1.7,4.5c-0.4,0.6-1.2,1-0.4,2c1.2,1.7,0.8,3.5-0.4,5.2c-1.2,1.7-1.2,3.5,0.3,4.9c1.4,1.3,0.4,1.8-0.4,2.5
			c-0.7,0.7-1.4,2-2.3,0c-0.5-1.1-0.9,0.1-1.1,0.4c-0.5,1.1-0.2,2.3,0,3.5c0.5,4.7,2.1,9.3,2.3,14.1c0.1,2,0.8,3.9-2,5.2
			c-1.8,0.8-1.3,7.2,0.7,8.8c1.3,1,2,1.9,1.4,3.4c-0.4,0.9-1.2,0.6-1.9,0.5c-1.8-0.3-1.4-1.9-1.9-3.8c0,4.7,0,8.6,0,13.3
			c0.3-1.5,0.5-2.1,0.6-2.7c1.1,3.1,2.6,6.2,2.1,9.3c-0.6,3.4,2.8,8.8,5.9,9.9c0.6,0.2,1.3,0.4,1.9,0.7c2.7,1.4,2.9,3.9,0.5,5.6
			c-1.8,1.2-2.3,2.4-1.6,4.7c1,3.4,0.9,7.1,2.3,10.4c0.9,2.3-0.8,5.1,1.2,7.4c0.2,0.2,0,1-0.2,1.1c-1.5,0.6-0.8,1.6-0.3,2.1
			c1.7,1.6,1.4,3.8,1.8,5.8c0.2,1.1,0.1,2.2,0.9,3.3c0.9,1.2,0.2,2.4-1.6,3.4c3.1-0.7,3.5,0.4,2.4,2.5c-1.4,2.8-1.4,5.3,1.2,7.5
			c0.4,0.4,1.1,1.3,0.7,1.5c-3.4,2-1,4.2,0.2,5.7c1.9,2.4,0.9,4.5,0,6.4c-0.8,1.7-1.5,3,0.5,4.2c0.4,0.2,0.5,0.9,0.7,1.3
			c0.8,1.2,0.7,3.2,3.1,3.3c0.8,0,1.6,1.4,1.8,2.6c0.7,4.8,4.2,8.8,3.9,13.9c0,0.8,0.5,1.7,1,2.5c1.8,2.9,1.8,3.1-1.5,4.4
			c2.4,1.2,0.9,3,1.1,4.7c-2.1-1-1.8-3.4-3.3-4.5c-0.4-0.3-0.6-1.3-1.3-0.9c-0.9,0.4-0.5,1.2-0.2,1.8c0.8,1.6,0.6,3.3,0.5,5
			c-2.3-4.6-1.5-9.7-1.9-15.4c-1.9,8.3,0.9,15.3,1.6,22.5c0.9-0.4,0-1.4,0.7-1.9c0.6,0.9-0.3,3.1,2.2,2.6c0.5-0.1,0.5,0.8,0.2,1.2
			c-1.6,2.9-1.3,5.9-0.9,9c0.8,6,0.5,12.3,3,18c0.3,0.7,0.1,0.9-0.8,1.1c-1,0.2-0.3,0.7-0.2,1c2.1,3,1.8,6.9,3.5,10.1
			c0.9,1.6-0.6,3-0.9,4.4c-0.3,1.7,3,0.9,2.6,3.2c-0.3,1.6,0,3.4-0.2,5.1c-0.4,2.7-1.2,5.4,1.2,7.8c0.3,0.3,0.6,1.1-0.3,1.4
			c-0.9,0.3-1.1,0.8-0.7,1.5c-1.8,1.6-3.5,3.3-1.8,6c0,1.2,0.1,2.4,0.1,3.6c-0.2,0.9-0.9,1.7,0.5,2.5c1.5,0.8,4,1.6,1.6,4.1
			c-0.1,0.1-0.1,0.5,0,0.5c3.3,2.4,0.5,6.2,2.3,8.9c-1.2,0.6-1.6-1-2.6-0.5c-0.1,0.9,0.6,1.3,1.1,1.6c3.3,2.3,4.8,5.6,5.7,9.4
			c0.6,2.3-0.6,1.4-1.7,0.9c0.1,0.5,0.2,0.7,0.2,0.8c0.2,1,2.2,1.7,0.9,2.6c-1.3,1-1.1-1.1-1.9-1.5c-1.4-0.7-3.1-1-3.1-3.2
			c0-0.6-0.8-0.1-1.2,0c-0.6,0.2-1.2,0.7-0.6,1.3c1.2,1.3,0.7,2.4,0.1,3.8c-0.3,0.8-0.3,2,0,2.9c1.8,5.4,3.5,10.7,4.3,16.3
			c0.3,2.4,1.6,4.6,2.8,6.8c0.7,1.3,0.5,1.5-0.8,1.6c0-1.6-1.2-3.3-2.1-3.1c-1.4,0.3-1.1,2.3-1,3.9c0.8-2.1,2.1-1.2,3.2-0.8
			c1.8,1.1,3.7,2.1,3.9,4.6c0,0.4,0.4,1,0.3,1.1c-5.1,3,0.9,4.3,1.1,6.4c0.1,0.9,1.8,1.4,0.8,3c-2.4-2.2-4.6-4.5-6.2-7.4
			c0.2,3.9,5,5.4,4.9,9.5c-0.5,0.2-0.7-0.2-1-0.5c-0.5-0.5-0.7-1.5-1.8-1.3c0.8,1.7-1.7,0.8-1.7,2.3c0,1.6,1,3.1,0.2,4.7
			c0,0.1,0.2,0.4,0.3,0.4c4.5,0.6,4.4,4.7,5.2,7.6c0.6,2.1,3.1,2.8,2.8,5c-0.3,2,1.6,1.8,2.5,2.6c-0.5,1,1.3,1.9,0.3,2.9
			c-0.6,0.5-0.8,0.8-0.2,1.3c0.6,0.5,1.1,0.1,1.6-0.3c0.1,0.9,0.7,1.6,1.5,1.6c2.4-0.1,3.2,1.4,3.2,3.4c0,1.1,0.9,1.2,1.5,1.7
			c-3.4,0-6.8,0-10.2,0c-2.1-2.9-2.7-6.5-4.7-9.5c-0.7-1-1.1-2.1-2.4-2.5c-1-0.3-1.2-1.1-1-2.2c0.8-4.8-1.1-8.8-4-12.4
			c-0.5-0.7-1.3-1.9-2.3-0.4l0.1,0c-1.2,0.1-2.3,0.8-2.8,1.6c-1.8,3-2.9,1.2-3.9-0.5c-2.1-3.6-1.5-7.5-0.7-11.3
			c0.3-1.6,3-1.5,4.5,0.2c1.2,1.4,2.2,3.1,3.5,4.6c-1-1.7-0.1-4.1-2.1-5.6c-0.2-0.2-0.4-0.6-0.3-0.8c2-3.9-1.4-6.7-1.9-10.2
			c-0.3-2.2-0.3-4.3,0-6.5c0.1-0.8,0.5-1.5-0.2-2.3c-0.5-0.5-1.7-1-0.6-1.8c0.9-0.7,1.4,0.3,2,0.8c0.5,0.4,1.2,0.6,2.1,1.1
			c-1.1-2.3-2-4.3-3.2-6.8c-0.2,0.6-0.6,1-0.5,1.3c1,2.9-1.7,2.9-2.7,2.6c-1.5-0.4-2.6-2-3.8-3.1c1.8-0.5,1.2-1.8,1.2-3
			c0.1-1.3,0.1-2.4-1.5-2.7c-0.5-0.1-2,2-1.9,2.5c0.1,0.4-0.1,0.5-0.4,0.6c-0.3,0.1-0.6,0.1-0.9,0.2c-0.3-1.5-2.3-2-2.1-3.9
			c0.3-3.2,0.6-6.4,0.5-9.5c-0.1-1.8,1.7-2.1,2.1-2.3c2.3-1,1.2-2.1,0.3-3.1c-1-1.3-1.7-2.7-1.8-4.3c-0.1-1.8,0.2-1.9,1.5-2.7
			c1-0.6,1.7-1.7,1.6-3.2c-0.3-4.7-1.7-9.3-2-14c-0.5-6.1-1.4-12.3-1.1-18.5c0.1-2.2-1-3.9-1.5-5.9c-0.3-1-1.4-1.4-2.5-1.3
			c-1.2,0.1-2.3,0.1-3.5,0.2c2.1,3.6,3.2,3.9,5.3,1.2c0.1,2.2-0.9,4.2,0.7,5.9c0.5,0.6-1.1,1.4-1.4,1.3c-2.9-1.7-5.3-4-6.7-7.2
			c-0.1-0.2,0.1-0.6,0.3-0.8c1.9-2.5,1.2-5.5,1.4-8.4c0-0.8-0.1-1.6,1-1.8c2.4-0.6,3.8-2.8,2.3-5.1c-1.4-2.2-1.7-3.7-1.1-6.3
			c0.4-2.1-0.1-4.9-0.1-7.3c0-1.6-1.1-4.1,2.4-3.8c0.7,0.1,1.5-1.7,0.8-2.7c-0.2-0.4-0.3-2.7-1.9-0.8c-0.6,0.7-0.9-0.3-1-0.9
			c-0.4-3.1,0.3-5.7,3.3-7.3c0.5-0.3,1-0.6,1.6-1c0.8,1.5-0.6,2.3-0.9,3.5c2.5-0.7,2.5-0.7,2.1-2.9c-0.2-1.2-0.1-2.4-0.3-3.6
			c-0.4-2.2-0.5-4.3-3-5.6c-3-1.7-3.8-6.7-2-9.7c0.6-1,1.2-1.8,0.3-3.2c-1.1-1.8,0-3.8,0-5.7c0.1-3.4-0.6-6.9-1.3-10.3
			c-0.3-1.4-0.6-2.7-0.6-4.1c0-1.4-0.2-2.6-1.3-3.7c-1.3-1.4-1.2-3.4-0.7-5.3c0.3-1.3,1.3-2.9-0.4-4l0,0.1c0.1-1.6-0.7-3-0.5-4.7
			c0.4-3.7-1.5-5.5-5.1-4.4c-1.3,0.4-1.1,0-1.2-0.6c-0.5-2.8-0.4-5.6-0.2-8.4c0.1-1.2,0.2-1.9,1.7-1.5c1.8,0.5,2.4-0.6,2.2-2.2
			c-0.2-2,0.7-4.1-1.4-5.8c-0.7-0.6-0.5-2.7-0.4-4c0.5-7.3-0.7-14.5-1-21.7c-0.1-2-0.2-4.2,2.6-4.8c-2.9-3.4-2.6,0.6-4.1,2
			c0.1-4.1-1.5-7.5-2.3-11.1c0,1.2,0.1,2.5,0,3.7c-0.1,1.1-0.6,2.1-1.8,1.9c-1.1-0.1-1.8-1-1.4-2.2c0.4-1.1-1-3.2,1.7-3.2
			c0.1,0,0.2-0.6,0.2-0.8c-1-3-0.2-6.3-1.6-9.2c-0.1-0.4,0-0.9-0.6-1c0.4-1.2,0.4-2.5-0.6-3.3c-1.3-1.2-1.3-2.3-0.2-3.6
			c0.4-0.5,0.4-1.1,0-1.7c-1.2-2.3,1.7-2.3,2.3-3.8c0.4-1.1,0.8-2,0.4-3.2c-0.1-0.3-0.2-0.6-0.2-0.9c0.4-12.6-3-25-2.5-37.6
			c0.1-1.4,0-2.8,0-4.2c1.1-0.5,1.1,0.9,1.8,1.1c0-0.4,0.2-0.8,0.1-1c-3.5-3.2-2.2-7.3-2.3-11.2c-0.1-2,1-4.5-1.7-5.7
			c-0.3-0.1-0.2-1.1-0.2-1.7c0.3-3.2-0.9-6.5,0.1-9.7c0.1-0.4,0-1.1-0.3-1.4c-2.6-2.7-2.1-6.1-1.9-9.4c0.1-1.4-0.1-2.6-0.8-3.7
			c-3.1-4.7-3.6-9.6-1.9-14.9c0.5-1.6-0.1-3.5-0.7-4.9c-2.6-6.3-4.3-12.9-4.4-19.5c-0.1-5.5-1.4-10.8-2-16.2c-0.3-2.5-1.1-5-1.5-7.6
			c-0.3-2.2-0.7-4.2-2.3-6c-1.5-1.7-1.3-4.3-1.9-6.5c-1.7-6.6-4-12.8-7.9-18.5c-0.3-0.4-0.5-0.9-0.5-1.4c-0.2-7.5-4.7-13.4-7.8-19.7
			c-1.9-3.7-4.4-7.1-6.6-10.6c-5.5-8.8-11.4-17.4-18.1-25.2c-0.9-1.1-2-2-3.6-1.8c-1.7,0.2-1.7-0.7-0.9-1.7c1-1.2,0.7-1.8-0.7-2.5
			c-2.3-1.2-4.1-3.6-7.2-2.5c-0.8,0.3-1.8-0.6-1.9-1.2c-0.3-1.8-2-1.3-2.6-1.9c-2.8-2.8-8.1-1.6-9.8-6.2c-0.4-1.1-1.6-0.7-2.4-0.6
			c-3.6,0.5-6.2-2.4-9.5-2.9c-0.2,0-0.6-0.8-0.6-0.9c1.4-1.9-0.7-1.8-1.3-2.6c-0.4-0.4-1.6-0.5-0.9-1.5c0.5-0.7,1-0.1,1.5,0.2
			c1.7,1.1,3.6,0.7,4.7-0.5c1.4-1.6-1.5-1.9-1.6-3.5c2.8,1.3,5.4,0.1,8-0.4c1.1-0.2,2.2,0.2,2.7,0.8c1.6,1.9,3.6,2.7,5.8,3.3
			c1.1,0.3,1.3,1.1,1.5,2c-0.2,0.3-0.4,0.5-0.6,0.8c-0.6,0.2-1.6,0.3-1.6,0.6c-0.4,2-1.7,2.3-3.5,2.3c5.7,2.5,12,3.7,15.4,9.9
			c0.8-2.5,3.2-3.4,5-4.9c1.5-1.3,3.5,0.8,5,1.7c1.9,1.1,3.5,3,5.3,4.1c1.7,1.1,3,2.7,5.3,3.4c2.3,0.7,4.7,3,5.4,5.7
			c0.8,2.7,2.1,4.7,4.1,6.5C478.2,198.6,479.1,200.7,478.1,203.2L478.1,203.2z M538.8,539.7c-0.5,1.7,0.1,3.4,0.6,5.1
			c0.1,0.5,0.4,1,1,0.5c0.3-0.2,0.5-0.9,0.5-1C539.1,543.3,540.7,540.7,538.8,539.7z M457.9,183c-0.2-0.8-0.6-1.4-1.4-1.4
			c-0.8,0-1.6,0.6-1.6,1.5c0,0.6,0.6,1.1,1.2,1.2C457,184.3,457.5,183.7,457.9,183z"/>
		<path d="M68.8,755.3c0.1-0.3,0.1-0.6,0.2-0.9c-3.8,0.1-3-3.6-3.6-5.3c-0.9-2.8-2.3-5.2-3.8-7.7l-0.1,0.1c1-0.3,1.7,1.7,2.6,0.7
			c1-1.1,0.1-2.1-0.8-3c-2.2-2.5-2.3-5.5-1.6-8.6c1-4.2-1.1-8.2-0.8-12.4c-3.9-1.3-2.3-4.6-2.7-7.3c-0.5-3.9-2.8-7.4-3-11.5
			c-0.1-1.7,0.5-3.1,1.1-5c-1.5,0.5-2.5,0.7-2.6-1.4c-0.3-2.9-0.8-5.9-0.9-8.9c-0.1-1.8,0.4-3.1,2.8-2.5c1.1,0.2,1.4,0.1,1.3,1.4
			c-0.2,2.4,0.1,4.7,1.4,6.9c0.3,0.6,0.9,1.3,1.1,0.7c0.5-1.9,3-2.8,2.4-5.4c-0.7-2.9-0.8-5.9-0.2-9c0.4-1.9,1.4-5.4-2.5-6.1
			c0.6-1.9-1.5-2.9-1.6-4.4c-0.2-1.6-0.5-3.4,0.8-4.9c1.3-1.4,0.5-3.3,0.6-4.7c0-2.6,0.7-5.4-0.5-7.9c-2.3,1.1,0.9,3.6-1.4,4.8
			c0.2-3.2-4.3-4-3.4-7.8c0.7-0.5,1.8,2,2.3,0.2c0.2-0.8-0.8-1.8-1.9-1.8c-0.8-0.1-1.5-0.5-1.5-1.2c0.1-3.1-1.9-6.4,0-9.3
			c1.1-1.7-1.5-2-0.6-3.3c1.2,0.4,2,1.4,2.9,2.3c-0.5,0.3,2.2,1.8-0.8,1.6c-2.5-0.1,0.4,1.9-0.5,3c1.2-0.2,1.2-1,1.6-1.6
			c1.4,0.5-0.6,2.6,1.7,2.7c-0.1-3.1,0.2-6.9-1.7-8.7c-2.4-2.4-1.1-6.2-4.1-8c-1.5-1,0-2.6-0.1-3.9c-0.2-3.1-0.3-6.4-3.6-8.4
			c0.5-0.2,0.8-0.4,0.8-0.4c0.9,0.9,1.9,2.6,3,1.8c1.2-0.8,0-2.4-0.3-3.8c-0.9-3.5-2.7-6.9-1.8-10.8c0.6-2.7,0.4-5.5-0.5-8.3
			c-1.3,0.7-1.7,3.3-3.6,1.9c-1.5-1.1-3.5-2.5-1.6-5c0.9-1.1,1.2-2.3-0.3-3.6c-1.4-1.3-1.1-3.5-0.6-5.1c0.5-1.9,1.9,0.9,2.9-0.2
			c-5.2-3.2-3.3-8.7-4.4-13.3c1.1,0.1,0.7,1.4,1.7,1.2c0.1-0.2,0.2-0.5,0.2-0.7c-0.7-3.5-1.4-7-2.2-10.6c-0.1-0.7,0-1.6,0.3-1.5
			c2.8,0.6,1.8-0.9,1.2-2c-1.4-2.4-1.8,0.9-3,0.5c-0.1-1.6,0.4-3.2,0-4.9c-0.3-1.3,0.7-0.6,1.2,0c0.5-1,0.4-2-0.5-2.6
			c-1.5-1-1.6-2.4-1.5-3.9c1.1-0.3,0.7,1.1,1.9,1.1c-0.5-2.6-0.6-5.1,0.2-7.5c0.2-0.8-0.1-1.9-1.3-2c-1.9-0.3-1.3-1.6-0.8-2.4
			c1.1-1.5,1.8-3.4,2.9-4.6c2-2.1,1.4-3.9,0.2-5.7c-0.7-1-1.1-2-1.1-3.3c0-4.5-0.2-9.1,0-13.6c0.1-1.7-1.5-1.6-2.1-2.6
			c-1.2-2.3-0.4-4.7-0.5-7.2c0.8,0.1,0.3,1.3,1.1,1.2c0.6-0.1,0.7-0.8,0.7-1.2c-0.2-3.3,0.7-6.3,1.6-9.4c0.5-1.8-1.6-2.7-1.3-4.4
			c0.4-2.5,0.3-5,0.9-7.4c1.7-5.9,1.3-11.9,1.3-17.8c0.1-5.1,0.2-10.1,0.3-15.2c0-0.6,0.1-1.5,0.5-1.6c4.6-2.2,3.1-6.6,3.3-10
			c0.2-3.4-0.3-6.7,0.9-10.2c0.8-2.2,1.9-5.8-1.7-7.8c-0.5-0.3-0.6-1.4-0.7-2.2c-0.5-2.5,1.2-4.8,0.6-7.3c-0.2-0.9,0.8-1.7,1.8-2.1
			c2.7-1.1,3.5-2.6,2.3-5.2c-0.6-1.3-0.5-2.2,0-3.3c0.3-0.5,0.7-1.3,0.5-1.7c-2.5-3.8,1-8.1-0.5-11.5c-1.5-3.4,0.3-5.8,0.6-8.6
			c0.1-0.9,0.5-1.3,1.4-1.7c1.5-0.6,2.1-1.9,2.4-3.5c0.5-3.1,1.2-6.2,1.7-9.3c0.2-0.9,0.4-1.1-1-1.5c-2-0.5-1.3-2.9-0.2-4.1
			c1.1-1.2,1-2.3,1.2-3.7c0.3-2.2,1.4-4.3,2.1-6.5c0.2-0.6,0.7-1.4,0.5-1.6c-2.2-3,0.5-5.7,0.7-8.5c0.1-1.5,1.7-3.1,2.3-4.9
			c2.4-7.5,4.7-15,7.5-22.3c2.1-5.4,3.5-11.1,7.6-15.4c0.2-0.2,0.4-0.6,0.3-0.7c-3.2-4.9,3.6-4.3,4.2-7.3c0.2-0.9,1.9-0.2,1.7,1.1
			c-0.2,2.3-0.3,4.9-2.3,6.5c-1.6,1.2-0.2,2.8-1,4.1c-2.2,3.6-3,7.8-5,11.6c-1.4,2.7-2.3,6-3.3,9.1c-2.1,6.6-4.1,13.3-5.9,20
			c-1.7,6.5-2.6,13.1-3.6,19.7c-1.1,7.1-1.9,14.3-4.3,21.2c-0.2,0.6,0.2,2.7-1.9,1.1c-0.8-0.6-0.9,1.4-0.8,2
			c0.4,4.1,0.7,8.1,0.7,12.2c0,1.9,1.2,4.4,0.7,5.4c-2,4,0.4,8.4-1.7,12.3c-2.6,4.8-1.4,10.1-2.2,15.2c-1.4,9.1,0.1,18.5-3.6,27.3
			c-0.5,1.1,0.3,2.2,0.1,3.2c-0.3,1.9,1.3,4.4-1.4,5.8c-0.3,0.2,0.3,1.7,0.2,2.6c-0.4,6.1-0.2,12.3-1.6,18.4
			c-0.8,3.9,0.7,8.1,0.5,12.2c-0.1,1.4,0,2.8-0.9,4c-0.8,1.1-0.8,2.4-0.2,3.4c1.3,2.4,1,4.8,1,7.3c-0.1,7.6,1.6,15.1,1,22.7
			c-0.3,4.5,0.4,8.9,0.6,13.3c0.1,1.3,0.4,3-1.9,2.7c-0.5-0.1-1,0.2-0.7,0.6c1.3,2,0.1,4.4,1.6,6.5c2.4,3.4,2.8,7.4,1,11.3
			c-0.3,0.6-0.5,1.3,0,1.6c3.2,2.1,1.8,5.6,2.5,8.4c0.4,1.5,0.4,3.1,0.8,4.6c1.5,6.4,2,12.9,3.4,19.3c1.1,5.1,1.4,10.3,2.1,15.5
			c0.2,1.7,1.1,3.3,1.6,5c1.2,4.3,0.4,8.7,1.7,12.9c0.3,1,0.3,1,1.4,0.9c1.4-0.1,3,0.3,2.8,2.7c-0.3,3.6,0.2,7.1,2.6,10.2
			c0.4,0.5,1.8,1.5,0.1,2c-1,0.3-2.6,0.7-3.2-1c-0.3-0.9,0.2-2.1-1.1-2.5c-0.9,2.5,0.6,4.9,3.3,4.9c1.4,0,2.1,0.1,2.1,1.6
			c0.1,2-0.8,4.3,2.5,5.1c1.6,0.4,0.3,6.4-1.5,7.4c-0.3,0.2-0.6,0.4-0.9,0.6c-2.7-1.2-1.9-3.4-1.6-5.6c-0.5,1.4-2.4,2.3-1.7,3.9
			c0.5,1,1.6,2.3,3.3,1.7c1.4,0.8,4.8,9.5,4.1,10.7c-0.5,0.8-0.8,2.7-2.4,0.8c-0.4-0.5-3.6,1.9-3.5,2.7c0.3,1.4,0.5,2.9,1.8,3.9
			c1.6,1.3,0.4,4.1,2.2,4.9c1.5,0.7,1.6,1.2,2,2.7c0.4,1.5,0.4,2.2-0.8,3.2c-1.5,1.2-2.1-0.3-3-0.8c-0.2-0.1-0.5-0.1-1.8-0.4
			c4.2,3.3,3,7.3,3.9,10.9c0-1.7-0.4-3.6,0.1-5.1c0.5-1.6,2-2.8,3.1-4.4c0.6,6.2,1.2,12.1,0.9,18.1c-0.1,1.3,0.2,2.7-1.8,3.2
			c-1.4,0.4-1.5,6.1-0.2,7.1c0.7,0.5,1,0.9,0.9,1.6c-0.2,4.5,1.4,8.7,1.5,13.2c0,2.2-2.3,4.6-1.6,5.2c1.7,1.6,1.6,3.3,2.2,5.2
			c1,3.2,0.7,6.6,3.2,9.5c1.9,2.2,0.3,5.6,0.6,8.4C75.6,755.3,72.2,755.3,68.8,755.3z M62.3,709.4c-0.6,1.8,1.6,3.3,0.2,4.9
			c-0.1,0.2,0.4,1.2,0.8,1.5c0.6,0.4,1-0.3,1.4-0.7C66.9,713.1,66.1,711,62.3,709.4z M56.9,639.8c-1,2-0.5,3.8,0.6,5.5
			c0.2,0.3-0.1,1.1,0.7,0.8c0.4-0.2,0.8-0.5,0.5-1.2C58.2,643.2,58.3,641.3,56.9,639.8z M70,727.1c-0.1-0.7-0.4-1.4-1-1.3
			c-1.1,0.2-1.5,1.2-1.8,2.1c-0.1,0.6,0.5,0.9,1,0.8C69.2,728.7,69.6,727.9,70,727.1z"/>
		<path d="M172.6,755.3c1-2.3,2-4.6,3.1-7.1c-1.3,0.1-1.6,1.2-2.3,1.5c-1.2,0.6-2.5,0.4-3.6-0.3c1-0.7-0.6-2.4,1.6-3.1
			c3-0.9,4.8-3.3,4-7.1c-2.9,2.4-4.4,6.1-7.9,7.7c-1.7-4.2,0.1-7.3,4.5-8c1.4-0.2,2.4-1.2,3-2.6c0.6-1.3-0.2-3.4,2.1-3.8
			c0.5-0.1,0.1-0.4-0.1-0.6c-2.4-3.5-0.7-6,2.2-8.2c0.5-0.4,0.9-0.8,1.7-1.4c-0.9,2.2,2.9,3.5-0.4,6c3-0.8,3-2.2,2.4-3.8
			c-0.3-0.7-1.2-1.2-0.4-2.1c0.7-0.7,1.5-0.5,2.3-0.6c3.5-0.6,3,1.9,2.7,3.5c-0.8,5.7,1.1,11.3-0.2,17c-0.2,0.9,0,1.7,0.8,2
			c1.5,0.6,1.9,2,3,3.8c-0.4-11.5,1.8-22.3-1.2-32.8c-1.7-5.9-3.9-11.7-5-17.8c-0.4-2.3-2.1-4-3.8-5.6c-7.1-6.5-14.2-13.1-20.8-20.2
			c-12-12.9-22.9-26.6-32.2-41.5c-4.8-7.8-8.3-16.4-11.4-25.2c-3.8-10.9-6.1-22.2-8.4-33.4c-1.4-6.7-3.4-13.3-4.6-20
			c-2-10.7-4-21.3-5.2-32.1c-1.6-14.6-2.7-29.2-2.1-43.9c0.5-10.6,1.9-21,3-31.5c0.5-4.5,1.2-9,0.9-13.7c-0.3-5.9,0.8-11.7,2.4-17.3
			c0.2-0.9,0.5-1.8,0.4-2.6c-0.3-3.9,1.4-7.3,2.5-10.8c0.3-1,0.2-2,0.4-2.9c1.2-4.7,3.4-9,4.5-13.8c0.8-3.6,2.8-6.7,3.3-10.6
			c0.7-5.1,3.6-9.2,9-11c0.9-0.3,1.5-0.3,2.1,0.4c-0.4,0.4-0.8,0.8-1.2,1.3c0.4,1.6-0.3,2.8-1.1,4.1c-2.3,3.8-5.2,7.4-5.1,12.1
			c0,1.5-1.3,2.2-1.7,3.4c-1.8,5.4-3.9,10.6-5.2,16.1c-0.7,2.8-2.6,5.3-2.1,8.2c-1,0.6-1.7-1.1-2.6-0.1c-0.3,0.3-0.7,0.7-0.6,1
			c0.1,1,0.6,0.2,1,0.2c1.3,0,0.9,1.1,1,1.8c0.4,3,0.2,6-0.4,8.9c-1.8,8.9-1.3,18.1-2.8,27c-1.2,7.2-1.4,14.5-2.4,21.7
			c-0.9,6.9-0.8,14-0.6,21c0.3,9.3,0.9,18.5,2.1,27.7c0.9,6.8,1.3,13.8,3,20.4c2.2,8.4,3.4,16.9,5.5,25.3c1.6,6.3,2.4,13,4,19.3
			c1.4,5.8,2.6,11.8,4.7,17.5c2.1,5.6,3.9,11.2,6.3,16.6c3.7,8.3,8.7,15.8,13.8,23.3c10.6,15.6,23,29.5,36.6,42.5
			c3.5,3.4,7.4,6.4,10.8,10c0.7,0.8,1.4,1.5,1.6,2.5c1.4,7.4,4,14.3,6.2,21.5c1.4,4.5,0.7,9.2,0.7,13.7c0,8.9-0.5,17.8-0.8,26.6
			c-1.6,0-3.2,0-4.8,0c0-1.2,0-2.4,0-3.9c-1,0.4-0.4,3.3-2.4,1.4c-0.6,1.3-3.3,0.1-3,2.5C181,755.3,176.8,755.3,172.6,755.3z
			 M181.8,731.9c-1.9,1.9,0.9,5.1-2.3,6.2c-0.1,0,0,0.4,0,0.6c0.5,1.5,0.7,3.3,2.4,4.3C182.7,739.2,182.9,735.7,181.8,731.9z"/>
		<path d="M533.8,755.3c0.3-0.6,1.5-0.6,1.3-1.5c-0.2-0.7-1.2-0.6-1.8-0.8c-2.8-0.5-5.5-1.5-8.5-1.5c1.2-1.2,2.9-0.3,4.4-1.3
			c-2.1-1.7-4.3-0.4-6.7-0.5c1.3-1.8,2.9-1.4,4.3-1.4c1.4,0,2.3-0.2,1.6-1.7c-0.7-1.4,1.1-1.4,1.1-2.3c0.5,0,1.1-0.1,1.4,0.1
			c1.2,0.9-0.5,1.5-0.4,2.6c1.1-0.4,2-0.8,3,0.4c1.6,1.8,3.6,3.5,6.2,3.5c3.3,0,5.8,1.2,7.1,4.3
			C542.6,755.3,538.2,755.3,533.8,755.3z"/>
		<path d="M389.8,755.3c0.2-1.9-0.4-2.5-1.9-1.1c-0.9-0.7,1.1-1.4-0.2-2c-1.1-0.5-0.6-1.4-0.2-2c0.5-0.8,1.1-0.3,1.8-0.1
			c2.7,0.8,1.2-1.7,2-2.6c0.4,1.6,0.1,3.1-0.1,5c1.5-2.6,2.6-1.2,3.8-0.2c1.1,1,2.1,2.1,3.2,3.1
			C395.4,755.3,392.6,755.3,389.8,755.3z"/>
		<path d="M502,755.3c0.6-0.9,1.8-1.2,2.1-2.4c0.4-1.7,1.5-0.9,2.2-0.5c0.9,0.5,3.1,0.1,1.7,2.3c-0.2,0.2-0.4,0.4-0.6,0.6
			C505.6,755.3,503.8,755.3,502,755.3z"/>
		<path d="M352.6,755.3c-0.2-1-1.3-0.7-1.8-1.3c-0.6-0.6-0.6-1.5-0.1-2.2c0.6-0.9,1.4-0.3,1.7,0.1c1.2,1.5,3.4,1.6,4.4,3.3
			C355.4,755.3,354,755.3,352.6,755.3z"/>
		<path d="M124.6,755.3c-0.9-2.1,0.8-2.5,2.1-3.1c0.2-0.1,0.6,0,0.9,0c0.8,0.1,1.7,0.1,2.6,0.2c-0.3,1.6-2.2,1.5-2.6,2.9
			C126.6,755.3,125.6,755.3,124.6,755.3z"/>
		<path d="M338.8,755.3c-0.4-0.9-2.3-1.3-0.7-2.7c1.2-1.1,1.7,0.4,2.3,0.9c0.6,0.5,1,1.2,1.4,1.8
			C340.8,755.3,339.8,755.3,338.8,755.3z"/>
		<path d="M586.7,748.1c-0.6-0.4-0.4-0.8,0-1.2C586.7,747.3,586.7,747.7,586.7,748.1z"/>
		<path d="M507.4,755.3c0.2-0.2,0.4-0.4,0.6-0.6c0,0.2,0,0.4,0,0.6C507.8,755.3,507.6,755.3,507.4,755.3z"/>
		<path d="M408.2,171.2c-1.2,0.4-2.2,0.9-3.2,1.1c-2,0.4-3.6-1.1-3.1-3.1c0.3-1,1.2-1.9-0.1-2.8c-1.2-0.9-2.7-0.5-3.4,0.1
			c-2.5,2.4-4.2,0.7-5.7-0.9c-2.9-3-5.5-6.2-8.4-9.2c-2.2-2.3-4.7-4.3-7.1-6.4c-2.6-2.3-5.4-4.4-7.8-6.9c-2.5-2.5-6.3-2.8-9.3-4.6
			c-1.5-0.9-3-1.8-4.6-2.6c-6.1-2.8-12.9-3.2-19-5.9c-1-0.5-3.4,0.1-2.4-2.6c0.3-0.8-1.2-0.8-1.8-1.1c-2.9-1.4-6,0-9.1-0.6
			c-2.4-0.5-4.5-1.7-6.9-1.9c-8.9-1-17.7-2.1-26.7-2.7c-6.3-0.5-12.6-1.6-18.9-0.4c-3,0.6-5.9,1.4-9.1,0.9c0.1,0.9,2.2,1.2,0.5,2.2
			c-0.2,0.1-0.6,0.2-0.9,0.2c-6.5-0.7-12.7,1.9-19.1,2.2c-1.4,0.1-2.7,0.1-3.7,1.4c-0.6,0.8-1.8,1.1-2.9,1.3c-2.7,0.6-5.6,0.4-8,2.5
			c-1.4,1.2-3.7,0.6-5.6,0.4c-3.9-0.4-6.8,1.7-9.9,3.5c-0.3,0.2-0.5,0.6-0.9,0.8c-6.6,2.5-12.4,7.4-20.1,7.4c-1.6,0-4.6,0.3-3.7,3.9
			c0.4,1.4-1.1,1.9-2.4,2c-5.6,0.4-10.2,2.5-13,7.7c-0.4,0.7-1,0.9-1.7,1c-3.8,0.8-6.9,2.7-9.1,6c-0.3,0.5-0.7,1-1.2,1.3
			c-4.6,2.3-7.6,6.9-12.5,8.9c-1.6,0.7-2.9,2.1-3.8,3.7c-2,3.6-5.1,6.3-7.6,9.5c-1.9,2.5-4.5,4.5-6.8,6.6c-0.5,0.5-1.2,0.8-1.4,1.5
			c-1,5.7-5.5,9.3-8,14.2c-1.6,3.2-3.8,6.2-5.7,9.2c-1.2,1.8-2.2,3.9-3.8,5.2c-3.4,2.8-4.7,6.9-6.9,10.4c-1.3,2.1-3.2,3.8-4.3,6.1
			c-2.8,6-7.2,11.1-9.6,17.3c-1.1,2.9-3.4,5.3-3.8,8.5c-0.1,1.1-0.7,2.3-2.2,1.6c-1.2-0.5-2.1-1.3-2-2.9c0.6-6.5,4.1-11.8,7.1-17.2
			c3.8-6.8,7.9-13.4,11.8-20.2c2.2-3.7,5.2-6.7,7.6-10.1c3-4.3,5.9-8.7,8.9-13c1.5-2.1,3.2-4.1,4.7-6.2c1.8-2.5,3.1-5.3,4.3-8.1
			c0.8-1.7,2.7-2.2,3.8-3.7c2.3-2.9,4.2-6.2,7.1-8.7c1.5-1.3,1.8-3.5,3.3-4.9c1.7-1.6,3.2-3.5,5.6-4.3c1-0.3,1.8-1.4,2.7-2.2
			c3.9-3.4,8.4-6,12-10c1.2-1.4,3.8-3.8,7-3.2c1.4,0.3,1.3-1.9,2-2.9c2.5-3.2,6-4.4,9.6-5.6c0.7-0.2,1.4-0.3,2-0.6
			c0.6-0.4,1.4-1,1.2-1.9c-0.2-0.9-1.3-0.3-1.9-1c2-0.2,3.6-1.1,5.1-2.2c1.9-1.2,3.8-2.1,6.4-1.8c3.7,0.4,7.4-0.1,9.7-3.8
			c0.2-0.3,0.6-0.6,0.9-0.7c4.2-0.3,6.9-3.7,10.5-5.2c2.4-1,4.8-0.9,7.2-0.8c0.4-1.2-1.1-0.8-1-1.8c2-0.7,4.2-0.9,6.4-0.6
			c3.1,0.3,6.2,0,8.7-2.3c0.7-0.6,1.5-1,2.5-1c5.4,0.2,10.4-2,15.5-3.3c4.8-1.3,9.6-1.4,14.4-2.1c6.8-1,13.6-1.9,20.5-0.9
			c1.3,0.2,2.5,0.4,3.8,0.7c1.6,0.3,3.2,2.2,4.9-0.2c0.3-0.4,2.5-0.4,3.6,0.5c1.9,1.5,4.1,1.3,6.2,1.1c0.2-1.1-1-1.2-1.1-2.1
			c1.8-0.2,3.7-0.4,4.8,1.4c1.1,1.9,2.6,1.8,4.5,1.8c5.2-0.1,10.9-1.2,15.6,1.1c3.2,1.6,6.4,1.3,9.4,2.4c1.3,0.5,2.9,1.6,2.6,3.5
			c-0.2,1.2,0.6,1.6,1.3,1.5c3.7-0.3,6.4,3.6,10.3,2.5c0.4-0.1,1.1,0.5,1.5,0.9c1.5,1.2,2.6,0.9,3.1-0.9c0.5-1.7,1.2-1.2,2.4-0.6
			c5.6,2.9,9.4,7.8,14.2,11.6c4.2,3.3,8.3,6.8,12.3,10.4c2.5,2.2,4.8,4.7,6.9,7.3c3.4,4.3,3.9,4.5,8.7,2.4c0.9-0.4,1.7-1.5,2.6-0.5
			c1,1.2-0.6,1.6-1.2,2.3c-1.1,1.5-2.5,3.3,0,4.3C405.9,167.6,407,169.2,408.2,171.2z"/>
		<path d="M470.6,343.8c1.5,1.9,1.5,3.9,0.8,6.2c-0.4,1.4-2.2,3.2,0.5,4.5c0.4,0.2,0.2,1.5,0.3,2.3c0,0.6-0.2,1.6,0,1.7
			c4.9,2.2,1.3,6.8,2.8,9.9c0.2,0.3-0.1,0.8,0,1.2c0.3,1.1-1,2.8,0.7,3.1c1.3,0.2,0.5-1.9,2.1-3c-1.1,3.9,1.2,7.5-1.3,10.8
			c-0.5,0.7-0.2,1.2,0,1.9c1.1,2.9,1.5,6,1.4,9.1c-0.1,4.8,1.4,9.4,1,14.2c-0.3,2.8-0.6,5.7-0.3,8.6c0.6,7.3-0.1,14.7,0.1,22
			c0.2,5.7,1.9,11.4,2,17.2c0.2,12.5,1.1,24.9,1.5,37.3c0.3,9.5,0.6,18.9,0.5,28.4c-0.1,10.9-2.1,21.6-5.1,32.1
			c-2.1,7.4-4.3,14.8-6.9,22.1c-3.2,8.9-6,17.8-9.4,26.6c-1.5,4-2.4,8.3-4.4,12c-2.9,5.2-4.9,10.8-7.8,16
			c-4.6,8.1-10.1,15.5-16,22.6c-4.3,5.3-9.2,10.1-13.9,15.1c-1.5,1.6-2.7,3.7-5.3,3.9c1,2.9-2.9,2.1-2.8,3c0.2,2.3-1.3,3.2-2.5,4.3
			c-3.6,3.2-6.9,6.7-10,10.3c-1.4,1.6-4,0.2-5.7,1.8c0.9-3.3,2.1-6.1,5.5-7.6c1.5-0.7,2.2-2.4,3.4-3.6c5.7-5.9,11.1-12.1,16.9-17.9
			c7.3-7.3,13.3-15.7,19.3-24c5-6.9,8.8-14.5,12.3-22.3c4.7-10.3,8.3-21,12-31.7c3-8.5,5.6-17.1,8.5-25.6c6.1-17.9,8-36.3,7.2-55.1
			c-0.7-16.2-0.7-32.4-2.2-48.5c-0.9-10.7-2.2-21.4-1.8-32.2c0.3-6.2,0.1-12.4,0.1-18.5c0-4-1.1-8.1-1-12.1c0-0.4-0.2-1.2-0.6-1.3
			c-2.7-1.2-2-3-1.8-5.5c0.5-5.9-0.5-11.9-1.5-17.8c-0.1-0.7-0.7-0.6-1-0.9c-1.3-1.2-2.6-2.7-1.6-4.4c1.8-3,0.2-5.1-1.2-7.3
			c-1.8-2.8-0.1-5.2,1-7.4c0.4-0.9,0.1-3.9,2.9-2.6C469.4,343.3,470,343.6,470.6,343.8L470.6,343.8z"/>
		<path d="M199.1,607.1c7.3-0.3,14.6,0.9,22,0.9c-0.6,1.5-1.9,0.5-2.9,1.4c8.7,1.5,15.8,6.8,24.4,8.2c4.5,0.7,9.1,0.1,13.7,0.6
			c-0.8-0.1-1.7-0.2-2.9-0.4c2.6-1,5.1-0.7,7.2-1.9c1.1-0.7,1.4,0.9,2.5,1c2.4,0.2,4.5,0.5,7-0.1c4.9-1.2,9.8,0.3,14.5,1.3
			c3,0.6,6.4-0.1,9.1,2.1c0.7,0.6,2.3-0.1,2.4-0.6c0.7-2.3,2.5-2.5,4.1-2.1c1.8,0.5,2.3,2.5,3,4.1c0.3,0.6,0.3,1.4,0.4,2.1
			c-4.2,1.3-8.3-0.1-12.4-0.9c-5.8-1.2-11.5-3.3-17.5-2.6c13.5,2,26.6,7.5,40.7,4.2c-0.1-0.1-0.2-0.3-0.4-0.3
			c-1.1-0.1-3,0.2-2.9-1.3c0.1-1.8,2-0.7,3-0.7c6.2-0.1,12.5-0.3,18.7,0.4c1.1,0.1,2.4-0.8,3.5-1.5c0.9-0.6,1.8-1.1,2.8-0.6
			c4.3,2.2,7.9-0.6,11.6-1.7c1.6-0.4,3.2-0.9,4.7-0.6c4.1,0.8,7.7-0.4,11.3-1.9c3.6-1.6,7.7-1.9,11.1-4.2c2-1.4,3.6,1,4.6,2.1
			c0.9,1-0.2,2.5-1.9,2.9c-1,0.3-1.2,0.7,0.2,1c0.8,0.2,0.2,1.3-0.1,1.5c-1.7,1.1-2.2,3.2-4.2,4.1c-1.4,0.6-2.7,1.8-3.8,3.2
			c-1.2,1.7-3,2.6-5.2,2.2c-1-0.2-2.2-0.5-2.7,0.7c-0.5,1.3,1.5,0.6,1.5,1.7c-1.4,1.3-2.3,0.4-3.1-0.7c-0.8-1.1-0.7-1.9,0.4-2.8
			c0.6-0.5,1.1-1.1,1.4-1.8c0.2-0.4,0.1-1.6-0.7-1.2c-2.5,1.2-5.4,0.7-7.9,2.2c-5.3,3.1-11.2,4-17.2,4.2c-2,0.1-3.6,1.5-5.6,1.6
			c-0.9,0-1.8,0.3-2.6,0.1c-1.9-0.5-2.9-0.1-1.8,3c-1.6-1.8-2.1-3.5-3.9-3.3c-0.2,0-1-0.4-0.4-0.7c1.6-0.9,0.7-1.2-0.3-1.2
			c-3.2-0.2-6.3-0.4-9.5-0.4c-0.5,0-2.1-0.9-2.1,1.1c0,0.6-1.4,0.4-2.1,0.3c-6.8-1.7-13.8-1.2-20.7-1.6c-4.9-0.3-9.9-0.6-14.3-3.2
			c-2-1.2-5.5-1-7.5,0.2c0.4,1,1.6,0.9,2.4,1.6c-0.8,0.4-1.5,0.8-2.2,1.2c-0.2,0.1-0.5,0.4-0.6,0.3c-3.7-2.6-4.6-2.9-12.3-3.3
			c-2.1-0.1-4-0.8-6.2-1.5c0.9-1.4,2.3-0.6,3.3-1.4c-0.2-0.8-0.9-0.9-1.6-0.9c-8.6,0.1-17.1-1.3-25.7-1.4c-0.8,0-1.6-0.2-1.7,1
			c-0.1,1.7-1.8,1.2-2.7,1.7c-0.3,0.2-0.9,0.1-0.8-0.5c0.1-0.3,0.7-0.5,1.5-1c-4.3,0.1-8-0.2-9.9-4.5c-0.8-0.1-1.3,0.9-2,1.2
			c-0.2-0.1-0.4-0.3-0.4-0.4c0.9-1.8,0.8-2.8-1.6-2.7c-1.3,0-2.8-1.7-3.1-3.2c-0.1-0.8-0.6-1.6-1.3-1.3c-4.3,2.3-5-1.5-6.7-3.7
			c0.3-0.1,0.5-0.3,0.8-0.4C198.1,607.5,198.6,607.3,199.1,607.1z M219.1,616.3l0.1,0c0.8-0.4,0.7-1,0-1.3c-1.7-0.7-3.3-1.4-5.2-1
			C215.7,614.9,217,616.5,219.1,616.3z M371.8,619.9c-1.8,0.4-3.5,0.9-5.2,2C369.4,623.3,370.5,621.3,371.8,619.9z"/>
		<path d="M229.7,449.3c3,1,6,0.9,9.5,0.7c-1.4-1.6-0.9-3.8-2.6-5.1c-0.9-0.6-0.2-1.2,0.3-1.7c0.5-0.5,1.2-1,1.8-0.2
			c1.6,2.6,4.7,4,5.6,7.2c0.7,2.7-1,5.1-3.6,4.6c-7.7-1.6-15.5-0.4-23.2-0.2c-7.3,0.1-14.7,1.2-22.1,0.1c-3.9-0.6-7.9,0.1-11.9-0.6
			c-4.7-0.8-9.1-1.7-12.1-5.6c-2-2.7-4.6-2.8-7.3-2.5c-3.1,0.4-6.1,0.1-9.1,0.1c-3.4,0-6.8,0-10.1,0.5c-0.6,0.1-1.7,0.4-1.8-0.4
			c-0.2-0.8,0.1-1.8,1.3-1.9c0.9-0.1,1.1-0.5,1.1-1.4c-0.1-3.6,1.6-5.6,5-6.4c5-1.2,9.7-2.8,13.6-6.3c0.4-0.4,1-0.9,1.5-0.9
			c3.4,0,5.3-3.1,8.3-3.9c1.9-0.5,1.7-2.9,3.5-3.5c0.6-0.2,1.2-1.8,1.8,0.1c0.2,0.7,1.1,0.1,1.6,0.1c3.3-0.2,6.5-1.5,10-0.7
			c1.6,0.4,3.5-0.7,5.2-0.8c0.9,0,2.4-0.4,2.8,0.5c0.3,0.7-0.2,2.1-0.8,2.8c-1.7,2-0.5,2.2,1.1,2c5.2-0.6,10.2,0.4,15.3,1.2
			c3.4,0.6,5.7,3.5,8.9,4.6c0.8,0.3,0,1,0,1.6c-0.2,2.7,0.8,3.4,3.3,2.5c2.2-0.8,5.1,1.6,4.7,4.4c-0.4,2.6-0.3,5.1-0.5,7.6
			C230.5,448.4,230,448.9,229.7,449.3c-4.5,0-4.5,0-3.1-4.3c0.1-0.2,0.1-0.4,0.2-0.6c0.4-1.4,0.4-2.7-0.7-3.9
			c-0.4-0.4-1-0.8-1.3-0.5c-1.1,1-1.8,2.2-1.8,3.9c-0.1,5.7-1.7,6.7-7.5,4.6c1.2-1.2,2.6-2.3,2.7-4.2c0.2-2.2,0.4-4.4,0.7-6.5
			c0.1-0.9,0.3-1.8-0.7-2c-1-0.2-1.4,0.5-1.9,1.4c-1.3,2.7-0.6,7.4-6,6.1c-0.3-0.1-0.6,0.5-1,0.7c-2.3,1.3-8.3-1.1-9-3.6
			c-0.6-1.9,0.5-5.4,1.8-5.6c1.9-0.3,3.8-0.8,5.6-0.4c2.4,0.5,3.5-0.5,4.3-2.9c-2.9,1.9-6,0.2-8.8,0.8c-1.6,0.3-2.7-1-4.2-0.2
			c-2.1,1.1-4.3,2.3-6.7,2.7c-0.8,0.1-1.6,0.5-1.7,1.5c-0.1,1,0.8,1.3,1.5,1.6c1.5,0.6,1.3,1.2,0.7,2.5c-1.1,2.3,1.3,9,3.3,9.1
			c4.9,0.2,9.8,2.1,14.8,0.5c1-0.3,2.2-0.4,3.2-0.2c4.6,1,9.2,0.4,13.7,0.5C228.6,450.2,229.2,449.9,229.7,449.3z M183.4,432
			c-2.1,2.4-4.9,3.8-7.9,5c-3,1.2-3.2,2.3-1.1,4.5c0.5,0.6,1.3,1.5,1.2,2c-0.8,2.3,1.2,3.1,2.3,3.6c3,1.3,6.2,2,9.3,2.9
			c0.8,0.2,1.5-0.1,2-0.9c0.5-0.9-0.2-1.2-0.6-1.7c-2.1-2.4-3.1-5.4-2.9-8.5C185.8,436.2,185.7,433.8,183.4,432z M161.6,438.9
			c1.1,2,3.4,2.8,5,1.7c0.9-0.7,1.2-1.8,1.2-2.8c0-0.6-0.7-0.7-1.1-0.3C165.1,438.6,163.2,438.2,161.6,438.9z M190.7,430.2
			c-0.3-1.3-0.4-2.5,1-3.3c1.4-0.8,2,1.8,3.3,0.7c-1.7-2.4-3.2-2.8-5.3-1.1C187.3,428.4,190.2,429,190.7,430.2z M231.1,451.3
			c1.9,3,4.6-0.3,6.2,1.7C236,450.2,233.6,451.8,231.1,451.3z"/>
		<path d="M370.2,436.2c2.2-0.4,3.9-1.1,5.4-3.2c1.1-1.6,3.7-2.5,5.8-3.2c5.8-1.9,11.8-2.4,17.9-1.8c0.4,0,0.9-0.1,1.1,0.1
			c2.1,1.8,2.8,1.6,4.1-1.3c0.3-0.7,0.8-1.3,1.5-1.2c2.9,0.3,5.8,0.4,8.6,1.5c2.5,0.9,4.7,2.7,7.5,2.7c0.9,0,1.5,0.1,2,0.9
			c0.8,1.2,2.3,1.6,3.4,2.4c5.2,3.6,11.2,5.8,16.1,9.9c0.7,0.6,1.5,0.8,2.2,0.7c2.9-0.2,3.4,2.4,4.8,3.9c0.5,0.5-0.1,1.6-0.7,1.7
			c-1.4,0.3-2.5,1.9-4.1,0.9c-1.7-1-3.3-2.1-4.9-3.2c-0.3-0.3-0.7-0.6-1-1c-0.1-0.2-0.3-0.4-0.4-0.4c-4.8,0.3-7.6-3.9-11.8-5.3
			c-0.3,1.1,0.6,1.6,1.1,2.2c1.1,1.3,0.5,2.5-0.4,3.5c-1.2,1.3-1.6-0.1-2.2-0.8c-0.3-0.3-0.5-0.6-1-0.4c-0.4,0.2-0.5,0.6-0.3,1
			c0.5,1.3,3.5,1.8,1.1,4.2c-1.8,1.9-3.3-0.2-5,0.2c0-1.1,0.8-1.8,1.4-2.5c2.2-2.3,2.1-3-0.5-4.9c-3.9-2.9-7.8-5.9-11.6-8.9
			c-0.4-0.3-0.6-0.6-0.9-0.2c-1,1.3-2.5,2.7-1.6,4.5c2.7,5.6-1.2,9.6-3.5,13.9c-0.4,0.7-1.2,1.5-2.3,0.9c-1.1-0.5-1.3-1.3-1-2.5
			c0.4-1.7,0.6-3.5,1.2-5.2c1.1-3.2,1.5-6.4,0.3-9.9c-1.5,1.1-2.5,2-2.3,4c0.2,1.5-0.4,3.2-1,4.6c-0.5,1-1,3.4-3,1.1
			c-0.6-0.7-1-0.1-1.4,0.3c-1.8,2-3.8,2.7-6.7,2c-2.3-0.5-4.6-1.7-6.9-1.3c-2.6,0.4-4-0.3-4.4-3c-0.2,0.9-0.3,1.7-0.1,2.4
			c0.3,1.8,1.3,3.4,2.4,4.8c1.1,1.4,1.6-0.8,2.7-0.8c1.2,0,1.9,0.5,2.5,1.3c1.2,1.5,2.7,2.4,4.7,2.6c2.5,0.3,5,0.4,7.4,0.5
			c1.1,0.1,2.1,0,3.1,0.8c2.1,1.9,4.7,0.9,7.1,1.2c1.5,0.2,1-1.5,2-1.8c0.5-0.2,0.9-0.7,1.3-0.6c4.2,0.3,7.6-2,11.2-3.4
			c-1.3,2.6-2.5,5.4-6.1,5.5c0.8,1.7,2,1.7,3.4,0.9c0.3,1.1-0.3,1.3-0.9,1.4c-6.8,1.5-13.6,1.8-20.5,1.6c-7.2-0.1-14.3-0.5-21.4-0.9
			c-0.9,0-2.4,0.7-2.3-1.3c0-0.1-1.6-2.8-3.1-0.5c-0.5,0.8-1.2,0.6-1.8,0.2c-0.4-0.2-0.8-0.8-1.2-0.8c-5.4-0.5-2-2.9-1-4.7
			c0.4-0.8,0.8-1.6,1.2-2.3c0.5,0.3,1.1,0.6,1.4,1c1,1.1,2.2,1.8,3.4,1c1.4-0.9-0.4-1.6-0.4-2.5c0-0.5,0.2-1.1,0-1.5
			c-1.1-2.4,0.2-5.5-2.4-7.3C369.2,438.4,368.8,437.2,370.2,436.2z M392.8,434.1c-1.3-1.1-1.8,0-2.2,0.9c-0.4,0.8-0.6,1.5-1.7,0.8
			c-5.4-3.4-8.1,1.9-12,3.5c1.6,0.1,3.1-0.5,3.9,1.6c0.8,2.2,1.9,2,3.4,0.2c1.2-1.4,2.4-3.2,4.7-3.3
			C391.4,437.9,392.5,436.4,392.8,434.1c0.9,0.7,1.8,1.5,2.7,2.2c0.6,0.4,1.9,0,1.4-0.4c-1.6-1.6,0.9-3,0.3-3.5
			c-1.6-1.4-2,1.7-3.6,1.4C393.3,433.7,393,434,392.8,434.1z"/>
		<path d="M411.7,377.2c0.8,1.7-0.2,2.8-1.4,4.1c3,1.1,6,1.2,9,1.6c-0.3-1.2,0.2-2.6-1.5-3.2c1.7,0.5,3.6,0.4,4.3,2.4
			c0.4,1,1.5,1.4,2.2,1.3c3.7-0.3,7,1.2,10.4,2.4c1.1,0.4,2.2,0.1,3.2,0c2-0.2,2.4,0.4,2.9,2.4c0.1,0.6,0.8,1,1.8,2.1
			c-4.5-0.6-8.5,0.2-12.4-1.2c-2.8-1-5.4-1.8-8.2-0.2c-1.4,0.8-2.5-0.9-4.2-0.5c-3.9,0.9-7.9,0.3-11.8-0.2c-1.1-0.1-1.4,0.6-2.1,0.7
			c-0.5,0.1-1,0.1-1.3-0.4c-0.3-0.7,0.1-0.8,0.7-0.8c0.4,0,0.5-0.4,0.2-0.6c-0.3-0.2-0.9-0.3-1.1-0.1c-3.5,2.1-7.6,2.1-11.3,3.2
			c-3.1,0.9-5.7-1-6.7-4.3c-0.5-1.7,0-2.5,1.3-3.3c0.5-0.3,2.2-0.7,1.4-1.3c-0.8-0.5-0.9-2.1-2.4-1.7c-1.1,0.3-2.5-0.2-3.5,0.2
			c-1.2,0.5-2.1-0.5-3.2-0.4c-0.1,0.9-0.3,1.8-0.4,2.7c-0.4,0-0.9,0-1.3,0c-1.8-2.7-4.7-2.9-7.4-2.8c-0.8,0-2.8-2-3.2,0.7
			c-0.6-0.5-1.4-0.9-1.7-1.5c-0.5-0.9-0.3-1.9,0.8-2.5c1.8-1,3.7-1.8,4.3-4.1c0.2-0.6,0.7-0.7,1.1-0.2c1.4,1.4,2.3,0.4,3-0.8
			c0.6-1,0.6-2.5,2.2-2.6c2.1-0.1,4.4-0.7,6.1,0c2.8,1.2,5.6,2,8.7,2.2c0.2,0,0.4,0,0.7,0.1c0,0,0,0,0,0c0.1,0.2,0.3,0.3,0.4,0.5
			c1.5,0.7,3.3,1,4.5,0.3c2.2-1.3,3.6-0.3,5.1,1c0.6,0.5,1.6,0.8,2.2,0.6c3-0.8,4.6,0.9,6.2,2.9c0.3,0.3,0.9,0.4,1.3,0.7
			C411.1,376.9,411.4,377.1,411.7,377.2z M401.4,377.2c-1,0-2,0.3-2.6,1.1c-1,1.2-0.4,2.8-0.8,4.2c1.1,0,2.1,0.4,3.1-0.5
			c1-1,0.9-3.2,3.3-2.8c0.5,0.1,0-0.6-0.3-1C403.4,377.3,402.4,377.2,401.4,377.2z M390.1,384.7c1.7-0.1,3.4-0.4,3.4-2.3
			c0-1.2-1-3-2.3-2.8c-1.7,0.2-3.1,1.8-3.4,3.6C387.7,384.2,388.9,384.8,390.1,384.7z"/>
		<path d="M170.2,383.9c-0.9-4.1,1.3-6.3,4.6-7.8c0.7-0.3,1-0.9,1-1.6c-1.2-1-3.1,1.8-3.5-0.5c-0.3-1.4,1.5-2.2,3.1-2.4
			c0.4-0.1,0.9-0.5,1.1-0.9c2-3.4,5.8-3.4,8.9-4.6c1.5-0.6,2.9,0.3,3.5,1.6c0.6,1.4-0.5,2.4-1.9,2.8c-0.2,0.1-0.4,0.1-0.6,0.2
			c-0.9,0.7-3.2,1-2.6,2.1c0.9,1.8,2.4-0.8,3-0.5c3.4,1.2,6.8-1.5,10.1,0.3c0.6,0.3,0.9,0.7,1.1,1.2c0.6,1.3,1.2,2.3,3.1,1.8
			c0.9-0.2,2.4,0.5,2.3,1.7c-0.1,1.3-1.6,0.9-2.5,0.8c-2.1-0.2-4.2-0.4-6.2-0.8c-0.9-0.2-1.2,0.2-1.7,0.7c-1.1,1-1.8,2.5-4,3.1
			c4.2,0.8,7.8,0.5,11.3,0.3c5.4-0.3,10.1,1.6,14.8,4c2.2,1.1,1.7,3,1.1,4.3c-0.6,1.5-2.5,0.4-3.1-0.1c-2.4-2.1-5.4-2.5-8.2-3.4
			c-4.2-1.3-8.2-0.3-12.3,0.7c-0.8,0.2-1.5,0.6-2.3,0.3c-3.9-1.7-7.5-1.2-11.1,1.2c-1.4,0.9-3.3,0.2-4.9-0.5
			c-0.2-0.2-0.3-0.3-0.5-0.5c-0.3,0.1-0.7,0.2-1,0.4c-0.3-1.7-1.6-1.7-2.9-1.8c0,0,0,0,0,0c0.2-0.1,0.4-0.2,0.6-0.3
			c0.2-0.2,0.4-0.3,0.5-0.5c-0.3-0.5-0.5-0.9-0.8-1.4l0.1,0C170.5,383.9,170.3,383.9,170.2,383.9z"/>
		<path d="M175,240.1c1.6,0.4,2.7,1.3,3,0.4c1.1-2.4,4.2-3,4.9-6c0.3-1.3,0.1-2-0.7-2.5c-1.4-0.8-0.9,0.9-1.3,1.3
			c-1,1.3-6.5,2.8-7.7,1.7c-2-1.7-3,0.4-2.8,1.2c0.2,1.8-0.8,2.1-1.8,2c-1.3-0.2-1.9-1.3-1.7-2.7c0.3-1.7,1.8-2.5,2.7-3.8
			c0.9-1.3,4.5-3-0.4-3.8c-0.9-0.1-1.4-1.2-1.1-2.4c0.7-2.5,3.2-3.9,5.7-3.7c2.1,0.2,3.5-1.5,4.5-3.1c1.6-2.6,4.5-3.3,6.7-5
			c0.9-0.7,1.2,0.1,1.6,0.5c0.9,0.8,0.1,1.2-0.4,1.6c-1.8,1.1-2.4,3-3.8,5c3.2-0.6,4.7,1.1,6.1,3.2c0.6,0.9,1,1.7-0.7,1.5
			c-0.2,0-0.5-0.1-0.6,0c-1.7,1.5-1.9,1.7-3.7,0.3c-1.6-1.2-2.7-0.3-3.2,0.7c-0.6,1.5-1.5,2.1-3,2.5c-0.9,0.2-1.3,1.1-1.4,2.1
			c0,0.6,0.2,1.1,0.8,0.9c0.8-0.4,2,0.8,2.5-0.7c0.8-2.2,2-2,3.4-0.4c0.7,0.8,1.9,1.1,2.7,0.4c1.6-1.3,3.4-0.5,5.1-0.6
			c1.1,0,1.9,0.4,2,1.7c0.1,0.8-0.2,2.1,1.4,2.1c0.7,0,0.4,0.6,0.2,1.1c-0.9,2.1-1.8,4.1-3.9,5.4c-1.9,1.1-3.5,2.5-4.6,4.5
			c-0.4,0.8-1.2,1.8-2.1,2.1c-2.2,0.8-3,2.1-1.7,5c-1.8-1.4-3.1-2.2-4.6-0.5c1.4-2.3,1.7-4-1-5.2c-0.9-0.4-0.8-2-0.4-3.1
			C176,242.8,176.3,241.7,175,240.1z"/>
		<path d="M221.7,425.2c-1.3,1.2-2.3-0.2-3.2-0.6c-5.1-2.2-10.3-3.9-15.3-6.3c-3.5-1.7-7.4-1.2-10.9-0.7c-5.6,0.8-11.4,0.6-16.7,2.9
			c-4.9,2.1-9.7,4.3-14.4,6.8c-2.3,1.2-4.9,1.6-7.1,2.9c-1.1,0.7-2.9,0.2-3-1.4c-0.1-1.5,0.5-3.2,2.3-3.7c0.6-0.2,1.3,0.3,1.8-0.5
			c2.3-3.1,6.1-5.5,9.2-5.7c4.4-0.3,7.1-4.1,11.3-4c3.2,0.1,6.4,0,9.5-0.8c3.6-0.9,7.1-0.8,10.6-0.7c1.2,0,3.7-1.4,3.4,1.9
			c0,0.6,5.2,1.4,6.1,0.9c2.5-1.5,5.4-0.8,6.9,1.7c0.5,0.9,0.8,2.2,2.3,0.9c0.9-0.8,2.2-0.6,3.1,0.2c1.8,1.7,3.5,3.6,5.2,5.4
			C222.4,424.6,222.1,424.9,221.7,425.2z"/>
		<path d="M186.3,299.2c-0.6,0.2-1.1-0.8-1.9-0.4c-2.4,1.2-1.7-0.3-1.2-1.4c1.6-3.2,4.1-5.7,6.7-7.9c7.4-6.2,15.3-11.6,23.5-16.8
			c1.6-1,3.3-1.8,4.5-0.1c1.1,1.6-0.3,3.2-1.6,4.2c-4,2.9-8,5.8-12.1,8.5c-5.7,3.8-11.2,7.8-15.7,13.1
			C187.9,299.1,187.1,299,186.3,299.2z"/>
		<path d="M370.2,436.2c-1.4,0.9-1,2.2-0.6,3.4c-1.6,2.2-3.2,4.4-4.8,6.7c-0.3,0.4-0.5,0.8-0.8,1.2l0,0c-1.1,1.3-1.7,2.8-1.5,4.4
			c0.3,1.9-0.5,3-1.4,4.5c-1.4,2.4-2.4,1.6-3.8,0.4c-2.3-1.9-3.2-3.8-1.9-7c1.6-3.9,3.1-7.7,6.6-10.3c0.7-0.5,1.6-1.2,1.6-2.4
			c0-0.7,0.7-1.3,1.2-1c2.8,1.6,2.5-1.2,3.2-2.3c0.5-0.7,0.1-2.1,1.4-2.3c1-0.1,1.7,0.6,2.2,1.4c0.9,1.4-0.6,1.5-1.1,2.2
			C370.3,435.4,370.3,435.9,370.2,436.2z"/>
		<path d="M385.5,733.6c-2,3-5.4,3-7.4,5.3c-0.9,1-3.1,0.6-2.1,3.2c0.2,0.6-1.6,0.8-2.3,0.5c-1.9-0.7-3.7-0.5-5.6-0.5
			c-3.1-0.1-4.5,1.2-4.7,4.5c0,0.5-0.2,0.8-0.7,0.8c-2.8,0.4-5.6,0.8-8.4,1.2c-0.4,0.1-0.8,0-1-0.5c-0.2-0.4,0-0.8,0.4-1
			c1.7-1,2.5-3.1,4.4-3.7c1-0.3,1.4-1,1.6-2c0.4-2.5,2.2-3.4,4.5-3.5c1.1-0.1,2.2-0.2,3.3-0.1c3.4,0.4,6-0.5,8.5-3.3
			C378.5,731.9,382.2,733.4,385.5,733.6z"/>
		<path d="M181.6,583.2c-3.7,7.7-3,15.8-3.3,23.7c0,1,0.5,2.5-0.8,2.9c-1.2,0.4-1.8-0.8-2.6-1.7c-2.9-2.9-3-6.2-2.8-9.9
			c0.2-2.9,0.4-5.5,2.5-8c0.8-1,1.2-3.6,1.1-5.6c-0.1-1.5,0.8-1.7,1.6-0.9C178.9,585.4,180.2,584.8,181.6,583.2z"/>
		<path d="M253.6,635.7c-1.1-0.7,2.2-3.1-1.3-2.8c-0.6,0-0.5-1.9,0.5-2.7c1.2-0.9,2.4-1.6,4.3-2.9c-1.1,2.5-0.6,4.5,0.5,5.6
			c1.1,1.1,3,1.5,4.9,1.6c4.4,0.2,8.8,1.2,13.2,1.5c2.5,0.2,1.1,2.1,1.5,3.1c0.5,1.2-0.9,0.8-1.6,1c-4.6,1-9.1,1.7-13.6-0.6
			c-1-0.5-1.3-1.5-2.5-1.8c-0.8-0.2-1.3-1.1-2.1,0.1c-0.5,0.8-1.1,0.2-1.6,0c-0.5-0.2-0.5-0.7-0.1-1c0.5-0.5,1.4-0.8,0.5-1.6
			c-0.7-0.7-1.3-0.1-1.9,0.2C254.1,635.6,253.9,636,253.6,635.7z"/>
		<path d="M153.1,370.3c1.7-0.7,3.2-0.6,5,0.5c2,1.2,4.6-0.3,6.9,0.1c1.1,0.2,2.5,0.4,3.7,0.2c1.7-0.2,2.1,0.7,1.4,2.2
			c-0.9,1.9-2.7,3.2-4.4,2.9c-2-0.4-2.4,0.5-3,1.7c-1.3-0.9-2.1-2.4-3.7-2.9c-0.3-0.2-0.5-0.4-0.8-0.6c-1.1,0.4-1.2,1.3-1.3,2.3
			c-0.3,0.1-0.6,0.2-0.9,0.3c-2-0.2-3.1,2-4.5,2.1c-1.2,0-3.6,1.2-4.2-1.4c-0.6-2.4,1.3-3.2,2.6-4.3c1.1-0.9,2.8-1.1,2.9-2.9
			C152.9,370.3,153.1,370.3,153.1,370.3z"/>
		<path d="M284.1,564.8c0,1.1-0.3,2.3,0.9,2.9c1.1,0.6,0.9,1.3,0.3,2.2c-0.6,0.8-1.1,1.6-2.4,0.9c-2.5-1.3-5.1-2.1-7.7-3.1
			c-4.9-2-10-2.4-15.4-2.1c0.2-1.5,1.6-0.8,2.1-1.7c-1.4-1.6-3.6-0.7-5.3-1.7c6.4-0.6,12.7-1.8,18.9,0.8c2.3,1,4.9,0.7,7,2.5
			c1.4,1.2,0.7-1.1,1.3-1.4C284,564.4,284.1,564.6,284.1,564.8z"/>
		<path d="M218.2,224.9c0.9,0.1,1.9,0.2,2.8,0.3c-0.8,3.7-2.6,5.6-6.6,4.3c0,0-0.1-0.2-0.1-0.3c0.2-1,2.6-1.5,0.8-2.9
			c-1.5-1.2-3.1-3.2-4.9-0.1c-1,1.7-4.5,2.1-5.4,0.8c-0.8-1.2-0.9-2.5,0.3-3.7c1.3-1.3,1.7,1.1,2.8,0.3c0,0.9-0.5,0.8-0.8,0.9
			c-0.8,0.3-1.2,1.1-0.7,1.6c0.6,0.8,1.1,0.1,1.7-0.4c1.5-1.2,1-4.1,3.7-4.2c-0.4-1.4-0.8-2.4,1.1-3.4c1-0.5,1.8-1.1,2.9-1.1
			c0.9,0,2.2-0.4,2.1-1.3c-0.2-2.5,2.2-2.8,3.3-4.1c0.8-1,2.3-0.8,3.3,0c1.1,0.9,0,1.8-0.4,2.6c-0.5,0.9-1.8,1.4-1.4,2.8
			c0.1,0.5-0.2,0.9-0.6,0.7c-2.7-1.5-2.7,2.2-4.6,2.3c0.1,0.5,0.2,0.9,0.4,1.4c-1.2,0.4-3,0.5-2.1,2.5
			C216,224.9,216.7,226.4,218.2,224.9z"/>
		<path d="M543.6,697c3.8,2.5,2.6,6,3.1,9.1c0,0.2,0,0.4,0.1,0.6c1.4,1.7,0.2,3.4-0.9,3.6c-1.3,0.3-3.2-0.9-3.4-2.5
			c-0.4-2.6-1.5-4.1-3.6-5.7c-2-1.5-1.4-4.6-0.9-7.1c0.2-1-1.2-3.1,1.6-3c1.5,0.1,2.6,0.1,3.6,1.5c0.9,1.4,0.1,2.2-0.4,3.3
			c-0.2,0.4-0.4,0.8-0.7,1.3C543.3,698.4,543.5,697,543.6,697z"/>
		<path d="M445.4,305.9c0.6-1.5,0.6-2.8-1.3-3.4c-0.2,0-0.3-0.8-0.2-1.1c0.9-1.7,0.2-2.7-1.2-3.8c-0.7-0.5-1.5-1.6-0.5-2.6
			c1.1-1.1,1.9,0.4,2.4,0.8c1.5,1.4,2.8,3,5.2,2.8c0.4,0,0.9,0.4,0.7,0.7c-1.9,3.4,1.6,4.4,2.9,6.2c1.7,2.4,1,5.9-1.8,6.8
			c-0.4,0.1-0.8,0.3-1.1,0.2C449,312.3,445.4,307.6,445.4,305.9z"/>
		<path d="M426.3,421.7c1.2,0.9,3.7-0.3,4.1,2.4c0,0.2,0.6,0.5,1,0.5c3.6,0.2,6,1.9,8.3,4.7c0.6,0.7,2.7,1.4,3.8,2.7
			c0.2,0.2,0.7,0.3,0.7,0.5c0.2,1.2,1.7,2.5,0.7,3.4c-1.3,1.4-2.2-0.4-3.1-1.1c-0.9-0.8-1.7-1.7-2.6-2.5c-0.4-0.4-1-1.1-1.4-1
			c-4,1-6-1.5-8.1-4.3c-0.8-1.1-3.1-0.5-4.4-1.4c-0.8-0.6-2.3-0.5-2-2.1C423.7,421.7,425.2,422.1,426.3,421.7z"/>
		<path d="M195.3,607.5c0.6,2.4,1.3,4.5-1.3,6.6c-2.5,2.1-3.1,0.4-3.8-1.2c-0.5-1.2-0.1-3.3-2.1-0.7c-0.9,1.2-2.1-0.4-3.1-0.8
			c-0.9-0.3-0.9-1.2-0.5-2c0.6-1.2,1.2-1.2,2.3-0.4c0.5,0.3,1.8,0.3,2.1-0.5c0.3-1-0.2-1.8-1.3-2.3c-2.9-1.3-3-1.7-0.6-4
			c0.6-0.6,0.9-1.2,1.2-2c0.6-1.3,1.4,0.3,2.2,0.2c1-0.1,1.5,0.7,1.1,1.6c-1,2.8,1.1,3.7,2.8,4.8C194.7,607,195,607.3,195.3,607.5z"
			/>
		<path d="M412,374.9c1.1-4.9,5-6.3,9-3.1c1.3,1,2.8,1.4,4.3,1.9c1.7,0.6,3.9,0.9,3.5,3.6c-0.1,0.4,0.2,0.5,0.5,0.4
			c3.8-0.9,2.9,2,3.1,4c0,0-0.1,0.2-0.1,0.2c-1.5-1.1-3-2.4-5.1-1.9c-0.7,0.2-1.3,0-1.6-0.4c-1.8-2.1-4.6-2.3-6.8-3.5
			c-2.3-1.3-3.9-0.9-5.9-0.3C412.4,375.6,412.2,375.2,412,374.9z"/>
		<path d="M516.3,434.3c0.4,0.6,0.4,1.1,0,1.7c-1.1,1.3-1.1,2.4,0.2,3.6c1,0.9,1,2.1,0.6,3.3c0,0.1,0,0.3-0.1,0.4
			c-0.7,0.3-0.6,1.9-2.2,0.9c-1.6-1.1-2.8,1-4.7,1.8c2.2-3,1.2-5.9,0.6-8.6c-0.5-2.4-0.1-4.7-0.6-7c-0.5-2.6,1.8-3.1,3.3-3.9
			c0.9-0.5,1.9,1.6,1.4,3.4C514.2,431.8,514.2,433.3,516.3,434.3z"/>
		<path d="M214.6,381.5c1.3-1,3-0.4,3.3-2c0.4-1.6-1.6-1.1-2-2.2c3.4-1.7,3.7-1.6,4.3,2.6c1.2-3.9,4-3.1,6.4-3.2
			c1.4-0.1,2.9,0.3,4.4,0.2c0.5,0,2.6-0.5,1.1,1.5c-0.5,0.7,0,1.1,0.7,1.2c0.9,0.1,1.8-0.1,3,1.2C228.6,380.3,222,383.5,214.6,381.5
			z"/>
		<path d="M145.1,330c1.8,1.9-0.2,2.8-1.2,3.9c-0.5,0.6-1.7,0.4-1.8,1.4c-0.4,3.6-4.2,5.4-4.9,8.8c-0.2,0.9-0.4,1.4-1,0
			c-0.4-1.1-1.2,1-2.3,0.4c0.1-6.2,3.5-10.8,7.5-15.1c0.5-0.6,1.2-1,2.1-0.7C144.1,329.1,144.6,329.6,145.1,330z"/>
		<path d="M101.8,245.3c1,2.4,0.8,4.4-1.2,6.4c-1.7,1.7-2.9,3.7-2.9,6.6c0,1.8-2,3-4,3.4c-1.1,0.2-0.9-0.5-1.1-1.2
			c-1.2-4.3,1.8-7.3,3.3-10.7c0.8-1.8,2.5-3.3,3.8-4.9c-0.5,1.2,0.6,1.3,1.2,1.5C101.9,246.7,101.7,245.8,101.8,245.3z"/>
		<path d="M145.1,330c-0.5-0.5-1-0.9-1.4-1.4c0.1-2.7,2.7-3.2,4.2-4.6c1.3-1.1,2.8-1.9,3.9-3.2c0.7-0.8,1.5-1.7,2.7-0.5
			c0.6,0.6,1.1,0.2,1.2-0.5c0.1-0.6,0.2-1.1,0.9-0.6c0.5,0.3,1.2,1.1,1.1,1.2c-0.7,1.1-1,3.4-2.7,2.7c-2.2-0.8-2,0.3-2.2,1.7
			C152.5,327.4,147.7,330.5,145.1,330z"/>
		<path d="M555.2,610.8c-0.8-3.5-0.9-7-0.4-10.5c0.3-2,0.3-3.9-0.1-5.8c-0.2-0.8-0.3-1.8,0.3-2.3c0.9-0.7,1.8-1.9,2.9-1.7
			c1,0.2,0.4,1.6,0.6,2.4c0.3,2,1,4,0.1,6.1c-0.3,0.7-0.3,1.3-1.1,1.5c-0.8,0.3-1.6,1.5-1.3,1.8
			C559.6,605.7,553.3,607.7,555.2,610.8z"/>
		<path d="M362.6,734.4c-1.2-0.1-2.1-2.4-1.2-3.7c1.3-1.9,2.8-3.6,4.6-5.1c1.4-1.2,2.5,0.9,3.8,0.1c-0.1,0.9-0.1,1.7-0.4,2.5
			C368.7,730.3,363.9,734.5,362.6,734.4z"/>
		<path d="M332,565.3c0.4-1.4,1.6-0.1,2.1-1.2c-0.4-0.6-0.9-1.3-1.6-2.4c3.8-0.3,7.3-0.5,10.7-0.7c0.8,0,1.8,0.1,1.8,1.1
			c0,1.2-0.8,0.8-1.5,0.5c-0.5-0.2-0.9,0-0.7,0.5c1.4,2.8-0.9,2-2.1,2C338,565.2,335,565.9,332,565.3z"/>
		<path d="M184.8,249.9c0-0.5-0.1-1,0.1-1.1c2.3-1.8,4.4-4,6.9-5c2.2-0.9,2,2,2.5,3.2c0.5,1.2-0.7,1.5-1.8,0.9
			c-0.1,0-0.3,0.1-0.3,0.1c-0.1,4.1-4.3,1.1-5.9,3.4C185.2,253,185.6,250.1,184.8,249.9z"/>
		<path d="M571,744.8c-0.9-0.8-2.8-0.6-2.5-2.6c1.8-2.7-1.1-4.5-1.3-6.9c0-0.3-0.4-0.6-0.3-1.4c0.9,1,2,1.8,2.6,3
			c0.6,1.3,0.5,3.1,2.8,2.3c0.4-0.2,0.7,0.6,0.6,0.8c-1.6,2.4,0.8,3.7,1.5,5.4c0.4,0.9,1.9,1.6,1.4,2.8c-0.6,1.3-2-0.5-2.9,0.3
			C574.9,745.9,572.2,745.7,571,744.8z"/>
		<path d="M307.7,577.4c-3.9,0.8-7.2,0.5-10.5,0.2c-2.9-0.3-5.7-0.7-8.5-1c-1.3-0.2-2.1-0.8-1.8-2.2c0.3-1.1,1.3-1.3,2.2-0.8
			c5.4,3.1,11.4,2.9,17.4,3.1C306.6,576.8,306.8,576.9,307.7,577.4z"/>
		<path d="M155,217.6c-0.2-0.6-1-1.3-0.2-1.9c1.5-1,1.5-0.9,0.8-2.6c1.3-0.7,2.4,1,3.8,0.2c0-0.2,0.1-0.4,0-0.7
			c-0.1-0.8-1.7-1.3-0.6-2.2c0.9-0.7,1.7,0.2,2.1,0.9c0.4,0.8,1.6,1.9-0.3,2.5c-0.7,0.2-1.1,0.8-0.9,1.6c0.3,0.8,0.7,2.3-0.1,2.4
			c-2,0.2-3.3,3.7-5.8,1.4C154.3,218.7,154.7,218.2,155,217.6z"/>
		<path d="M159.1,375c1.6,0.5,2.4,2,3.7,2.9c0.4,0.8-1.1,2.4,0.9,2.5c1.3,0.1,1.6,0.3,1.5,1.7c-0.1,1.7-1.2,1.3-2,1.3
			c-0.7,0.1-1.4,0.1-1.8-0.7c0.2-0.1,0.4-0.3,0.5-0.4c0-0.3,0-0.6,0-1c-0.2,0-0.5,0.1-0.7,0.1c-0.1,0-0.3,0-0.4,0
			c-1.3-1.6-2.5-3.3-3.8-4.9c0-1,0.2-1.9,1.3-2.3C158.5,374.5,158.8,374.7,159.1,375z"/>
		<path d="M268,728.9c-1.3,2.1-3.3,2.2-4.7,0.8c-1.4-1.3-0.7-3.5,0.7-4.5c1.5-1,2-2.4,2.8-3.8c0,0,0,0,0,0c0.2,0.7-0.2,1.5,0.7,2
			c0.9,0.9,1.1,2,1.4,3.2C268.2,727.2,267.6,727.9,268,728.9z"/>
		<path d="M529.2,656c0.5,0.2,1,0.6,1.2,0.5c1.1-0.8,2.4,4.5,3.3-0.1c0.3,0.1,0.6,0.1,0.8,0.2c0.6,0.5,0.8,1.1,0.7,1.8
			c-0.4,1.8-2,2.4-3.2,3.4c-1.1,0.9-1.7-0.8-2.5-1.2c-2.2-1.2-3.3-2.1-0.8-4C529,656.4,529.1,656.2,529.2,656z"/>
		<path d="M439.7,445.9c0.3,0.3,0.7,0.6,1,1c1.1,2.7-1.9,3.1-2.9,4.6c-0.4,0.7-3.4,0.9-3.8-1.8c-0.1-0.9-1.3-0.7-2.4-1.8
			C435.2,448.5,437.2,446.3,439.7,445.9z"/>
		<path d="M56.1,672.7c1.3,0.3,2,1.4,2.8,2.2c0.8,0.9,3,2.1-0.2,2.9c-0.2,0.1-0.3,0.5-0.5,0.7c-0.7,0.5,0.6,2.3-1,1.9
			c-1-0.2-2.4-0.3-2.7-2c-0.2-1.3-0.8-2.9,0.5-3.6C56.1,674.2,55.7,673.3,56.1,672.7z"/>
		<path d="M450.5,382.9c0.6,1.9-1.3,1.6-2,1.7c-1.4,0.2-4.2-2.9-4-4.3c0.1-0.7-0.1-1.7,0.8-2.1c0.7-0.3,1.6,0.3,1.8,0.7
			C448.1,380.5,451.1,380.2,450.5,382.9z"/>
		<path d="M376.3,382.2c0.4,0,0.9,0,1.3,0c0.9,0.3,1.4-1.5,1.3-1c-0.1,2,4.3,1.4,2.2,4.2c-0.8,1.1-1.9,1.9-2.9,0.8
			c-1.4-1.4-3.1-0.2-4.8-1C374.5,384.1,375.4,383.1,376.3,382.2z"/>
		<path d="M100.3,244.3c-0.9-4.4,2.9-6.1,4.9-8.9c0.7,4.5-0.6,8.3-3.3,9.7c0.5-1,1-2,1.7-3.2C101.8,242.3,101.3,243.6,100.3,244.3z"
			/>
		<path d="M412.4,159.5c-0.9-2.7-3.3-0.9-4.9-1.7c3.8-0.5,7.3-2.5,11.4-2.1c-1.5-0.2-0.7,2.7-2.9,2c-0.4-0.1,1.1,0.9,0.8,1.7
			c-1.2,0.1-2.3,1.2-3.7,0.8C412.9,160,412.6,159.7,412.4,159.5z"/>
		<path d="M301.4,557.4c1.4,0.2,1.6,1.2,1.4,2.4c0,0.1,0,0.3,0,0.4c-2.5,0.6-4.4,2-5.4,4.4c-1.9,0.5-2.5-1.1-3.4-2.1
			c0-0.7,0-1.4,0-2.1c1.3,0.2,2.7,2.1,3.8,0.1c0.7-1.3,2-1.8,2.6-3.1C300.7,557.4,301.1,557.4,301.4,557.4z"/>
		<path d="M435.8,167.6c0.2-0.3,0.4-0.5,0.6-0.8c1.5-1.9,3-1.3,4.5,0.1c0.3,0.3,0.6,0.6,0.7,1c0.2,0.9,2.6,0.2,1.5,1.8
			c-0.8,1.2-2.2,0.8-3.2,0.2c-1-0.6-1.6-0.8-2.6-0.1c-0.6,0.4-1.4,0.3-1.8-0.4C435,168.7,435.2,168.1,435.8,167.6z"/>
		<path d="M530.2,520.7c-0.3,1.5-0.5,2.9-0.8,4.4c-1.1,0.1-2-3.1-3.1,0.5c-0.8-3.1-0.3-5.7-0.2-8.3c1.3,0-0.1,1.3,1.5,1.4
			c0.3,0,0.1-1.5,1.3-1.6C528.7,518.6,529.3,519.7,530.2,520.7C530.3,520.8,530.2,520.7,530.2,520.7z"/>
		<path d="M390.1,212.7c2.5-3.4,3.6-3.5,6-1.8c2,1.5-0.1,2.2-0.3,3.2c-0.2,1.3-1.7,1-2.3,0.5C392.4,213.8,391.2,213.4,390.1,212.7z"
			/>
		<path d="M227.6,222.1c-0.9,0.1-1.6,0-2.1,0.3c-1.3,0.8-2.6,0.7-3.4-0.5c-0.9-1.4,0.9-2.2,1.5-2.6c1.4-1.1,2.9-2,3.6-3.7
			c0.2-0.5,0.9-0.9,1.5-0.5c0.6,0.4,0.4,1.1,0,1.6c-0.2,0.3-0.6,0.5-0.9,0.8C226,218.8,224.6,220.3,227.6,222.1z"/>
		<path d="M532.6,739.2c1.5,0.2,1.6-3,3.8-1.4c2.3,1.7,1.3,3.9,1.5,5.9c0.1,0.5-0.7,1.1-1,0.6C536,742.2,532.8,741.9,532.6,739.2
			L532.6,739.2z"/>
		<path d="M200.4,229.4c-0.3,1.4-2,2-3.1,3.1c-0.8-0.9-2.5-0.2-2.8-1.5c-0.3-1.3,2.3-3.9,3.7-4C199.8,226.8,200.3,227.7,200.4,229.4
			z"/>
		<path d="M247.2,221.7c-0.5,2.2-2.5,3.2-4.1,4.3c-1,0.7-1.3-1.2-1-2c0.6-1.3,1.4-2.6,2.3-3.7c0.4-0.5,0.9-1.6,1.8-1.2
			C247.2,219.6,246.9,220.7,247.2,221.7z"/>
		<path d="M301.4,557.4c-0.3,0-0.6,0-0.9,0c-1.5-0.9-3.2,1.6-4.6-0.2c-0.5-2.6,2-3.1,3.3-3.5c1-0.3,3,1,3.9,2.2
			C303.7,556.7,301.6,556.5,301.4,557.4z"/>
		<path d="M296.2,635.3c-2.5,2.3-5.7,0.7-8.1,2.4c-0.5,0.4-1.6-0.1-1.9-1c-0.2-0.9,0.6-1.3,1.2-1.4
			C290.3,634.5,293.1,634.5,296.2,635.3z"/>
		<path d="M250.4,608.2c1.2-0.3,2.1,0.3,2.2,1.3c0.1,1.4-1.2,1-2,1.1c-3.9,0.4-7.6-0.5-11.5-0.8
			C242.9,608.9,246.9,610.1,250.4,608.2C250.4,608.3,250.4,608.2,250.4,608.2z"/>
		<path d="M195.3,607.5c-0.3-0.3-0.7-0.5-1-0.8c0.1-1.3-1.3-3.1,0.4-3.6c1.6-0.5,2.9,1,3.8,2.4c0.3,0.5,0.8,0.9,0.6,1.6
			c-0.5,0.2-1.1,0.4-1.6,0.6c-0.3,0.2-0.5,0.3-0.8,0.5C196.3,608,195.8,607.7,195.3,607.5z"/>
		<path d="M308.2,613.3c-1.6,0.5-2.9,1.4-4.1,2.4c-1.1,0.8-2,0.6-2.8-0.4c-0.9-1.1,0.2-1.5,0.8-2.1
			C303.9,611.2,305.8,611.1,308.2,613.3z"/>
		<path d="M551.8,644.4c-1.6-2.7,0-4.4,1.8-6c2.6,1.7,2.8,3.8,0.6,5.3C552.9,642.2,552.5,644,551.8,644.4z"/>
		<path d="M579.4,736.2c2.1,0.9,3,2,4.1,2.7c1.3,0.8,1,2.5,0.4,3.8c-0.5,1.1-1.6,0.5-2.4,0.6c-0.8,0-0.7-1.5-0.7-1.6
			C582.3,739.7,581.2,738.2,579.4,736.2z"/>
		<path d="M295.8,557.2c1.4,1.9,3.1-0.7,4.6,0.2c-0.6,1.2-1.9,1.8-2.6,3.1c-1.1,2-2.5,0.1-3.8-0.1
			C294.5,559.2,293.4,557.2,295.8,557.2z"/>
		<path d="M294,562.4c1,1,1.6,2.6,3.4,2.1c-0.7,2.6-2,3.2-4.2,2.3c-0.1-1.5-1.6-2.4-1.2-4C292.7,562.6,293.3,562.5,294,562.4z"/>
		<path d="M97.1,293.3c1.1,1.7,0.1,3.2,0.1,4.9c-1.4-2.3-0.9-4.8-0.5-7.4c2.3,0.7,2.7,3.3,4.8,3.9c0.5,0.1,0.3,0.7,0,0.9
			c-0.5,0.5-1,0.5-1.6,0C99,294.9,99,293.3,97.1,293.3z"/>
		<path d="M478.1,203.3c2.3,1.2,3.2,3.7,5.1,5.2c0.7,0.5,0.4,1-0.1,1.5c-0.5,0.5-0.9,1.2-1.7,1c-0.7-0.2-0.7-0.8-0.5-1.5
			c0.5-1.4-0.8-1.9-1.5-2.5C478.4,206,477.3,205,478.1,203.3C478.1,203.2,478.1,203.3,478.1,203.3z"/>
		<path d="M463.9,332.6c1.1,0.7,2.5,1.1,2.7,2.7c0.2,1.3-0.8,2.2-1.9,2.3c-2.1,0.1-1.3-2-1.8-3.1C462.6,333.6,462.8,333,463.9,332.6
			z"/>
		<path d="M161.8,225.3c0.4-1.1-1.7-1.6-0.5-2.9c1-1.2,2.1-2.2,3.7-1.2c1.9,1.1,0.3,2.2-0.2,3.2C163.8,224.7,162.8,225,161.8,225.3z
			"/>
		<path d="M211.5,263.8c1-0.6,1.8-1.2,2.7-1.6c0.8-0.4,1.8-1.5,2.5,0c0.6,1.3,0,2.2-1.4,2.8C213.7,265.6,212.7,264.9,211.5,263.8z"
			/>
		<path d="M492.9,228.5c0,0.6-0.1,1.1-1.2,0.7c-0.8-0.3-3.7-4.6-3.5-5.4c0.2-0.7,0.8-0.8,1.5-0.7
			C490.1,223.2,492.8,227.6,492.9,228.5z"/>
		<path d="M61.6,741.5c-2.9-1-5.1-3.7-5.2-6.5C59.1,736.6,61,738.5,61.6,741.5C61.6,741.6,61.6,741.5,61.6,741.5z"/>
		<path d="M157,376.6c1.3,1.6,2.5,3.3,3.8,4.9c-0.1,0.2-0.1,0.3-0.1,0.5c-0.4-0.2-0.9-0.6-1.3-0.5c-1.7,0.2-2.3-0.1-2.3-1.9
			c0-1.1-0.7-1.8-0.9-2.7C156.4,376.8,156.7,376.7,157,376.6z"/>
		<path d="M292,562.7c-0.4,1.6,1.2,2.6,1.2,4c-1.1,0.3-2.2,0.7-3.9,1.2C291.2,566.3,287.8,562.9,292,562.7z"/>
		<path d="M566.7,689.7c-1.6-1.9-4.3-2.8-4.8-6C565.7,684.2,565.7,687.4,566.7,689.7z"/>
		<path d="M221.7,425.2c0.4-0.3,0.7-0.5,1.1-0.8c1.9,0.6,2.9,2.2,3.7,4C225,427.2,222.2,428.1,221.7,425.2z"/>
		<path d="M391.6,692.5c0.2,1.2-0.2,1.8-1.1,1.6c-1-0.1-1.9-0.8-2.1-1.8c-0.2-0.8,0.3-1.4,1.1-1.4
			C390.8,690.8,391.4,691.6,391.6,692.5z"/>
		<path d="M551.8,644.4c0.7-0.5,1.1-2.2,2.4-0.7c0,1.3-1.6,2.5-0.3,4.1c0.2,0.2-0.1,1.7-1.3,1.2c-0.2-0.1,0.8-1.6-0.8-0.9
			C551.8,646.8,551.8,645.6,551.8,644.4z"/>
		<path d="M224.9,271.3c0.4,1-0.4,1.3-1.4,1.4c-1.1,0.1-1.9-0.4-1.9-1.4c0-1.6,1.4-1.5,2.4-1.7C225.5,269.4,224.6,270.6,224.9,271.3
			z"/>
		<path d="M155,217.6c-0.3,0.5-0.7,1.1-1,1.6c-0.3,2.1-2.6,0.9-3.4,2.2C152.1,220.2,151.6,216.6,155,217.6z"/>
		<path d="M375.1,718.4c-1.5-1.1-3-1.5-2.8-3c0.1-0.6,1.1-1.3,1.9-1C376.1,715,374.7,716.6,375.1,718.4z"/>
		<path d="M493.9,236.2c-1.4-0.2-1.8-1.3-2-2.5c-0.1-0.6-0.2-1.8,0.8-1.5c1.3,0.3,0.5,2.9,2.4,2.9
			C495.1,235.7,494.7,236.2,493.9,236.2z"/>
		<path d="M123.6,363c0.4-0.4,0.8-0.8,1.2-1.3c0.7-0.4,1.4-1,2.3-1C126.8,363.7,125.9,364.3,123.6,363z"/>
		<path d="M412.4,159.5c0.3,0.3,0.5,0.5,0.8,0.8c-0.5,1.3-0.5,1.3-2.1,0.7c-0.8-0.3-2.1-0.3-1.3-1.6
			C410.4,158.1,411.5,158.5,412.4,159.5z"/>
		<path d="M436.9,273.7c-1.8-1-2.2-2.4-3.7-2.7c-0.6-0.1-0.8-1-0.6-1.5c0.1-0.3,1.2-0.5,1.3-0.4
			C434.6,270.6,436.3,271.4,436.9,273.7z"/>
		<path d="M255.1,219.6c-1.9-0.2-2.8,1.8-4-0.1c-0.4-0.6-0.6-1.5,0.2-1.8C252.8,217,253.4,218.6,255.1,219.6z"/>
		<path d="M554.2,728.3c2.4,0.6,3.1,2.5,3.4,4.7C556.2,731.7,554.4,730.7,554.2,728.3C554.3,728.3,554.2,728.3,554.2,728.3z"/>
		<path d="M446.1,453.4c-2.6,0.4-2.6-2.8-4.6-2.8c0.1-0.3,0.1-0.6,0.2-0.8c0.4-0.5,0.9-0.5,1.3-0.1
			C444.1,450.8,445.5,451.7,446.1,453.4z"/>
		<path d="M163.3,210.8c-1.4,0-1.8-1-2-2.1c-0.1-0.5,0-1.1,0.7-1c1.2,0.3,2.1,1.2,2.6,2.2C164.9,210.7,163.8,210.5,163.3,210.8z"/>
		<path d="M354.3,630c1.3-0.2,1.9-2.1,3.5-0.8c0.4,0.4,0.9,1.2,0.5,1.9c-0.4,0.7-1.1,0.3-1.5-0.1C356.2,630.3,355,631.2,354.3,630z"
			/>
		<path d="M432.1,382c0,0,0.1-0.2,0.1-0.2c1.3,0.5,1.8-0.4,2.3-1.3c0.3-0.5,0.7-0.8,1.2-0.4c0.3,0.2,0.6,0.6,0.7,0.9
			c0.2,0.6-0.1,0.9-0.7,1C434.6,382.1,433.4,383.7,432.1,382z"/>
		<path d="M160.8,317.7c-0.2,0.9-0.7,1.6-1.6,1.7c-0.8,0.1-1.4-0.5-1.3-1.2c0.1-0.8,0.7-1.4,1.6-1.4
			C160.2,316.9,160.7,317.1,160.8,317.7z"/>
		<path d="M424.2,241.2c0.6,1.4,0,2.2-1.2,3c-0.6,0.4-1.1,1.2-1.6,0.3c-0.6-1,0-1.1,1-1.1C423.7,243.4,422.8,241.4,424.2,241.2z"/>
		<path d="M214.3,236c-0.1,0.6-0.4,1.2-1.1,1.2c-0.9,0-1.9-0.5-2.1-1.3c-0.2-0.8,0.9-1.3,1.6-1.4C213.5,234.4,213.9,235.3,214.3,236
			z"/>
		<path d="M567.5,719.1c-1.4-1.5-3.6-2.4-4.1-5.3C565.9,715.3,565.9,717.8,567.5,719.1z"/>
		<path d="M550.9,733.3c0.3-1.3,1-2.3,2-2.9c0.3-0.2,0.9,0.5,0.9,1C553.7,733.1,552.1,732.8,550.9,733.3z"/>
		<path d="M532.6,739.2c-1.3-1.3-2.2-2.8-3.5-4.1C530.8,736,533.9,735.8,532.6,739.2C532.6,739.2,532.6,739.2,532.6,739.2z"/>
		<path d="M284.7,562.2c0.2,0.6,0.5,1.1,0.7,1.7l0,0c-0.1,0.4-0.2,0.9-0.3,1.3c-0.3-0.1-0.7-0.2-1-0.3c-0.1-0.2-0.1-0.4-0.2-0.6
			C283.8,563.4,284.3,562.8,284.7,562.2z"/>
		<path d="M151.6,384.5c0.5-0.3,0.5-1.4,1.2-1c0.9,0.7-0.1,1.1-0.5,1.6l0,0C152,384.9,151.8,384.7,151.6,384.5z"/>
		<path d="M411.7,377.2c-0.3-0.2-0.6-0.3-0.9-0.5c0-0.3,0-0.6-0.1-0.9c0.6,0,1.3,0,1.9,0c0,0.1,0.1,0.3,0.2,0.4
			c-0.1,0.2-0.1,0.3,0,0.5C412.5,376.8,412.1,377,411.7,377.2z"/>
		<path d="M174.1,387.5c0.2,0.2,0.3,0.3,0.5,0.5c-0.6,0.7-1,0.3-1.5-0.2C173.5,387.7,173.8,387.6,174.1,387.5z"/>
		<path d="M286.9,564.6c-0.1-0.4-0.2-0.8-0.2-1.2l-0.1,0c0.4,0,0.8,0,1.2,0C287.8,563.9,287.4,564.3,286.9,564.6z"/>
		<path d="M286.7,563.3c-0.4-0.4-0.8-0.8-1.1-1.2c0.5,0,0.9-0.1,1.4-0.1C286.8,562.5,286.7,562.9,286.7,563.3L286.7,563.3z"/>
		<path d="M432.4,263.9c0,0.1,0,0.2-0.1,0.2c0,0-0.2,0-0.2,0c0-0.1,0.1-0.3,0.1-0.4C432.3,263.8,432.3,263.9,432.4,263.9z"/>
		<path d="M470.6,343.8c-0.2-0.4-0.5-0.9-0.7-1.3C470.1,342.9,470.4,343.4,470.6,343.8C470.6,343.8,470.6,343.8,470.6,343.8z"/>
		<path d="M170.2,386C170.2,386,170.2,386,170.2,386c-0.2-0.1-0.4-0.2-0.6-0.3C169.8,385.8,170,385.9,170.2,386z"/>
		<path d="M267.5,721.8c-0.2-0.1-0.5-0.2-0.7-0.3c0,0,0,0,0,0C267,721.6,267.2,721.7,267.5,721.8z"/>
		<path d="M268,722.2c-0.2-0.2-0.4-0.3-0.6-0.5C267.6,721.9,267.8,722,268,722.2z"/>
		<path d="M411.4,374.9c-0.2,0.3-0.4,0.6-0.6,0.9C411,375.5,411.2,375.2,411.4,374.9z"/>
		<path d="M250.4,608.2C250.4,608.2,250.4,608.3,250.4,608.2C250.4,608.3,250.4,608.2,250.4,608.2z"/>
		<path d="M152.2,385.1c-0.2,0-0.4,0-0.6,0C151.8,385.1,152,385.1,152.2,385.1C152.2,385.1,152.2,385.1,152.2,385.1z"/>
		<path d="M391.4,371.2c-0.1-0.2-0.3-0.3-0.4-0.5C391.2,370.9,391.3,371.1,391.4,371.2z"/>
		<path d="M391,370.7c-0.2,0-0.4,0-0.7-0.1C390.6,370.3,390.8,370.3,391,370.7z"/>
		<path d="M170.2,385.1c-0.2,0-0.4,0-0.6,0c0-0.2,0-0.4,0-0.6c0.2,0,0.4,0,0.6,0C170.2,384.7,170.2,384.9,170.2,385.1z"/>
		<path d="M302.8,560.1c0-0.1,0-0.3,0-0.4c0.1,0.1,0.1,0.2,0.2,0.3C303,560.1,302.9,560.1,302.8,560.1z"/>
		<path d="M287.8,562.6c-0.2-0.2-0.4-0.4-0.6-0.5C287.4,562.3,287.6,562.5,287.8,562.6z"/>
		<path d="M160.6,382c0-0.2,0.1-0.4,0.1-0.5c0.1,0,0.3,0,0.4,0l0,0c0,0.2,0,0.4,0,0.6l0,0C161,382.1,160.8,382,160.6,382z"/>
		<path d="M161.9,382.3c-0.2,0.1-0.4,0.3-0.5,0.4c0-0.2-0.1-0.4-0.1-0.6c0,0,0,0,0,0C161.4,382.2,161.6,382.2,161.9,382.3z"/>
		<path d="M170.2,385.1c0.4,0.1,0.8,0.1,1.2,0.2c-0.2,0.2-0.4,0.3-0.5,0.5C170.6,385.5,170.4,385.3,170.2,385.1z"/>
		<path d="M170.6,383.8c-0.1,0.2-0.3,0.5-0.4,0.7C170.4,384.3,170.5,384.1,170.6,383.8C170.7,383.8,170.6,383.8,170.6,383.8z"/>
		<path d="M161.2,381.5c0.2,0,0.5-0.1,0.7-0.1C161.6,381.4,161.4,381.4,161.2,381.5L161.2,381.5z"/>
		<path d="M285.4,563.9C285.4,563.9,285.5,563.8,285.4,563.9C285.5,563.8,285.4,563.9,285.4,563.9z"/>
	</g>
</g>
</svg>
