<?xml version="1.0" encoding="utf-8"?>
<!-- Generator: Adobe Illustrator 18.0.0, SVG Export Plug-In . SVG Version: 6.00 Build 0)  -->
<!DOCTYPE svg PUBLIC "-//W3C//DTD SVG 1.1//EN" "http://www.w3.org/Graphics/SVG/1.1/DTD/svg11.dtd">
<svg version="1.1" id="图层_1" xmlns="http://www.w3.org/2000/svg" xmlns:xlink="http://www.w3.org/1999/xlink" x="0px" y="0px"
	 viewBox="0 0 595.3 841.9" enable-background="new 0 0 595.3 841.9" xml:space="preserve">
<g>
	<path d="M275.8,131.1c-2,0.7-3.4-0.9-3.9-2c-1.1-2.5-3.3-3.1-5.3-4c-16-6.9-32.9-10-50.2-11.7c-1.7-0.2-3.4,0-5.2,0.4
		c7.6,1.2,15.4,0.8,22.6,4.4c-1.7,0-3.5,0-6.7,0c6.1,2,10.7,3.5,15.2,4.9c0,0.5,0.1,0.9,0.1,1.4c-6.2-2.4-11.5,2.1-17.5,1.8
		c1.8,0.2,3.6,0.4,5.4,0.6c-4.3,0.7-8.6,0.5-13.4,1.9c2.9,1,5.5-0.2,8.2,1.3c-1.7,1.3-4.1,0.2-4.9,1.1c-3.5,4.1-8.7,1.6-12.5,3.7
		c-5.2,2.9-10.3,5.9-15.3,9.1c-1.4,0.9-2.9,1.3-4.4,1.9c-1.5,0.6-5.2,0.7-2,4c0.7,0.7,0.1,1-0.5,1.3c-6.3,3.5-9.3,10.6-15.3,14.5
		c-1.5,1-2.6,3.1,0.1,3.9c2.9,0.9,0.8,2.9,0.6,3.2c-4.4,6.3-7.1,13.1-7,20.9c0,1.5-0.6,2.5-1.8,3.3c-1.2,0.8-1.7,2.1-0.6,2.9
		c3.2,2.5,0.6,4.5-0.6,6.2c-2.1,2.9-4.1,5.3-1.3,9c1.2,1.6-2.3,1.7-2.1,3.5c0.3,2.4,0.7,5-2,6.5c3.9,6.2-2.8,10.7-2.8,16.8
		c0,6.3,0.1,13.1-0.7,19.7c-1.4,11.5-0.6,23.3-0.6,34.9c0,3.7-0.2,7.3,0.2,11c0.4,3.5,0.1,5-3.9,3.2c-2-0.9-3.4-2.3-4.2-3.9
		c-0.6-1.2,1.4-2,2.5-2.5c2-1,1.5-2.2,0.5-3.5c-2.6-3.5-3.5-7.5-4.1-11.8c-1.1-7.6-3.7-14.6-10.3-19.4c-1.6-1.1-2.7-2.7-3.5-4.4
		c-0.8-1.7-0.9-1.7,1.2-2.1c2-0.4,1.4-1.9,0.7-2.5c-4.7-4.4-1.9-9.4-0.4-13.6c1.4-4,2.8-7.6,1.9-11.7c-1.1-5.6,1.2-11.2,0.3-16.9
		c-0.3-1.8-2.8-2.8-1.4-5.5c0.7-1.4-2.1,1-3.3,0c0.4-2,2.1-2.6,3.5-3.7c3.7-2.7,4.8-6,3.9-10.9c-1.2-7.1-3.2-14.5,1.4-21.4
		c1-1.5,0.6-3.5,0.6-5.3c0-3.1-0.6-7.3,0.8-9.5c4.7-7.5,8.2-14.9,4.9-23.9c-1.1-2.9-1.6-5.8,1.3-8.3c1.4-1.2,1.9-3.2,2.2-5.4
		c0.9-6.7,7.3-8.9,11.8-12.6c7.1-5.8,14.8-11.2,19.3-19.3c4-7.2,4.4-8.3,12.8-12.7c0.8-0.4,1.7-0.9,2-1.6c1.1-3.1,3.4-5.5,5.2-8.2
		c2.3-3.4,4.5-7.3,9.5-7.4c1.1,0,2.3-0.5,2.5-2c6.7,0,13.5,0,20.2,0c0.2,0.3,0.4,0.9,0.7,1c0.7,0.2,1-0.4,1.1-1c13.5,0,27,0,40.5,0
		c2.9,4.4,7.2,7.1,11.9,9.8c-3-2.8-3.6-6.1-3.1-9.8c12,0,24,0,36.1,0c-0.6,3.3,2.6,3.1,4.1,4.3c0.9,0.7,1.5-0.3,1.9-1.1
		c1.4-2.1-1.9-1.8-1.7-3.3c23.2,0,46.3,0,69.5,0c0.2,0.8-1.6,2-0.5,2c6.7-0.1,9.1,5.8,13,9.3c2.8,2.5,6.9,4.7,6.7,9.5
		c8.5,5.5,9.7,15.7,15,23.3c4.2,6,8.4,11.9,11.9,18.3c2.5,4.5,3.4,10,6,14c3.2,4.9,2.6,11.5,7.8,15.2c0.6,0.4,2.2,1.6-0.5,1.5
		c-1.6,0-0.6,1.7-0.4,1.9c3.4,4.4,3,10.1,5.1,14.8c2.7,5.9,3.8,11.9,4.6,18c0.9,6.2,1.4,12.4-0.8,18.9c-2,5.9-1,12.7,0.5,19
		c2.5,10.6,5.2,21.1,7.8,31.6c0.1,0.4-0.2,0.8-0.3,1.2c-1.8-0.1-1.3-2.3-3.4-3c0.9,6.5-4.2,8.3-8.4,10.9c-3.1,1.9-2.4,5.8-2.2,8
		c0.5,6.2-0.7,11.9-3.1,17.2c-0.4,1-2.9,2.7-4.7,3.5c-2.5,1.2-2.2-0.9-2.3-2.3c-0.3-5.4-0.8-10.8-0.8-16.2c0-8.8,0.3-17.6,0.5-26.3
		c0.1-5.2-0.7-9.9-3.2-14.7c-2.4-4.6-2.9-10-2.8-15.3c0.1-2,0.9-4.1-0.7-5.9c-0.2-0.3-0.3-1.1-0.1-1.2c5.3-4.2-0.9-8.1-1-12.1
		c-0.1-3.7,1.6-6.3,3.2-6.3c5,0,3.3-3.4,2.5-4.8c-2.2-3.9-5.1-7.3-7.9-11.2c-0.5,0.8-0.6,0.9-0.7,1c-0.5,1.8,3.1,3.2,1.1,4.4
		c-2,1.1-3.1-2-4.7-3.1c-0.3-0.2-0.6-0.6-0.8-1c-2.7-6.8-9.7-10.4-12.6-16.9c-0.3-0.6-1-1.2-1.6-1.4c-9.1-2.4-13.8-12.1-23.2-14.2
		c-0.6-0.1-1.1-1-1.6-1.5c4.5-0.2,8.2,2.4,12.7,3.8c-1.3-3.4-6.1-1.8-6.5-5.6c1.4,0.4,2.8,0.8,4.3,1.2c2.7-1.3,2.2-2.9,0.3-4.2
		c-2.2-1.6-4.6-2.8-7.3-4.4c3.2-0.6,5.2,2,8.4,1.8c-2.7-3.2-6.1-5.1-9.5-6c-4.8-1.3-9.6-3.1-14.8-3.1c-5.2,0-10.3-0.4-15.5,0.4
		c-1.2,0.2-5.6,3.7-4.9-2.3c0.1-1.1-1.7-0.3-2.6-0.2c-2.6,0.2-5.6,1.5-6.9-2.3c-0.3-1-1.4-0.7-2.3-0.6c-2.1,0.2-4.5-1-4.9-2.4
		c-1.1-3.6-2.3-2.1-3.6-0.5c-0.6,0.7-1.1,1.5-2,0.5c-0.9-1,0.1-1.2,0.6-1.8c0.6-0.8,0.5-2.1,0.7-3.3c-1.5-0.3-2.1,0.8-2.8,1.7
		c-0.4,0.6-0.8,1.4-1.4,1.6c-2.9,0.9-2.9,0.8-3.5,3.9c-4.4-10.5,1.6-19.9,2.4-29.9c-4.5,8.5-6.7,17.6-5.4,28.1c-2-1-1.5-3.6-4.4-2.4
		c-3.4,1.5-5.2-1.4-4.6-6.4c1.9-1.8,1.1-5.2,4.3-6.6c0.9-0.4,1-5.4-1.2-8.6c-1.6,5.3-2.5,10.3-3,15.3c-2.6-4.5-1.5-9.3-1.3-14.1
		c-1,4.6-4.6,8.5-2.6,13.7c-2,0.8-2.6-0.7-3.5-1.7c-0.6-0.7-0.8-2.3-2.1-1.5c-1.3,0.8-0.5,2.1,0,3.1c1.2,2.3,2.5,4.5,3.9,6.8
		c0.4,0.7,1.3,1,0.7,2.2c-1.1,2-6.2,3.1-7.8,1.5c-1.4,1.9,1.2,2.6,1.3,4c-3,0.8-5.2-1.9-8.1-1.5c-1.3-1.5-2.7-3-4-4.5c0,0,0,0,0,0
		c-0.1,0.3-0.2,0.6-0.3,0.9c-0.9-0.7-1.7-1.4-2.6-2.1c0-0.2,0-0.4,0-0.5c0.4-0.1,0.7-0.1,1.1-0.2c1.3-3-1.2-3.1-3-3.8
		c-1.8-0.7-3.6-1.2-4.4-3.2c-1.3-3.4-4.4-4.5-6.9-5.9c-2.8,6.1,3.7,7.9,5.2,12c0,0.4-0.1,0.8-0.1,1.3c-0.1,0.4-0.3,0.9-0.4,1.3
		c0,0,0.1,0,0.1,0c-1.8,0.2-2.9-2-4.9-1.2c-0.9-0.7-1.9-1.4-2.8-2l-0.1-0.1c-0.2-0.1-0.4-0.3-0.5-0.5l-0.1,0
		c-0.5-0.5-0.9-0.9-1.4-1.4c-0.7,0.1-1.3,0.3-2,0.4c-1.5,1.6-2.7,0.7-4-0.3c-1.7-1.4-2.2-0.7-2,1.2c-4-1.4-7.9-2.9-11.9-4.3
		c-0.9-0.3-2.2-0.7-2.7,0.6c-0.6,1.7,1,1.9,2,2.1c3.5,0.9,7,2.1,10.1,3.9c1.8,1,2.3,0.2,2.1-1.6c3.4,1.3,6.2,3.5,8.9,5.8
		c1.4,1.3,2.2,3.5,4.7,3.4c0.1,0.4,0.3,0.7,0.4,1.1c0,0,0,0,0,0c0,0.5-0.1,0.9-0.1,1.4C276.1,130.9,276,131,275.8,131.1z
		 M293.2,106.5c0,0,0-0.2,0-0.2c0.2-0.4,0.5-0.7,0.7-1.1c0-0.2-0.1-0.5-0.1-0.7c1.9,0.2,3.7-1.2,6.6,1.2c-2.2-3.3-2.9-5.4-3.6-7.6
		c-1.5-5.2-3.5-10.5-8.6-13.6c-1-0.6-1.9-1.9-3-1.1c-1.3,0.8-0.5,2.3,0.1,3.1c2.1,2.8,2.5,5.9,2.3,9.2c-3.2,0.7-4.6,2.4-2.6,5.5
		c1,1.6,0.7,3.3,0.6,5c0,0,0,0.1,0,0.1c0.3,0.5,0.6,1,1,1.5l0,0.1c2.4,1.2,4.1,3,5.5,5.4c1,1.7,2.6,3.1,4,4.6
		c0.6,0.7,1.5,1.2,2.3,0.6c0.9-0.6,0.6-1.6,0.1-2.4c-1.5-2.6-3.1-5.3-4.6-7.9C293.6,107.5,293.4,107,293.2,106.5z M338.1,97
		c0.5,4.2,2,0.7,3.1,0.4c-0.2,1-0.9,2.1,0.1,2.8c1.1,0.8,1.9-0.3,2.6-0.9c1.4-1.3,2.6-2.7,3.7-4.2c0.7-0.9,3.1-1.4,1.6-2.9
		c-1.4-1.5-2.1,0.5-2.8,1.5c-0.7,1-1.8,1.4-3,1.6c0.8-1.8,1.6-3.6,2.9-6.4c-3.1,2.9-5.5,5-7.8,7.1c-4.5,2.1-5.3,6.1-5.9,10.3
		C334.5,103.3,335.6,99.8,338.1,97z M367.7,107.4c5.6-1.8,11.3-3.6,17.9-5.8c-7.8-1.5-14.4-3.3-21.1,0c0.9-1.6,1.4-2.8,4.1-2.6
		c4.9,0.4,9.8-0.5,15.6-1c-5-0.6-10.7,0.6-12.7-3c-2.7-4.9-5.5-4.4-9.5-3.5c-1.9,0.4-3.5,0.1-4,2.7c-0.3,1.5-6.2,2.6-8.7,4.1
		c-2.9,1.6-4.9,4.9-7.1,7.6c-0.8,1.1-1.9,2.5-0.9,4.3c3.8-2.4,3.5-8.7,9-9.2c0.9,2.1-2.3,1.4-1.3,3.5c2.9-1.6,5.8-3.3,9.9-5.6
		c-2.8,3.8-6.1,5.4-7.7,9.3c2.8-1.4,4.8-2.4,6.9-3.4c2.1,1.6,4.4-0.8,6.8,0.6c-1.1,0.5-2,1-3,1.4C363.9,108,365.9,105.8,367.7,107.4
		c-8,1-13.6,6.6-21.3,10.7c9.9,1.4,16.9-4.3,24.9-5.6c-2.3-0.3-4.7-0.6-7.1-0.9C364.7,109.2,367.1,109.1,367.7,107.4z M401.8,135.2
		c-1.9-1.7-3.8-3.5-5.7-5.3c2.3-0.7,5.6,1.3,5.8-2.6c0.2-2.9-1.7-3.7-4.5-4.7c-5-1.8-10.4-0.7-15-2.2c-6.2-2.1-11.9-1.3-17.8,0.3
		c-0.9,0.2-2.3-0.4-2.5,1.7c-0.2,2.2,1.2,1.9,2.4,2.4c3.1,1.2,6.5,1,9.8,1.9C383.4,129.3,392.8,131.4,401.8,135.2z M320.4,75.6
		c-4.3,4.2-5.4,7.8-4.8,13.3C316.8,84.5,319.6,81.1,320.4,75.6z M419,144.3c2.4,1.5,3.7,4.1,6.7,4.6C425.2,144,423.8,143,419,144.3z
		 M372.3,116.2c-5.3-0.5-9.8,0.9-13.8,4C363.1,118.9,367.7,117.6,372.3,116.2z M332.9,80.5c-2.2,2-4.1,3.3-4.3,5.9
		c-0.1,1.1-0.9,2.6,0.4,3.2c1.6,0.6,1.7-1.1,2-2.1C331.6,85.4,333.1,83.6,332.9,80.5z M191,113.7c0.1,0.2,0.1,0.3,0.2,0.5
		c4.5,0,9,0,13.6,0c0-0.2,0-0.3,0-0.5C200.1,113.7,195.5,113.7,191,113.7z"/>
	<path d="M292.8,571.9c-1.2,2.3-2.9,4.6-0.5,7.3c1.2,1.3,0.7,3.1,0.4,4.7c-0.9,4.9,3.1,7,5.2,10.4c2.5,4.1,8.1,3.5,9.6,8
		c0.3,0.9,1.4,1.9,0.7,2.8c-0.8,1.1-2.2,0.9-3.2,0.4c-2.6-1.1-5.4-1.4-8.1-1.7c-1.2-0.2-2.8-1.2-3.5,0.4c-0.5,1.3-0.7,3.1,0.4,4.2
		c3.6,3.1,5.2,7.9,9,10.7c1.9,1.4,1.4,3,0.6,4.7c-2.3,0-4.7,0-7,0c-1.6-3-3-6-4.7-8.9c-1.1-1.9-0.9-3.8-0.7-5.9
		c0.6-5.5,1.4-11.2-4-15.2c-0.6-0.5-1-1.5-1.3-2.3c-3.2-12.4-12.1-17-23.9-18.1c-6-0.5-12-1-18-0.8c-0.8,0-1.6-0.3-2.4-0.5
		c0.5-2,4.6-0.7,3.1-3.4c-1.6-2.8-4.7-0.9-8.1-1c1.4-0.6,2-1,2.6-1.1c4.3-0.5,7.9-1.2,10.2-6.2c1.8-4,9.1-3,11.4,0.9
		c0.8,1.3,6.3,1.2,6.7-0.2c0.5-2.2,1.9-2.2,3.6-2.2c3.2,0.1,6.4,0,9.6,0.2c1.6,0.1,2-0.8,2.6-1.7c0.7-1.1,1.5-1.6,2.3-0.1
		C288,562.2,292.1,566.3,292.8,571.9L292.8,571.9z"/>
	<path d="M272.7,623.8c0-1.5-0.1-3-1.4-4c-2.6-1.9-4.4-3.8-0.5-6.2c0.7-0.4,0.8-1.4,0.3-1.9c-3.6-3.7-6.9-7.1-6.4-13.3
		c0.4-6-2-11.9-7.3-16.1c2.7-0.4,3.2,1.7,4,2.9c1.9,2.9,3.3,2.7,5.1-0.1c3.5-5.6,4.3-5.5,8.6-0.3c4.4,5.3,6.3,11.5,6.5,18.2
		c0.2,6.7,2.5,12.5,5.9,18.1c0.5,0.8,0.7,1.9,1,2.9C283.3,623.8,278,623.8,272.7,623.8z"/>
	<path d="M216.4,623.8c-1.4-12-3.8-23.9-6.7-35.7c-0.7-2.9-0.8-6.1-1.1-9.1c-0.1-0.9,0.3-1.8,1.4-2c1.2-0.2,1.4,1,1.5,1.8
		c1.4,9.2,2.8,18.4,4.2,27.6c0.9,5.8,1.7,11.6,2.5,17.3C217.6,623.8,217,623.8,216.4,623.8z"/>
	<path d="M136.9,486.3c1.8-0.6,2.1,0.6,2,1.9c-0.6,10,2,19.7,3.6,29.4c0.9,5.4,1.9,11.7,6.2,16.3c2.8,3,3-1,4.4-1.5
		c2.1,0.7,0.8,3.4,2.9,4.3c1.5-2.5,1.5-5.6,1.1-8c-1.7-9.5-1.6-19.2-3.1-28.7c-0.7-4.5-3.4-10.1,0.6-14.8c-3.3-6,3.7-9.8,3.3-15.2
		c-0.1-1.6,1-0.8,1.8-0.8c6.1,0.5,7.3-1.9,10.7-7.1c4-6-1.7-5.8-3.6-6.6c-1.9-0.8-2.7-2.5-3.4-3.4c-3.5-4.9-10.3-2.9-13.9-7.5
		c1.1-0.9,2.6-1.6,3.2-2.7c1.8-3.6,4.5-3.3,7.4-2c1.7,0.7,3.4,1.7,4.9,0.5c1.7-1.3,8.3,2.2,4.8-4.5c2.1-1.1,4.2-2.3,6.5-3.3
		c2.1-0.9,3.9,0,4.8,1.9c6.4,13,16.4,23.5,24.6,35.1c2.5,3.5,5.4,5.9,2.4,11.8c-3.7,7.4-3.5,16.5-6,24.6c-4.2,13.5-7.1,27.5-13.9,40
		c-2.2,4.1-0.6,7.1,1.1,10.1c2.8,4.9-0.3,8-3.5,9.9c-5,2.8-10.3,5.4-16.5,4.5c-3-0.5-6.1-0.7-9.2,0c-4.5,0.9-8.1-2.1-12.1-3.5
		c-1.9-0.7-3.9-2.7-1.6-5.2c5.6-6.1,4.6-14.3,2-19.8c-6.4-13.2-7.4-27.5-11-41.2c-0.9-3.5,0.2-7.3-2.4-10.5c-1.3-1.6,1.1-2.7,1.9-4
		C137,486.2,136.9,486.3,136.9,486.3z M182.6,536.2c5-10.6,1.9-21.3,4.9-31.2c1.8-6-1.1-13,3-19c0.9-1.3-0.9-2.4-1.7-3.2
		c-1.2-1-2.2,0.1-2.7,1.2c-0.7,1.6-1.3,3.3-1.9,4.9c-2.6,7.1-2.2,14.7-5.1,22.1c-2.7,6.9-5.6,14.9-4.6,23.1c0.2,1.3-0.5,2.9,1.1,3.4
		c1.6,0.5,2.9-0.5,3.4-2C180.1,532.5,181.2,531.7,182.6,536.2z M167,471.6c-3.5,3.3-5.5,7.5-5.7,12c-0.3,7.6-2.6,15.1-1.3,22.9
		c0.4,2.3-2,6.5,0.4,6.7c2.6,0.2,2.5-4.4,2.8-6.9c0.5-4-0.6-8.3,0.3-12.2C165.2,486.7,165,479,167,471.6z"/>
	<path d="M341.3,544.5c1.2-1.7,2.8-3.1,4.9-3.9c11.6-4.2,16.4-14.4,20.8-24.6c2.2-5.1,6.7-9.4,7.1-15c0.7-10.2,7.4-16.9,13.2-24
		c4.1-5.1,9-9.5,13.6-14.3c1.1-1.1,2.6-1.3,4.2-1.8c-2,6.2-1.2,12.6-2.4,18.7c-0.2,0.8,0.3,1.3,0.5,2c1.3,3.2,1.6,6.4-1,9.3
		c-1.2,1.4-2.2,2.9-1.5,5.1c0.6,2.3-0.3,5-2.3,6.3c-6,4.2-7.3,11.3-11.2,16.7c-3.2,4.4-1.3,10.7-6.5,14.1c-3.1,2-5.5,5.1-7.8,8.2
		c-2.8,3.7-7.5,3.4-11.4,4.7C354.6,548.1,347.6,552.5,341.3,544.5z"/>
	<path d="M220,318.5c-3.9,0.6-7.1,5.5-11.6,2.3c-1.7-1.2-2.2-4.6-5.3-3.4c-3.7,1.4-6.3-0.8-8.1-3.1c-1.6-2-4.1-2.7-5.7-5.1
		c-2.9-4.6-2.4-9.5,1.9-12.9c5.9-4.8,12.9-7.3,19.6-10.5c1-0.5,1.7,0.2,2.5,0.1c4.1-0.6,8.3,0.4,12.5-1.3c1-0.4,3.6,1.8,5.9,1.9
		c6,0.5,12.1,0.2,17.8,3.3c5.6,3,8.9,8.2,13.6,12c0.9,0.7,1.2,2.3,0.2,3.2c-1.5,1.3-2.8,0.2-3.8-0.9c-3.7-4.1-7.5-8.2-12.6-10.6
		c-0.8-0.4-1.6-1.5-3.3-0.1c4.9,2.9,8.8,6.7,12,11.1c1.6,2.2,4.8,4.2,3.3,7c-1.4,2.8-5,1.5-7.9,1.6c1-1.1,2-2,2.7-3
		c0.8-1.2,1.4-2.7-0.3-3.7c-2.9-1.9-5.9-3.7-8.8-5.5c-1.6-1-2.4-1-2.7,1.3c-1.6,11.3-6.1,14.6-18.4,14.2
		c-6.3-0.2-11.2-6.6-11.9-15.3c-6.8-1.2-6.3,6.6-10.8,8.7c-1.2,0.6,0.9,2.3,1.8,2.8c3.7,2.1,7.5,4,11.9,4.2
		C216.5,317,218.3,317.4,220,318.5L220,318.5z"/>
	<path d="M336.2,306.3c2-4.7,6.2-7.3,6.1-11.1c-0.1-4.4,2.3-6.4,5.1-7.9c4.1-2.2,8.6-3.6,13.3-4.2c5.2-0.7,10.5,0.1,15.6-0.3
		c6.6-0.6,12.1,1.6,17.9,3.6c5.1,1.7,9.1,5.5,10.1,10.5c0.4,2-0.7,4.2,1.6,5.8c-1.6,2.1-2.2,4.7-4.5,6.3c-1.6,1.1-1.1,3.2-1.4,4.9
		c-2.6-1.9-3.6-1.8-6.9,1c-0.2,0.2-0.6,0.4-0.7,0.3c-4.3-2.7-8.7,0.3-11.8,1.7c-3.4,1.5-5.2-0.6-7.7-0.4c-0.6,0.1-1.1,0.4-1.6,0.6
		c-0.9,0.3-1.9,1.1-2.8,0.1c-0.4-0.4-0.7-1.4,0-1.3c2.1,0.4,0.6-3.4,3.1-2.4c6.6,2.8,11.5-1.8,17.1-3.8c2.9-1.1,3.1-3.1,3.1-5.5
		c0-2.5-2.5-2.2-3.7-3.2c-6-5-5.8,0.3-7.3,3.7c-2.7,6-7.8,8.5-15.2,7.8c-6.3-0.5-10.9-4.2-12.7-10.4c-1.9-6.2-2.1-6.3-7.2-2.4
		C342.9,301.8,340,303.7,336.2,306.3z"/>
	<path d="M173.1,271.1c3.1-7.8,11.1-7.5,17.1-10.3c8.3-3.8,17.8-3.2,25.6-1.7c8.3,1.6,17.4-0.1,25,4.7c1.9,1.2,4.1,0.8,6,0.8
		c7.1-0.2,9.1,6.2,13,9.9c1.3,1.2-0.5,1.7-1.5,1.6c-6-0.3-12.2,0.3-17.8-2.3c-3.6-1.7-7.5-0.9-11.3-1.5c-4.5-0.8-9-0.4-13.5-2.1
		c-12.1-4.6-24.2-0.4-36.2,1.1C176.6,271.7,176.6,272,173.1,271.1z"/>
	<path d="M192.3,581.3c2.8-1.8,5.8-3.4,8.5-5.4c2.4-1.7,1.6-3.7,0.1-5.6c-0.5-0.6-1.9-1.6-1.1-1.9c2.1-0.8,2-4.1,4-4
		c6,0.3,12.8-0.6,14.9,7.6c-2.5,0.4-5.3,1.1-8.1,1.1c-1.4,0-2,0.1-3.1,1.1c-17,16.1-41.9,20.8-62.2,11.1
		c-11.2-5.4-22.6-10.6-31.5-19.9c-3.2-3.3-7.3-5.7-10.3-9.4c-0.9-1.1-1.6-2.4-2.3-3.7c-0.4-0.9-0.8-2.1,0.4-2.7
		c0.9-0.5,1.8,0.3,2.2,1c3.1,5.7,8.8,8.6,13.7,11.7c5.8,3.6,8.9,9.5,14.2,13.3c1.7,1.2,3.3,3,5.3,2.3c1.8-0.6-0.4-3,1-4.5
		c2.8,2.7,6.4,4.4,8.5,7.9c0.3,0.5,1.1,1.2,1.2,1.2c5.1-2.9,8.7,7.5,14.1,1.1c-0.4-1-3.4-0.9-2.2-3c1.1-1.9,2.2,0.6,3.3,0.3
		c4.4-0.9,7.8,2,11.2,3.5c6.1,2.8,10.9,0.3,16.1-1.6C190.9,582.4,191.6,581.9,192.3,581.3z"/>
	<path d="M408.5,264.3c-10.8-1.7-21,1.6-31.5,3.4c-9.4,1.6-18.9,3.3-28.6,2.5c-2.8-0.2-5.7,0.1-8.1,2.3c-0.4-1.5,0.4-4.4-2.9-2.7
		c-1,0.5-2-0.5-2.2-1.6c-0.3-1.8,1.1-1.3,2-1.2c0.9,0,1.7-0.2,2.3-0.9c7-8.7,17.2-7.4,26.5-8.1c4-0.3,7.9-0.6,11.8-1.4
		c1-0.2,2.2-0.5,3-0.2c5.5,2.2,11,1.6,16.9,1.3c3.4-0.2,8,2.6,12,4.3c0.8,0.3,0.5,1.2-0.3,1.7C409,264,408.8,264.2,408.5,264.3z
		 M397.1,261.8c-5.8-1.6-5.8-1.6-9,0C391.1,261.8,393.6,262.8,397.1,261.8z"/>
	<path d="M320.9,555.3c0.2,1.1,0.3,2,0.5,2.8c0.4,1.6,0.8,3.5,2.8,3.3c1.5-0.1,4.1-1.1,4.2-1.9c0.2-2.8,2.7-3.9,4.1-5.4
		c1.9-2,5,1.2,5.8,2.3c1.6,2.4,3.7,3,6,3.6c1.2,0.3,2.1,0.9,2.7,2.1c1.9,3.9,4.9,2.5,6.7,0.5c1.3-1.4,2.6-2.7,3.8-4.1
		c2.1-2.3,3.2-4.1,5.6-0.5c0.7,1.1,2,0.2,2-1.1c0-1.2-0.3-2.5-0.7-4.6c3.9,7.7,3.6,9.6-3.4,11.5c-10.2,2.9-20.6,5.5-31.2,6.8
		c-4.3,0.5-8.6,1.2-12.9,2.2c-3.2,0.7-4-0.8-4.3-3.5c-0.5-3.5-1.3-6.7-4-9.7c-1.3-1.5-0.1-5.5,0.5-8.3c0.2-0.8,2,0,2.6,0.7
		c1.8,1.9,4.3,2.6,6,5.1C319.7,560.5,319.1,555.6,320.9,555.3z"/>
	<path d="M249.3,450.9c2.5-3.4,5-4.7,8.4-4.6c1.7,0.1,3.5-0.3,5.1-0.8c5.6-1.5,11-0.4,16.3,1.1c3.7,1.1,7.5,1,11.2,2.3
		c3.2,1.2,5.6-3.3,9.1-2.6c0.5,0.1,1.2-0.5,1.7-0.4c12.2,3.2,24.7-0.5,37,1.7c2.6,0.5,5.2,0.3,7.9-0.1c2.1-0.3,4.3-0.5,6.8,1.5
		C318,451.7,284,452.4,249.3,450.9z"/>
	<path d="M91.9,544.8c-0.8,5,0,9.5,0.6,13.9c0.2,1.7,1.2,4-1.6,4c-2.3,0.1-5.7,1.2-6.7-2.3c-2.1-7.2-2.3-14.4,0.9-21.4
		c0.4-0.9,0.8-1.9,1.1-2.8c0.4-1.3-0.1-3.4,1.7-3.6c1.9-0.2,2.6,2.1,2.9,3.4C91.5,539.1,91.6,542.2,91.9,544.8z"/>
	<path d="M401.3,520.2c-1.6,6.7-1.9,13.8-4,19.9c-1.6,4.6-4.3,10.5-10.8,12.3c-3.3,0.9-6.2,3.1-9.4,4.9c-0.1-6.4,2-8,7.5-8.8
		c4.8-0.7,5.6-5.5,6.9-9.4C393.6,532.2,397.2,526.1,401.3,520.2z"/>
	<path d="M398.8,146.4c-1.4-0.4-2.8-0.8-4.3-1.2c-2.2,0.9-5.5-1.9-6.9,1.9c-6.7-1.1-12.1-5.5-18.6-7.3c-0.5-0.1-0.8-0.7-0.2-0.7
		c2.4,0.1,0.1-2.6,1.4-2.5c10.1,0.9,19.8,3.4,28.4,9C398.8,145.7,398.7,146.1,398.8,146.4z"/>
	<path d="M243.5,509.3c2.8,0.3,3.5,3,5.6,4.2c5.3,3,10.4,6.5,15.5,9.8c1,0.6,2.4,1.2,1.7,2.6c-0.8,1.4-1.9,0.4-3,0
		c-4.1-1.6-8.9-0.8-12.4-4.4c-2.9-3-6-5.8-8.5-9.2C241.1,510.5,241.8,509.6,243.5,509.3z"/>
	<path d="M268.1,407c2.6-0.5,3.3-2.1,3.5-4.4c0.4-4.3,2.9-5,6.5-3.4c1.9,0.8,3.5,2.1,4.8,3.7c2.4,2.8,4.3,6.2,8.4,7.3
		c-1.7,0.8-2.9-0.1-4.1-0.5c-3.8-1.3-7.4-3.1-11.5-0.6C272.9,410.9,271,407,268.1,407z"/>
	<path d="M284,124.6c2.7,0.4,5.3,1.2,8,0c1,1,1.9,2,2.9,3c0,2.1,4,3.6,1.9,5.4c-1.6,1.4-4.9,0.5-6.9-1c-2.6-1.9-6.9-2.4-6.1-7.2
		C283.7,124.8,284,124.6,284,124.6z"/>
	<path d="M97.9,549.2c-1.8-2.4-2.1-4.5-2-6.5c0.4-9.5,1-18.9,1.6-28.4c0.1-1.1-0.5-3.2,1.5-2.9c1.4,0.2,1.3,2.1,1.2,3.4
		C99.5,520.9,99,527,98,533C97.2,538.1,97.2,543.2,97.9,549.2z"/>
	<path d="M276.9,129.3c2.3-2.2-1.1-3.7-0.7-5.7c2.9,4.7,8,7.1,12,10.7c0.7,0.6,1.7,2.2,0.8,1.8c-2.5-1.1-5.3,0.7-6.8-0.3
		c-2.1-1.4-5.5-1.6-6.3-4.8c0.1-0.1,0.3-0.2,0.4-0.4C276.4,130.3,276.7,129.8,276.9,129.3z"/>
	<path d="M117.2,468c4.5-6.5,10.8-10.9,18-13.8c1-0.4,2.4-1.4,3.1,0c0.7,1.5-0.7,2.4-1.9,3c-4.1,2-8.6,3-12.3,5.7
		C121.9,464.5,119.5,466.3,117.2,468z"/>
	<path d="M317.4,396.9c2.7,0.2,4.1,1.7,4.2,3.6c0.2,3-2.1,0.5-3.2,1c-2,0.9-4.1,1.5-6.2,2.1c-1,0.3-2.2,0.3-2.8-0.6
		c-0.9-1.3,0.7-1.7,1.3-2.3C312.6,398.6,314.8,396.9,317.4,396.9z"/>
	<path d="M224.1,579.3c1.4,3.1,1.7,7,5.9,8.1c0.7,0.2,1.5,0.6,1.4,1.5c-0.1,0.9-1,1.3-1.6,1.1c-3.8-1-4,2.2-5.3,4.4
		C224.9,589.2,219.7,584.4,224.1,579.3z"/>
	<path d="M402.4,534.3c4.1-7,1-15.1,3.7-22.3c0.6-1.6,1-3.3,2.8-4.6C408.1,516.9,406.3,525.8,402.4,534.3z"/>
	<path d="M370.5,133c-3.7,1.6-4.9,5.6-8.8,4.5c-1.2-0.4-3.1,0.7-2.3-2.4c0.4-1.7-3.4-0.1-4.9-1.8C359.5,131.8,364.5,132.8,370.5,133
		z"/>
	<path d="M121.1,288.6c-1.5-3.4,0.6-5.3,2.1-7.3c1.2-1.7,2.8-1.9,4.6-0.9c1.6,0.9,1.4,2.2,0.9,3.8c-0.6,1.9-1.1,2.1-3.2,1.1
		C123.5,284.3,123.1,287.6,121.1,288.6z"/>
	<path d="M473.7,282.4c-1.6-2-3.1-3.9-5.8-3.4c-1.7,0.3-3.1-0.4-2.7-2.3c0.3-1.6,1.8-2.2,3.4-2C471.5,274.9,473.8,278.2,473.7,282.4
		z"/>
	<path d="M151.8,460.1c0.1,2.1-1.6,4.2-2.7,3.7c-2.1-0.9-1.6-3.6-1.7-5.7c0-1.1-0.6-3.1,1.5-2.7
		C151.5,455.8,151.6,458.1,151.8,460.1z"/>
	<path d="M192.3,581.3c-0.7,0.5-1.4,1-2.1,1.5c-0.9-0.9-1.8-1.8-2.8-2.7c-1.1-1-2.6-1.9-1.2-3.5c1.2-1.3,2.6-0.6,3.9,0.3
		C191.7,578.1,192.7,579.3,192.3,581.3z"/>
	<path d="M136.9,486.3c0,0,0.1-0.1,0.1-0.1c-2.1-1.4-1.2-4.7-3.8-6c-0.5-0.2,1-1.5,2-1.6c1.9-0.3,3.1,0.8,3.5,2.5
		C139.1,483.1,137.8,484.7,136.9,486.3z"/>
	<path d="M271.4,300.4c3.6,3.5,2.1,7.6,1.4,11.6C270.4,308.4,271.9,304.2,271.4,300.4z"/>
	<path d="M224.8,597.6c5.8,0.3,2.1,5.6,4.4,7.7c-0.6,0.4-1.2,0.9-1.9,1.1c-0.9,0.3-1.3-0.5-1.4-1.2
		C225.5,602.6,225.2,600.1,224.8,597.6z"/>
	<path d="M292.8,572c1.8-0.4,4.6,0.8,4.2-3.5c2,1.9,3.9,3.9,2.6,5.2C297.1,576.3,295.1,572.8,292.8,572
		C292.8,571.9,292.8,572,292.8,572z"/>
	<path d="M269.7,527.7c2.8-1,4.6-0.7,6,1.2c0.2,0.3-0.1,1.4-0.3,1.5C273.1,531,271.9,529.2,269.7,527.7z"/>
	<path d="M444.2,297.8c2.7,1.8,4,3,3.2,5c-0.4,1.1-1.5,0.7-2.2,0.2C442.7,301.6,445.8,300.1,444.2,297.8z"/>
	<path d="M219.9,318.6c1.3-0.8,2.7-0.6,4.4-0.1c-1.4,1.8-2.6,3.5-4.4,5.9C220,322,220,320.3,219.9,318.6
		C220,318.5,219.9,318.6,219.9,318.6z"/>
	<path d="M147.2,478.5c0.3,3.6,0.5,5.8,0.9,9.4C145.5,484.5,145.1,482.3,147.2,478.5z"/>
	<path d="M408.5,264.3c0.3-0.2,0.6-0.3,0.9-0.5C409.3,264.6,409,264.6,408.5,264.3z"/>
	<path d="M280.6,119.7c0.3,0.6,0.6,1.2,0.9,1.8c-0.3-0.2-0.7-0.3-1-0.5C280.5,120.6,280.6,120.1,280.6,119.7z"/>
	<path d="M280.2,122.3C280.2,122.3,280.1,122.3,280.2,122.3C280.1,122.3,280.2,122.3,280.2,122.3z"/>
	<path d="M281.5,121.4c0.3,0.4,0.7,0.9,1,1.3C282.1,122.3,281.8,121.9,281.5,121.4z"/>
	<path d="M284,124.6c0,0-0.3,0.2-0.3,0.2c-0.2-0.3-0.3-0.5-0.5-0.8C283.5,124.2,283.7,124.4,284,124.6z"/>
	<path d="M282.3,122.9c0.3,0.4,0.7,0.9,1,1.3C283,123.7,282.6,123.3,282.3,122.9z"/>
	<path d="M271.9,118.4c-1.4,0.5-2.6,0.5-3.5-1c0.7-0.1,1.3-0.3,2-0.4C270.9,117.5,271.4,118,271.9,118.4
		C271.9,118.4,271.9,118.4,271.9,118.4z"/>
	<path d="M288.6,121.3c-1.8,0.4-1.6-1.2-2-2.1c0.3,0.2,0.7,0.4,1,0.5l-0.1-0.1c0.3,0.3,0.6,0.6,1,1c0,0,0.1,0.1,0.1,0.1
		C288.6,120.9,288.6,121.1,288.6,121.3z"/>
	<path d="M293.1,106.3c-0.2-0.3-0.7-0.7-0.6-0.9c0.2-0.8,0.8-0.3,1.3-0.2C293.6,105.5,293.4,105.9,293.1,106.3z"/>
	<path d="M288.5,119.7c0.4,0.3,0.8,0.6,1.2,0.8c-0.4,0.1-0.7,0.1-1.1,0.2c0,0-0.1-0.1-0.1-0.1C288.6,120.3,288.6,120,288.5,119.7
		L288.5,119.7z"/>
	<path d="M293.8,108c-0.8-0.3-0.8-0.9-0.6-1.5C293.4,107,293.6,107.5,293.8,108z"/>
	<path d="M291.5,122.4C291.5,122.4,291.6,122.4,291.5,122.4C291.6,122.4,291.5,122.4,291.5,122.4z"/>
	<polygon points="272.5,119.1 272.4,119.1 272.4,118.9 	"/>
	<path d="M286.8,117.5c0.3,0.5,0.6,0.9,0.9,1.4c-0.3,0.2-0.7,0.3-1,0.5C286.7,118.7,286.7,118.1,286.8,117.5z"/>
	<path d="M287.7,119.7c0-0.3,0-0.6,0-1c0.3,0.3,0.6,0.6,0.9,1c0,0,0-0.1,0-0.1C288.2,119.7,287.9,119.7,287.7,119.7
		C287.6,119.7,287.7,119.7,287.7,119.7z"/>
</g>
</svg>
